<svg xmlns="http://www.w3.org/2000/svg" xmlns:xlink="http://www.w3.org/1999/xlink" width="1920" zoomAndPan="magnify" viewBox="0 0 1440 809.999993" height="1080" preserveAspectRatio="xMidYMid meet" version="1.0"><defs><filter x="0%" y="0%" width="100%" height="100%" id="7a1cf83bed"><feColorMatrix values="0 0 0 0 1 0 0 0 0 1 0 0 0 0 1 0 0 0 1 0" color-interpolation-filters="sRGB"/></filter><g/><mask id="675ccaa8db"><g filter="url(#7a1cf83bed)"><rect x="-144" width="1728" fill="#000000" y="-80.999999" height="971.999992" fill-opacity="0.5"/></g></mask><clipPath id="2ad169c907"><path d="M 0 0 L 629.03125 0 L 629.03125 712.390625 L 0 712.390625 Z M 0 0 " clip-rule="nonzero"/></clipPath><clipPath id="7501e8d1da"><rect x="0" width="630" y="0" height="713"/></clipPath><mask id="3cdc0742b3"><g filter="url(#7a1cf83bed)"><rect x="-144" width="1728" fill="#000000" y="-80.999999" height="971.999992" fill-opacity="0.5"/></g></mask><clipPath id="4e0335e373"><path d="M 0.4375 0.519531 L 704 0.519531 L 704 729 L 0.4375 729 Z M 0.4375 0.519531 " clip-rule="nonzero"/></clipPath><clipPath id="89ab172fd6"><rect x="0" width="704" y="0" height="729"/></clipPath><clipPath id="4a307db4fe"><path d="M 208.691406 138.140625 L 1169.441406 138.140625 L 1169.441406 621.890625 L 208.691406 621.890625 Z M 208.691406 138.140625 " clip-rule="nonzero"/></clipPath><clipPath id="813e194842"><path d="M 208.691406 138.140625 L 1169.441406 138.140625 L 1169.441406 621.890625 L 208.691406 621.890625 Z M 208.691406 138.140625 " clip-rule="nonzero"/></clipPath></defs><rect x="-144" width="1728" fill="#ffffff" y="-80.999999" height="971.999992" fill-opacity="1"/><rect x="-144" width="1728" fill="#bdb2ff" y="-80.999999" height="971.999992" fill-opacity="1"/><g mask="url(#675ccaa8db)"><g transform="matrix(1, 0, 0, 1, 0, 0.000000000000039746)"><g clip-path="url(#7501e8d1da)"><g clip-path="url(#2ad169c907)"><path fill="#424651" d="M -187.71875 -101.949219 L -187.71875 709.953125 C -187.71875 711.300781 -186.628906 712.390625 -185.28125 712.390625 L 626.621094 712.390625 C 627.964844 712.390625 629.054688 711.300781 629.054688 709.953125 L 629.054688 -101.949219 C 629.054688 -103.292969 627.964844 -104.382812 626.621094 -104.382812 L -185.28125 -104.382812 C -186.628906 -104.382812 -187.71875 -103.292969 -187.71875 -101.949219 Z M 255.140625 338.472656 L 186.199219 338.472656 L 186.199219 269.53125 L 255.140625 269.53125 Z M 260.011719 269.53125 L 328.949219 269.53125 L 328.949219 338.472656 L 260.011719 338.472656 Z M 186.199219 412.28125 L 186.199219 343.34375 L 255.140625 343.34375 L 255.140625 412.28125 Z M 255.140625 417.152344 L 255.140625 486.089844 L 186.199219 486.089844 L 186.199219 417.152344 Z M 181.328125 338.472656 L 112.390625 338.472656 L 112.390625 269.53125 L 181.328125 269.53125 Z M 186.199219 264.660156 L 186.199219 195.722656 L 255.140625 195.722656 L 255.140625 264.660156 Z M 186.199219 190.851562 L 186.199219 121.914062 L 255.140625 121.914062 L 255.140625 190.851562 Z M 181.328125 190.851562 L 112.390625 190.851562 L 112.390625 121.914062 L 181.328125 121.914062 Z M 181.328125 195.722656 L 181.328125 264.660156 L 112.390625 264.660156 L 112.390625 195.722656 Z M 107.519531 264.660156 L 38.582031 264.660156 L 38.582031 195.722656 L 107.519531 195.722656 Z M 107.519531 269.53125 L 107.519531 338.472656 L 38.582031 338.472656 L 38.582031 269.53125 Z M 107.519531 343.34375 L 107.519531 412.28125 L 38.582031 412.28125 L 38.582031 343.34375 Z M 112.390625 343.34375 L 181.328125 343.34375 L 181.328125 412.28125 L 112.390625 412.28125 Z M 181.328125 417.152344 L 181.328125 486.089844 L 112.390625 486.089844 L 112.390625 417.152344 Z M 181.328125 490.960938 L 181.328125 559.898438 L 112.390625 559.898438 L 112.390625 490.960938 Z M 186.199219 490.960938 L 255.140625 490.960938 L 255.140625 559.898438 L 186.199219 559.898438 Z M 260.011719 490.960938 L 328.949219 490.960938 L 328.949219 559.898438 L 260.011719 559.898438 Z M 260.011719 486.089844 L 260.011719 417.152344 L 328.949219 417.152344 L 328.949219 486.089844 Z M 260.011719 412.28125 L 260.011719 343.34375 L 328.949219 343.34375 L 328.949219 412.28125 Z M 333.820312 343.34375 L 402.757812 343.34375 L 402.757812 412.28125 L 333.820312 412.28125 Z M 333.820312 338.472656 L 333.820312 269.53125 L 402.757812 269.53125 L 402.757812 338.472656 Z M 333.820312 264.660156 L 333.820312 195.722656 L 402.757812 195.722656 L 402.757812 264.660156 Z M 328.949219 264.660156 L 260.011719 264.660156 L 260.011719 195.722656 L 328.949219 195.722656 Z M 260.011719 190.851562 L 260.011719 121.914062 L 328.949219 121.914062 L 328.949219 190.851562 Z M 260.011719 117.042969 L 260.011719 48.105469 L 328.949219 48.105469 L 328.949219 117.042969 Z M 255.140625 117.042969 L 186.199219 117.042969 L 186.199219 48.105469 L 255.140625 48.105469 Z M 181.328125 117.042969 L 112.390625 117.042969 L 112.390625 48.105469 L 181.328125 48.105469 Z M 107.519531 117.042969 L 38.582031 117.042969 L 38.582031 48.105469 L 107.519531 48.105469 Z M 107.519531 121.914062 L 107.519531 190.851562 L 38.582031 190.851562 L 38.582031 121.914062 Z M 33.710938 190.851562 L -35.226562 190.851562 L -35.226562 121.914062 L 33.710938 121.914062 Z M 33.710938 195.722656 L 33.710938 264.660156 L -35.226562 264.660156 L -35.226562 195.722656 Z M 33.710938 269.53125 L 33.710938 338.472656 L -35.226562 338.472656 L -35.226562 269.53125 Z M 33.710938 343.34375 L 33.710938 412.28125 L -35.226562 412.28125 L -35.226562 343.34375 Z M 33.710938 417.152344 L 33.710938 486.089844 L -35.226562 486.089844 L -35.226562 417.152344 Z M 38.582031 417.152344 L 107.519531 417.152344 L 107.519531 486.089844 L 38.582031 486.089844 Z M 107.519531 490.960938 L 107.519531 559.898438 L 38.582031 559.898438 L 38.582031 490.960938 Z M 107.519531 564.769531 L 107.519531 633.707031 L 38.582031 633.707031 L 38.582031 564.769531 Z M 112.390625 564.769531 L 181.328125 564.769531 L 181.328125 633.707031 L 112.390625 633.707031 Z M 186.199219 564.769531 L 255.140625 564.769531 L 255.140625 633.707031 L 186.199219 633.707031 Z M 260.011719 564.769531 L 328.949219 564.769531 L 328.949219 633.707031 L 260.011719 633.707031 Z M 333.820312 564.769531 L 402.757812 564.769531 L 402.757812 633.707031 L 333.820312 633.707031 Z M 333.820312 559.898438 L 333.820312 490.960938 L 402.757812 490.960938 L 402.757812 559.898438 Z M 333.820312 486.089844 L 333.820312 417.152344 L 402.757812 417.152344 L 402.757812 486.089844 Z M 407.628906 417.152344 L 476.566406 417.152344 L 476.566406 486.089844 L 407.628906 486.089844 Z M 407.628906 412.28125 L 407.628906 343.34375 L 476.566406 343.34375 L 476.566406 412.28125 Z M 407.628906 338.472656 L 407.628906 269.53125 L 476.566406 269.53125 L 476.566406 338.472656 Z M 407.628906 264.660156 L 407.628906 195.722656 L 476.566406 195.722656 L 476.566406 264.660156 Z M 407.628906 190.851562 L 407.628906 121.914062 L 476.566406 121.914062 L 476.566406 190.851562 Z M 402.757812 190.851562 L 333.820312 190.851562 L 333.820312 121.914062 L 402.757812 121.914062 Z M 333.820312 117.042969 L 333.820312 48.105469 L 402.757812 48.105469 L 402.757812 117.042969 Z M 333.820312 43.234375 L 333.820312 -25.703125 L 402.757812 -25.703125 L 402.757812 43.234375 Z M 328.949219 43.234375 L 260.011719 43.234375 L 260.011719 -25.703125 L 328.949219 -25.703125 Z M 255.140625 43.234375 L 186.199219 43.234375 L 186.199219 -25.703125 L 255.140625 -25.703125 Z M 181.328125 43.234375 L 112.390625 43.234375 L 112.390625 -25.703125 L 181.328125 -25.703125 Z M 107.519531 43.234375 L 38.582031 43.234375 L 38.582031 -25.703125 L 107.519531 -25.703125 Z M 33.710938 43.234375 L -35.226562 43.234375 L -35.226562 -25.703125 L 33.710938 -25.703125 Z M 33.710938 48.105469 L 33.710938 117.042969 L -35.226562 117.042969 L -35.226562 48.105469 Z M -40.097656 117.042969 L -109.035156 117.042969 L -109.035156 48.105469 L -40.097656 48.105469 Z M -40.097656 121.914062 L -40.097656 190.851562 L -109.035156 190.851562 L -109.035156 121.914062 Z M -40.097656 195.722656 L -40.097656 264.660156 L -109.035156 264.660156 L -109.035156 195.722656 Z M -40.097656 269.53125 L -40.097656 338.472656 L -109.035156 338.472656 L -109.035156 269.53125 Z M -40.097656 343.34375 L -40.097656 412.28125 L -109.035156 412.28125 L -109.035156 343.34375 Z M -40.097656 417.152344 L -40.097656 486.089844 L -109.035156 486.089844 L -109.035156 417.152344 Z M -40.097656 490.960938 L -40.097656 559.898438 L -109.035156 559.898438 L -109.035156 490.960938 Z M -35.226562 490.960938 L 33.710938 490.960938 L 33.710938 559.898438 L -35.226562 559.898438 Z M 33.710938 564.769531 L 33.710938 633.707031 L -35.226562 633.707031 L -35.226562 564.769531 Z M 33.710938 638.578125 L 33.710938 707.519531 L -35.226562 707.519531 L -35.226562 638.578125 Z M 38.582031 638.578125 L 107.519531 638.578125 L 107.519531 707.519531 L 38.582031 707.519531 Z M 112.390625 638.578125 L 181.328125 638.578125 L 181.328125 707.519531 L 112.390625 707.519531 Z M 186.199219 638.578125 L 255.140625 638.578125 L 255.140625 707.519531 L 186.199219 707.519531 Z M 260.011719 638.578125 L 328.949219 638.578125 L 328.949219 707.519531 L 260.011719 707.519531 Z M 333.820312 638.578125 L 402.757812 638.578125 L 402.757812 707.519531 L 333.820312 707.519531 Z M 407.628906 638.578125 L 476.566406 638.578125 L 476.566406 707.519531 L 407.628906 707.519531 Z M 407.628906 633.707031 L 407.628906 564.769531 L 476.566406 564.769531 L 476.566406 633.707031 Z M 407.628906 559.898438 L 407.628906 490.960938 L 476.566406 490.960938 L 476.566406 559.898438 Z M 481.4375 490.960938 L 550.375 490.960938 L 550.375 559.898438 L 481.4375 559.898438 Z M 481.4375 486.089844 L 481.4375 417.152344 L 550.375 417.152344 L 550.375 486.089844 Z M 481.4375 412.28125 L 481.4375 343.34375 L 550.375 343.34375 L 550.375 412.28125 Z M 481.4375 338.472656 L 481.4375 269.53125 L 550.375 269.53125 L 550.375 338.472656 Z M 481.4375 264.660156 L 481.4375 195.722656 L 550.375 195.722656 L 550.375 264.660156 Z M 481.4375 190.851562 L 481.4375 121.914062 L 550.375 121.914062 L 550.375 190.851562 Z M 481.4375 117.042969 L 481.4375 48.105469 L 550.375 48.105469 L 550.375 117.042969 Z M 476.566406 117.042969 L 407.628906 117.042969 L 407.628906 48.105469 L 476.566406 48.105469 Z M 407.628906 43.234375 L 407.628906 -25.703125 L 476.566406 -25.703125 L 476.566406 43.234375 Z M 407.628906 -30.574219 L 407.628906 -99.511719 L 476.566406 -99.511719 L 476.566406 -30.574219 Z M 402.757812 -30.574219 L 333.820312 -30.574219 L 333.820312 -99.511719 L 402.757812 -99.511719 Z M 328.949219 -30.574219 L 260.011719 -30.574219 L 260.011719 -99.511719 L 328.949219 -99.511719 Z M 255.140625 -30.574219 L 186.199219 -30.574219 L 186.199219 -99.511719 L 255.140625 -99.511719 Z M 181.328125 -30.574219 L 112.390625 -30.574219 L 112.390625 -99.511719 L 181.328125 -99.511719 Z M 107.519531 -30.574219 L 38.582031 -30.574219 L 38.582031 -99.511719 L 107.519531 -99.511719 Z M 33.710938 -30.574219 L -35.226562 -30.574219 L -35.226562 -99.511719 L 33.710938 -99.511719 Z M -40.097656 -30.574219 L -109.035156 -30.574219 L -109.035156 -99.511719 L -40.097656 -99.511719 Z M -40.097656 -25.703125 L -40.097656 43.234375 L -109.035156 43.234375 L -109.035156 -25.703125 Z M -113.90625 43.234375 L -182.847656 43.234375 L -182.847656 -25.703125 L -113.90625 -25.703125 Z M -113.90625 48.105469 L -113.90625 117.042969 L -182.847656 117.042969 L -182.847656 48.105469 Z M -113.90625 121.914062 L -113.90625 190.851562 L -182.847656 190.851562 L -182.847656 121.914062 Z M -113.90625 195.722656 L -113.90625 264.660156 L -182.847656 264.660156 L -182.847656 195.722656 Z M -113.90625 269.53125 L -113.90625 338.472656 L -182.847656 338.472656 L -182.847656 269.53125 Z M -113.90625 343.34375 L -113.90625 412.28125 L -182.847656 412.28125 L -182.847656 343.34375 Z M -113.90625 417.152344 L -113.90625 486.089844 L -182.847656 486.089844 L -182.847656 417.152344 Z M -113.90625 490.960938 L -113.90625 559.898438 L -182.847656 559.898438 L -182.847656 490.960938 Z M -113.90625 564.769531 L -113.90625 633.707031 L -182.847656 633.707031 L -182.847656 564.769531 Z M -109.035156 564.769531 L -40.097656 564.769531 L -40.097656 633.707031 L -109.035156 633.707031 Z M -40.097656 638.578125 L -40.097656 707.519531 L -109.035156 707.519531 L -109.035156 638.578125 Z M 481.4375 707.519531 L 481.4375 638.578125 L 550.375 638.578125 L 550.375 707.519531 Z M 481.4375 633.707031 L 481.4375 564.769531 L 550.375 564.769531 L 550.375 633.707031 Z M 555.246094 564.769531 L 624.183594 564.769531 L 624.183594 633.707031 L 555.246094 633.707031 Z M 555.246094 559.898438 L 555.246094 490.960938 L 624.183594 490.960938 L 624.183594 559.898438 Z M 555.246094 486.089844 L 555.246094 417.152344 L 624.183594 417.152344 L 624.183594 486.089844 Z M 555.246094 412.28125 L 555.246094 343.34375 L 624.183594 343.34375 L 624.183594 412.28125 Z M 555.246094 338.472656 L 555.246094 269.53125 L 624.183594 269.53125 L 624.183594 338.472656 Z M 555.246094 264.660156 L 555.246094 195.722656 L 624.183594 195.722656 L 624.183594 264.660156 Z M 555.246094 190.851562 L 555.246094 121.914062 L 624.183594 121.914062 L 624.183594 190.851562 Z M 555.246094 117.042969 L 555.246094 48.105469 L 624.183594 48.105469 L 624.183594 117.042969 Z M 555.246094 43.234375 L 555.246094 -25.703125 L 624.183594 -25.703125 L 624.183594 43.234375 Z M 550.375 43.234375 L 481.4375 43.234375 L 481.4375 -25.703125 L 550.375 -25.703125 Z M 481.4375 -30.574219 L 481.4375 -99.511719 L 550.375 -99.511719 L 550.375 -30.574219 Z M -113.90625 -99.511719 L -113.90625 -30.574219 L -182.847656 -30.574219 L -182.847656 -99.511719 Z M -182.847656 638.578125 L -113.90625 638.578125 L -113.90625 707.519531 L -182.847656 707.519531 Z M 555.246094 707.519531 L 555.246094 638.578125 L 624.183594 638.578125 L 624.183594 707.519531 Z M 624.183594 -30.574219 L 555.246094 -30.574219 L 555.246094 -99.511719 L 624.183594 -99.511719 Z M 624.183594 -30.574219 " fill-opacity="1" fill-rule="nonzero"/></g></g></g></g><g mask="url(#3cdc0742b3)"><g transform="matrix(1, 0, 0, 1, 736, 81)"><g clip-path="url(#89ab172fd6)"><g clip-path="url(#4e0335e373)"><path fill="#424651" d="M 0.4375 2.929688 L 0.4375 814.832031 C 0.4375 816.179688 1.527344 817.269531 2.871094 817.269531 L 814.773438 817.269531 C 816.117188 817.269531 817.210938 816.179688 817.210938 814.832031 L 817.210938 2.929688 C 817.210938 1.585938 816.117188 0.496094 814.773438 0.496094 L 2.871094 0.496094 C 1.527344 0.496094 0.4375 1.585938 0.4375 2.929688 Z M 443.292969 443.351562 L 374.355469 443.351562 L 374.355469 374.414062 L 443.292969 374.414062 Z M 448.164062 374.414062 L 517.101562 374.414062 L 517.101562 443.351562 L 448.164062 443.351562 Z M 374.355469 517.160156 L 374.355469 448.222656 L 443.292969 448.222656 L 443.292969 517.160156 Z M 443.292969 522.03125 L 443.292969 590.972656 L 374.355469 590.972656 L 374.355469 522.03125 Z M 369.484375 443.351562 L 300.542969 443.351562 L 300.542969 374.414062 L 369.484375 374.414062 Z M 374.355469 369.539062 L 374.355469 300.605469 L 443.292969 300.605469 L 443.292969 369.539062 Z M 374.355469 295.734375 L 374.355469 226.792969 L 443.292969 226.792969 L 443.292969 295.734375 Z M 369.484375 295.734375 L 300.542969 295.734375 L 300.542969 226.792969 L 369.484375 226.792969 Z M 369.484375 300.605469 L 369.484375 369.539062 L 300.542969 369.539062 L 300.542969 300.605469 Z M 295.671875 369.539062 L 226.734375 369.539062 L 226.734375 300.605469 L 295.671875 300.605469 Z M 295.671875 374.414062 L 295.671875 443.351562 L 226.734375 443.351562 L 226.734375 374.414062 Z M 295.671875 448.222656 L 295.671875 517.160156 L 226.734375 517.160156 L 226.734375 448.222656 Z M 300.542969 448.222656 L 369.484375 448.222656 L 369.484375 517.160156 L 300.542969 517.160156 Z M 369.484375 522.03125 L 369.484375 590.972656 L 300.542969 590.972656 L 300.542969 522.03125 Z M 369.484375 595.839844 L 369.484375 664.78125 L 300.542969 664.78125 L 300.542969 595.839844 Z M 374.355469 595.839844 L 443.292969 595.839844 L 443.292969 664.78125 L 374.355469 664.78125 Z M 448.164062 595.839844 L 517.101562 595.839844 L 517.101562 664.78125 L 448.164062 664.78125 Z M 448.164062 590.96875 L 448.164062 522.03125 L 517.101562 522.03125 L 517.101562 590.96875 Z M 448.164062 517.160156 L 448.164062 448.222656 L 517.101562 448.222656 L 517.101562 517.160156 Z M 521.972656 448.222656 L 590.910156 448.222656 L 590.910156 517.160156 L 521.972656 517.160156 Z M 521.972656 443.351562 L 521.972656 374.414062 L 590.910156 374.414062 L 590.910156 443.351562 Z M 521.972656 369.539062 L 521.972656 300.605469 L 590.910156 300.605469 L 590.910156 369.539062 Z M 517.101562 369.539062 L 448.164062 369.539062 L 448.164062 300.605469 L 517.101562 300.605469 Z M 448.164062 295.734375 L 448.164062 226.792969 L 517.101562 226.792969 L 517.101562 295.734375 Z M 448.164062 221.921875 L 448.164062 152.984375 L 517.101562 152.984375 L 517.101562 221.921875 Z M 443.292969 221.921875 L 374.355469 221.921875 L 374.355469 152.984375 L 443.292969 152.984375 Z M 369.484375 221.921875 L 300.542969 221.921875 L 300.542969 152.984375 L 369.484375 152.984375 Z M 295.671875 221.921875 L 226.734375 221.921875 L 226.734375 152.984375 L 295.671875 152.984375 Z M 295.671875 226.792969 L 295.671875 295.734375 L 226.734375 295.734375 L 226.734375 226.792969 Z M 221.863281 295.734375 L 152.925781 295.734375 L 152.925781 226.792969 L 221.863281 226.792969 Z M 221.863281 300.605469 L 221.863281 369.539062 L 152.925781 369.539062 L 152.925781 300.605469 Z M 221.863281 374.414062 L 221.863281 443.351562 L 152.925781 443.351562 L 152.925781 374.414062 Z M 221.863281 448.222656 L 221.863281 517.160156 L 152.925781 517.160156 L 152.925781 448.222656 Z M 221.863281 522.03125 L 221.863281 590.972656 L 152.925781 590.972656 L 152.925781 522.03125 Z M 226.734375 522.03125 L 295.675781 522.03125 L 295.675781 590.972656 L 226.734375 590.972656 Z M 295.671875 595.839844 L 295.671875 664.78125 L 226.734375 664.78125 L 226.734375 595.839844 Z M 295.671875 669.652344 L 295.671875 738.585938 L 226.734375 738.585938 L 226.734375 669.648438 L 295.671875 669.648438 Z M 300.542969 669.652344 L 369.484375 669.652344 L 369.484375 738.585938 L 300.542969 738.585938 Z M 374.355469 669.652344 L 443.292969 669.652344 L 443.292969 738.585938 L 374.355469 738.585938 Z M 448.164062 669.652344 L 517.101562 669.652344 L 517.101562 738.585938 L 448.164062 738.585938 Z M 521.972656 669.652344 L 590.910156 669.652344 L 590.910156 738.585938 L 521.972656 738.585938 Z M 521.972656 664.78125 L 521.972656 595.839844 L 590.910156 595.839844 L 590.910156 664.78125 Z M 521.972656 590.96875 L 521.972656 522.03125 L 590.910156 522.03125 L 590.910156 590.96875 Z M 595.78125 522.03125 L 664.71875 522.03125 L 664.71875 590.972656 L 595.78125 590.972656 Z M 595.78125 517.160156 L 595.78125 448.222656 L 664.71875 448.222656 L 664.71875 517.160156 Z M 595.78125 443.351562 L 595.78125 374.414062 L 664.71875 374.414062 L 664.71875 443.351562 Z M 595.78125 369.539062 L 595.78125 300.605469 L 664.71875 300.605469 L 664.71875 369.539062 Z M 595.78125 295.734375 L 595.78125 226.792969 L 664.71875 226.792969 L 664.71875 295.734375 Z M 590.910156 295.734375 L 521.972656 295.734375 L 521.972656 226.792969 L 590.910156 226.792969 Z M 521.972656 221.921875 L 521.972656 152.984375 L 590.910156 152.984375 L 590.910156 221.921875 Z M 521.972656 148.113281 L 521.972656 79.175781 L 590.910156 79.175781 L 590.910156 148.113281 Z M 517.101562 148.113281 L 448.164062 148.113281 L 448.164062 79.175781 L 517.101562 79.175781 Z M 443.292969 148.113281 L 374.355469 148.113281 L 374.355469 79.175781 L 443.292969 79.175781 Z M 369.484375 148.113281 L 300.542969 148.113281 L 300.542969 79.175781 L 369.484375 79.175781 Z M 295.671875 148.113281 L 226.734375 148.113281 L 226.734375 79.175781 L 295.671875 79.175781 Z M 221.863281 148.113281 L 152.925781 148.113281 L 152.925781 79.175781 L 221.863281 79.175781 Z M 221.863281 152.984375 L 221.863281 221.921875 L 152.925781 221.921875 L 152.925781 152.984375 Z M 148.054688 221.921875 L 79.117188 221.921875 L 79.117188 152.984375 L 148.054688 152.984375 Z M 148.054688 226.792969 L 148.054688 295.734375 L 79.117188 295.734375 L 79.117188 226.792969 Z M 148.054688 300.605469 L 148.054688 369.539062 L 79.117188 369.539062 L 79.117188 300.605469 Z M 148.054688 374.414062 L 148.054688 443.351562 L 79.117188 443.351562 L 79.117188 374.414062 Z M 148.054688 448.222656 L 148.054688 517.160156 L 79.117188 517.160156 L 79.117188 448.222656 Z M 148.054688 522.03125 L 148.054688 590.972656 L 79.117188 590.972656 L 79.117188 522.03125 Z M 148.054688 595.839844 L 148.054688 664.78125 L 79.117188 664.78125 L 79.117188 595.839844 Z M 152.925781 595.839844 L 221.863281 595.839844 L 221.863281 664.78125 L 152.925781 664.78125 Z M 221.863281 669.652344 L 221.863281 738.585938 L 152.925781 738.585938 L 152.925781 669.648438 L 221.863281 669.648438 Z M 221.863281 743.460938 L 221.863281 812.398438 L 152.925781 812.398438 L 152.925781 743.460938 Z M 226.734375 743.460938 L 295.675781 743.460938 L 295.675781 812.398438 L 226.734375 812.398438 Z M 300.542969 743.460938 L 369.484375 743.460938 L 369.484375 812.398438 L 300.542969 812.398438 Z M 374.355469 743.460938 L 443.292969 743.460938 L 443.292969 812.398438 L 374.355469 812.398438 Z M 448.164062 743.460938 L 517.101562 743.460938 L 517.101562 812.398438 L 448.164062 812.398438 Z M 521.972656 743.460938 L 590.910156 743.460938 L 590.910156 812.398438 L 521.972656 812.398438 Z M 595.78125 743.460938 L 664.71875 743.460938 L 664.71875 812.398438 L 595.78125 812.398438 Z M 595.78125 738.585938 L 595.78125 669.648438 L 664.71875 669.648438 L 664.71875 738.585938 Z M 595.78125 664.78125 L 595.78125 595.839844 L 664.71875 595.839844 L 664.71875 664.78125 Z M 669.589844 595.839844 L 738.53125 595.839844 L 738.53125 664.78125 L 669.589844 664.78125 Z M 669.589844 590.96875 L 669.589844 522.03125 L 738.53125 522.03125 L 738.53125 590.96875 Z M 669.589844 517.160156 L 669.589844 448.222656 L 738.53125 448.222656 L 738.53125 517.160156 Z M 669.589844 443.351562 L 669.589844 374.414062 L 738.53125 374.414062 L 738.53125 443.351562 Z M 669.589844 369.539062 L 669.589844 300.605469 L 738.53125 300.605469 L 738.53125 369.539062 Z M 669.589844 295.734375 L 669.589844 226.792969 L 738.53125 226.792969 L 738.53125 295.734375 Z M 669.589844 221.921875 L 669.589844 152.984375 L 738.53125 152.984375 L 738.53125 221.921875 Z M 664.71875 221.921875 L 595.78125 221.921875 L 595.78125 152.984375 L 664.71875 152.984375 Z M 595.78125 148.113281 L 595.78125 79.175781 L 664.71875 79.175781 L 664.71875 148.113281 Z M 595.78125 74.304688 L 595.78125 5.367188 L 664.71875 5.367188 L 664.71875 74.304688 Z M 590.910156 74.304688 L 521.972656 74.304688 L 521.972656 5.367188 L 590.910156 5.367188 Z M 517.101562 74.304688 L 448.164062 74.304688 L 448.164062 5.367188 L 517.101562 5.367188 Z M 443.292969 74.304688 L 374.355469 74.304688 L 374.355469 5.367188 L 443.292969 5.367188 Z M 369.484375 74.304688 L 300.542969 74.304688 L 300.542969 5.367188 L 369.484375 5.367188 Z M 295.671875 74.304688 L 226.734375 74.304688 L 226.734375 5.367188 L 295.671875 5.367188 Z M 221.863281 74.304688 L 152.925781 74.304688 L 152.925781 5.367188 L 221.863281 5.367188 Z M 148.054688 74.304688 L 79.117188 74.304688 L 79.117188 5.367188 L 148.054688 5.367188 Z M 148.054688 79.175781 L 148.054688 148.113281 L 79.117188 148.113281 L 79.117188 79.175781 Z M 74.246094 148.113281 L 5.308594 148.113281 L 5.308594 79.175781 L 74.246094 79.175781 Z M 74.246094 152.984375 L 74.246094 221.921875 L 5.308594 221.921875 L 5.308594 152.984375 Z M 74.246094 226.792969 L 74.246094 295.734375 L 5.308594 295.734375 L 5.308594 226.792969 Z M 74.246094 300.605469 L 74.246094 369.539062 L 5.308594 369.539062 L 5.308594 300.605469 Z M 74.246094 374.414062 L 74.246094 443.351562 L 5.308594 443.351562 L 5.308594 374.414062 Z M 74.246094 448.222656 L 74.246094 517.160156 L 5.308594 517.160156 L 5.308594 448.222656 Z M 74.246094 522.03125 L 74.246094 590.972656 L 5.308594 590.972656 L 5.308594 522.03125 Z M 74.246094 595.839844 L 74.246094 664.78125 L 5.308594 664.78125 L 5.308594 595.839844 Z M 74.246094 669.652344 L 74.246094 738.585938 L 5.308594 738.585938 L 5.308594 669.648438 L 74.246094 669.648438 Z M 79.117188 669.652344 L 148.054688 669.652344 L 148.054688 738.585938 L 79.117188 738.585938 Z M 148.054688 743.460938 L 148.054688 812.398438 L 79.117188 812.398438 L 79.117188 743.460938 Z M 669.589844 812.398438 L 669.589844 743.460938 L 738.53125 743.460938 L 738.53125 812.398438 Z M 669.589844 738.585938 L 669.589844 669.648438 L 738.53125 669.648438 L 738.53125 738.585938 Z M 743.402344 669.652344 L 812.339844 669.652344 L 812.339844 738.585938 L 743.402344 738.585938 Z M 743.402344 664.78125 L 743.402344 595.839844 L 812.339844 595.839844 L 812.339844 664.78125 Z M 743.402344 590.96875 L 743.402344 522.03125 L 812.339844 522.03125 L 812.339844 590.96875 Z M 743.402344 517.160156 L 743.402344 448.222656 L 812.339844 448.222656 L 812.339844 517.160156 Z M 743.402344 443.351562 L 743.402344 374.414062 L 812.339844 374.414062 L 812.339844 443.351562 Z M 743.402344 369.539062 L 743.402344 300.605469 L 812.339844 300.605469 L 812.339844 369.539062 Z M 743.402344 295.734375 L 743.402344 226.792969 L 812.339844 226.792969 L 812.339844 295.734375 Z M 743.402344 221.921875 L 743.402344 152.984375 L 812.339844 152.984375 L 812.339844 221.921875 Z M 743.402344 148.113281 L 743.402344 79.175781 L 812.339844 79.175781 L 812.339844 148.113281 Z M 738.53125 148.113281 L 669.589844 148.113281 L 669.589844 79.175781 L 738.53125 79.175781 Z M 669.589844 74.304688 L 669.589844 5.367188 L 738.53125 5.367188 L 738.53125 74.304688 Z M 74.246094 5.367188 L 74.246094 74.304688 L 5.308594 74.304688 L 5.308594 5.367188 Z M 5.308594 743.460938 L 74.246094 743.460938 L 74.246094 812.398438 L 5.308594 812.398438 Z M 743.402344 812.398438 L 743.402344 743.460938 L 812.339844 743.460938 L 812.339844 812.398438 Z M 812.339844 74.304688 L 743.402344 74.304688 L 743.402344 5.367188 L 812.339844 5.367188 Z M 812.339844 74.304688 " fill-opacity="1" fill-rule="nonzero"/></g></g></g></g><g clip-path="url(#4a307db4fe)"><path fill="#aef496" d="M 208.691406 138.8125 L 1169.496094 138.8125 L 1169.496094 621.410156 L 208.691406 621.410156 Z M 208.691406 138.8125 " fill-opacity="1" fill-rule="nonzero"/></g><path fill="#9bd5c1" d="M 390.285156 209.886719 C 377.976562 209.886719 367.902344 199.8125 367.902344 187.5 C 367.902344 175.1875 377.972656 165.113281 390.285156 165.113281 C 402.597656 165.113281 412.671875 175.1875 412.671875 187.5 C 412.671875 199.8125 402.597656 209.886719 390.285156 209.886719 Z M 390.285156 209.886719 " fill-opacity="1" fill-rule="nonzero"/><path fill="#eeec7c" d="M 325.195312 209.886719 C 312.886719 209.886719 302.8125 199.816406 302.8125 187.503906 C 302.8125 175.191406 312.882812 165.117188 325.195312 165.117188 C 337.507812 165.117188 347.582031 175.1875 347.582031 187.503906 C 347.582031 199.8125 337.507812 209.886719 325.195312 209.886719 Z M 325.195312 209.886719 " fill-opacity="1" fill-rule="nonzero"/><path fill="#f27070" d="M 265.769531 209.886719 C 253.460938 209.886719 243.386719 199.8125 243.386719 187.5 C 243.386719 175.1875 253.457031 165.113281 265.769531 165.113281 C 278.082031 165.113281 288.15625 175.1875 288.15625 187.5 C 288.15625 199.8125 278.085938 209.886719 265.769531 209.886719 Z M 265.769531 209.886719 " fill-opacity="1" fill-rule="nonzero"/><g clip-path="url(#813e194842)"><path fill="#0d0d0d" d="M 265.773438 211.023438 C 278.742188 211.023438 289.292969 200.472656 289.292969 187.5 C 289.292969 174.53125 278.742188 163.980469 265.773438 163.980469 C 252.804688 163.980469 242.25 174.53125 242.25 187.5 C 242.25 200.472656 252.804688 211.023438 265.773438 211.023438 Z M 265.773438 168.375 C 276.316406 168.375 284.898438 176.953125 284.898438 187.5 C 284.898438 198.046875 276.316406 206.628906 265.773438 206.628906 C 255.226562 206.628906 246.644531 198.046875 246.644531 187.5 C 246.644531 176.953125 255.222656 168.375 265.773438 168.375 Z M 208.691406 138.8125 L 208.691406 621.410156 L 1169.496094 621.410156 L 1169.496094 138.8125 Z M 1165.097656 617.015625 L 213.085938 617.015625 L 213.085938 231.296875 L 1165.101562 231.296875 L 1165.101562 617.015625 Z M 1165.097656 226.902344 L 213.085938 226.902344 L 213.085938 143.207031 L 1165.101562 143.207031 L 1165.101562 226.902344 Z M 325.199219 211.023438 C 338.167969 211.023438 348.71875 200.472656 348.71875 187.5 C 348.71875 174.53125 338.167969 163.980469 325.199219 163.980469 C 312.226562 163.980469 301.675781 174.53125 301.675781 187.5 C 301.675781 200.472656 312.226562 211.023438 325.199219 211.023438 Z M 325.199219 168.375 C 335.746094 168.375 344.324219 176.953125 344.324219 187.5 C 344.324219 198.046875 335.746094 206.628906 325.199219 206.628906 C 314.652344 206.628906 306.070312 198.046875 306.070312 187.5 C 306.070312 176.953125 314.652344 168.375 325.199219 168.375 Z M 389.152344 211.023438 C 402.117188 211.023438 412.667969 200.472656 412.667969 187.5 C 412.667969 174.53125 402.117188 163.980469 389.152344 163.980469 C 376.179688 163.980469 365.628906 174.53125 365.628906 187.5 C 365.628906 200.472656 376.179688 211.023438 389.152344 211.023438 Z M 389.152344 168.375 C 399.695312 168.375 408.277344 176.953125 408.277344 187.5 C 408.277344 198.046875 399.695312 206.628906 389.152344 206.628906 C 378.601562 206.628906 370.023438 198.046875 370.023438 187.5 C 370.023438 176.953125 378.601562 168.375 389.152344 168.375 Z M 389.152344 168.375 " fill-opacity="1" fill-rule="nonzero"/></g><g fill="#e5b2f1" fill-opacity="1"><g transform="translate(338.342626, 367.789689)"><g><path d="M 62.84375 0 L 11.59375 0 C 10.195312 0 9.1875 -0.3125 8.5625 -0.9375 C 7.9375 -1.5625 7.625 -2.570312 7.625 -3.96875 L 7.625 -75.546875 C 7.625 -76.941406 7.9375 -77.953125 8.5625 -78.578125 C 9.1875 -79.203125 10.195312 -79.515625 11.59375 -79.515625 L 62.84375 -79.515625 C 64.238281 -79.515625 65.25 -79.203125 65.875 -78.578125 C 66.5 -77.953125 66.8125 -76.941406 66.8125 -75.546875 L 66.8125 -62.625 C 66.8125 -61.21875 66.5 -60.203125 65.875 -59.578125 C 65.25 -58.953125 64.238281 -58.640625 62.84375 -58.640625 L 32.359375 -58.640625 L 32.359375 -50.140625 L 53.890625 -50.140625 C 55.285156 -50.140625 56.296875 -49.828125 56.921875 -49.203125 C 57.554688 -48.578125 57.875 -47.5625 57.875 -46.15625 L 57.875 -34.34375 C 57.875 -32.945312 57.554688 -31.9375 56.921875 -31.3125 C 56.296875 -30.6875 55.285156 -30.375 53.890625 -30.375 L 32.359375 -30.375 L 32.359375 -20.875 L 62.84375 -20.875 C 64.238281 -20.875 65.25 -20.5625 65.875 -19.9375 C 66.5 -19.3125 66.8125 -18.296875 66.8125 -16.890625 L 66.8125 -3.96875 C 66.8125 -2.570312 66.5 -1.5625 65.875 -0.9375 C 65.25 -0.3125 64.238281 0 62.84375 0 Z M 62.84375 0 "/></g></g></g><g fill="#e5b2f1" fill-opacity="1"><g transform="translate(410.561113, 367.789689)"><g><path d="M 48.8125 0 L 11.59375 0 C 10.195312 0 9.1875 -0.3125 8.5625 -0.9375 C 7.9375 -1.5625 7.625 -2.570312 7.625 -3.96875 L 7.625 -75.546875 C 7.625 -76.941406 7.9375 -77.953125 8.5625 -78.578125 C 9.1875 -79.203125 10.195312 -79.515625 11.59375 -79.515625 L 48.8125 -79.515625 C 58.019531 -79.515625 64.847656 -77.671875 69.296875 -73.984375 C 73.753906 -70.304688 75.984375 -64.640625 75.984375 -56.984375 L 75.984375 -22.53125 C 75.984375 -14.875 73.753906 -9.203125 69.296875 -5.515625 C 64.847656 -1.835938 58.019531 0 48.8125 0 Z M 32.6875 -58.421875 L 32.6875 -20.875 L 45.828125 -20.875 C 47.597656 -20.875 48.90625 -21.3125 49.75 -22.1875 C 50.59375 -23.070312 51.015625 -24.4375 51.015625 -26.28125 L 51.015625 -53.125 C 51.015625 -54.957031 50.59375 -56.296875 49.75 -57.140625 C 48.90625 -57.992188 47.597656 -58.421875 45.828125 -58.421875 Z M 32.6875 -58.421875 "/></g></g></g><g fill="#e5b2f1" fill-opacity="1"><g transform="translate(492.938783, 367.789689)"><g><path d="M 9.828125 0 C 8.429688 0 7.421875 -0.3125 6.796875 -0.9375 C 6.171875 -1.5625 5.859375 -2.570312 5.859375 -3.96875 L 5.859375 -17.125 C 5.859375 -18.519531 6.171875 -19.53125 6.796875 -20.15625 C 7.421875 -20.78125 8.429688 -21.09375 9.828125 -21.09375 L 20.765625 -21.09375 L 20.765625 -58.203125 L 9.828125 -58.203125 C 8.429688 -58.203125 7.421875 -58.515625 6.796875 -59.140625 C 6.171875 -59.765625 5.859375 -60.773438 5.859375 -62.171875 L 5.859375 -75.546875 C 5.859375 -76.941406 6.171875 -77.953125 6.796875 -78.578125 C 7.421875 -79.203125 8.429688 -79.515625 9.828125 -79.515625 L 56.875 -79.515625 C 58.269531 -79.515625 59.28125 -79.203125 59.90625 -78.578125 C 60.53125 -77.953125 60.84375 -76.941406 60.84375 -75.546875 L 60.84375 -62.171875 C 60.84375 -60.773438 60.53125 -59.765625 59.90625 -59.140625 C 59.28125 -58.515625 58.269531 -58.203125 56.875 -58.203125 L 46.15625 -58.203125 L 46.15625 -21.09375 L 56.875 -21.09375 C 58.269531 -21.09375 59.28125 -20.78125 59.90625 -20.15625 C 60.53125 -19.53125 60.84375 -18.519531 60.84375 -17.125 L 60.84375 -3.96875 C 60.84375 -2.570312 60.53125 -1.5625 59.90625 -0.9375 C 59.28125 -0.3125 58.269531 0 56.875 0 Z M 9.828125 0 "/></g></g></g><g fill="#e5b2f1" fill-opacity="1"><g transform="translate(559.746424, 367.789689)"><g><path d="M 60.515625 0 L 33.578125 0 C 24.367188 0 17.535156 -1.835938 13.078125 -5.515625 C 8.628906 -9.203125 6.40625 -14.875 6.40625 -22.53125 L 6.40625 -56.875 C 6.40625 -64.53125 8.628906 -70.21875 13.078125 -73.9375 C 17.535156 -77.65625 24.367188 -79.515625 33.578125 -79.515625 L 60.515625 -79.515625 C 61.921875 -79.515625 62.9375 -79.203125 63.5625 -78.578125 C 64.1875 -77.953125 64.5 -76.941406 64.5 -75.546875 L 64.5 -62.171875 C 64.5 -60.773438 64.1875 -59.765625 63.5625 -59.140625 C 62.9375 -58.515625 61.921875 -58.203125 60.515625 -58.203125 L 38.328125 -58.203125 C 36.035156 -58.203125 34.335938 -57.738281 33.234375 -56.8125 C 32.128906 -55.894531 31.578125 -54.515625 31.578125 -52.671875 L 31.578125 -26.390625 C 31.578125 -24.554688 32.128906 -23.210938 33.234375 -22.359375 C 34.335938 -21.515625 36.035156 -21.09375 38.328125 -21.09375 L 60.515625 -21.09375 C 61.921875 -21.09375 62.9375 -20.78125 63.5625 -20.15625 C 64.1875 -19.53125 64.5 -18.519531 64.5 -17.125 L 64.5 -3.96875 C 64.5 -2.570312 64.1875 -1.5625 63.5625 -0.9375 C 62.9375 -0.3125 61.921875 0 60.515625 0 Z M 60.515625 0 "/></g></g></g><g fill="#e5b2f1" fill-opacity="1"><g transform="translate(629.09384, 367.789689)"><g><path d="M 9.828125 0 C 8.429688 0 7.421875 -0.3125 6.796875 -0.9375 C 6.171875 -1.5625 5.859375 -2.570312 5.859375 -3.96875 L 5.859375 -17.125 C 5.859375 -18.519531 6.171875 -19.53125 6.796875 -20.15625 C 7.421875 -20.78125 8.429688 -21.09375 9.828125 -21.09375 L 20.765625 -21.09375 L 20.765625 -58.203125 L 9.828125 -58.203125 C 8.429688 -58.203125 7.421875 -58.515625 6.796875 -59.140625 C 6.171875 -59.765625 5.859375 -60.773438 5.859375 -62.171875 L 5.859375 -75.546875 C 5.859375 -76.941406 6.171875 -77.953125 6.796875 -78.578125 C 7.421875 -79.203125 8.429688 -79.515625 9.828125 -79.515625 L 56.875 -79.515625 C 58.269531 -79.515625 59.28125 -79.203125 59.90625 -78.578125 C 60.53125 -77.953125 60.84375 -76.941406 60.84375 -75.546875 L 60.84375 -62.171875 C 60.84375 -60.773438 60.53125 -59.765625 59.90625 -59.140625 C 59.28125 -58.515625 58.269531 -58.203125 56.875 -58.203125 L 46.15625 -58.203125 L 46.15625 -21.09375 L 56.875 -21.09375 C 58.269531 -21.09375 59.28125 -20.78125 59.90625 -20.15625 C 60.53125 -19.53125 60.84375 -18.519531 60.84375 -17.125 L 60.84375 -3.96875 C 60.84375 -2.570312 60.53125 -1.5625 59.90625 -0.9375 C 59.28125 -0.3125 58.269531 0 56.875 0 Z M 9.828125 0 "/></g></g></g><g fill="#e5b2f1" fill-opacity="1"><g transform="translate(695.901469, 367.789689)"><g><path d="M 74.984375 -20.875 C 74.984375 -17.488281 74.484375 -14.414062 73.484375 -11.65625 C 72.492188 -8.894531 70.726562 -6.535156 68.1875 -4.578125 C 65.65625 -2.628906 62.160156 -1.101562 57.703125 0 C 53.242188 1.101562 47.59375 1.65625 40.75 1.65625 C 33.90625 1.65625 28.234375 1.101562 23.734375 0 C 19.242188 -1.101562 15.726562 -2.628906 13.1875 -4.578125 C 10.65625 -6.535156 8.890625 -8.894531 7.890625 -11.65625 C 6.898438 -14.414062 6.40625 -17.488281 6.40625 -20.875 L 6.40625 -58.53125 C 6.40625 -61.914062 6.898438 -64.988281 7.890625 -67.75 C 8.890625 -70.507812 10.65625 -72.882812 13.1875 -74.875 C 15.726562 -76.863281 19.242188 -78.410156 23.734375 -79.515625 C 28.234375 -80.617188 33.90625 -81.171875 40.75 -81.171875 C 47.59375 -81.171875 53.242188 -80.617188 57.703125 -79.515625 C 62.160156 -78.410156 65.65625 -76.863281 68.1875 -74.875 C 70.726562 -72.882812 72.492188 -70.507812 73.484375 -67.75 C 74.484375 -64.988281 74.984375 -61.914062 74.984375 -58.53125 Z M 31.46875 -24.84375 C 31.46875 -23.375 32.019531 -22.140625 33.125 -21.140625 C 34.226562 -20.148438 36.769531 -19.65625 40.75 -19.65625 C 44.726562 -19.65625 47.269531 -20.148438 48.375 -21.140625 C 49.476562 -22.140625 50.03125 -23.375 50.03125 -24.84375 L 50.03125 -54.5625 C 50.03125 -55.957031 49.476562 -57.148438 48.375 -58.140625 C 47.269531 -59.140625 44.726562 -59.640625 40.75 -59.640625 C 36.769531 -59.640625 34.226562 -59.140625 33.125 -58.140625 C 32.019531 -57.148438 31.46875 -55.957031 31.46875 -54.5625 Z M 59.75 -87.90625 L 21.203125 -83.15625 C 19.953125 -83.007812 19.015625 -83.265625 18.390625 -83.921875 C 17.765625 -84.585938 17.453125 -85.546875 17.453125 -86.796875 L 17.453125 -97.40625 C 17.453125 -98.800781 17.765625 -99.773438 18.390625 -100.328125 C 19.015625 -100.878906 20.023438 -101.226562 21.421875 -101.375 L 59.96875 -106.125 C 61.21875 -106.269531 62.15625 -106.007812 62.78125 -105.34375 C 63.40625 -104.6875 63.71875 -103.734375 63.71875 -102.484375 L 63.71875 -91.890625 C 63.71875 -90.484375 63.40625 -89.503906 62.78125 -88.953125 C 62.15625 -88.398438 61.144531 -88.050781 59.75 -87.90625 Z M 59.75 -87.90625 "/></g></g></g><g fill="#e5b2f1" fill-opacity="1"><g transform="translate(777.285322, 367.789689)"><g><path d="M 28.15625 0 L 11.59375 0 C 10.195312 0 9.1875 -0.3125 8.5625 -0.9375 C 7.9375 -1.5625 7.625 -2.570312 7.625 -3.96875 L 7.625 -75.546875 C 7.625 -76.941406 7.9375 -77.953125 8.5625 -78.578125 C 9.1875 -79.203125 10.195312 -79.515625 11.59375 -79.515625 L 23.078125 -79.515625 C 24.484375 -79.515625 25.679688 -79.289062 26.671875 -78.84375 C 27.660156 -78.40625 28.632812 -77.632812 29.59375 -76.53125 L 51.015625 -52.015625 L 51.015625 -75.546875 C 51.015625 -76.941406 51.328125 -77.953125 51.953125 -78.578125 C 52.585938 -79.203125 53.601562 -79.515625 55 -79.515625 L 71.5625 -79.515625 C 72.957031 -79.515625 73.96875 -79.203125 74.59375 -78.578125 C 75.226562 -77.953125 75.546875 -76.941406 75.546875 -75.546875 L 75.546875 -3.96875 C 75.546875 -2.570312 75.226562 -1.5625 74.59375 -0.9375 C 73.96875 -0.3125 72.957031 0 71.5625 0 L 55 0 C 53.601562 0 52.585938 -0.3125 51.953125 -0.9375 C 51.328125 -1.5625 51.015625 -2.570312 51.015625 -3.96875 L 51.015625 -17.5625 L 32.140625 -40.421875 L 32.140625 -3.96875 C 32.140625 -2.570312 31.828125 -1.5625 31.203125 -0.9375 C 30.578125 -0.3125 29.5625 0 28.15625 0 Z M 28.15625 0 "/></g></g></g><g fill="#e5b2f1" fill-opacity="1"><g transform="translate(860.435983, 367.789689)"><g/></g></g><g fill="#e5b2f1" fill-opacity="1"><g transform="translate(885.281792, 367.789689)"><g><path d="M 48.8125 0 L 11.59375 0 C 10.195312 0 9.1875 -0.3125 8.5625 -0.9375 C 7.9375 -1.5625 7.625 -2.570312 7.625 -3.96875 L 7.625 -75.546875 C 7.625 -76.941406 7.9375 -77.953125 8.5625 -78.578125 C 9.1875 -79.203125 10.195312 -79.515625 11.59375 -79.515625 L 48.8125 -79.515625 C 58.019531 -79.515625 64.847656 -77.671875 69.296875 -73.984375 C 73.753906 -70.304688 75.984375 -64.640625 75.984375 -56.984375 L 75.984375 -22.53125 C 75.984375 -14.875 73.753906 -9.203125 69.296875 -5.515625 C 64.847656 -1.835938 58.019531 0 48.8125 0 Z M 32.6875 -58.421875 L 32.6875 -20.875 L 45.828125 -20.875 C 47.597656 -20.875 48.90625 -21.3125 49.75 -22.1875 C 50.59375 -23.070312 51.015625 -24.4375 51.015625 -26.28125 L 51.015625 -53.125 C 51.015625 -54.957031 50.59375 -56.296875 49.75 -57.140625 C 48.90625 -57.992188 47.597656 -58.421875 45.828125 -58.421875 Z M 32.6875 -58.421875 "/></g></g></g><g fill="#e5b2f1" fill-opacity="1"><g transform="translate(967.659474, 367.789689)"><g><path d="M 62.84375 0 L 11.59375 0 C 10.195312 0 9.1875 -0.3125 8.5625 -0.9375 C 7.9375 -1.5625 7.625 -2.570312 7.625 -3.96875 L 7.625 -75.546875 C 7.625 -76.941406 7.9375 -77.953125 8.5625 -78.578125 C 9.1875 -79.203125 10.195312 -79.515625 11.59375 -79.515625 L 62.84375 -79.515625 C 64.238281 -79.515625 65.25 -79.203125 65.875 -78.578125 C 66.5 -77.953125 66.8125 -76.941406 66.8125 -75.546875 L 66.8125 -62.625 C 66.8125 -61.21875 66.5 -60.203125 65.875 -59.578125 C 65.25 -58.953125 64.238281 -58.640625 62.84375 -58.640625 L 32.359375 -58.640625 L 32.359375 -50.140625 L 53.890625 -50.140625 C 55.285156 -50.140625 56.296875 -49.828125 56.921875 -49.203125 C 57.554688 -48.578125 57.875 -47.5625 57.875 -46.15625 L 57.875 -34.34375 C 57.875 -32.945312 57.554688 -31.9375 56.921875 -31.3125 C 56.296875 -30.6875 55.285156 -30.375 53.890625 -30.375 L 32.359375 -30.375 L 32.359375 -20.875 L 62.84375 -20.875 C 64.238281 -20.875 65.25 -20.5625 65.875 -19.9375 C 66.5 -19.3125 66.8125 -18.296875 66.8125 -16.890625 L 66.8125 -3.96875 C 66.8125 -2.570312 66.5 -1.5625 65.875 -0.9375 C 65.25 -0.3125 64.238281 0 62.84375 0 Z M 62.84375 0 "/></g></g></g><path stroke-linecap="butt" transform="matrix(0.75, 0, 0, 0.75, 278.998879, 250.789695)" fill="none" stroke-linejoin="miter" d="M 162.91817 155.999165 L 94.584833 155.999165 C 92.715042 155.999165 91.360875 155.582498 90.522333 154.743957 C 89.704625 153.905415 89.298375 152.561665 89.298375 150.717915 L 89.298375 55.275202 C 89.298375 53.431452 89.704625 52.087702 90.522333 51.24916 C 91.360875 50.410618 92.715042 49.993951 94.584833 49.993951 L 162.91817 49.993951 C 164.76192 49.993951 166.10567 50.410618 166.944212 51.24916 C 167.782754 52.087702 168.204629 53.431452 168.204629 55.275202 L 168.204629 72.530411 C 168.204629 74.374161 167.782754 75.717911 166.944212 76.556453 C 166.10567 77.394994 164.76192 77.816869 162.91817 77.816869 L 122.261918 77.816869 L 122.261918 89.139787 L 150.985878 89.139787 C 152.850461 89.139787 154.194211 89.556453 155.01192 90.394995 C 155.850461 91.233537 156.267128 92.587704 156.267128 94.457495 L 156.267128 110.202288 C 156.267128 112.07208 155.850461 113.426246 155.01192 114.264788 C 154.194211 115.10333 152.850461 115.525205 150.985878 115.525205 L 122.261918 115.525205 L 122.261918 128.176247 L 162.91817 128.176247 C 164.76192 128.176247 166.10567 128.598122 166.944212 129.436664 C 167.782754 130.249164 168.204629 131.592914 168.204629 133.462706 L 168.204629 150.717915 C 168.204629 152.561665 167.782754 153.905415 166.944212 154.743957 C 166.10567 155.582498 164.76192 155.999165 162.91817 155.999165 Z M 240.480674 155.999165 L 190.871296 155.999165 C 189.006713 155.999165 187.652546 155.582498 186.814005 154.743957 C 185.996296 153.905415 185.590046 152.561665 185.590046 150.717915 L 185.590046 55.275202 C 185.590046 53.431452 185.996296 52.087702 186.814005 51.24916 C 187.652546 50.410618 189.006713 49.993951 190.871296 49.993951 L 240.480674 49.993951 C 252.751508 49.993951 261.855675 52.447077 267.798384 57.358535 C 273.746301 62.24916 276.715051 69.796036 276.715051 80.009578 L 276.715051 125.94708 C 276.715051 136.155414 273.746301 143.717914 267.798384 148.629373 C 261.855675 153.54604 252.751508 155.999165 240.480674 155.999165 Z M 218.985881 78.103328 L 218.985881 128.176247 L 236.527549 128.176247 C 238.876507 128.176247 240.610882 127.587705 241.741091 126.41583 C 242.866091 125.238747 243.428591 123.421038 243.428591 120.952288 L 243.428591 85.181453 C 243.428591 82.717911 242.866091 80.915828 241.741091 79.790828 C 240.610882 78.665828 238.876507 78.103328 236.527549 78.103328 Z M 298.37651 155.999165 C 296.506718 155.999165 295.152552 155.582498 294.31401 154.743957 C 293.475468 153.905415 293.053593 152.561665 293.053593 150.717915 L 293.053593 133.171039 C 293.053593 131.306455 293.475468 129.962705 294.31401 129.144997 C 295.152552 128.306455 296.506718 127.889789 298.37651 127.889789 L 312.933803 127.889789 L 312.933803 78.389786 L 298.37651 78.389786 C 296.506718 78.389786 295.152552 77.983536 294.31401 77.165828 C 293.475468 76.327286 293.053593 74.973119 293.053593 73.103328 L 293.053593 55.275202 C 293.053593 53.431452 293.475468 52.087702 294.31401 51.24916 C 295.152552 50.410618 296.506718 49.993951 298.37651 49.993951 L 361.064013 49.993951 C 362.933805 49.993951 364.287972 50.410618 365.126514 51.24916 C 365.965055 52.087702 366.38693 53.431452 366.38693 55.275202 L 366.38693 73.103328 C 366.38693 74.973119 365.965055 76.327286 365.126514 77.165828 C 364.287972 77.983536 362.933805 78.389786 361.064013 78.389786 L 346.793179 78.389786 L 346.793179 127.889789 L 361.064013 127.889789 C 362.933805 127.889789 364.287972 128.306455 365.126514 129.144997 C 365.965055 129.962705 366.38693 131.306455 366.38693 133.171039 L 366.38693 150.717915 C 366.38693 152.561665 365.965055 153.905415 365.126514 154.743957 C 364.287972 155.582498 362.933805 155.999165 361.064013 155.999165 Z M 455.032768 155.999165 L 419.08485 155.999165 C 406.814016 155.999165 397.709849 153.54604 391.761932 148.629373 C 385.845265 143.717914 382.886931 136.155414 382.886931 125.94708 L 382.886931 80.186661 C 382.886931 69.978327 385.845265 62.394994 391.761932 57.431452 C 397.709849 52.473118 406.814016 49.993951 419.08485 49.993951 L 455.032768 49.993951 C 456.876518 49.993951 458.220268 50.410618 459.05881 51.24916 C 459.897352 52.087702 460.314018 53.431452 460.314018 55.275202 L 460.314018 73.103328 C 460.314018 74.973119 459.897352 76.327286 459.05881 77.165828 C 458.220268 77.983536 456.876518 78.389786 455.032768 78.389786 L 425.412975 78.389786 C 422.3661 78.389786 420.100475 79.014786 418.6161 80.259578 C 417.157766 81.483536 416.423391 83.31687 416.423391 85.759578 L 416.423391 120.806455 C 416.423391 123.254372 417.157766 125.051247 418.6161 126.202289 C 420.100475 127.327289 422.3661 127.889789 425.412975 127.889789 L 455.032768 127.889789 C 456.876518 127.889789 458.220268 128.306455 459.05881 129.144997 C 459.897352 129.962705 460.314018 131.306455 460.314018 133.171039 L 460.314018 150.717915 C 460.314018 152.561665 459.897352 153.905415 459.05881 154.743957 C 458.220268 155.582498 456.876518 155.999165 455.032768 155.999165 Z M 479.912978 155.999165 C 478.043186 155.999165 476.689019 155.582498 475.850477 154.743957 C 475.011936 153.905415 474.595269 152.561665 474.595269 150.717915 L 474.595269 133.171039 C 474.595269 131.306455 475.011936 129.962705 475.850477 129.144997 C 476.689019 128.306455 478.043186 127.889789 479.912978 127.889789 L 494.47027 127.889789 L 494.47027 78.389786 L 479.912978 78.389786 C 478.043186 78.389786 476.689019 77.983536 475.850477 77.165828 C 475.011936 76.327286 474.595269 74.973119 474.595269 73.103328 L 474.595269 55.275202 C 474.595269 53.431452 475.011936 52.087702 475.850477 51.24916 C 476.689019 50.410618 478.043186 49.993951 479.912978 49.993951 L 542.605689 49.993951 C 544.475481 49.993951 545.829648 50.410618 546.668189 51.24916 C 547.506731 52.087702 547.928606 53.431452 547.928606 55.275202 L 547.928606 73.103328 C 547.928606 74.973119 547.506731 76.327286 546.668189 77.165828 C 545.829648 77.983536 544.475481 78.389786 542.605689 78.389786 L 528.334855 78.389786 L 528.334855 127.889789 L 542.605689 127.889789 C 544.475481 127.889789 545.829648 128.306455 546.668189 129.144997 C 547.506731 129.962705 547.928606 131.306455 547.928606 133.171039 L 547.928606 150.717915 C 547.928606 152.561665 547.506731 153.905415 546.668189 154.743957 C 545.829648 155.582498 544.475481 155.999165 542.605689 155.999165 Z M 655.84007 128.176247 C 655.84007 132.681456 655.178612 136.780414 653.860903 140.473123 C 652.543195 144.139789 650.18382 147.275206 646.782778 149.88979 C 643.402569 152.499165 638.741111 154.535623 632.798402 155.999165 C 626.855693 157.462707 619.319235 158.191874 610.189026 158.191874 C 601.053609 158.191874 593.496317 157.462707 587.501525 155.999165 C 581.537983 154.535623 576.850483 152.499165 573.449441 149.88979 C 570.069232 147.275206 567.720274 144.139789 566.402565 140.473123 C 565.084857 136.780414 564.423399 132.681456 564.423399 128.176247 L 564.423399 77.957494 C 564.423399 73.452286 565.084857 69.368952 566.402565 65.702286 C 567.720274 62.009577 570.069232 58.832494 573.449441 56.176243 C 576.850483 53.514785 581.537983 51.452285 587.501525 49.993951 C 593.496317 48.504368 601.053609 47.764785 610.189026 47.764785 C 619.319235 47.764785 626.855693 48.504368 632.798402 49.993951 C 638.741111 51.452285 643.402569 53.514785 646.782778 56.176243 C 650.18382 58.832494 652.543195 62.009577 653.860903 65.702286 C 655.178612 69.368952 655.84007 73.452286 655.84007 77.957494 Z M 597.819234 122.858538 C 597.819234 124.82208 598.553609 126.473122 600.011942 127.816872 C 601.501525 129.13458 604.892151 129.796039 610.189026 129.796039 C 615.506735 129.796039 618.89736 129.13458 620.360901 127.816872 C 621.819235 126.473122 622.55361 124.82208 622.55361 122.858538 L 622.55361 83.280411 C 622.55361 81.41062 621.819235 79.81687 620.360901 78.499161 C 618.89736 77.155411 615.506735 76.483536 610.189026 76.483536 C 604.892151 76.483536 601.501525 77.155411 600.011942 78.499161 C 598.553609 79.81687 597.819234 81.41062 597.819234 83.280411 Z M 635.527569 38.811659 L 584.126525 45.139784 C 582.449441 45.332493 581.189024 44.983534 580.350483 44.098118 C 579.537983 43.207493 579.126524 41.941868 579.126524 40.285618 L 579.126524 26.124159 C 579.126524 24.2752 579.537983 22.983533 580.350483 22.238742 C 581.189024 21.499158 582.543191 21.030408 584.412983 20.8377 L 635.819236 14.509575 C 637.470277 14.322075 638.715069 14.665825 639.553611 15.55645 C 640.392152 16.415825 640.814027 17.686658 640.814027 19.363742 L 640.814027 33.493951 C 640.814027 35.358534 640.392152 36.665826 639.553611 37.410617 C 638.715069 38.129367 637.376527 38.598117 635.527569 38.811659 Z M 701.912989 155.999165 L 679.840071 155.999165 C 677.970279 155.999165 676.616113 155.582498 675.777571 154.743957 C 674.959863 153.905415 674.553612 152.561665 674.553612 150.717915 L 674.553612 55.275202 C 674.553612 53.431452 674.959863 52.087702 675.777571 51.24916 C 676.616113 50.410618 677.970279 49.993951 679.840071 49.993951 L 695.152572 49.993951 C 697.022364 49.993951 698.616114 50.290826 699.933822 50.889785 C 701.25153 51.46791 702.558822 52.483535 703.850489 53.947077 L 732.392157 86.655412 L 732.392157 55.275202 C 732.392157 53.431452 732.814032 52.087702 733.652574 51.24916 C 734.491116 50.410618 735.845282 49.993951 737.715074 49.993951 L 759.787992 49.993951 C 761.657784 49.993951 763.006742 50.410618 763.850492 51.24916 C 764.689034 52.087702 765.1057 53.431452 765.1057 55.275202 L 765.1057 150.717915 C 765.1057 152.561665 764.689034 153.905415 763.850492 154.743957 C 763.006742 155.582498 761.657784 155.999165 759.787992 155.999165 L 737.715074 155.999165 C 735.845282 155.999165 734.491116 155.582498 733.652574 154.743957 C 732.814032 153.905415 732.392157 152.561665 732.392157 150.717915 L 732.392157 132.598122 L 707.230697 102.113746 L 707.230697 150.717915 C 707.230697 152.561665 706.814031 153.905415 705.975489 154.743957 C 705.131739 155.582498 703.777572 155.999165 701.912989 155.999165 Z M 873.444247 155.999165 L 823.83487 155.999165 C 821.965078 155.999165 820.610912 155.582498 819.77237 154.743957 C 818.95987 153.905415 818.548411 152.561665 818.548411 150.717915 L 818.548411 55.275202 C 818.548411 53.431452 818.95987 52.087702 819.77237 51.24916 C 820.610912 50.410618 821.965078 49.993951 823.83487 49.993951 L 873.444247 49.993951 C 885.709873 49.993951 894.819249 52.447077 900.761957 57.358535 C 906.704666 62.24916 909.678624 69.796036 909.678624 80.009578 L 909.678624 125.94708 C 909.678624 136.155414 906.704666 143.717914 900.761957 148.629373 C 894.819249 153.54604 885.709873 155.999165 873.444247 155.999165 Z M 851.944246 78.103328 L 851.944246 128.176247 L 869.485914 128.176247 C 871.834872 128.176247 873.574456 127.587705 874.699456 126.41583 C 875.824456 125.238747 876.386956 123.421038 876.386956 120.952288 L 876.386956 85.181453 C 876.386956 82.717911 875.824456 80.915828 874.699456 79.790828 C 873.574456 78.665828 871.834872 78.103328 869.485914 78.103328 Z M 1002.006754 155.999165 L 933.673417 155.999165 C 931.803625 155.999165 930.449459 155.582498 929.610917 154.743957 C 928.793209 153.905415 928.386959 152.561665 928.386959 150.717915 L 928.386959 55.275202 C 928.386959 53.431452 928.793209 52.087702 929.610917 51.24916 C 930.449459 50.410618 931.803625 49.993951 933.673417 49.993951 L 1002.006754 49.993951 C 1003.850504 49.993951 1005.194254 50.410618 1006.032796 51.24916 C 1006.871338 52.087702 1007.293213 53.431452 1007.293213 55.275202 L 1007.293213 72.530411 C 1007.293213 74.374161 1006.871338 75.717911 1006.032796 76.556453 C 1005.194254 77.394994 1003.850504 77.816869 1002.006754 77.816869 L 961.350502 77.816869 L 961.350502 89.139787 L 990.074462 89.139787 C 991.944253 89.139787 993.282795 89.556453 994.100504 90.394995 C 994.939045 91.233537 995.355712 92.587704 995.355712 94.457495 L 995.355712 110.202288 C 995.355712 112.07208 994.939045 113.426246 994.100504 114.264788 C 993.282795 115.10333 991.944253 115.525205 990.074462 115.525205 L 961.350502 115.525205 L 961.350502 128.176247 L 1002.006754 128.176247 C 1003.850504 128.176247 1005.194254 128.598122 1006.032796 129.436664 C 1006.871338 130.249164 1007.293213 131.592914 1007.293213 133.462706 L 1007.293213 150.717915 C 1007.293213 152.561665 1006.871338 153.905415 1006.032796 154.743957 C 1005.194254 155.582498 1003.850504 155.999165 1002.006754 155.999165 Z M 1002.006754 155.999165 " stroke="#000000" stroke-width="6.442012" stroke-opacity="1" stroke-miterlimit="4"/><g fill="#e5b2f1" fill-opacity="1"><g transform="translate(461.518404, 522.289681)"><g><path d="M 54.671875 0 L 25.953125 0 C 24.554688 0 23.394531 -0.253906 22.46875 -0.765625 C 21.550781 -1.285156 20.835938 -2.242188 20.328125 -3.640625 L 9.5 -30.703125 C 8.832031 -32.316406 8.273438 -33.734375 7.828125 -34.953125 C 7.390625 -36.171875 7.023438 -37.332031 6.734375 -38.4375 C 6.441406 -39.539062 6.238281 -40.695312 6.125 -41.90625 C 6.019531 -43.125 5.96875 -44.617188 5.96875 -46.390625 L 5.96875 -75.546875 C 5.96875 -76.941406 6.28125 -77.953125 6.90625 -78.578125 C 7.53125 -79.203125 8.539062 -79.515625 9.9375 -79.515625 L 27.5 -79.515625 C 28.894531 -79.515625 29.960938 -79.203125 30.703125 -78.578125 C 31.441406 -77.953125 31.8125 -76.941406 31.8125 -75.546875 L 31.8125 -45.0625 C 31.8125 -44.320312 31.882812 -43.582031 32.03125 -42.84375 C 32.175781 -42.113281 32.394531 -41.34375 32.6875 -40.53125 L 37.875 -25.0625 C 38.101562 -24.332031 38.363281 -23.835938 38.65625 -23.578125 C 38.945312 -23.316406 39.390625 -23.1875 39.984375 -23.1875 L 41.1875 -23.1875 C 41.78125 -23.1875 42.222656 -23.316406 42.515625 -23.578125 C 42.804688 -23.835938 43.066406 -24.332031 43.296875 -25.0625 L 48.484375 -40.640625 C 48.773438 -41.453125 48.992188 -42.222656 49.140625 -42.953125 C 49.285156 -43.691406 49.359375 -44.429688 49.359375 -45.171875 L 49.359375 -75.546875 C 49.359375 -76.941406 49.671875 -77.953125 50.296875 -78.578125 C 50.929688 -79.203125 51.945312 -79.515625 53.34375 -79.515625 L 70.6875 -79.515625 C 72.082031 -79.515625 73.09375 -79.203125 73.71875 -78.578125 C 74.34375 -77.953125 74.65625 -76.941406 74.65625 -75.546875 L 74.65625 -46.390625 C 74.65625 -44.617188 74.597656 -43.125 74.484375 -41.90625 C 74.378906 -40.695312 74.175781 -39.539062 73.875 -38.4375 C 73.582031 -37.332031 73.210938 -36.171875 72.765625 -34.953125 C 72.328125 -33.734375 71.78125 -32.316406 71.125 -30.703125 L 60.296875 -3.640625 C 59.785156 -2.242188 59.066406 -1.285156 58.140625 -0.765625 C 57.222656 -0.253906 56.066406 0 54.671875 0 Z M 54.671875 0 "/></g></g></g><g fill="#e5b2f1" fill-opacity="1"><g transform="translate(542.129255, 522.289681)"><g><path d="M 9.828125 0 C 8.429688 0 7.421875 -0.3125 6.796875 -0.9375 C 6.171875 -1.5625 5.859375 -2.570312 5.859375 -3.96875 L 5.859375 -17.125 C 5.859375 -18.519531 6.171875 -19.53125 6.796875 -20.15625 C 7.421875 -20.78125 8.429688 -21.09375 9.828125 -21.09375 L 20.765625 -21.09375 L 20.765625 -58.203125 L 9.828125 -58.203125 C 8.429688 -58.203125 7.421875 -58.515625 6.796875 -59.140625 C 6.171875 -59.765625 5.859375 -60.773438 5.859375 -62.171875 L 5.859375 -75.546875 C 5.859375 -76.941406 6.171875 -77.953125 6.796875 -78.578125 C 7.421875 -79.203125 8.429688 -79.515625 9.828125 -79.515625 L 56.875 -79.515625 C 58.269531 -79.515625 59.28125 -79.203125 59.90625 -78.578125 C 60.53125 -77.953125 60.84375 -76.941406 60.84375 -75.546875 L 60.84375 -62.171875 C 60.84375 -60.773438 60.53125 -59.765625 59.90625 -59.140625 C 59.28125 -58.515625 58.269531 -58.203125 56.875 -58.203125 L 46.15625 -58.203125 L 46.15625 -21.09375 L 56.875 -21.09375 C 58.269531 -21.09375 59.28125 -20.78125 59.90625 -20.15625 C 60.53125 -19.53125 60.84375 -18.519531 60.84375 -17.125 L 60.84375 -3.96875 C 60.84375 -2.570312 60.53125 -1.5625 59.90625 -0.9375 C 59.28125 -0.3125 58.269531 0 56.875 0 Z M 9.828125 0 "/></g></g></g><g fill="#e5b2f1" fill-opacity="1"><g transform="translate(608.936884, 522.289681)"><g><path d="M 48.8125 0 L 11.59375 0 C 10.195312 0 9.1875 -0.3125 8.5625 -0.9375 C 7.9375 -1.5625 7.625 -2.570312 7.625 -3.96875 L 7.625 -75.546875 C 7.625 -76.941406 7.9375 -77.953125 8.5625 -78.578125 C 9.1875 -79.203125 10.195312 -79.515625 11.59375 -79.515625 L 48.8125 -79.515625 C 58.019531 -79.515625 64.847656 -77.671875 69.296875 -73.984375 C 73.753906 -70.304688 75.984375 -64.640625 75.984375 -56.984375 L 75.984375 -22.53125 C 75.984375 -14.875 73.753906 -9.203125 69.296875 -5.515625 C 64.847656 -1.835938 58.019531 0 48.8125 0 Z M 32.6875 -58.421875 L 32.6875 -20.875 L 45.828125 -20.875 C 47.597656 -20.875 48.90625 -21.3125 49.75 -22.1875 C 50.59375 -23.070312 51.015625 -24.4375 51.015625 -26.28125 L 51.015625 -53.125 C 51.015625 -54.957031 50.59375 -56.296875 49.75 -57.140625 C 48.90625 -57.992188 47.597656 -58.421875 45.828125 -58.421875 Z M 32.6875 -58.421875 "/></g></g></g><g fill="#e5b2f1" fill-opacity="1"><g transform="translate(691.314566, 522.289681)"><g><path d="M 62.84375 0 L 11.59375 0 C 10.195312 0 9.1875 -0.3125 8.5625 -0.9375 C 7.9375 -1.5625 7.625 -2.570312 7.625 -3.96875 L 7.625 -75.546875 C 7.625 -76.941406 7.9375 -77.953125 8.5625 -78.578125 C 9.1875 -79.203125 10.195312 -79.515625 11.59375 -79.515625 L 62.84375 -79.515625 C 64.238281 -79.515625 65.25 -79.203125 65.875 -78.578125 C 66.5 -77.953125 66.8125 -76.941406 66.8125 -75.546875 L 66.8125 -62.625 C 66.8125 -61.21875 66.5 -60.203125 65.875 -59.578125 C 65.25 -58.953125 64.238281 -58.640625 62.84375 -58.640625 L 32.359375 -58.640625 L 32.359375 -50.140625 L 53.890625 -50.140625 C 55.285156 -50.140625 56.296875 -49.828125 56.921875 -49.203125 C 57.554688 -48.578125 57.875 -47.5625 57.875 -46.15625 L 57.875 -34.34375 C 57.875 -32.945312 57.554688 -31.9375 56.921875 -31.3125 C 56.296875 -30.6875 55.285156 -30.375 53.890625 -30.375 L 32.359375 -30.375 L 32.359375 -20.875 L 62.84375 -20.875 C 64.238281 -20.875 65.25 -20.5625 65.875 -19.9375 C 66.5 -19.3125 66.8125 -18.296875 66.8125 -16.890625 L 66.8125 -3.96875 C 66.8125 -2.570312 66.5 -1.5625 65.875 -0.9375 C 65.25 -0.3125 64.238281 0 62.84375 0 Z M 62.84375 0 "/></g></g></g><g fill="#e5b2f1" fill-opacity="1"><g transform="translate(763.533053, 522.289681)"><g><path d="M 74.984375 -20.875 C 74.984375 -17.488281 74.484375 -14.414062 73.484375 -11.65625 C 72.492188 -8.894531 70.726562 -6.535156 68.1875 -4.578125 C 65.65625 -2.628906 62.160156 -1.101562 57.703125 0 C 53.242188 1.101562 47.59375 1.65625 40.75 1.65625 C 33.90625 1.65625 28.234375 1.101562 23.734375 0 C 19.242188 -1.101562 15.726562 -2.628906 13.1875 -4.578125 C 10.65625 -6.535156 8.890625 -8.894531 7.890625 -11.65625 C 6.898438 -14.414062 6.40625 -17.488281 6.40625 -20.875 L 6.40625 -58.53125 C 6.40625 -61.914062 6.898438 -64.988281 7.890625 -67.75 C 8.890625 -70.507812 10.65625 -72.882812 13.1875 -74.875 C 15.726562 -76.863281 19.242188 -78.410156 23.734375 -79.515625 C 28.234375 -80.617188 33.90625 -81.171875 40.75 -81.171875 C 47.59375 -81.171875 53.242188 -80.617188 57.703125 -79.515625 C 62.160156 -78.410156 65.65625 -76.863281 68.1875 -74.875 C 70.726562 -72.882812 72.492188 -70.507812 73.484375 -67.75 C 74.484375 -64.988281 74.984375 -61.914062 74.984375 -58.53125 Z M 31.46875 -24.84375 C 31.46875 -23.375 32.019531 -22.140625 33.125 -21.140625 C 34.226562 -20.148438 36.769531 -19.65625 40.75 -19.65625 C 44.726562 -19.65625 47.269531 -20.148438 48.375 -21.140625 C 49.476562 -22.140625 50.03125 -23.375 50.03125 -24.84375 L 50.03125 -54.5625 C 50.03125 -55.957031 49.476562 -57.148438 48.375 -58.140625 C 47.269531 -59.140625 44.726562 -59.640625 40.75 -59.640625 C 36.769531 -59.640625 34.226562 -59.140625 33.125 -58.140625 C 32.019531 -57.148438 31.46875 -55.957031 31.46875 -54.5625 Z M 31.46875 -24.84375 "/></g></g></g><g fill="#e5b2f1" fill-opacity="1"><g transform="translate(844.916884, 522.289681)"><g><path d="M 44.5 0 L 9.609375 0 C 8.210938 0 7.195312 -0.3125 6.5625 -0.9375 C 5.9375 -1.5625 5.625 -2.570312 5.625 -3.96875 L 5.625 -16.890625 C 5.625 -18.296875 5.9375 -19.3125 6.5625 -19.9375 C 7.195312 -20.5625 8.210938 -20.875 9.609375 -20.875 L 39.3125 -20.875 C 40.269531 -20.875 40.988281 -21.1875 41.46875 -21.8125 C 41.945312 -22.4375 42.1875 -23.191406 42.1875 -24.078125 C 42.1875 -25.328125 41.945312 -26.242188 41.46875 -26.828125 C 40.988281 -27.421875 40.269531 -27.753906 39.3125 -27.828125 L 22.75 -30.15625 C 17.59375 -30.882812 13.445312 -32.570312 10.3125 -35.21875 C 7.1875 -37.875 5.625 -42.296875 5.625 -48.484375 L 5.625 -60.078125 C 5.625 -66.335938 7.648438 -71.140625 11.703125 -74.484375 C 15.753906 -77.835938 21.351562 -79.515625 28.5 -79.515625 L 59.421875 -79.515625 C 60.816406 -79.515625 61.828125 -79.203125 62.453125 -78.578125 C 63.078125 -77.953125 63.390625 -76.941406 63.390625 -75.546875 L 63.390625 -62.390625 C 63.390625 -60.992188 63.078125 -59.984375 62.453125 -59.359375 C 61.828125 -58.734375 60.816406 -58.421875 59.421875 -58.421875 L 33.6875 -58.421875 C 32.726562 -58.421875 31.988281 -58.109375 31.46875 -57.484375 C 30.957031 -56.859375 30.703125 -56.066406 30.703125 -55.109375 C 30.703125 -54.148438 30.957031 -53.335938 31.46875 -52.671875 C 31.988281 -52.015625 32.726562 -51.648438 33.6875 -51.578125 L 50.140625 -49.359375 C 55.296875 -48.628906 59.453125 -46.9375 62.609375 -44.28125 C 65.773438 -41.632812 67.359375 -37.21875 67.359375 -31.03125 L 67.359375 -19.4375 C 67.359375 -13.175781 65.316406 -8.367188 61.234375 -5.015625 C 57.148438 -1.671875 51.570312 0 44.5 0 Z M 44.5 0 "/></g></g></g><path stroke-linecap="butt" transform="matrix(0.75, 0, 0, 0.75, 278.998879, 250.789695)" fill="none" stroke-linejoin="miter" d="M 316.261928 361.999175 L 277.975468 361.999175 C 276.105676 361.999175 274.548384 361.665842 273.303592 360.993967 C 272.079634 360.29605 271.136926 359.0148 270.46505 357.145009 L 256.011925 321.056465 C 255.126508 318.900215 254.381716 317.020007 253.782758 315.410631 C 253.209841 313.780423 252.71505 312.238756 252.3088 310.775215 C 251.928591 309.290839 251.662966 307.743964 251.517133 306.139798 C 251.376508 304.509589 251.303591 302.520006 251.303591 300.171047 L 251.303591 261.275212 C 251.303591 259.431462 251.725466 258.087712 252.564008 257.24917 C 253.40255 256.410628 254.756716 255.993962 256.6213 255.993962 L 280.027551 255.993962 C 281.897343 255.993962 283.319218 256.410628 284.303593 257.24917 C 285.287968 258.087712 285.777551 259.431462 285.777551 261.275212 L 285.777551 301.931464 C 285.777551 302.915839 285.871301 303.895006 286.06401 304.879381 C 286.256718 305.863756 286.543176 306.895006 286.928593 307.973131 L 293.866093 328.566882 C 294.152552 329.551257 294.485885 330.223132 294.871302 330.582507 C 295.277552 330.915841 295.87651 331.087716 296.668177 331.087716 L 298.287969 331.087716 C 299.079635 331.087716 299.662969 330.915841 300.048385 330.582507 C 300.433802 330.223132 300.777552 329.551257 301.090052 328.566882 L 307.991094 307.827298 C 308.402552 306.749173 308.699427 305.717923 308.892136 304.733548 C 309.084844 303.754381 309.178594 302.770006 309.178594 301.790839 L 309.178594 261.275212 C 309.178594 259.431462 309.600469 258.087712 310.439011 257.24917 C 311.277553 256.410628 312.616094 255.993962 314.465053 255.993962 L 337.579637 255.993962 C 339.444221 255.993962 340.798387 256.410628 341.636929 257.24917 C 342.475471 258.087712 342.897346 259.431462 342.897346 261.275212 L 342.897346 300.171047 C 342.897346 302.520006 342.824429 304.509589 342.683804 306.139798 C 342.537971 307.743964 342.261929 309.290839 341.855679 310.775215 C 341.470262 312.238756 340.980679 313.780423 340.381721 315.410631 C 339.803596 317.020007 339.074429 318.900215 338.189012 321.056465 L 323.735887 357.145009 C 323.064011 359.0148 322.105678 360.29605 320.860886 360.993967 C 319.636928 361.665842 318.105678 361.999175 316.261928 361.999175 Z M 363.959847 361.999175 C 362.090055 361.999175 360.735888 361.582509 359.897347 360.743967 C 359.058805 359.905425 358.642138 358.561675 358.642138 356.717925 L 358.642138 339.171049 C 358.642138 337.306466 359.058805 335.962716 359.897347 335.145007 C 360.735888 334.306466 362.090055 333.889799 363.959847 333.889799 L 378.522348 333.889799 L 378.522348 284.389797 L 363.959847 284.389797 C 362.090055 284.389797 360.735888 283.983547 359.897347 283.165838 C 359.058805 282.327296 358.642138 280.97313 358.642138 279.103338 L 358.642138 261.275212 C 358.642138 259.431462 359.058805 258.087712 359.897347 257.24917 C 360.735888 256.410628 362.090055 255.993962 363.959847 255.993962 L 426.652558 255.993962 C 428.52235 255.993962 429.876517 256.410628 430.715059 257.24917 C 431.5536 258.087712 431.975475 259.431462 431.975475 261.275212 L 431.975475 279.103338 C 431.975475 280.97313 431.5536 282.327296 430.715059 283.165838 C 429.876517 283.983547 428.52235 284.389797 426.652558 284.389797 L 412.381724 284.389797 L 412.381724 333.889799 L 426.652558 333.889799 C 428.52235 333.889799 429.876517 334.306466 430.715059 335.145007 C 431.5536 335.962716 431.975475 337.306466 431.975475 339.171049 L 431.975475 356.717925 C 431.975475 358.561675 431.5536 359.905425 430.715059 360.743967 C 429.876517 361.582509 428.52235 361.999175 426.652558 361.999175 Z M 504.980687 361.999175 L 455.376518 361.999175 C 453.506726 361.999175 452.15256 361.582509 451.314018 360.743967 C 450.49631 359.905425 450.09006 358.561675 450.09006 356.717925 L 450.09006 261.275212 C 450.09006 259.431462 450.49631 258.087712 451.314018 257.24917 C 452.15256 256.410628 453.506726 255.993962 455.376518 255.993962 L 504.980687 255.993962 C 517.251521 255.993962 526.360897 258.447087 532.303605 263.358545 C 538.246314 268.249171 541.215064 275.796046 541.215064 286.009588 L 541.215064 331.947091 C 541.215064 342.155424 538.246314 349.717925 532.303605 354.629383 C 526.360897 359.54605 517.251521 361.999175 504.980687 361.999175 Z M 483.485895 284.103338 L 483.485895 334.176257 L 501.027562 334.176257 C 503.376521 334.176257 505.116104 333.587716 506.241104 332.415841 C 507.366104 331.238757 507.928604 329.421049 507.928604 326.952299 L 507.928604 291.181464 C 507.928604 288.717922 507.366104 286.915838 506.241104 285.790838 C 505.116104 284.665838 503.376521 284.103338 501.027562 284.103338 Z M 633.548402 361.999175 L 565.209857 361.999175 C 563.340065 361.999175 561.985898 361.582509 561.147357 360.743967 C 560.334857 359.905425 559.928607 358.561675 559.928607 356.717925 L 559.928607 261.275212 C 559.928607 259.431462 560.334857 258.087712 561.147357 257.24917 C 561.985898 256.410628 563.340065 255.993962 565.209857 255.993962 L 633.548402 255.993962 C 635.392152 255.993962 636.735902 256.410628 637.574444 257.24917 C 638.412986 258.087712 638.829652 259.431462 638.829652 261.275212 L 638.829652 278.530421 C 638.829652 280.374171 638.412986 281.717921 637.574444 282.556463 C 636.735902 283.395005 635.392152 283.81688 633.548402 283.81688 L 592.89215 283.81688 L 592.89215 295.139797 L 621.610901 295.139797 C 623.480693 295.139797 624.824443 295.556464 625.636943 296.395005 C 626.475485 297.233547 626.89736 298.587714 626.89736 300.457506 L 626.89736 316.202298 C 626.89736 318.07209 626.475485 319.426257 625.636943 320.264798 C 624.824443 321.10334 623.480693 321.525215 621.610901 321.525215 L 592.89215 321.525215 L 592.89215 334.176257 L 633.548402 334.176257 C 635.392152 334.176257 636.735902 334.598132 637.574444 335.436674 C 638.412986 336.249174 638.829652 337.592924 638.829652 339.462716 L 638.829652 356.717925 C 638.829652 358.561675 638.412986 359.905425 637.574444 360.743967 C 636.735902 361.582509 635.392152 361.999175 633.548402 361.999175 Z M 746.017158 334.176257 C 746.017158 338.681466 745.355699 342.780424 744.037991 346.473133 C 742.720283 350.1398 740.360907 353.275217 736.954657 355.8898 C 733.579657 358.499175 728.918199 360.535634 722.970282 361.999175 C 717.027573 363.462717 709.491114 364.191884 700.360905 364.191884 C 691.230697 364.191884 683.668196 363.462717 677.678613 361.999175 C 671.709862 360.535634 667.02757 358.499175 663.62132 355.8898 C 660.24632 353.275217 657.897362 350.1398 656.579653 346.473133 C 655.261945 342.780424 654.600486 338.681466 654.600486 334.176257 L 654.600486 283.957505 C 654.600486 279.452296 655.261945 275.368963 656.579653 271.702296 C 657.897362 268.009587 660.24632 264.832504 663.62132 262.176254 C 667.02757 259.514795 671.709862 257.452295 677.678613 255.993962 C 683.668196 254.504378 691.230697 253.764795 700.360905 253.764795 C 709.491114 253.764795 717.027573 254.504378 722.970282 255.993962 C 728.918199 257.452295 733.579657 259.514795 736.954657 262.176254 C 740.360907 264.832504 742.720283 268.009587 744.037991 271.702296 C 745.355699 275.368963 746.017158 279.452296 746.017158 283.957505 Z M 687.996321 328.858549 C 687.996321 330.822091 688.725488 332.473132 690.18903 333.816882 C 691.673405 335.134591 695.06403 335.796049 700.360905 335.796049 C 705.683822 335.796049 709.074448 335.134591 710.532781 333.816882 C 711.996323 332.473132 712.725489 330.822091 712.725489 328.858549 L 712.725489 289.280422 C 712.725489 287.41063 711.996323 285.81688 710.532781 284.499172 C 709.074448 283.155421 705.683822 282.483546 700.360905 282.483546 C 695.06403 282.483546 691.673405 283.155421 690.18903 284.499172 C 688.725488 285.81688 687.996321 287.41063 687.996321 289.280422 Z M 813.907786 361.999175 L 767.3557 361.999175 C 765.506742 361.999175 764.1682 361.582509 763.329659 360.743967 C 762.491117 359.905425 762.069242 358.561675 762.069242 356.717925 L 762.069242 339.462716 C 762.069242 337.592924 762.491117 336.249174 763.329659 335.436674 C 764.1682 334.598132 765.506742 334.176257 767.3557 334.176257 L 806.970286 334.176257 C 808.241119 334.176257 809.199453 333.759591 809.845286 332.921049 C 810.491119 332.077299 810.814036 331.072091 810.814036 329.900215 C 810.814036 328.223132 810.491119 326.999174 809.845286 326.233549 C 809.199453 325.441882 808.241119 324.999174 806.970286 324.900215 L 784.897368 321.811673 C 778.017159 320.827298 772.496326 318.577298 768.324451 315.051256 C 764.157784 311.504381 762.069242 305.608548 762.069242 297.368964 L 762.069242 281.91063 C 762.069242 273.572088 764.767159 267.171046 770.157784 262.712712 C 775.548409 258.233545 783.01716 255.993962 792.553618 255.993962 L 833.782787 255.993962 C 835.631746 255.993962 836.970287 256.410628 837.808829 257.24917 C 838.652579 258.087712 839.069246 259.431462 839.069246 261.275212 L 839.069246 278.81688 C 839.069246 280.686671 838.652579 282.040838 837.808829 282.87938 C 836.970287 283.697088 835.631746 284.103338 833.782787 284.103338 L 799.45466 284.103338 C 798.183827 284.103338 797.20466 284.520005 796.506744 285.358547 C 795.834869 286.197088 795.501535 287.25438 795.501535 288.525213 C 795.501535 289.796047 795.834869 290.874172 796.506744 291.759589 C 797.20466 292.645005 798.183827 293.134589 799.45466 293.233547 L 821.418203 296.181464 C 828.27237 297.160631 833.808829 299.426256 838.027579 302.973131 C 842.267163 306.499173 844.392163 312.379381 844.392163 320.624173 L 844.392163 336.082507 C 844.392163 344.42105 841.657788 350.832508 836.194246 355.311675 C 830.751537 359.770009 823.324453 361.999175 813.907786 361.999175 Z M 813.907786 361.999175 " stroke="#000000" stroke-width="6.442012" stroke-opacity="1" stroke-miterlimit="4"/></svg>