<svg xmlns="http://www.w3.org/2000/svg" xmlns:xlink="http://www.w3.org/1999/xlink" width="1920" zoomAndPan="magnify" viewBox="0 0 1440 809.999993" height="1080" preserveAspectRatio="xMidYMid meet" version="1.0"><defs><filter x="0%" y="0%" width="100%" height="100%" id="a943d6590a"><feColorMatrix values="0 0 0 0 1 0 0 0 0 1 0 0 0 0 1 0 0 0 1 0" color-interpolation-filters="sRGB"/></filter><g/><mask id="4a1cb460fd"><g filter="url(#a943d6590a)"><rect x="-144" width="1728" fill="#000000" y="-80.999999" height="971.999992" fill-opacity="0.5"/></g></mask><clipPath id="445bceaab6"><path d="M 0 0 L 629.03125 0 L 629.03125 712.390625 L 0 712.390625 Z M 0 0 " clip-rule="nonzero"/></clipPath><clipPath id="a27a1cbc19"><rect x="0" width="630" y="0" height="713"/></clipPath><mask id="5c23efaf7d"><g filter="url(#a943d6590a)"><rect x="-144" width="1728" fill="#000000" y="-80.999999" height="971.999992" fill-opacity="0.5"/></g></mask><clipPath id="2a62897849"><path d="M 0.4375 0.519531 L 704 0.519531 L 704 729 L 0.4375 729 Z M 0.4375 0.519531 " clip-rule="nonzero"/></clipPath><clipPath id="f99ddfed39"><rect x="0" width="704" y="0" height="729"/></clipPath><clipPath id="2ddea5d26c"><path d="M 208.691406 138.140625 L 1169.441406 138.140625 L 1169.441406 621.890625 L 208.691406 621.890625 Z M 208.691406 138.140625 " clip-rule="nonzero"/></clipPath><clipPath id="9fb035217d"><path d="M 208.691406 138.140625 L 1169.441406 138.140625 L 1169.441406 621.890625 L 208.691406 621.890625 Z M 208.691406 138.140625 " clip-rule="nonzero"/></clipPath></defs><rect x="-144" width="1728" fill="#ffffff" y="-80.999999" height="971.999992" fill-opacity="1"/><rect x="-144" width="1728" fill="#bdb2ff" y="-80.999999" height="971.999992" fill-opacity="1"/><g mask="url(#4a1cb460fd)"><g transform="matrix(1, 0, 0, 1, 0, 0.000000000000039746)"><g clip-path="url(#a27a1cbc19)"><g clip-path="url(#445bceaab6)"><path fill="#424651" d="M -187.71875 -101.949219 L -187.71875 709.953125 C -187.71875 711.300781 -186.628906 712.390625 -185.28125 712.390625 L 626.621094 712.390625 C 627.964844 712.390625 629.054688 711.300781 629.054688 709.953125 L 629.054688 -101.949219 C 629.054688 -103.292969 627.964844 -104.382812 626.621094 -104.382812 L -185.28125 -104.382812 C -186.628906 -104.382812 -187.71875 -103.292969 -187.71875 -101.949219 Z M 255.140625 338.472656 L 186.199219 338.472656 L 186.199219 269.53125 L 255.140625 269.53125 Z M 260.011719 269.53125 L 328.949219 269.53125 L 328.949219 338.472656 L 260.011719 338.472656 Z M 186.199219 412.28125 L 186.199219 343.34375 L 255.140625 343.34375 L 255.140625 412.28125 Z M 255.140625 417.152344 L 255.140625 486.089844 L 186.199219 486.089844 L 186.199219 417.152344 Z M 181.328125 338.472656 L 112.390625 338.472656 L 112.390625 269.53125 L 181.328125 269.53125 Z M 186.199219 264.660156 L 186.199219 195.722656 L 255.140625 195.722656 L 255.140625 264.660156 Z M 186.199219 190.851562 L 186.199219 121.914062 L 255.140625 121.914062 L 255.140625 190.851562 Z M 181.328125 190.851562 L 112.390625 190.851562 L 112.390625 121.914062 L 181.328125 121.914062 Z M 181.328125 195.722656 L 181.328125 264.660156 L 112.390625 264.660156 L 112.390625 195.722656 Z M 107.519531 264.660156 L 38.582031 264.660156 L 38.582031 195.722656 L 107.519531 195.722656 Z M 107.519531 269.53125 L 107.519531 338.472656 L 38.582031 338.472656 L 38.582031 269.53125 Z M 107.519531 343.34375 L 107.519531 412.28125 L 38.582031 412.28125 L 38.582031 343.34375 Z M 112.390625 343.34375 L 181.328125 343.34375 L 181.328125 412.28125 L 112.390625 412.28125 Z M 181.328125 417.152344 L 181.328125 486.089844 L 112.390625 486.089844 L 112.390625 417.152344 Z M 181.328125 490.960938 L 181.328125 559.898438 L 112.390625 559.898438 L 112.390625 490.960938 Z M 186.199219 490.960938 L 255.140625 490.960938 L 255.140625 559.898438 L 186.199219 559.898438 Z M 260.011719 490.960938 L 328.949219 490.960938 L 328.949219 559.898438 L 260.011719 559.898438 Z M 260.011719 486.089844 L 260.011719 417.152344 L 328.949219 417.152344 L 328.949219 486.089844 Z M 260.011719 412.28125 L 260.011719 343.34375 L 328.949219 343.34375 L 328.949219 412.28125 Z M 333.820312 343.34375 L 402.757812 343.34375 L 402.757812 412.28125 L 333.820312 412.28125 Z M 333.820312 338.472656 L 333.820312 269.53125 L 402.757812 269.53125 L 402.757812 338.472656 Z M 333.820312 264.660156 L 333.820312 195.722656 L 402.757812 195.722656 L 402.757812 264.660156 Z M 328.949219 264.660156 L 260.011719 264.660156 L 260.011719 195.722656 L 328.949219 195.722656 Z M 260.011719 190.851562 L 260.011719 121.914062 L 328.949219 121.914062 L 328.949219 190.851562 Z M 260.011719 117.042969 L 260.011719 48.105469 L 328.949219 48.105469 L 328.949219 117.042969 Z M 255.140625 117.042969 L 186.199219 117.042969 L 186.199219 48.105469 L 255.140625 48.105469 Z M 181.328125 117.042969 L 112.390625 117.042969 L 112.390625 48.105469 L 181.328125 48.105469 Z M 107.519531 117.042969 L 38.582031 117.042969 L 38.582031 48.105469 L 107.519531 48.105469 Z M 107.519531 121.914062 L 107.519531 190.851562 L 38.582031 190.851562 L 38.582031 121.914062 Z M 33.710938 190.851562 L -35.226562 190.851562 L -35.226562 121.914062 L 33.710938 121.914062 Z M 33.710938 195.722656 L 33.710938 264.660156 L -35.226562 264.660156 L -35.226562 195.722656 Z M 33.710938 269.53125 L 33.710938 338.472656 L -35.226562 338.472656 L -35.226562 269.53125 Z M 33.710938 343.34375 L 33.710938 412.28125 L -35.226562 412.28125 L -35.226562 343.34375 Z M 33.710938 417.152344 L 33.710938 486.089844 L -35.226562 486.089844 L -35.226562 417.152344 Z M 38.582031 417.152344 L 107.519531 417.152344 L 107.519531 486.089844 L 38.582031 486.089844 Z M 107.519531 490.960938 L 107.519531 559.898438 L 38.582031 559.898438 L 38.582031 490.960938 Z M 107.519531 564.769531 L 107.519531 633.707031 L 38.582031 633.707031 L 38.582031 564.769531 Z M 112.390625 564.769531 L 181.328125 564.769531 L 181.328125 633.707031 L 112.390625 633.707031 Z M 186.199219 564.769531 L 255.140625 564.769531 L 255.140625 633.707031 L 186.199219 633.707031 Z M 260.011719 564.769531 L 328.949219 564.769531 L 328.949219 633.707031 L 260.011719 633.707031 Z M 333.820312 564.769531 L 402.757812 564.769531 L 402.757812 633.707031 L 333.820312 633.707031 Z M 333.820312 559.898438 L 333.820312 490.960938 L 402.757812 490.960938 L 402.757812 559.898438 Z M 333.820312 486.089844 L 333.820312 417.152344 L 402.757812 417.152344 L 402.757812 486.089844 Z M 407.628906 417.152344 L 476.566406 417.152344 L 476.566406 486.089844 L 407.628906 486.089844 Z M 407.628906 412.28125 L 407.628906 343.34375 L 476.566406 343.34375 L 476.566406 412.28125 Z M 407.628906 338.472656 L 407.628906 269.53125 L 476.566406 269.53125 L 476.566406 338.472656 Z M 407.628906 264.660156 L 407.628906 195.722656 L 476.566406 195.722656 L 476.566406 264.660156 Z M 407.628906 190.851562 L 407.628906 121.914062 L 476.566406 121.914062 L 476.566406 190.851562 Z M 402.757812 190.851562 L 333.820312 190.851562 L 333.820312 121.914062 L 402.757812 121.914062 Z M 333.820312 117.042969 L 333.820312 48.105469 L 402.757812 48.105469 L 402.757812 117.042969 Z M 333.820312 43.234375 L 333.820312 -25.703125 L 402.757812 -25.703125 L 402.757812 43.234375 Z M 328.949219 43.234375 L 260.011719 43.234375 L 260.011719 -25.703125 L 328.949219 -25.703125 Z M 255.140625 43.234375 L 186.199219 43.234375 L 186.199219 -25.703125 L 255.140625 -25.703125 Z M 181.328125 43.234375 L 112.390625 43.234375 L 112.390625 -25.703125 L 181.328125 -25.703125 Z M 107.519531 43.234375 L 38.582031 43.234375 L 38.582031 -25.703125 L 107.519531 -25.703125 Z M 33.710938 43.234375 L -35.226562 43.234375 L -35.226562 -25.703125 L 33.710938 -25.703125 Z M 33.710938 48.105469 L 33.710938 117.042969 L -35.226562 117.042969 L -35.226562 48.105469 Z M -40.097656 117.042969 L -109.035156 117.042969 L -109.035156 48.105469 L -40.097656 48.105469 Z M -40.097656 121.914062 L -40.097656 190.851562 L -109.035156 190.851562 L -109.035156 121.914062 Z M -40.097656 195.722656 L -40.097656 264.660156 L -109.035156 264.660156 L -109.035156 195.722656 Z M -40.097656 269.53125 L -40.097656 338.472656 L -109.035156 338.472656 L -109.035156 269.53125 Z M -40.097656 343.34375 L -40.097656 412.28125 L -109.035156 412.28125 L -109.035156 343.34375 Z M -40.097656 417.152344 L -40.097656 486.089844 L -109.035156 486.089844 L -109.035156 417.152344 Z M -40.097656 490.960938 L -40.097656 559.898438 L -109.035156 559.898438 L -109.035156 490.960938 Z M -35.226562 490.960938 L 33.710938 490.960938 L 33.710938 559.898438 L -35.226562 559.898438 Z M 33.710938 564.769531 L 33.710938 633.707031 L -35.226562 633.707031 L -35.226562 564.769531 Z M 33.710938 638.578125 L 33.710938 707.519531 L -35.226562 707.519531 L -35.226562 638.578125 Z M 38.582031 638.578125 L 107.519531 638.578125 L 107.519531 707.519531 L 38.582031 707.519531 Z M 112.390625 638.578125 L 181.328125 638.578125 L 181.328125 707.519531 L 112.390625 707.519531 Z M 186.199219 638.578125 L 255.140625 638.578125 L 255.140625 707.519531 L 186.199219 707.519531 Z M 260.011719 638.578125 L 328.949219 638.578125 L 328.949219 707.519531 L 260.011719 707.519531 Z M 333.820312 638.578125 L 402.757812 638.578125 L 402.757812 707.519531 L 333.820312 707.519531 Z M 407.628906 638.578125 L 476.566406 638.578125 L 476.566406 707.519531 L 407.628906 707.519531 Z M 407.628906 633.707031 L 407.628906 564.769531 L 476.566406 564.769531 L 476.566406 633.707031 Z M 407.628906 559.898438 L 407.628906 490.960938 L 476.566406 490.960938 L 476.566406 559.898438 Z M 481.4375 490.960938 L 550.375 490.960938 L 550.375 559.898438 L 481.4375 559.898438 Z M 481.4375 486.089844 L 481.4375 417.152344 L 550.375 417.152344 L 550.375 486.089844 Z M 481.4375 412.28125 L 481.4375 343.34375 L 550.375 343.34375 L 550.375 412.28125 Z M 481.4375 338.472656 L 481.4375 269.53125 L 550.375 269.53125 L 550.375 338.472656 Z M 481.4375 264.660156 L 481.4375 195.722656 L 550.375 195.722656 L 550.375 264.660156 Z M 481.4375 190.851562 L 481.4375 121.914062 L 550.375 121.914062 L 550.375 190.851562 Z M 481.4375 117.042969 L 481.4375 48.105469 L 550.375 48.105469 L 550.375 117.042969 Z M 476.566406 117.042969 L 407.628906 117.042969 L 407.628906 48.105469 L 476.566406 48.105469 Z M 407.628906 43.234375 L 407.628906 -25.703125 L 476.566406 -25.703125 L 476.566406 43.234375 Z M 407.628906 -30.574219 L 407.628906 -99.511719 L 476.566406 -99.511719 L 476.566406 -30.574219 Z M 402.757812 -30.574219 L 333.820312 -30.574219 L 333.820312 -99.511719 L 402.757812 -99.511719 Z M 328.949219 -30.574219 L 260.011719 -30.574219 L 260.011719 -99.511719 L 328.949219 -99.511719 Z M 255.140625 -30.574219 L 186.199219 -30.574219 L 186.199219 -99.511719 L 255.140625 -99.511719 Z M 181.328125 -30.574219 L 112.390625 -30.574219 L 112.390625 -99.511719 L 181.328125 -99.511719 Z M 107.519531 -30.574219 L 38.582031 -30.574219 L 38.582031 -99.511719 L 107.519531 -99.511719 Z M 33.710938 -30.574219 L -35.226562 -30.574219 L -35.226562 -99.511719 L 33.710938 -99.511719 Z M -40.097656 -30.574219 L -109.035156 -30.574219 L -109.035156 -99.511719 L -40.097656 -99.511719 Z M -40.097656 -25.703125 L -40.097656 43.234375 L -109.035156 43.234375 L -109.035156 -25.703125 Z M -113.90625 43.234375 L -182.847656 43.234375 L -182.847656 -25.703125 L -113.90625 -25.703125 Z M -113.90625 48.105469 L -113.90625 117.042969 L -182.847656 117.042969 L -182.847656 48.105469 Z M -113.90625 121.914062 L -113.90625 190.851562 L -182.847656 190.851562 L -182.847656 121.914062 Z M -113.90625 195.722656 L -113.90625 264.660156 L -182.847656 264.660156 L -182.847656 195.722656 Z M -113.90625 269.53125 L -113.90625 338.472656 L -182.847656 338.472656 L -182.847656 269.53125 Z M -113.90625 343.34375 L -113.90625 412.28125 L -182.847656 412.28125 L -182.847656 343.34375 Z M -113.90625 417.152344 L -113.90625 486.089844 L -182.847656 486.089844 L -182.847656 417.152344 Z M -113.90625 490.960938 L -113.90625 559.898438 L -182.847656 559.898438 L -182.847656 490.960938 Z M -113.90625 564.769531 L -113.90625 633.707031 L -182.847656 633.707031 L -182.847656 564.769531 Z M -109.035156 564.769531 L -40.097656 564.769531 L -40.097656 633.707031 L -109.035156 633.707031 Z M -40.097656 638.578125 L -40.097656 707.519531 L -109.035156 707.519531 L -109.035156 638.578125 Z M 481.4375 707.519531 L 481.4375 638.578125 L 550.375 638.578125 L 550.375 707.519531 Z M 481.4375 633.707031 L 481.4375 564.769531 L 550.375 564.769531 L 550.375 633.707031 Z M 555.246094 564.769531 L 624.183594 564.769531 L 624.183594 633.707031 L 555.246094 633.707031 Z M 555.246094 559.898438 L 555.246094 490.960938 L 624.183594 490.960938 L 624.183594 559.898438 Z M 555.246094 486.089844 L 555.246094 417.152344 L 624.183594 417.152344 L 624.183594 486.089844 Z M 555.246094 412.28125 L 555.246094 343.34375 L 624.183594 343.34375 L 624.183594 412.28125 Z M 555.246094 338.472656 L 555.246094 269.53125 L 624.183594 269.53125 L 624.183594 338.472656 Z M 555.246094 264.660156 L 555.246094 195.722656 L 624.183594 195.722656 L 624.183594 264.660156 Z M 555.246094 190.851562 L 555.246094 121.914062 L 624.183594 121.914062 L 624.183594 190.851562 Z M 555.246094 117.042969 L 555.246094 48.105469 L 624.183594 48.105469 L 624.183594 117.042969 Z M 555.246094 43.234375 L 555.246094 -25.703125 L 624.183594 -25.703125 L 624.183594 43.234375 Z M 550.375 43.234375 L 481.4375 43.234375 L 481.4375 -25.703125 L 550.375 -25.703125 Z M 481.4375 -30.574219 L 481.4375 -99.511719 L 550.375 -99.511719 L 550.375 -30.574219 Z M -113.90625 -99.511719 L -113.90625 -30.574219 L -182.847656 -30.574219 L -182.847656 -99.511719 Z M -182.847656 638.578125 L -113.90625 638.578125 L -113.90625 707.519531 L -182.847656 707.519531 Z M 555.246094 707.519531 L 555.246094 638.578125 L 624.183594 638.578125 L 624.183594 707.519531 Z M 624.183594 -30.574219 L 555.246094 -30.574219 L 555.246094 -99.511719 L 624.183594 -99.511719 Z M 624.183594 -30.574219 " fill-opacity="1" fill-rule="nonzero"/></g></g></g></g><g mask="url(#5c23efaf7d)"><g transform="matrix(1, 0, 0, 1, 736, 81)"><g clip-path="url(#f99ddfed39)"><g clip-path="url(#2a62897849)"><path fill="#424651" d="M 0.4375 2.933594 L 0.4375 814.832031 C 0.4375 816.179688 1.527344 817.269531 2.871094 817.269531 L 814.773438 817.269531 C 816.117188 817.269531 817.210938 816.179688 817.210938 814.832031 L 817.210938 2.933594 C 817.210938 1.585938 816.117188 0.496094 814.773438 0.496094 L 2.871094 0.496094 C 1.527344 0.496094 0.4375 1.585938 0.4375 2.933594 Z M 443.292969 443.351562 L 374.355469 443.351562 L 374.355469 374.414062 L 443.292969 374.414062 Z M 448.164062 374.414062 L 517.101562 374.414062 L 517.101562 443.351562 L 448.164062 443.351562 Z M 374.355469 517.160156 L 374.355469 448.222656 L 443.292969 448.222656 L 443.292969 517.160156 Z M 443.292969 522.03125 L 443.292969 590.972656 L 374.355469 590.972656 L 374.355469 522.03125 Z M 369.484375 443.351562 L 300.542969 443.351562 L 300.542969 374.414062 L 369.484375 374.414062 Z M 374.355469 369.542969 L 374.355469 300.605469 L 443.292969 300.605469 L 443.292969 369.542969 Z M 374.355469 295.734375 L 374.355469 226.792969 L 443.292969 226.792969 L 443.292969 295.734375 Z M 369.484375 295.734375 L 300.542969 295.734375 L 300.542969 226.792969 L 369.484375 226.792969 Z M 369.484375 300.605469 L 369.484375 369.542969 L 300.542969 369.542969 L 300.542969 300.605469 Z M 295.671875 369.542969 L 226.734375 369.542969 L 226.734375 300.605469 L 295.671875 300.605469 Z M 295.671875 374.414062 L 295.671875 443.351562 L 226.734375 443.351562 L 226.734375 374.414062 Z M 295.671875 448.222656 L 295.671875 517.160156 L 226.734375 517.160156 L 226.734375 448.222656 Z M 300.542969 448.222656 L 369.484375 448.222656 L 369.484375 517.160156 L 300.542969 517.160156 Z M 369.484375 522.03125 L 369.484375 590.972656 L 300.542969 590.972656 L 300.542969 522.03125 Z M 369.484375 595.839844 L 369.484375 664.78125 L 300.542969 664.78125 L 300.542969 595.839844 Z M 374.355469 595.839844 L 443.292969 595.839844 L 443.292969 664.78125 L 374.355469 664.78125 Z M 448.164062 595.839844 L 517.101562 595.839844 L 517.101562 664.78125 L 448.164062 664.78125 Z M 448.164062 590.96875 L 448.164062 522.03125 L 517.101562 522.03125 L 517.101562 590.96875 Z M 448.164062 517.160156 L 448.164062 448.222656 L 517.101562 448.222656 L 517.101562 517.160156 Z M 521.972656 448.222656 L 590.910156 448.222656 L 590.910156 517.160156 L 521.972656 517.160156 Z M 521.972656 443.351562 L 521.972656 374.414062 L 590.910156 374.414062 L 590.910156 443.351562 Z M 521.972656 369.542969 L 521.972656 300.605469 L 590.910156 300.605469 L 590.910156 369.542969 Z M 517.101562 369.542969 L 448.164062 369.542969 L 448.164062 300.605469 L 517.101562 300.605469 Z M 448.164062 295.734375 L 448.164062 226.792969 L 517.101562 226.792969 L 517.101562 295.734375 Z M 448.164062 221.921875 L 448.164062 152.984375 L 517.101562 152.984375 L 517.101562 221.921875 Z M 443.292969 221.921875 L 374.355469 221.921875 L 374.355469 152.984375 L 443.292969 152.984375 Z M 369.484375 221.921875 L 300.542969 221.921875 L 300.542969 152.984375 L 369.484375 152.984375 Z M 295.671875 221.921875 L 226.734375 221.921875 L 226.734375 152.984375 L 295.671875 152.984375 Z M 295.671875 226.792969 L 295.671875 295.734375 L 226.734375 295.734375 L 226.734375 226.792969 Z M 221.863281 295.734375 L 152.925781 295.734375 L 152.925781 226.792969 L 221.863281 226.792969 Z M 221.863281 300.605469 L 221.863281 369.542969 L 152.925781 369.542969 L 152.925781 300.605469 Z M 221.863281 374.414062 L 221.863281 443.351562 L 152.925781 443.351562 L 152.925781 374.414062 Z M 221.863281 448.222656 L 221.863281 517.160156 L 152.925781 517.160156 L 152.925781 448.222656 Z M 221.863281 522.03125 L 221.863281 590.972656 L 152.925781 590.972656 L 152.925781 522.03125 Z M 226.734375 522.03125 L 295.675781 522.03125 L 295.675781 590.972656 L 226.734375 590.972656 Z M 295.671875 595.839844 L 295.671875 664.78125 L 226.734375 664.78125 L 226.734375 595.839844 Z M 295.671875 669.652344 L 295.671875 738.589844 L 226.734375 738.589844 L 226.734375 669.648438 L 295.671875 669.648438 Z M 300.542969 669.652344 L 369.484375 669.652344 L 369.484375 738.589844 L 300.542969 738.589844 Z M 374.355469 669.652344 L 443.292969 669.652344 L 443.292969 738.589844 L 374.355469 738.589844 Z M 448.164062 669.652344 L 517.101562 669.652344 L 517.101562 738.589844 L 448.164062 738.589844 Z M 521.972656 669.652344 L 590.910156 669.652344 L 590.910156 738.589844 L 521.972656 738.589844 Z M 521.972656 664.78125 L 521.972656 595.839844 L 590.910156 595.839844 L 590.910156 664.78125 Z M 521.972656 590.96875 L 521.972656 522.03125 L 590.910156 522.03125 L 590.910156 590.96875 Z M 595.78125 522.03125 L 664.71875 522.03125 L 664.71875 590.972656 L 595.78125 590.972656 Z M 595.78125 517.160156 L 595.78125 448.222656 L 664.71875 448.222656 L 664.71875 517.160156 Z M 595.78125 443.351562 L 595.78125 374.414062 L 664.71875 374.414062 L 664.71875 443.351562 Z M 595.78125 369.542969 L 595.78125 300.605469 L 664.71875 300.605469 L 664.71875 369.542969 Z M 595.78125 295.734375 L 595.78125 226.792969 L 664.71875 226.792969 L 664.71875 295.734375 Z M 590.910156 295.734375 L 521.972656 295.734375 L 521.972656 226.792969 L 590.910156 226.792969 Z M 521.972656 221.921875 L 521.972656 152.984375 L 590.910156 152.984375 L 590.910156 221.921875 Z M 521.972656 148.113281 L 521.972656 79.175781 L 590.910156 79.175781 L 590.910156 148.113281 Z M 517.101562 148.113281 L 448.164062 148.113281 L 448.164062 79.175781 L 517.101562 79.175781 Z M 443.292969 148.113281 L 374.355469 148.113281 L 374.355469 79.175781 L 443.292969 79.175781 Z M 369.484375 148.113281 L 300.542969 148.113281 L 300.542969 79.175781 L 369.484375 79.175781 Z M 295.671875 148.113281 L 226.734375 148.113281 L 226.734375 79.175781 L 295.671875 79.175781 Z M 221.863281 148.113281 L 152.925781 148.113281 L 152.925781 79.175781 L 221.863281 79.175781 Z M 221.863281 152.984375 L 221.863281 221.921875 L 152.925781 221.921875 L 152.925781 152.984375 Z M 148.054688 221.921875 L 79.117188 221.921875 L 79.117188 152.984375 L 148.054688 152.984375 Z M 148.054688 226.792969 L 148.054688 295.734375 L 79.117188 295.734375 L 79.117188 226.792969 Z M 148.054688 300.605469 L 148.054688 369.542969 L 79.117188 369.542969 L 79.117188 300.605469 Z M 148.054688 374.414062 L 148.054688 443.351562 L 79.117188 443.351562 L 79.117188 374.414062 Z M 148.054688 448.222656 L 148.054688 517.160156 L 79.117188 517.160156 L 79.117188 448.222656 Z M 148.054688 522.03125 L 148.054688 590.972656 L 79.117188 590.972656 L 79.117188 522.03125 Z M 148.054688 595.839844 L 148.054688 664.78125 L 79.117188 664.78125 L 79.117188 595.839844 Z M 152.925781 595.839844 L 221.863281 595.839844 L 221.863281 664.78125 L 152.925781 664.78125 Z M 221.863281 669.652344 L 221.863281 738.589844 L 152.925781 738.589844 L 152.925781 669.648438 L 221.863281 669.648438 Z M 221.863281 743.460938 L 221.863281 812.398438 L 152.925781 812.398438 L 152.925781 743.460938 Z M 226.734375 743.460938 L 295.675781 743.460938 L 295.675781 812.398438 L 226.734375 812.398438 Z M 300.542969 743.460938 L 369.484375 743.460938 L 369.484375 812.398438 L 300.542969 812.398438 Z M 374.355469 743.460938 L 443.292969 743.460938 L 443.292969 812.398438 L 374.355469 812.398438 Z M 448.164062 743.460938 L 517.101562 743.460938 L 517.101562 812.398438 L 448.164062 812.398438 Z M 521.972656 743.460938 L 590.910156 743.460938 L 590.910156 812.398438 L 521.972656 812.398438 Z M 595.78125 743.460938 L 664.71875 743.460938 L 664.71875 812.398438 L 595.78125 812.398438 Z M 595.78125 738.589844 L 595.78125 669.648438 L 664.71875 669.648438 L 664.71875 738.589844 Z M 595.78125 664.78125 L 595.78125 595.839844 L 664.71875 595.839844 L 664.71875 664.78125 Z M 669.589844 595.839844 L 738.53125 595.839844 L 738.53125 664.78125 L 669.589844 664.78125 Z M 669.589844 590.96875 L 669.589844 522.03125 L 738.53125 522.03125 L 738.53125 590.96875 Z M 669.589844 517.160156 L 669.589844 448.222656 L 738.53125 448.222656 L 738.53125 517.160156 Z M 669.589844 443.351562 L 669.589844 374.414062 L 738.53125 374.414062 L 738.53125 443.351562 Z M 669.589844 369.542969 L 669.589844 300.605469 L 738.53125 300.605469 L 738.53125 369.542969 Z M 669.589844 295.734375 L 669.589844 226.792969 L 738.53125 226.792969 L 738.53125 295.734375 Z M 669.589844 221.921875 L 669.589844 152.984375 L 738.53125 152.984375 L 738.53125 221.921875 Z M 664.71875 221.921875 L 595.78125 221.921875 L 595.78125 152.984375 L 664.71875 152.984375 Z M 595.78125 148.113281 L 595.78125 79.175781 L 664.71875 79.175781 L 664.71875 148.113281 Z M 595.78125 74.304688 L 595.78125 5.367188 L 664.71875 5.367188 L 664.71875 74.304688 Z M 590.910156 74.304688 L 521.972656 74.304688 L 521.972656 5.367188 L 590.910156 5.367188 Z M 517.101562 74.304688 L 448.164062 74.304688 L 448.164062 5.367188 L 517.101562 5.367188 Z M 443.292969 74.304688 L 374.355469 74.304688 L 374.355469 5.367188 L 443.292969 5.367188 Z M 369.484375 74.304688 L 300.542969 74.304688 L 300.542969 5.367188 L 369.484375 5.367188 Z M 295.671875 74.304688 L 226.734375 74.304688 L 226.734375 5.367188 L 295.671875 5.367188 Z M 221.863281 74.304688 L 152.925781 74.304688 L 152.925781 5.367188 L 221.863281 5.367188 Z M 148.054688 74.304688 L 79.117188 74.304688 L 79.117188 5.367188 L 148.054688 5.367188 Z M 148.054688 79.175781 L 148.054688 148.113281 L 79.117188 148.113281 L 79.117188 79.175781 Z M 74.246094 148.113281 L 5.308594 148.113281 L 5.308594 79.175781 L 74.246094 79.175781 Z M 74.246094 152.984375 L 74.246094 221.921875 L 5.308594 221.921875 L 5.308594 152.984375 Z M 74.246094 226.792969 L 74.246094 295.734375 L 5.308594 295.734375 L 5.308594 226.792969 Z M 74.246094 300.605469 L 74.246094 369.542969 L 5.308594 369.542969 L 5.308594 300.605469 Z M 74.246094 374.414062 L 74.246094 443.351562 L 5.308594 443.351562 L 5.308594 374.414062 Z M 74.246094 448.222656 L 74.246094 517.160156 L 5.308594 517.160156 L 5.308594 448.222656 Z M 74.246094 522.03125 L 74.246094 590.972656 L 5.308594 590.972656 L 5.308594 522.03125 Z M 74.246094 595.839844 L 74.246094 664.78125 L 5.308594 664.78125 L 5.308594 595.839844 Z M 74.246094 669.652344 L 74.246094 738.589844 L 5.308594 738.589844 L 5.308594 669.648438 L 74.246094 669.648438 Z M 79.117188 669.652344 L 148.054688 669.652344 L 148.054688 738.589844 L 79.117188 738.589844 Z M 148.054688 743.460938 L 148.054688 812.398438 L 79.117188 812.398438 L 79.117188 743.460938 Z M 669.589844 812.398438 L 669.589844 743.460938 L 738.53125 743.460938 L 738.53125 812.398438 Z M 669.589844 738.589844 L 669.589844 669.648438 L 738.53125 669.648438 L 738.53125 738.589844 Z M 743.402344 669.652344 L 812.339844 669.652344 L 812.339844 738.589844 L 743.402344 738.589844 Z M 743.402344 664.78125 L 743.402344 595.839844 L 812.339844 595.839844 L 812.339844 664.78125 Z M 743.402344 590.96875 L 743.402344 522.03125 L 812.339844 522.03125 L 812.339844 590.96875 Z M 743.402344 517.160156 L 743.402344 448.222656 L 812.339844 448.222656 L 812.339844 517.160156 Z M 743.402344 443.351562 L 743.402344 374.414062 L 812.339844 374.414062 L 812.339844 443.351562 Z M 743.402344 369.542969 L 743.402344 300.605469 L 812.339844 300.605469 L 812.339844 369.542969 Z M 743.402344 295.734375 L 743.402344 226.792969 L 812.339844 226.792969 L 812.339844 295.734375 Z M 743.402344 221.921875 L 743.402344 152.984375 L 812.339844 152.984375 L 812.339844 221.921875 Z M 743.402344 148.113281 L 743.402344 79.175781 L 812.339844 79.175781 L 812.339844 148.113281 Z M 738.53125 148.113281 L 669.589844 148.113281 L 669.589844 79.175781 L 738.53125 79.175781 Z M 669.589844 74.304688 L 669.589844 5.367188 L 738.53125 5.367188 L 738.53125 74.304688 Z M 74.246094 5.367188 L 74.246094 74.304688 L 5.308594 74.304688 L 5.308594 5.367188 Z M 5.308594 743.460938 L 74.246094 743.460938 L 74.246094 812.398438 L 5.308594 812.398438 Z M 743.402344 812.398438 L 743.402344 743.460938 L 812.339844 743.460938 L 812.339844 812.398438 Z M 812.339844 74.304688 L 743.402344 74.304688 L 743.402344 5.367188 L 812.339844 5.367188 Z M 812.339844 74.304688 " fill-opacity="1" fill-rule="nonzero"/></g></g></g></g><g clip-path="url(#2ddea5d26c)"><path fill="#ff99ff" d="M 208.691406 138.8125 L 1169.496094 138.8125 L 1169.496094 621.410156 L 208.691406 621.410156 Z M 208.691406 138.8125 " fill-opacity="1" fill-rule="nonzero"/></g><path fill="#9bd5c1" d="M 390.285156 209.886719 C 377.976562 209.886719 367.902344 199.8125 367.902344 187.5 C 367.902344 175.1875 377.972656 165.113281 390.285156 165.113281 C 402.597656 165.113281 412.671875 175.1875 412.671875 187.5 C 412.671875 199.8125 402.597656 209.886719 390.285156 209.886719 Z M 390.285156 209.886719 " fill-opacity="1" fill-rule="nonzero"/><path fill="#eeec7c" d="M 325.195312 209.886719 C 312.886719 209.886719 302.8125 199.816406 302.8125 187.503906 C 302.8125 175.191406 312.882812 165.117188 325.195312 165.117188 C 337.507812 165.117188 347.582031 175.1875 347.582031 187.503906 C 347.582031 199.8125 337.507812 209.886719 325.195312 209.886719 Z M 325.195312 209.886719 " fill-opacity="1" fill-rule="nonzero"/><path fill="#f27070" d="M 265.769531 209.886719 C 253.460938 209.886719 243.386719 199.8125 243.386719 187.5 C 243.386719 175.1875 253.457031 165.113281 265.769531 165.113281 C 278.082031 165.113281 288.15625 175.1875 288.15625 187.5 C 288.15625 199.8125 278.085938 209.886719 265.769531 209.886719 Z M 265.769531 209.886719 " fill-opacity="1" fill-rule="nonzero"/><g clip-path="url(#9fb035217d)"><path fill="#0d0d0d" d="M 265.773438 211.023438 C 278.742188 211.023438 289.292969 200.472656 289.292969 187.5 C 289.292969 174.53125 278.742188 163.980469 265.773438 163.980469 C 252.804688 163.980469 242.25 174.53125 242.25 187.5 C 242.25 200.472656 252.804688 211.023438 265.773438 211.023438 Z M 265.773438 168.375 C 276.316406 168.375 284.898438 176.953125 284.898438 187.5 C 284.898438 198.046875 276.316406 206.628906 265.773438 206.628906 C 255.226562 206.628906 246.644531 198.046875 246.644531 187.5 C 246.644531 176.953125 255.222656 168.375 265.773438 168.375 Z M 208.691406 138.8125 L 208.691406 621.410156 L 1169.496094 621.410156 L 1169.496094 138.8125 Z M 1165.097656 617.015625 L 213.085938 617.015625 L 213.085938 231.296875 L 1165.101562 231.296875 L 1165.101562 617.015625 Z M 1165.097656 226.902344 L 213.085938 226.902344 L 213.085938 143.207031 L 1165.101562 143.207031 L 1165.101562 226.902344 Z M 325.199219 211.023438 C 338.167969 211.023438 348.71875 200.472656 348.71875 187.5 C 348.71875 174.53125 338.167969 163.980469 325.199219 163.980469 C 312.226562 163.980469 301.675781 174.53125 301.675781 187.5 C 301.675781 200.472656 312.226562 211.023438 325.199219 211.023438 Z M 325.199219 168.375 C 335.746094 168.375 344.324219 176.953125 344.324219 187.5 C 344.324219 198.046875 335.746094 206.628906 325.199219 206.628906 C 314.652344 206.628906 306.070312 198.046875 306.070312 187.5 C 306.070312 176.953125 314.652344 168.375 325.199219 168.375 Z M 389.152344 211.023438 C 402.117188 211.023438 412.667969 200.472656 412.667969 187.5 C 412.667969 174.53125 402.117188 163.980469 389.152344 163.980469 C 376.179688 163.980469 365.628906 174.53125 365.628906 187.5 C 365.628906 200.472656 376.179688 211.023438 389.152344 211.023438 Z M 389.152344 168.375 C 399.695312 168.375 408.277344 176.953125 408.277344 187.5 C 408.277344 198.046875 399.695312 206.628906 389.152344 206.628906 C 378.601562 206.628906 370.023438 198.046875 370.023438 187.5 C 370.023438 176.953125 378.601562 168.375 389.152344 168.375 Z M 389.152344 168.375 " fill-opacity="1" fill-rule="nonzero"/></g><g fill="#e5b2f1" fill-opacity="1"><g transform="translate(307.698096, 367.789689)"><g><path d="M 28.71875 0 L 11.59375 0 C 10.195312 0 9.1875 -0.3125 8.5625 -0.9375 C 7.9375 -1.5625 7.625 -2.570312 7.625 -3.96875 L 7.625 -75.546875 C 7.625 -76.941406 7.9375 -77.953125 8.5625 -78.578125 C 9.1875 -79.203125 10.195312 -79.515625 11.59375 -79.515625 L 45.390625 -79.515625 C 55.398438 -79.515625 62.242188 -77.523438 65.921875 -73.546875 C 69.609375 -69.578125 71.453125 -64.390625 71.453125 -57.984375 L 71.453125 -43.84375 C 71.453125 -37.4375 69.609375 -32.242188 65.921875 -28.265625 C 62.242188 -24.296875 55.398438 -22.3125 45.390625 -22.3125 L 32.6875 -22.3125 L 32.6875 -3.96875 C 32.6875 -2.570312 32.375 -1.5625 31.75 -0.9375 C 31.125 -0.3125 30.113281 0 28.71875 0 Z M 32.46875 -58.859375 L 32.46875 -42.1875 L 42.40625 -42.1875 C 44.539062 -42.1875 45.9375 -42.738281 46.59375 -43.84375 C 47.257812 -44.945312 47.59375 -46.195312 47.59375 -47.59375 L 47.59375 -53.453125 C 47.59375 -54.847656 47.257812 -56.097656 46.59375 -57.203125 C 45.9375 -58.304688 44.539062 -58.859375 42.40625 -58.859375 Z M 32.46875 -58.859375 "/></g></g></g><g fill="#e5b2f1" fill-opacity="1"><g transform="translate(383.008513, 367.789689)"><g><path d="M 75.3125 -20.875 C 75.3125 -17.488281 74.816406 -14.414062 73.828125 -11.65625 C 72.835938 -8.894531 71.070312 -6.535156 68.53125 -4.578125 C 65.988281 -2.628906 62.507812 -1.101562 58.09375 0 C 53.675781 1.101562 48.039062 1.65625 41.1875 1.65625 C 34.34375 1.65625 28.710938 1.101562 24.296875 0 C 19.878906 -1.101562 16.398438 -2.628906 13.859375 -4.578125 C 11.316406 -6.535156 9.546875 -8.894531 8.546875 -11.65625 C 7.554688 -14.414062 7.0625 -17.488281 7.0625 -20.875 L 7.0625 -75.546875 C 7.0625 -76.941406 7.375 -77.953125 8 -78.578125 C 8.632812 -79.203125 9.648438 -79.515625 11.046875 -79.515625 L 28.375 -79.515625 C 29.78125 -79.515625 30.796875 -79.203125 31.421875 -78.578125 C 32.046875 -77.953125 32.359375 -76.941406 32.359375 -75.546875 L 32.359375 -25.1875 C 32.359375 -23.707031 32.910156 -22.46875 34.015625 -21.46875 C 35.117188 -20.476562 37.582031 -19.984375 41.40625 -19.984375 C 45.3125 -19.984375 47.816406 -20.476562 48.921875 -21.46875 C 50.023438 -22.46875 50.578125 -23.707031 50.578125 -25.1875 L 50.578125 -75.546875 C 50.578125 -76.941406 50.890625 -77.953125 51.515625 -78.578125 C 52.140625 -79.203125 53.15625 -79.515625 54.5625 -79.515625 L 71.34375 -79.515625 C 72.738281 -79.515625 73.75 -79.203125 74.375 -78.578125 C 75 -77.953125 75.3125 -76.941406 75.3125 -75.546875 Z M 75.3125 -20.875 "/></g></g></g><g fill="#e5b2f1" fill-opacity="1"><g transform="translate(465.386183, 367.789689)"><g><path d="M 54 0 L 11.59375 0 C 10.195312 0 9.1875 -0.3125 8.5625 -0.9375 C 7.9375 -1.5625 7.625 -2.570312 7.625 -3.96875 L 7.625 -75.546875 C 7.625 -76.941406 7.9375 -77.953125 8.5625 -78.578125 C 9.1875 -79.203125 10.195312 -79.515625 11.59375 -79.515625 L 46.828125 -79.515625 C 54.035156 -79.515625 59.367188 -78.132812 62.828125 -75.375 C 66.296875 -72.613281 68.03125 -68.363281 68.03125 -62.625 L 68.03125 -57.3125 C 68.03125 -54.21875 67.492188 -51.695312 66.421875 -49.75 C 65.359375 -47.800781 63.722656 -46.347656 61.515625 -45.390625 C 66.222656 -44.953125 69.71875 -43.332031 72 -40.53125 C 74.28125 -37.726562 75.421875 -33.640625 75.421875 -28.265625 L 75.421875 -18.109375 C 75.421875 -11.921875 73.671875 -7.351562 70.171875 -4.40625 C 66.679688 -1.46875 61.289062 0 54 0 Z M 32.46875 -60.734375 L 32.46875 -48.8125 L 41.859375 -48.8125 C 43.253906 -48.8125 44.300781 -49.175781 45 -49.90625 C 45.695312 -50.644531 46.046875 -51.753906 46.046875 -53.234375 L 46.046875 -56.328125 C 46.046875 -57.796875 45.695312 -58.894531 45 -59.625 C 44.300781 -60.363281 43.253906 -60.734375 41.859375 -60.734375 Z M 32.46875 -31.8125 L 32.46875 -18.78125 L 46.828125 -18.78125 C 48.222656 -18.78125 49.269531 -19.144531 49.96875 -19.875 C 50.664062 -20.613281 51.015625 -21.71875 51.015625 -23.1875 L 51.015625 -27.5 C 51.015625 -28.96875 50.664062 -30.050781 49.96875 -30.75 C 49.269531 -31.457031 48.222656 -31.8125 46.828125 -31.8125 Z M 32.46875 -31.8125 "/></g></g></g><g fill="#e5b2f1" fill-opacity="1"><g transform="translate(545.444903, 367.789689)"><g><path d="M 67.8125 0 L 11.59375 0 C 10.195312 0 9.1875 -0.3125 8.5625 -0.9375 C 7.9375 -1.5625 7.625 -2.570312 7.625 -3.96875 L 7.625 -75.546875 C 7.625 -76.941406 7.9375 -77.953125 8.5625 -78.578125 C 9.1875 -79.203125 10.195312 -79.515625 11.59375 -79.515625 L 28.71875 -79.515625 C 30.113281 -79.515625 31.125 -79.203125 31.75 -78.578125 C 32.375 -77.953125 32.6875 -76.941406 32.6875 -75.546875 L 32.6875 -20.875 L 47.8125 -20.875 L 47.8125 -38.765625 C 47.8125 -40.160156 48.125 -41.171875 48.75 -41.796875 C 49.382812 -42.421875 50.398438 -42.734375 51.796875 -42.734375 L 67.8125 -42.734375 C 69.207031 -42.734375 70.21875 -42.421875 70.84375 -41.796875 C 71.46875 -41.171875 71.78125 -40.160156 71.78125 -38.765625 L 71.78125 -3.96875 C 71.78125 -2.570312 71.46875 -1.5625 70.84375 -0.9375 C 70.21875 -0.3125 69.207031 0 67.8125 0 Z M 67.8125 0 "/></g></g></g><g fill="#e5b2f1" fill-opacity="1"><g transform="translate(622.190856, 367.789689)"><g><path d="M 9.828125 0 C 8.429688 0 7.421875 -0.3125 6.796875 -0.9375 C 6.171875 -1.5625 5.859375 -2.570312 5.859375 -3.96875 L 5.859375 -17.125 C 5.859375 -18.519531 6.171875 -19.53125 6.796875 -20.15625 C 7.421875 -20.78125 8.429688 -21.09375 9.828125 -21.09375 L 20.765625 -21.09375 L 20.765625 -58.203125 L 9.828125 -58.203125 C 8.429688 -58.203125 7.421875 -58.515625 6.796875 -59.140625 C 6.171875 -59.765625 5.859375 -60.773438 5.859375 -62.171875 L 5.859375 -75.546875 C 5.859375 -76.941406 6.171875 -77.953125 6.796875 -78.578125 C 7.421875 -79.203125 8.429688 -79.515625 9.828125 -79.515625 L 56.875 -79.515625 C 58.269531 -79.515625 59.28125 -79.203125 59.90625 -78.578125 C 60.53125 -77.953125 60.84375 -76.941406 60.84375 -75.546875 L 60.84375 -62.171875 C 60.84375 -60.773438 60.53125 -59.765625 59.90625 -59.140625 C 59.28125 -58.515625 58.269531 -58.203125 56.875 -58.203125 L 46.15625 -58.203125 L 46.15625 -21.09375 L 56.875 -21.09375 C 58.269531 -21.09375 59.28125 -20.78125 59.90625 -20.15625 C 60.53125 -19.53125 60.84375 -18.519531 60.84375 -17.125 L 60.84375 -3.96875 C 60.84375 -2.570312 60.53125 -1.5625 59.90625 -0.9375 C 59.28125 -0.3125 58.269531 0 56.875 0 Z M 9.828125 0 "/></g></g></g><g fill="#e5b2f1" fill-opacity="1"><g transform="translate(688.998485, 367.789689)"><g><path d="M 60.515625 0 L 33.578125 0 C 24.367188 0 17.535156 -1.835938 13.078125 -5.515625 C 8.628906 -9.203125 6.40625 -14.875 6.40625 -22.53125 L 6.40625 -56.875 C 6.40625 -64.53125 8.628906 -70.21875 13.078125 -73.9375 C 17.535156 -77.65625 24.367188 -79.515625 33.578125 -79.515625 L 60.515625 -79.515625 C 61.921875 -79.515625 62.9375 -79.203125 63.5625 -78.578125 C 64.1875 -77.953125 64.5 -76.941406 64.5 -75.546875 L 64.5 -62.171875 C 64.5 -60.773438 64.1875 -59.765625 63.5625 -59.140625 C 62.9375 -58.515625 61.921875 -58.203125 60.515625 -58.203125 L 38.328125 -58.203125 C 36.035156 -58.203125 34.335938 -57.738281 33.234375 -56.8125 C 32.128906 -55.894531 31.578125 -54.515625 31.578125 -52.671875 L 31.578125 -26.390625 C 31.578125 -24.554688 32.128906 -23.210938 33.234375 -22.359375 C 34.335938 -21.515625 36.035156 -21.09375 38.328125 -21.09375 L 60.515625 -21.09375 C 61.921875 -21.09375 62.9375 -20.78125 63.5625 -20.15625 C 64.1875 -19.53125 64.5 -18.519531 64.5 -17.125 L 64.5 -3.96875 C 64.5 -2.570312 64.1875 -1.5625 63.5625 -0.9375 C 62.9375 -0.3125 61.921875 0 60.515625 0 Z M 60.515625 0 "/></g></g></g><g fill="#e5b2f1" fill-opacity="1"><g transform="translate(758.345901, 367.789689)"><g><path d="M 9.828125 0 C 8.429688 0 7.421875 -0.3125 6.796875 -0.9375 C 6.171875 -1.5625 5.859375 -2.570312 5.859375 -3.96875 L 5.859375 -17.125 C 5.859375 -18.519531 6.171875 -19.53125 6.796875 -20.15625 C 7.421875 -20.78125 8.429688 -21.09375 9.828125 -21.09375 L 20.765625 -21.09375 L 20.765625 -58.203125 L 9.828125 -58.203125 C 8.429688 -58.203125 7.421875 -58.515625 6.796875 -59.140625 C 6.171875 -59.765625 5.859375 -60.773438 5.859375 -62.171875 L 5.859375 -75.546875 C 5.859375 -76.941406 6.171875 -77.953125 6.796875 -78.578125 C 7.421875 -79.203125 8.429688 -79.515625 9.828125 -79.515625 L 56.875 -79.515625 C 58.269531 -79.515625 59.28125 -79.203125 59.90625 -78.578125 C 60.53125 -77.953125 60.84375 -76.941406 60.84375 -75.546875 L 60.84375 -62.171875 C 60.84375 -60.773438 60.53125 -59.765625 59.90625 -59.140625 C 59.28125 -58.515625 58.269531 -58.203125 56.875 -58.203125 L 46.15625 -58.203125 L 46.15625 -21.09375 L 56.875 -21.09375 C 58.269531 -21.09375 59.28125 -20.78125 59.90625 -20.15625 C 60.53125 -19.53125 60.84375 -18.519531 60.84375 -17.125 L 60.84375 -3.96875 C 60.84375 -2.570312 60.53125 -1.5625 59.90625 -0.9375 C 59.28125 -0.3125 58.269531 0 56.875 0 Z M 9.828125 0 "/></g></g></g><g fill="#e5b2f1" fill-opacity="1"><g transform="translate(825.15353, 367.789689)"><g><path d="M 48.8125 0 L 11.59375 0 C 10.195312 0 9.1875 -0.3125 8.5625 -0.9375 C 7.9375 -1.5625 7.625 -2.570312 7.625 -3.96875 L 7.625 -75.546875 C 7.625 -76.941406 7.9375 -77.953125 8.5625 -78.578125 C 9.1875 -79.203125 10.195312 -79.515625 11.59375 -79.515625 L 48.8125 -79.515625 C 58.019531 -79.515625 64.847656 -77.671875 69.296875 -73.984375 C 73.753906 -70.304688 75.984375 -64.640625 75.984375 -56.984375 L 75.984375 -22.53125 C 75.984375 -14.875 73.753906 -9.203125 69.296875 -5.515625 C 64.847656 -1.835938 58.019531 0 48.8125 0 Z M 32.6875 -58.421875 L 32.6875 -20.875 L 45.828125 -20.875 C 47.597656 -20.875 48.90625 -21.3125 49.75 -22.1875 C 50.59375 -23.070312 51.015625 -24.4375 51.015625 -26.28125 L 51.015625 -53.125 C 51.015625 -54.957031 50.59375 -56.296875 49.75 -57.140625 C 48.90625 -57.992188 47.597656 -58.421875 45.828125 -58.421875 Z M 32.6875 -58.421875 "/></g></g></g><g fill="#e5b2f1" fill-opacity="1"><g transform="translate(907.531211, 367.789689)"><g><path d="M 36.4375 -56.328125 L 31.25 -39.53125 L 48.59375 -39.53125 L 43.40625 -56.328125 C 43.101562 -56.984375 42.785156 -57.457031 42.453125 -57.75 C 42.128906 -58.050781 41.742188 -58.203125 41.296875 -58.203125 L 38.546875 -58.203125 C 38.097656 -58.203125 37.707031 -58.050781 37.375 -57.75 C 37.050781 -57.457031 36.738281 -56.984375 36.4375 -56.328125 Z M 30.15625 -3.96875 C 30.15625 -2.570312 29.835938 -1.5625 29.203125 -0.9375 C 28.578125 -0.3125 27.566406 0 26.171875 0 L 9.9375 0 C 8.539062 0 7.53125 -0.3125 6.90625 -0.9375 C 6.28125 -1.5625 5.96875 -2.570312 5.96875 -3.96875 L 5.96875 -33.125 C 5.96875 -35.332031 6.316406 -37.875 7.015625 -40.75 C 7.710938 -43.625 8.796875 -46.972656 10.265625 -50.796875 L 19.875 -75.875 C 20.320312 -77.125 21.003906 -78.039062 21.921875 -78.625 C 22.835938 -79.21875 24.035156 -79.515625 25.515625 -79.515625 L 55.21875 -79.515625 C 56.613281 -79.515625 57.769531 -79.21875 58.6875 -78.625 C 59.613281 -78.039062 60.296875 -77.125 60.734375 -75.875 L 70.34375 -50.796875 C 71.820312 -46.972656 72.910156 -43.625 73.609375 -40.75 C 74.304688 -37.875 74.65625 -35.332031 74.65625 -33.125 L 74.65625 -3.96875 C 74.65625 -2.570312 74.34375 -1.5625 73.71875 -0.9375 C 73.09375 -0.3125 72.082031 0 70.6875 0 L 54 0 C 52.53125 0 51.445312 -0.3125 50.75 -0.9375 C 50.050781 -1.5625 49.703125 -2.570312 49.703125 -3.96875 L 49.703125 -19.4375 L 30.15625 -19.4375 Z M 30.15625 -3.96875 "/></g></g></g><g fill="#e5b2f1" fill-opacity="1"><g transform="translate(988.142062, 367.789689)"><g><path d="M 48.8125 0 L 11.59375 0 C 10.195312 0 9.1875 -0.3125 8.5625 -0.9375 C 7.9375 -1.5625 7.625 -2.570312 7.625 -3.96875 L 7.625 -75.546875 C 7.625 -76.941406 7.9375 -77.953125 8.5625 -78.578125 C 9.1875 -79.203125 10.195312 -79.515625 11.59375 -79.515625 L 48.8125 -79.515625 C 58.019531 -79.515625 64.847656 -77.671875 69.296875 -73.984375 C 73.753906 -70.304688 75.984375 -64.640625 75.984375 -56.984375 L 75.984375 -22.53125 C 75.984375 -14.875 73.753906 -9.203125 69.296875 -5.515625 C 64.847656 -1.835938 58.019531 0 48.8125 0 Z M 32.6875 -58.421875 L 32.6875 -20.875 L 45.828125 -20.875 C 47.597656 -20.875 48.90625 -21.3125 49.75 -22.1875 C 50.59375 -23.070312 51.015625 -24.4375 51.015625 -26.28125 L 51.015625 -53.125 C 51.015625 -54.957031 50.59375 -56.296875 49.75 -57.140625 C 48.90625 -57.992188 47.597656 -58.421875 45.828125 -58.421875 Z M 32.6875 -58.421875 "/></g></g></g><path stroke-linecap="butt" transform="matrix(0.75, 0, 0, 0.75, 278.998879, 250.789695)" fill="none" stroke-linejoin="miter" d="M 76.548374 155.999165 L 53.725456 155.999165 C 51.855664 155.999165 50.501498 155.582498 49.662956 154.743957 C 48.845248 153.905415 48.438998 152.561665 48.438998 150.717915 L 48.438998 55.275202 C 48.438998 53.431452 48.845248 52.087702 49.662956 51.24916 C 50.501498 50.410618 51.855664 49.993951 53.725456 49.993951 L 98.767125 49.993951 C 112.136918 49.993951 121.267126 52.639785 126.157752 57.93666 C 131.06921 63.233535 133.527544 70.155411 133.527544 78.712703 L 133.527544 97.551245 C 133.527544 106.082496 131.06921 113.00958 126.157752 118.327288 C 121.267126 123.624163 112.136918 126.269997 98.767125 126.269997 L 81.834833 126.269997 L 81.834833 150.717915 C 81.834833 152.561665 81.412958 153.905415 80.574416 154.743957 C 79.761916 155.582498 78.418166 155.999165 76.548374 155.999165 Z M 81.548374 77.525203 L 81.548374 99.743954 L 94.808792 99.743954 C 97.662958 99.743954 99.522334 99.009579 100.381709 97.551245 C 101.267125 96.061662 101.715042 94.400204 101.715042 92.551245 L 101.715042 84.75437 C 101.715042 82.884578 101.267125 81.217911 100.381709 79.75437 C 99.522334 78.269994 97.662958 77.525203 94.808792 77.525203 Z M 239.079632 128.176247 C 239.079632 132.681456 238.423382 136.780414 237.105674 140.473123 C 235.782757 144.139789 233.423382 147.275206 230.02234 149.88979 C 226.642132 152.499165 222.006715 154.535623 216.110881 155.999165 C 210.241089 157.462707 202.73588 158.191874 193.605672 158.191874 C 184.475463 158.191874 176.965046 157.462707 171.069212 155.999165 C 165.173379 154.535623 160.537962 152.499165 157.157753 149.88979 C 153.777545 147.275206 151.41817 144.139789 150.074419 140.473123 C 148.756711 136.780414 148.095253 132.681456 148.095253 128.176247 L 148.095253 55.275202 C 148.095253 53.431452 148.517128 52.087702 149.355669 51.24916 C 150.194211 50.410618 151.548378 49.993951 153.41817 49.993951 L 176.532754 49.993951 C 178.376504 49.993951 179.720254 50.410618 180.558796 51.24916 C 181.397338 52.087702 181.814004 53.431452 181.814004 55.275202 L 181.814004 122.426247 C 181.814004 124.389788 182.548379 126.046039 184.006713 127.38458 C 185.496296 128.702289 188.787963 129.363747 193.89213 129.363747 C 199.095255 129.363747 202.428589 128.702289 203.886922 127.38458 C 205.371297 126.046039 206.116089 124.389788 206.116089 122.426247 L 206.116089 55.275202 C 206.116089 53.431452 206.537964 52.087702 207.376506 51.24916 C 208.215047 50.410618 209.553589 49.993951 211.402548 49.993951 L 233.798382 49.993951 C 235.662965 49.993951 237.006715 50.410618 237.824424 51.24916 C 238.662966 52.087702 239.079632 53.431452 239.079632 55.275202 Z M 320.517136 155.999165 L 263.975467 155.999165 C 262.105675 155.999165 260.751508 155.582498 259.912967 154.743957 C 259.095258 153.905415 258.689008 152.561665 258.689008 150.717915 L 258.689008 55.275202 C 258.689008 53.431452 259.095258 52.087702 259.912967 51.24916 C 260.751508 50.410618 262.105675 49.993951 263.975467 49.993951 L 310.954636 49.993951 C 320.56922 49.993951 327.673387 51.837701 332.272345 55.525202 C 336.897346 59.191869 339.209846 64.863744 339.209846 72.530411 L 339.209846 79.577286 C 339.209846 83.697078 338.491096 87.06687 337.053596 89.676245 C 335.642137 92.264787 333.459845 94.207495 330.511929 95.499162 C 336.814012 96.077287 341.485887 98.233537 344.532763 101.973121 C 347.574429 105.686663 349.095263 111.124163 349.095263 118.29083 L 349.095263 131.842914 C 349.095263 140.087706 346.761929 146.176248 342.084846 150.103331 C 337.412971 154.035623 330.22547 155.999165 320.517136 155.999165 Z M 291.798385 75.009578 L 291.798385 90.936662 L 304.308802 90.936662 C 306.173386 90.936662 307.579636 90.44187 308.511927 89.462703 C 309.449427 88.478328 309.912969 87.00437 309.912969 85.040828 L 309.912969 80.905411 C 309.912969 78.94187 309.449427 77.467911 308.511927 76.483536 C 307.579636 75.504369 306.173386 75.009578 304.308802 75.009578 Z M 291.798385 113.582496 L 291.798385 130.97833 L 310.954636 130.97833 C 312.824428 130.97833 314.215053 130.488747 315.126511 129.504372 C 316.058803 128.525205 316.527553 127.051247 316.527553 125.087705 L 316.527553 119.332497 C 316.527553 117.368955 316.058803 115.921038 315.126511 114.983538 C 314.215053 114.051246 312.824428 113.582496 310.954636 113.582496 Z M 445.668184 155.999165 L 370.720264 155.999165 C 368.850472 155.999165 367.496305 155.582498 366.657764 154.743957 C 365.840055 153.905415 365.433805 152.561665 365.433805 150.717915 L 365.433805 55.275202 C 365.433805 53.431452 365.840055 52.087702 366.657764 51.24916 C 367.496305 50.410618 368.850472 49.993951 370.720264 49.993951 L 393.543182 49.993951 C 395.412973 49.993951 396.756724 50.410618 397.569224 51.24916 C 398.407765 52.087702 398.82964 53.431452 398.82964 55.275202 L 398.82964 128.176247 L 419.032766 128.176247 L 419.032766 104.306454 C 419.032766 102.436662 419.439016 101.098121 420.251516 100.280412 C 421.095266 99.441871 422.449433 99.025204 424.314017 99.025204 L 445.668184 99.025204 C 447.537976 99.025204 448.881726 99.441871 449.694226 100.280412 C 450.532768 101.098121 450.954643 102.436662 450.954643 104.306454 L 450.954643 150.717915 C 450.954643 152.561665 450.532768 153.905415 449.694226 154.743957 C 448.881726 155.582498 447.537976 155.999165 445.668184 155.999165 Z M 470.709852 155.999165 C 468.84006 155.999165 467.485894 155.582498 466.647352 154.743957 C 465.80881 153.905415 465.392144 152.561665 465.392144 150.717915 L 465.392144 133.171039 C 465.392144 131.306455 465.80881 129.962705 466.647352 129.144997 C 467.485894 128.306455 468.84006 127.889789 470.709852 127.889789 L 485.267145 127.889789 L 485.267145 78.389786 L 470.709852 78.389786 C 468.84006 78.389786 467.485894 77.983536 466.647352 77.165828 C 465.80881 76.327286 465.392144 74.973119 465.392144 73.103328 L 465.392144 55.275202 C 465.392144 53.431452 465.80881 52.087702 466.647352 51.24916 C 467.485894 50.410618 468.84006 49.993951 470.709852 49.993951 L 533.402564 49.993951 C 535.272355 49.993951 536.626522 50.410618 537.465064 51.24916 C 538.303606 52.087702 538.720272 53.431452 538.720272 55.275202 L 538.720272 73.103328 C 538.720272 74.973119 538.303606 76.327286 537.465064 77.165828 C 536.626522 77.983536 535.272355 78.389786 533.402564 78.389786 L 519.13173 78.389786 L 519.13173 127.889789 L 533.402564 127.889789 C 535.272355 127.889789 536.626522 128.306455 537.465064 129.144997 C 538.303606 129.962705 538.720272 131.306455 538.720272 133.171039 L 538.720272 150.717915 C 538.720272 152.561665 538.303606 153.905415 537.465064 154.743957 C 536.626522 155.582498 535.272355 155.999165 533.402564 155.999165 Z M 627.36611 155.999165 L 591.418192 155.999165 C 579.152566 155.999165 570.043191 153.54604 564.100482 148.629373 C 558.178607 143.717914 555.220273 136.155414 555.220273 125.94708 L 555.220273 80.186661 C 555.220273 69.978327 558.178607 62.394994 564.100482 57.431452 C 570.043191 52.473118 579.152566 49.993951 591.418192 49.993951 L 627.36611 49.993951 C 629.215069 49.993951 630.55361 50.410618 631.392152 51.24916 C 632.230694 52.087702 632.652569 53.431452 632.652569 55.275202 L 632.652569 73.103328 C 632.652569 74.973119 632.230694 76.327286 631.392152 77.165828 C 630.55361 77.983536 629.215069 78.389786 627.36611 78.389786 L 597.746317 78.389786 C 594.70465 78.389786 592.439025 79.014786 590.95465 80.259578 C 589.491108 81.483536 588.761942 83.31687 588.761942 85.759578 L 588.761942 120.806455 C 588.761942 123.254372 589.491108 125.051247 590.95465 126.202289 C 592.439025 127.327289 594.70465 127.889789 597.746317 127.889789 L 627.36611 127.889789 C 629.215069 127.889789 630.55361 128.306455 631.392152 129.144997 C 632.230694 129.962705 632.652569 131.306455 632.652569 133.171039 L 632.652569 150.717915 C 632.652569 152.561665 632.230694 153.905415 631.392152 154.743957 C 630.55361 155.582498 629.215069 155.999165 627.36611 155.999165 Z M 652.251528 155.999165 C 650.381736 155.999165 649.02757 155.582498 648.189028 154.743957 C 647.350486 153.905415 646.928611 152.561665 646.928611 150.717915 L 646.928611 133.171039 C 646.928611 131.306455 647.350486 129.962705 648.189028 129.144997 C 649.02757 128.306455 650.381736 127.889789 652.251528 127.889789 L 666.80882 127.889789 L 666.80882 78.389786 L 652.251528 78.389786 C 650.381736 78.389786 649.02757 77.983536 648.189028 77.165828 C 647.350486 76.327286 646.928611 74.973119 646.928611 73.103328 L 646.928611 55.275202 C 646.928611 53.431452 647.350486 52.087702 648.189028 51.24916 C 649.02757 50.410618 650.381736 49.993951 652.251528 49.993951 L 714.94424 49.993951 C 716.814031 49.993951 718.16299 50.410618 719.00674 51.24916 C 719.845281 52.087702 720.261948 53.431452 720.261948 55.275202 L 720.261948 73.103328 C 720.261948 74.973119 719.845281 76.327286 719.00674 77.165828 C 718.16299 77.983536 716.814031 78.389786 714.94424 78.389786 L 700.673405 78.389786 L 700.673405 127.889789 L 714.94424 127.889789 C 716.814031 127.889789 718.16299 128.306455 719.00674 129.144997 C 719.845281 129.962705 720.261948 131.306455 720.261948 133.171039 L 720.261948 150.717915 C 720.261948 152.561665 719.845281 153.905415 719.00674 154.743957 C 718.16299 155.582498 716.814031 155.999165 714.94424 155.999165 Z M 793.272368 155.999165 L 743.662991 155.999165 C 741.793199 155.999165 740.439032 155.582498 739.600491 154.743957 C 738.787991 153.905415 738.381741 152.561665 738.381741 150.717915 L 738.381741 55.275202 C 738.381741 53.431452 738.787991 52.087702 739.600491 51.24916 C 740.439032 50.410618 741.793199 49.993951 743.662991 49.993951 L 793.272368 49.993951 C 805.543202 49.993951 814.64737 52.447077 820.590078 57.358535 C 826.532787 62.24916 829.506745 69.796036 829.506745 80.009578 L 829.506745 125.94708 C 829.506745 136.155414 826.532787 143.717914 820.590078 148.629373 C 814.64737 153.54604 805.543202 155.999165 793.272368 155.999165 Z M 771.772367 78.103328 L 771.772367 128.176247 L 789.314035 128.176247 C 791.662993 128.176247 793.402577 127.587705 794.527577 126.41583 C 795.657785 125.238747 796.220285 123.421038 796.220285 120.952288 L 796.220285 85.181453 C 796.220285 82.717911 795.657785 80.915828 794.527577 79.790828 C 793.402577 78.665828 791.662993 78.103328 789.314035 78.103328 Z M 886.642165 80.905411 L 879.704664 103.301246 L 902.819249 103.301246 L 895.918207 80.905411 C 895.511957 80.019995 895.079665 79.384578 894.62654 78.999161 C 894.194249 78.592911 893.68904 78.389786 893.116123 78.389786 L 889.449457 78.389786 C 888.850498 78.389786 888.319248 78.592911 887.866123 78.999161 C 887.433832 79.384578 887.027582 80.019995 886.642165 80.905411 Z M 878.230706 150.717915 C 878.230706 152.561665 877.814039 153.905415 876.975498 154.743957 C 876.157789 155.582498 874.819248 155.999165 872.949456 155.999165 L 851.30883 155.999165 C 849.439038 155.999165 848.084871 155.582498 847.24633 154.743957 C 846.407788 153.905415 845.985913 152.561665 845.985913 150.717915 L 845.985913 111.82208 C 845.985913 108.874163 846.454663 105.493954 847.386955 101.681454 C 848.324455 97.84812 849.772371 93.37937 851.741121 88.275203 L 864.537997 54.84291 C 865.136955 53.165827 866.048414 51.947077 867.267164 51.176243 C 868.491122 50.384576 870.084872 49.993951 872.048414 49.993951 L 911.662999 49.993951 C 913.532791 49.993951 915.079666 50.384576 916.298416 51.176243 C 917.522375 51.947077 918.433833 53.165827 919.032791 54.84291 L 931.829667 88.275203 C 933.793209 93.37937 935.246334 97.84812 936.178626 101.681454 C 937.116126 105.493954 937.579667 108.874163 937.579667 111.82208 L 937.579667 150.717915 C 937.579667 152.561665 937.163001 153.905415 936.324459 154.743957 C 935.485917 155.582498 934.131751 155.999165 932.261959 155.999165 L 910.043208 155.999165 C 908.079666 155.999165 906.631749 155.582498 905.694249 154.743957 C 904.761957 153.905415 904.293207 152.561665 904.293207 150.717915 L 904.293207 130.082497 L 878.230706 130.082497 Z M 1010.590088 155.999165 L 960.98071 155.999165 C 959.110918 155.999165 957.756752 155.582498 956.91821 154.743957 C 956.10571 153.905415 955.69946 152.561665 955.69946 150.717915 L 955.69946 55.275202 C 955.69946 53.431452 956.10571 52.087702 956.91821 51.24916 C 957.756752 50.410618 959.110918 49.993951 960.98071 49.993951 L 1010.590088 49.993951 C 1022.860922 49.993951 1031.965089 52.447077 1037.907797 57.358535 C 1043.850506 62.24916 1046.824465 69.796036 1046.824465 80.009578 L 1046.824465 125.94708 C 1046.824465 136.155414 1043.850506 143.717914 1037.907797 148.629373 C 1031.965089 153.54604 1022.860922 155.999165 1010.590088 155.999165 Z M 989.090087 78.103328 L 989.090087 128.176247 L 1006.636963 128.176247 C 1008.980713 128.176247 1010.720296 127.587705 1011.845296 126.41583 C 1012.975505 125.238747 1013.538005 123.421038 1013.538005 120.952288 L 1013.538005 85.181453 C 1013.538005 82.717911 1012.975505 80.915828 1011.845296 79.790828 C 1010.720296 78.665828 1008.980713 78.103328 1006.636963 78.103328 Z M 989.090087 78.103328 " stroke="#000000" stroke-width="6.442012" stroke-opacity="1" stroke-miterlimit="4"/><g fill="#e5b2f1" fill-opacity="1"><g transform="translate(427.123871, 522.289681)"><g><path d="M 48.8125 0 L 11.59375 0 C 10.195312 0 9.1875 -0.3125 8.5625 -0.9375 C 7.9375 -1.5625 7.625 -2.570312 7.625 -3.96875 L 7.625 -75.546875 C 7.625 -76.941406 7.9375 -77.953125 8.5625 -78.578125 C 9.1875 -79.203125 10.195312 -79.515625 11.59375 -79.515625 L 48.8125 -79.515625 C 58.019531 -79.515625 64.847656 -77.671875 69.296875 -73.984375 C 73.753906 -70.304688 75.984375 -64.640625 75.984375 -56.984375 L 75.984375 -22.53125 C 75.984375 -14.875 73.753906 -9.203125 69.296875 -5.515625 C 64.847656 -1.835938 58.019531 0 48.8125 0 Z M 32.6875 -58.421875 L 32.6875 -20.875 L 45.828125 -20.875 C 47.597656 -20.875 48.90625 -21.3125 49.75 -22.1875 C 50.59375 -23.070312 51.015625 -24.4375 51.015625 -26.28125 L 51.015625 -53.125 C 51.015625 -54.957031 50.59375 -56.296875 49.75 -57.140625 C 48.90625 -57.992188 47.597656 -58.421875 45.828125 -58.421875 Z M 32.6875 -58.421875 "/></g></g></g><g fill="#e5b2f1" fill-opacity="1"><g transform="translate(509.501541, 522.289681)"><g><path d="M 9.828125 0 C 8.429688 0 7.421875 -0.3125 6.796875 -0.9375 C 6.171875 -1.5625 5.859375 -2.570312 5.859375 -3.96875 L 5.859375 -17.125 C 5.859375 -18.519531 6.171875 -19.53125 6.796875 -20.15625 C 7.421875 -20.78125 8.429688 -21.09375 9.828125 -21.09375 L 20.765625 -21.09375 L 20.765625 -58.203125 L 9.828125 -58.203125 C 8.429688 -58.203125 7.421875 -58.515625 6.796875 -59.140625 C 6.171875 -59.765625 5.859375 -60.773438 5.859375 -62.171875 L 5.859375 -75.546875 C 5.859375 -76.941406 6.171875 -77.953125 6.796875 -78.578125 C 7.421875 -79.203125 8.429688 -79.515625 9.828125 -79.515625 L 56.875 -79.515625 C 58.269531 -79.515625 59.28125 -79.203125 59.90625 -78.578125 C 60.53125 -77.953125 60.84375 -76.941406 60.84375 -75.546875 L 60.84375 -62.171875 C 60.84375 -60.773438 60.53125 -59.765625 59.90625 -59.140625 C 59.28125 -58.515625 58.269531 -58.203125 56.875 -58.203125 L 46.15625 -58.203125 L 46.15625 -21.09375 L 56.875 -21.09375 C 58.269531 -21.09375 59.28125 -20.78125 59.90625 -20.15625 C 60.53125 -19.53125 60.84375 -18.519531 60.84375 -17.125 L 60.84375 -3.96875 C 60.84375 -2.570312 60.53125 -1.5625 59.90625 -0.9375 C 59.28125 -0.3125 58.269531 0 56.875 0 Z M 9.828125 0 "/></g></g></g><g fill="#e5b2f1" fill-opacity="1"><g transform="translate(576.30917, 522.289681)"><g><path d="M 68.359375 0 L 33.578125 0 C 24.367188 0 17.535156 -1.835938 13.078125 -5.515625 C 8.628906 -9.203125 6.40625 -14.875 6.40625 -22.53125 L 6.40625 -56.984375 C 6.40625 -64.640625 8.628906 -70.304688 13.078125 -73.984375 C 17.535156 -77.671875 24.367188 -79.515625 33.578125 -79.515625 L 61.1875 -79.515625 C 62.582031 -79.515625 63.59375 -79.203125 64.21875 -78.578125 C 64.84375 -77.953125 65.15625 -76.941406 65.15625 -75.546875 L 65.15625 -62.171875 C 65.15625 -60.773438 64.84375 -59.765625 64.21875 -59.140625 C 63.59375 -58.515625 62.582031 -58.203125 61.1875 -58.203125 L 38.21875 -58.203125 C 35.925781 -58.203125 34.226562 -57.738281 33.125 -56.8125 C 32.019531 -55.894531 31.46875 -54.515625 31.46875 -52.671875 L 31.46875 -26.28125 C 31.46875 -24.4375 31.890625 -23.070312 32.734375 -22.1875 C 33.585938 -21.3125 34.863281 -20.875 36.5625 -20.875 L 47.265625 -20.875 L 47.265625 -38.09375 C 47.265625 -39.5 47.578125 -40.515625 48.203125 -41.140625 C 48.828125 -41.765625 49.84375 -42.078125 51.25 -42.078125 L 68.359375 -42.078125 C 69.753906 -42.078125 70.765625 -41.765625 71.390625 -41.140625 C 72.023438 -40.515625 72.34375 -39.5 72.34375 -38.09375 L 72.34375 -3.96875 C 72.34375 -2.570312 72.023438 -1.5625 71.390625 -0.9375 C 70.765625 -0.3125 69.753906 0 68.359375 0 Z M 68.359375 0 "/></g></g></g><g fill="#e5b2f1" fill-opacity="1"><g transform="translate(654.490658, 522.289681)"><g><path d="M 9.828125 0 C 8.429688 0 7.421875 -0.3125 6.796875 -0.9375 C 6.171875 -1.5625 5.859375 -2.570312 5.859375 -3.96875 L 5.859375 -17.125 C 5.859375 -18.519531 6.171875 -19.53125 6.796875 -20.15625 C 7.421875 -20.78125 8.429688 -21.09375 9.828125 -21.09375 L 20.765625 -21.09375 L 20.765625 -58.203125 L 9.828125 -58.203125 C 8.429688 -58.203125 7.421875 -58.515625 6.796875 -59.140625 C 6.171875 -59.765625 5.859375 -60.773438 5.859375 -62.171875 L 5.859375 -75.546875 C 5.859375 -76.941406 6.171875 -77.953125 6.796875 -78.578125 C 7.421875 -79.203125 8.429688 -79.515625 9.828125 -79.515625 L 56.875 -79.515625 C 58.269531 -79.515625 59.28125 -79.203125 59.90625 -78.578125 C 60.53125 -77.953125 60.84375 -76.941406 60.84375 -75.546875 L 60.84375 -62.171875 C 60.84375 -60.773438 60.53125 -59.765625 59.90625 -59.140625 C 59.28125 -58.515625 58.269531 -58.203125 56.875 -58.203125 L 46.15625 -58.203125 L 46.15625 -21.09375 L 56.875 -21.09375 C 58.269531 -21.09375 59.28125 -20.78125 59.90625 -20.15625 C 60.53125 -19.53125 60.84375 -18.519531 60.84375 -17.125 L 60.84375 -3.96875 C 60.84375 -2.570312 60.53125 -1.5625 59.90625 -0.9375 C 59.28125 -0.3125 58.269531 0 56.875 0 Z M 9.828125 0 "/></g></g></g><g fill="#e5b2f1" fill-opacity="1"><g transform="translate(721.298287, 522.289681)"><g><path d="M 45.171875 0 L 27.28125 0 C 25.882812 0 24.867188 -0.3125 24.234375 -0.9375 C 23.609375 -1.5625 23.296875 -2.570312 23.296875 -3.96875 L 23.296875 -58.203125 L 7.0625 -58.203125 C 5.664062 -58.203125 4.65625 -58.515625 4.03125 -59.140625 C 3.40625 -59.765625 3.09375 -60.773438 3.09375 -62.171875 L 3.09375 -75.546875 C 3.09375 -76.941406 3.40625 -77.953125 4.03125 -78.578125 C 4.65625 -79.203125 5.664062 -79.515625 7.0625 -79.515625 L 65.375 -79.515625 C 66.78125 -79.515625 67.796875 -79.203125 68.421875 -78.578125 C 69.046875 -77.953125 69.359375 -76.941406 69.359375 -75.546875 L 69.359375 -62.171875 C 69.359375 -60.773438 69.046875 -59.765625 68.421875 -59.140625 C 67.796875 -58.515625 66.78125 -58.203125 65.375 -58.203125 L 49.140625 -58.203125 L 49.140625 -3.96875 C 49.140625 -2.570312 48.828125 -1.5625 48.203125 -0.9375 C 47.578125 -0.3125 46.566406 0 45.171875 0 Z M 45.171875 0 "/></g></g></g><g fill="#e5b2f1" fill-opacity="1"><g transform="translate(793.737622, 522.289681)"><g><path d="M 36.4375 -56.328125 L 31.25 -39.53125 L 48.59375 -39.53125 L 43.40625 -56.328125 C 43.101562 -56.984375 42.785156 -57.457031 42.453125 -57.75 C 42.128906 -58.050781 41.742188 -58.203125 41.296875 -58.203125 L 38.546875 -58.203125 C 38.097656 -58.203125 37.707031 -58.050781 37.375 -57.75 C 37.050781 -57.457031 36.738281 -56.984375 36.4375 -56.328125 Z M 30.15625 -3.96875 C 30.15625 -2.570312 29.835938 -1.5625 29.203125 -0.9375 C 28.578125 -0.3125 27.566406 0 26.171875 0 L 9.9375 0 C 8.539062 0 7.53125 -0.3125 6.90625 -0.9375 C 6.28125 -1.5625 5.96875 -2.570312 5.96875 -3.96875 L 5.96875 -33.125 C 5.96875 -35.332031 6.316406 -37.875 7.015625 -40.75 C 7.710938 -43.625 8.796875 -46.972656 10.265625 -50.796875 L 19.875 -75.875 C 20.320312 -77.125 21.003906 -78.039062 21.921875 -78.625 C 22.835938 -79.21875 24.035156 -79.515625 25.515625 -79.515625 L 55.21875 -79.515625 C 56.613281 -79.515625 57.769531 -79.21875 58.6875 -78.625 C 59.613281 -78.039062 60.296875 -77.125 60.734375 -75.875 L 70.34375 -50.796875 C 71.820312 -46.972656 72.910156 -43.625 73.609375 -40.75 C 74.304688 -37.875 74.65625 -35.332031 74.65625 -33.125 L 74.65625 -3.96875 C 74.65625 -2.570312 74.34375 -1.5625 73.71875 -0.9375 C 73.09375 -0.3125 72.082031 0 70.6875 0 L 54 0 C 52.53125 0 51.445312 -0.3125 50.75 -0.9375 C 50.050781 -1.5625 49.703125 -2.570312 49.703125 -3.96875 L 49.703125 -19.4375 L 30.15625 -19.4375 Z M 30.15625 -3.96875 "/></g></g></g><g fill="#e5b2f1" fill-opacity="1"><g transform="translate(874.348473, 522.289681)"><g><path d="M 67.8125 0 L 11.59375 0 C 10.195312 0 9.1875 -0.3125 8.5625 -0.9375 C 7.9375 -1.5625 7.625 -2.570312 7.625 -3.96875 L 7.625 -75.546875 C 7.625 -76.941406 7.9375 -77.953125 8.5625 -78.578125 C 9.1875 -79.203125 10.195312 -79.515625 11.59375 -79.515625 L 28.71875 -79.515625 C 30.113281 -79.515625 31.125 -79.203125 31.75 -78.578125 C 32.375 -77.953125 32.6875 -76.941406 32.6875 -75.546875 L 32.6875 -20.875 L 47.8125 -20.875 L 47.8125 -38.765625 C 47.8125 -40.160156 48.125 -41.171875 48.75 -41.796875 C 49.382812 -42.421875 50.398438 -42.734375 51.796875 -42.734375 L 67.8125 -42.734375 C 69.207031 -42.734375 70.21875 -42.421875 70.84375 -41.796875 C 71.46875 -41.171875 71.78125 -40.160156 71.78125 -38.765625 L 71.78125 -3.96875 C 71.78125 -2.570312 71.46875 -1.5625 70.84375 -0.9375 C 70.21875 -0.3125 69.207031 0 67.8125 0 Z M 67.8125 0 "/></g></g></g><path stroke-linecap="butt" transform="matrix(0.75, 0, 0, 0.75, 278.998879, 250.789695)" fill="none" stroke-linejoin="miter" d="M 262.564008 361.999175 L 212.959839 361.999175 C 211.090048 361.999175 209.735881 361.582509 208.897339 360.743967 C 208.079631 359.905425 207.673381 358.561675 207.673381 356.717925 L 207.673381 261.275212 C 207.673381 259.431462 208.079631 258.087712 208.897339 257.24917 C 209.735881 256.410628 211.090048 255.993962 212.959839 255.993962 L 262.564008 255.993962 C 274.834842 255.993962 283.93901 258.447087 289.886926 263.358545 C 295.829635 268.249171 298.798385 275.796046 298.798385 286.009588 L 298.798385 331.947091 C 298.798385 342.155424 295.829635 349.717925 289.886926 354.629383 C 283.93901 359.54605 274.834842 361.999175 262.564008 361.999175 Z M 241.069216 284.103338 L 241.069216 334.176257 L 258.610883 334.176257 C 260.959842 334.176257 262.694217 333.587716 263.824425 332.415841 C 264.949425 331.238757 265.511925 329.421049 265.511925 326.952299 L 265.511925 291.181464 C 265.511925 288.717922 264.949425 286.915838 263.824425 285.790838 C 262.694217 284.665838 260.959842 284.103338 258.610883 284.103338 Z M 320.459845 361.999175 C 318.590053 361.999175 317.235886 361.582509 316.397344 360.743967 C 315.558803 359.905425 315.136928 358.561675 315.136928 356.717925 L 315.136928 339.171049 C 315.136928 337.306466 315.558803 335.962716 316.397344 335.145007 C 317.235886 334.306466 318.590053 333.889799 320.459845 333.889799 L 335.017137 333.889799 L 335.017137 284.389797 L 320.459845 284.389797 C 318.590053 284.389797 317.235886 283.983547 316.397344 283.165838 C 315.558803 282.327296 315.136928 280.97313 315.136928 279.103338 L 315.136928 261.275212 C 315.136928 259.431462 315.558803 258.087712 316.397344 257.24917 C 317.235886 256.410628 318.590053 255.993962 320.459845 255.993962 L 383.147348 255.993962 C 385.01714 255.993962 386.371306 256.410628 387.209848 257.24917 C 388.04839 258.087712 388.470265 259.431462 388.470265 261.275212 L 388.470265 279.103338 C 388.470265 280.97313 388.04839 282.327296 387.209848 283.165838 C 386.371306 283.983547 385.01714 284.389797 383.147348 284.389797 L 368.876514 284.389797 L 368.876514 333.889799 L 383.147348 333.889799 C 385.01714 333.889799 386.371306 334.306466 387.209848 335.145007 C 388.04839 335.962716 388.470265 337.306466 388.470265 339.171049 L 388.470265 356.717925 C 388.470265 358.561675 388.04839 359.905425 387.209848 360.743967 C 386.371306 361.582509 385.01714 361.999175 383.147348 361.999175 Z M 487.537978 361.999175 L 441.168184 361.999175 C 428.89735 361.999175 419.793183 359.54605 413.850474 354.629383 C 407.928599 349.717925 404.970266 342.155424 404.970266 331.947091 L 404.970266 286.009588 C 404.970266 275.796046 407.928599 268.249171 413.850474 263.358545 C 419.793183 258.447087 428.89735 255.993962 441.168184 255.993962 L 477.980686 255.993962 C 479.845269 255.993962 481.199436 256.410628 482.037978 257.24917 C 482.87652 258.087712 483.298395 259.431462 483.298395 261.275212 L 483.298395 279.103338 C 483.298395 280.97313 482.87652 282.327296 482.037978 283.165838 C 481.199436 283.983547 479.845269 284.389797 477.980686 284.389797 L 447.350476 284.389797 C 444.308809 284.389797 442.043184 285.014797 440.558809 286.259588 C 439.095267 287.483547 438.366101 289.31688 438.366101 291.759589 L 438.366101 326.952299 C 438.366101 329.421049 438.928601 331.238757 440.053601 332.415841 C 441.204642 333.587716 442.907768 334.176257 445.157768 334.176257 L 459.428602 334.176257 L 459.428602 311.207506 C 459.428602 309.337714 459.850477 307.983548 460.689018 307.145006 C 461.52756 306.306464 462.881727 305.884589 464.751519 305.884589 L 487.537978 305.884589 C 489.40777 305.884589 490.761937 306.306464 491.600478 307.145006 C 492.43902 307.983548 492.860895 309.337714 492.860895 311.207506 L 492.860895 356.717925 C 492.860895 358.561675 492.43902 359.905425 491.600478 360.743967 C 490.761937 361.582509 489.40777 361.999175 487.537978 361.999175 Z M 513.777563 361.999175 C 511.907771 361.999175 510.553604 361.582509 509.715063 360.743967 C 508.876521 359.905425 508.454646 358.561675 508.454646 356.717925 L 508.454646 339.171049 C 508.454646 337.306466 508.876521 335.962716 509.715063 335.145007 C 510.553604 334.306466 511.907771 333.889799 513.777563 333.889799 L 528.334855 333.889799 L 528.334855 284.389797 L 513.777563 284.389797 C 511.907771 284.389797 510.553604 283.983547 509.715063 283.165838 C 508.876521 282.327296 508.454646 280.97313 508.454646 279.103338 L 508.454646 261.275212 C 508.454646 259.431462 508.876521 258.087712 509.715063 257.24917 C 510.553604 256.410628 511.907771 255.993962 513.777563 255.993962 L 576.470274 255.993962 C 578.340066 255.993962 579.694233 256.410628 580.532774 257.24917 C 581.371316 258.087712 581.787983 259.431462 581.787983 261.275212 L 581.787983 279.103338 C 581.787983 280.97313 581.371316 282.327296 580.532774 283.165838 C 579.694233 283.983547 578.340066 284.389797 576.470274 284.389797 L 562.19944 284.389797 L 562.19944 333.889799 L 576.470274 333.889799 C 578.340066 333.889799 579.694233 334.306466 580.532774 335.145007 C 581.371316 335.962716 581.787983 337.306466 581.787983 339.171049 L 581.787983 356.717925 C 581.787983 358.561675 581.371316 359.905425 580.532774 360.743967 C 579.694233 361.582509 578.340066 361.999175 576.470274 361.999175 Z M 649.944236 361.999175 L 626.110902 361.999175 C 624.24111 361.999175 622.886943 361.582509 622.048402 360.743967 C 621.20986 359.905425 620.793193 358.561675 620.793193 356.717925 L 620.793193 284.389797 L 599.152567 284.389797 C 597.282775 284.389797 595.928609 283.983547 595.090067 283.165838 C 594.272358 282.327296 593.866108 280.97313 593.866108 279.103338 L 593.866108 261.275212 C 593.866108 259.431462 594.272358 258.087712 595.090067 257.24917 C 595.928609 256.410628 597.282775 255.993962 599.152567 255.993962 L 676.902571 255.993962 C 678.772363 255.993962 680.116113 256.410628 680.928613 257.24917 C 681.767155 258.087712 682.18903 259.431462 682.18903 261.275212 L 682.18903 279.103338 C 682.18903 280.97313 681.767155 282.327296 680.928613 283.165838 C 680.116113 283.983547 678.772363 284.389797 676.902571 284.389797 L 655.261945 284.389797 L 655.261945 356.717925 C 655.261945 358.561675 654.845278 359.905425 654.006736 360.743967 C 653.168195 361.582509 651.814028 361.999175 649.944236 361.999175 Z M 734.918199 286.905422 L 727.980699 309.301256 L 751.095283 309.301256 L 744.194241 286.905422 C 743.787991 286.020005 743.355699 285.384588 742.897366 284.999172 C 742.470283 284.592922 741.965074 284.389797 741.392158 284.389797 L 737.725491 284.389797 C 737.121324 284.389797 736.595282 284.592922 736.142157 284.999172 C 735.709866 285.384588 735.303616 286.020005 734.918199 286.905422 Z M 726.50674 356.717925 C 726.50674 358.561675 726.090073 359.905425 725.251532 360.743967 C 724.433823 361.582509 723.090073 361.999175 721.22549 361.999175 L 699.584864 361.999175 C 697.715072 361.999175 696.360905 361.582509 695.522364 360.743967 C 694.683822 359.905425 694.261947 358.561675 694.261947 356.717925 L 694.261947 317.82209 C 694.261947 314.874173 694.730697 311.493965 695.662989 307.681464 C 696.600489 303.848131 698.048405 299.379381 700.011947 294.275214 L 712.814031 260.84292 C 713.412989 259.165837 714.319239 257.947087 715.543198 257.176253 C 716.767156 256.384587 718.360906 255.993962 720.324448 255.993962 L 759.939033 255.993962 C 761.808825 255.993962 763.3557 256.384587 764.57445 257.176253 C 765.798409 257.947087 766.709867 259.165837 767.308825 260.84292 L 780.105701 294.275214 C 782.069243 299.379381 783.522368 303.848131 784.45466 307.681464 C 785.386951 311.493965 785.855701 314.874173 785.855701 317.82209 L 785.855701 356.717925 C 785.855701 358.561675 785.439035 359.905425 784.600493 360.743967 C 783.761951 361.582509 782.407785 361.999175 780.537993 361.999175 L 758.319242 361.999175 C 756.3557 361.999175 754.907783 361.582509 753.970283 360.743967 C 753.037991 359.905425 752.569241 358.561675 752.569241 356.717925 L 752.569241 336.082507 L 726.50674 336.082507 Z M 884.204665 361.999175 L 809.256744 361.999175 C 807.386953 361.999175 806.032786 361.582509 805.194244 360.743967 C 804.381744 359.905425 803.970286 358.561675 803.970286 356.717925 L 803.970286 261.275212 C 803.970286 259.431462 804.381744 258.087712 805.194244 257.24917 C 806.032786 256.410628 807.386953 255.993962 809.256744 255.993962 L 832.08487 255.993962 C 833.954662 255.993962 835.293204 256.410628 836.110912 257.24917 C 836.949454 258.087712 837.366121 259.431462 837.366121 261.275212 L 837.366121 334.176257 L 857.569247 334.176257 L 857.569247 310.306465 C 857.569247 308.436673 857.975497 307.098131 858.793205 306.280423 C 859.631747 305.441881 860.985914 305.025214 862.855705 305.025214 L 884.204665 305.025214 C 886.074456 305.025214 887.418207 305.441881 888.230707 306.280423 C 889.069248 307.098131 889.491123 308.436673 889.491123 310.306465 L 889.491123 356.717925 C 889.491123 358.561675 889.069248 359.905425 888.230707 360.743967 C 887.418207 361.582509 886.074456 361.999175 884.204665 361.999175 Z M 884.204665 361.999175 " stroke="#000000" stroke-width="6.442012" stroke-opacity="1" stroke-miterlimit="4"/></svg>