<svg xmlns="http://www.w3.org/2000/svg" xmlns:xlink="http://www.w3.org/1999/xlink" width="1920" zoomAndPan="magnify" viewBox="0 0 1440 809.999993" height="1080" preserveAspectRatio="xMidYMid meet" version="1.0"><defs><filter x="0%" y="0%" width="100%" height="100%" id="f664829ccc"><feColorMatrix values="0 0 0 0 1 0 0 0 0 1 0 0 0 0 1 0 0 0 1 0" color-interpolation-filters="sRGB"/></filter><g/><mask id="b6af8e9f21"><g filter="url(#f664829ccc)"><rect x="-144" width="1728" fill="#000000" y="-80.999999" height="971.999992" fill-opacity="0.5"/></g></mask><clipPath id="17957941ac"><path d="M 0 0 L 629.03125 0 L 629.03125 712.390625 L 0 712.390625 Z M 0 0 " clip-rule="nonzero"/></clipPath><clipPath id="246c0c886d"><rect x="0" width="630" y="0" height="713"/></clipPath><mask id="f64e51e336"><g filter="url(#f664829ccc)"><rect x="-144" width="1728" fill="#000000" y="-80.999999" height="971.999992" fill-opacity="0.5"/></g></mask><clipPath id="00a63ca05b"><path d="M 0.4375 0.519531 L 704 0.519531 L 704 729 L 0.4375 729 Z M 0.4375 0.519531 " clip-rule="nonzero"/></clipPath><clipPath id="35d1a3e6d1"><rect x="0" width="704" y="0" height="729"/></clipPath><clipPath id="a0001d137e"><path d="M 208.691406 138.140625 L 1169.441406 138.140625 L 1169.441406 621.890625 L 208.691406 621.890625 Z M 208.691406 138.140625 " clip-rule="nonzero"/></clipPath><clipPath id="67b767d3c1"><path d="M 208.691406 138.140625 L 1169.441406 138.140625 L 1169.441406 621.890625 L 208.691406 621.890625 Z M 208.691406 138.140625 " clip-rule="nonzero"/></clipPath></defs><rect x="-144" width="1728" fill="#ffffff" y="-80.999999" height="971.999992" fill-opacity="1"/><rect x="-144" width="1728" fill="#bdb2ff" y="-80.999999" height="971.999992" fill-opacity="1"/><g mask="url(#b6af8e9f21)"><g transform="matrix(1, 0, 0, 1, 0, 0.000000000000039746)"><g clip-path="url(#246c0c886d)"><g clip-path="url(#17957941ac)"><path fill="#424651" d="M -187.71875 -101.949219 L -187.71875 709.953125 C -187.71875 711.300781 -186.628906 712.390625 -185.28125 712.390625 L 626.621094 712.390625 C 627.964844 712.390625 629.054688 711.300781 629.054688 709.953125 L 629.054688 -101.949219 C 629.054688 -103.292969 627.964844 -104.382812 626.621094 -104.382812 L -185.28125 -104.382812 C -186.628906 -104.382812 -187.71875 -103.292969 -187.71875 -101.949219 Z M 255.140625 338.472656 L 186.199219 338.472656 L 186.199219 269.53125 L 255.140625 269.53125 Z M 260.011719 269.53125 L 328.949219 269.53125 L 328.949219 338.472656 L 260.011719 338.472656 Z M 186.199219 412.28125 L 186.199219 343.34375 L 255.140625 343.34375 L 255.140625 412.28125 Z M 255.140625 417.152344 L 255.140625 486.089844 L 186.199219 486.089844 L 186.199219 417.152344 Z M 181.328125 338.472656 L 112.390625 338.472656 L 112.390625 269.53125 L 181.328125 269.53125 Z M 186.199219 264.660156 L 186.199219 195.722656 L 255.140625 195.722656 L 255.140625 264.660156 Z M 186.199219 190.851562 L 186.199219 121.914062 L 255.140625 121.914062 L 255.140625 190.851562 Z M 181.328125 190.851562 L 112.390625 190.851562 L 112.390625 121.914062 L 181.328125 121.914062 Z M 181.328125 195.722656 L 181.328125 264.660156 L 112.390625 264.660156 L 112.390625 195.722656 Z M 107.519531 264.660156 L 38.582031 264.660156 L 38.582031 195.722656 L 107.519531 195.722656 Z M 107.519531 269.53125 L 107.519531 338.472656 L 38.582031 338.472656 L 38.582031 269.53125 Z M 107.519531 343.34375 L 107.519531 412.28125 L 38.582031 412.28125 L 38.582031 343.34375 Z M 112.390625 343.34375 L 181.328125 343.34375 L 181.328125 412.28125 L 112.390625 412.28125 Z M 181.328125 417.152344 L 181.328125 486.089844 L 112.390625 486.089844 L 112.390625 417.152344 Z M 181.328125 490.960938 L 181.328125 559.898438 L 112.390625 559.898438 L 112.390625 490.960938 Z M 186.199219 490.960938 L 255.140625 490.960938 L 255.140625 559.898438 L 186.199219 559.898438 Z M 260.011719 490.960938 L 328.949219 490.960938 L 328.949219 559.898438 L 260.011719 559.898438 Z M 260.011719 486.089844 L 260.011719 417.152344 L 328.949219 417.152344 L 328.949219 486.089844 Z M 260.011719 412.28125 L 260.011719 343.34375 L 328.949219 343.34375 L 328.949219 412.28125 Z M 333.820312 343.34375 L 402.757812 343.34375 L 402.757812 412.28125 L 333.820312 412.28125 Z M 333.820312 338.472656 L 333.820312 269.53125 L 402.757812 269.53125 L 402.757812 338.472656 Z M 333.820312 264.660156 L 333.820312 195.722656 L 402.757812 195.722656 L 402.757812 264.660156 Z M 328.949219 264.660156 L 260.011719 264.660156 L 260.011719 195.722656 L 328.949219 195.722656 Z M 260.011719 190.851562 L 260.011719 121.914062 L 328.949219 121.914062 L 328.949219 190.851562 Z M 260.011719 117.042969 L 260.011719 48.105469 L 328.949219 48.105469 L 328.949219 117.042969 Z M 255.140625 117.042969 L 186.199219 117.042969 L 186.199219 48.105469 L 255.140625 48.105469 Z M 181.328125 117.042969 L 112.390625 117.042969 L 112.390625 48.105469 L 181.328125 48.105469 Z M 107.519531 117.042969 L 38.582031 117.042969 L 38.582031 48.105469 L 107.519531 48.105469 Z M 107.519531 121.914062 L 107.519531 190.851562 L 38.582031 190.851562 L 38.582031 121.914062 Z M 33.710938 190.851562 L -35.226562 190.851562 L -35.226562 121.914062 L 33.710938 121.914062 Z M 33.710938 195.722656 L 33.710938 264.660156 L -35.226562 264.660156 L -35.226562 195.722656 Z M 33.710938 269.53125 L 33.710938 338.472656 L -35.226562 338.472656 L -35.226562 269.53125 Z M 33.710938 343.34375 L 33.710938 412.28125 L -35.226562 412.28125 L -35.226562 343.34375 Z M 33.710938 417.152344 L 33.710938 486.089844 L -35.226562 486.089844 L -35.226562 417.152344 Z M 38.582031 417.152344 L 107.519531 417.152344 L 107.519531 486.089844 L 38.582031 486.089844 Z M 107.519531 490.960938 L 107.519531 559.898438 L 38.582031 559.898438 L 38.582031 490.960938 Z M 107.519531 564.769531 L 107.519531 633.707031 L 38.582031 633.707031 L 38.582031 564.769531 Z M 112.390625 564.769531 L 181.328125 564.769531 L 181.328125 633.707031 L 112.390625 633.707031 Z M 186.199219 564.769531 L 255.140625 564.769531 L 255.140625 633.707031 L 186.199219 633.707031 Z M 260.011719 564.769531 L 328.949219 564.769531 L 328.949219 633.707031 L 260.011719 633.707031 Z M 333.820312 564.769531 L 402.757812 564.769531 L 402.757812 633.707031 L 333.820312 633.707031 Z M 333.820312 559.898438 L 333.820312 490.960938 L 402.757812 490.960938 L 402.757812 559.898438 Z M 333.820312 486.089844 L 333.820312 417.152344 L 402.757812 417.152344 L 402.757812 486.089844 Z M 407.628906 417.152344 L 476.566406 417.152344 L 476.566406 486.089844 L 407.628906 486.089844 Z M 407.628906 412.28125 L 407.628906 343.34375 L 476.566406 343.34375 L 476.566406 412.28125 Z M 407.628906 338.472656 L 407.628906 269.53125 L 476.566406 269.53125 L 476.566406 338.472656 Z M 407.628906 264.660156 L 407.628906 195.722656 L 476.566406 195.722656 L 476.566406 264.660156 Z M 407.628906 190.851562 L 407.628906 121.914062 L 476.566406 121.914062 L 476.566406 190.851562 Z M 402.757812 190.851562 L 333.820312 190.851562 L 333.820312 121.914062 L 402.757812 121.914062 Z M 333.820312 117.042969 L 333.820312 48.105469 L 402.757812 48.105469 L 402.757812 117.042969 Z M 333.820312 43.234375 L 333.820312 -25.703125 L 402.757812 -25.703125 L 402.757812 43.234375 Z M 328.949219 43.234375 L 260.011719 43.234375 L 260.011719 -25.703125 L 328.949219 -25.703125 Z M 255.140625 43.234375 L 186.199219 43.234375 L 186.199219 -25.703125 L 255.140625 -25.703125 Z M 181.328125 43.234375 L 112.390625 43.234375 L 112.390625 -25.703125 L 181.328125 -25.703125 Z M 107.519531 43.234375 L 38.582031 43.234375 L 38.582031 -25.703125 L 107.519531 -25.703125 Z M 33.710938 43.234375 L -35.226562 43.234375 L -35.226562 -25.703125 L 33.710938 -25.703125 Z M 33.710938 48.105469 L 33.710938 117.042969 L -35.226562 117.042969 L -35.226562 48.105469 Z M -40.097656 117.042969 L -109.035156 117.042969 L -109.035156 48.105469 L -40.097656 48.105469 Z M -40.097656 121.914062 L -40.097656 190.851562 L -109.035156 190.851562 L -109.035156 121.914062 Z M -40.097656 195.722656 L -40.097656 264.660156 L -109.035156 264.660156 L -109.035156 195.722656 Z M -40.097656 269.53125 L -40.097656 338.472656 L -109.035156 338.472656 L -109.035156 269.53125 Z M -40.097656 343.34375 L -40.097656 412.28125 L -109.035156 412.28125 L -109.035156 343.34375 Z M -40.097656 417.152344 L -40.097656 486.089844 L -109.035156 486.089844 L -109.035156 417.152344 Z M -40.097656 490.960938 L -40.097656 559.898438 L -109.035156 559.898438 L -109.035156 490.960938 Z M -35.226562 490.960938 L 33.710938 490.960938 L 33.710938 559.898438 L -35.226562 559.898438 Z M 33.710938 564.769531 L 33.710938 633.707031 L -35.226562 633.707031 L -35.226562 564.769531 Z M 33.710938 638.578125 L 33.710938 707.519531 L -35.226562 707.519531 L -35.226562 638.578125 Z M 38.582031 638.578125 L 107.519531 638.578125 L 107.519531 707.519531 L 38.582031 707.519531 Z M 112.390625 638.578125 L 181.328125 638.578125 L 181.328125 707.519531 L 112.390625 707.519531 Z M 186.199219 638.578125 L 255.140625 638.578125 L 255.140625 707.519531 L 186.199219 707.519531 Z M 260.011719 638.578125 L 328.949219 638.578125 L 328.949219 707.519531 L 260.011719 707.519531 Z M 333.820312 638.578125 L 402.757812 638.578125 L 402.757812 707.519531 L 333.820312 707.519531 Z M 407.628906 638.578125 L 476.566406 638.578125 L 476.566406 707.519531 L 407.628906 707.519531 Z M 407.628906 633.707031 L 407.628906 564.769531 L 476.566406 564.769531 L 476.566406 633.707031 Z M 407.628906 559.898438 L 407.628906 490.960938 L 476.566406 490.960938 L 476.566406 559.898438 Z M 481.4375 490.960938 L 550.375 490.960938 L 550.375 559.898438 L 481.4375 559.898438 Z M 481.4375 486.089844 L 481.4375 417.152344 L 550.375 417.152344 L 550.375 486.089844 Z M 481.4375 412.28125 L 481.4375 343.34375 L 550.375 343.34375 L 550.375 412.28125 Z M 481.4375 338.472656 L 481.4375 269.53125 L 550.375 269.53125 L 550.375 338.472656 Z M 481.4375 264.660156 L 481.4375 195.722656 L 550.375 195.722656 L 550.375 264.660156 Z M 481.4375 190.851562 L 481.4375 121.914062 L 550.375 121.914062 L 550.375 190.851562 Z M 481.4375 117.042969 L 481.4375 48.105469 L 550.375 48.105469 L 550.375 117.042969 Z M 476.566406 117.042969 L 407.628906 117.042969 L 407.628906 48.105469 L 476.566406 48.105469 Z M 407.628906 43.234375 L 407.628906 -25.703125 L 476.566406 -25.703125 L 476.566406 43.234375 Z M 407.628906 -30.574219 L 407.628906 -99.511719 L 476.566406 -99.511719 L 476.566406 -30.574219 Z M 402.757812 -30.574219 L 333.820312 -30.574219 L 333.820312 -99.511719 L 402.757812 -99.511719 Z M 328.949219 -30.574219 L 260.011719 -30.574219 L 260.011719 -99.511719 L 328.949219 -99.511719 Z M 255.140625 -30.574219 L 186.199219 -30.574219 L 186.199219 -99.511719 L 255.140625 -99.511719 Z M 181.328125 -30.574219 L 112.390625 -30.574219 L 112.390625 -99.511719 L 181.328125 -99.511719 Z M 107.519531 -30.574219 L 38.582031 -30.574219 L 38.582031 -99.511719 L 107.519531 -99.511719 Z M 33.710938 -30.574219 L -35.226562 -30.574219 L -35.226562 -99.511719 L 33.710938 -99.511719 Z M -40.097656 -30.574219 L -109.035156 -30.574219 L -109.035156 -99.511719 L -40.097656 -99.511719 Z M -40.097656 -25.703125 L -40.097656 43.234375 L -109.035156 43.234375 L -109.035156 -25.703125 Z M -113.90625 43.234375 L -182.847656 43.234375 L -182.847656 -25.703125 L -113.90625 -25.703125 Z M -113.90625 48.105469 L -113.90625 117.042969 L -182.847656 117.042969 L -182.847656 48.105469 Z M -113.90625 121.914062 L -113.90625 190.851562 L -182.847656 190.851562 L -182.847656 121.914062 Z M -113.90625 195.722656 L -113.90625 264.660156 L -182.847656 264.660156 L -182.847656 195.722656 Z M -113.90625 269.53125 L -113.90625 338.472656 L -182.847656 338.472656 L -182.847656 269.53125 Z M -113.90625 343.34375 L -113.90625 412.28125 L -182.847656 412.28125 L -182.847656 343.34375 Z M -113.90625 417.152344 L -113.90625 486.089844 L -182.847656 486.089844 L -182.847656 417.152344 Z M -113.90625 490.960938 L -113.90625 559.898438 L -182.847656 559.898438 L -182.847656 490.960938 Z M -113.90625 564.769531 L -113.90625 633.707031 L -182.847656 633.707031 L -182.847656 564.769531 Z M -109.035156 564.769531 L -40.097656 564.769531 L -40.097656 633.707031 L -109.035156 633.707031 Z M -40.097656 638.578125 L -40.097656 707.519531 L -109.035156 707.519531 L -109.035156 638.578125 Z M 481.4375 707.519531 L 481.4375 638.578125 L 550.375 638.578125 L 550.375 707.519531 Z M 481.4375 633.707031 L 481.4375 564.769531 L 550.375 564.769531 L 550.375 633.707031 Z M 555.246094 564.769531 L 624.183594 564.769531 L 624.183594 633.707031 L 555.246094 633.707031 Z M 555.246094 559.898438 L 555.246094 490.960938 L 624.183594 490.960938 L 624.183594 559.898438 Z M 555.246094 486.089844 L 555.246094 417.152344 L 624.183594 417.152344 L 624.183594 486.089844 Z M 555.246094 412.28125 L 555.246094 343.34375 L 624.183594 343.34375 L 624.183594 412.28125 Z M 555.246094 338.472656 L 555.246094 269.53125 L 624.183594 269.53125 L 624.183594 338.472656 Z M 555.246094 264.660156 L 555.246094 195.722656 L 624.183594 195.722656 L 624.183594 264.660156 Z M 555.246094 190.851562 L 555.246094 121.914062 L 624.183594 121.914062 L 624.183594 190.851562 Z M 555.246094 117.042969 L 555.246094 48.105469 L 624.183594 48.105469 L 624.183594 117.042969 Z M 555.246094 43.234375 L 555.246094 -25.703125 L 624.183594 -25.703125 L 624.183594 43.234375 Z M 550.375 43.234375 L 481.4375 43.234375 L 481.4375 -25.703125 L 550.375 -25.703125 Z M 481.4375 -30.574219 L 481.4375 -99.511719 L 550.375 -99.511719 L 550.375 -30.574219 Z M -113.90625 -99.511719 L -113.90625 -30.574219 L -182.847656 -30.574219 L -182.847656 -99.511719 Z M -182.847656 638.578125 L -113.90625 638.578125 L -113.90625 707.519531 L -182.847656 707.519531 Z M 555.246094 707.519531 L 555.246094 638.578125 L 624.183594 638.578125 L 624.183594 707.519531 Z M 624.183594 -30.574219 L 555.246094 -30.574219 L 555.246094 -99.511719 L 624.183594 -99.511719 Z M 624.183594 -30.574219 " fill-opacity="1" fill-rule="nonzero"/></g></g></g></g><g mask="url(#f64e51e336)"><g transform="matrix(1, 0, 0, 1, 736, 81)"><g clip-path="url(#35d1a3e6d1)"><g clip-path="url(#00a63ca05b)"><path fill="#424651" d="M 0.4375 2.929688 L 0.4375 814.832031 C 0.4375 816.179688 1.527344 817.269531 2.871094 817.269531 L 814.773438 817.269531 C 816.117188 817.269531 817.210938 816.179688 817.210938 814.832031 L 817.210938 2.929688 C 817.210938 1.585938 816.117188 0.496094 814.773438 0.496094 L 2.871094 0.496094 C 1.527344 0.496094 0.4375 1.585938 0.4375 2.929688 Z M 443.292969 443.351562 L 374.355469 443.351562 L 374.355469 374.414062 L 443.292969 374.414062 Z M 448.164062 374.414062 L 517.101562 374.414062 L 517.101562 443.351562 L 448.164062 443.351562 Z M 374.355469 517.160156 L 374.355469 448.222656 L 443.292969 448.222656 L 443.292969 517.160156 Z M 443.292969 522.03125 L 443.292969 590.972656 L 374.355469 590.972656 L 374.355469 522.03125 Z M 369.484375 443.351562 L 300.542969 443.351562 L 300.542969 374.414062 L 369.484375 374.414062 Z M 374.355469 369.539062 L 374.355469 300.605469 L 443.292969 300.605469 L 443.292969 369.539062 Z M 374.355469 295.734375 L 374.355469 226.792969 L 443.292969 226.792969 L 443.292969 295.734375 Z M 369.484375 295.734375 L 300.542969 295.734375 L 300.542969 226.792969 L 369.484375 226.792969 Z M 369.484375 300.605469 L 369.484375 369.539062 L 300.542969 369.539062 L 300.542969 300.605469 Z M 295.671875 369.539062 L 226.734375 369.539062 L 226.734375 300.605469 L 295.671875 300.605469 Z M 295.671875 374.414062 L 295.671875 443.351562 L 226.734375 443.351562 L 226.734375 374.414062 Z M 295.671875 448.222656 L 295.671875 517.160156 L 226.734375 517.160156 L 226.734375 448.222656 Z M 300.542969 448.222656 L 369.484375 448.222656 L 369.484375 517.160156 L 300.542969 517.160156 Z M 369.484375 522.03125 L 369.484375 590.972656 L 300.542969 590.972656 L 300.542969 522.03125 Z M 369.484375 595.839844 L 369.484375 664.78125 L 300.542969 664.78125 L 300.542969 595.839844 Z M 374.355469 595.839844 L 443.292969 595.839844 L 443.292969 664.78125 L 374.355469 664.78125 Z M 448.164062 595.839844 L 517.101562 595.839844 L 517.101562 664.78125 L 448.164062 664.78125 Z M 448.164062 590.96875 L 448.164062 522.03125 L 517.101562 522.03125 L 517.101562 590.96875 Z M 448.164062 517.160156 L 448.164062 448.222656 L 517.101562 448.222656 L 517.101562 517.160156 Z M 521.972656 448.222656 L 590.910156 448.222656 L 590.910156 517.160156 L 521.972656 517.160156 Z M 521.972656 443.351562 L 521.972656 374.414062 L 590.910156 374.414062 L 590.910156 443.351562 Z M 521.972656 369.539062 L 521.972656 300.605469 L 590.910156 300.605469 L 590.910156 369.539062 Z M 517.101562 369.539062 L 448.164062 369.539062 L 448.164062 300.605469 L 517.101562 300.605469 Z M 448.164062 295.734375 L 448.164062 226.792969 L 517.101562 226.792969 L 517.101562 295.734375 Z M 448.164062 221.921875 L 448.164062 152.984375 L 517.101562 152.984375 L 517.101562 221.921875 Z M 443.292969 221.921875 L 374.355469 221.921875 L 374.355469 152.984375 L 443.292969 152.984375 Z M 369.484375 221.921875 L 300.542969 221.921875 L 300.542969 152.984375 L 369.484375 152.984375 Z M 295.671875 221.921875 L 226.734375 221.921875 L 226.734375 152.984375 L 295.671875 152.984375 Z M 295.671875 226.792969 L 295.671875 295.734375 L 226.734375 295.734375 L 226.734375 226.792969 Z M 221.863281 295.734375 L 152.925781 295.734375 L 152.925781 226.792969 L 221.863281 226.792969 Z M 221.863281 300.605469 L 221.863281 369.539062 L 152.925781 369.539062 L 152.925781 300.605469 Z M 221.863281 374.414062 L 221.863281 443.351562 L 152.925781 443.351562 L 152.925781 374.414062 Z M 221.863281 448.222656 L 221.863281 517.160156 L 152.925781 517.160156 L 152.925781 448.222656 Z M 221.863281 522.03125 L 221.863281 590.972656 L 152.925781 590.972656 L 152.925781 522.03125 Z M 226.734375 522.03125 L 295.675781 522.03125 L 295.675781 590.972656 L 226.734375 590.972656 Z M 295.671875 595.839844 L 295.671875 664.78125 L 226.734375 664.78125 L 226.734375 595.839844 Z M 295.671875 669.652344 L 295.671875 738.585938 L 226.734375 738.585938 L 226.734375 669.648438 L 295.671875 669.648438 Z M 300.542969 669.652344 L 369.484375 669.652344 L 369.484375 738.585938 L 300.542969 738.585938 Z M 374.355469 669.652344 L 443.292969 669.652344 L 443.292969 738.585938 L 374.355469 738.585938 Z M 448.164062 669.652344 L 517.101562 669.652344 L 517.101562 738.585938 L 448.164062 738.585938 Z M 521.972656 669.652344 L 590.910156 669.652344 L 590.910156 738.585938 L 521.972656 738.585938 Z M 521.972656 664.78125 L 521.972656 595.839844 L 590.910156 595.839844 L 590.910156 664.78125 Z M 521.972656 590.96875 L 521.972656 522.03125 L 590.910156 522.03125 L 590.910156 590.96875 Z M 595.78125 522.03125 L 664.71875 522.03125 L 664.71875 590.972656 L 595.78125 590.972656 Z M 595.78125 517.160156 L 595.78125 448.222656 L 664.71875 448.222656 L 664.71875 517.160156 Z M 595.78125 443.351562 L 595.78125 374.414062 L 664.71875 374.414062 L 664.71875 443.351562 Z M 595.78125 369.539062 L 595.78125 300.605469 L 664.71875 300.605469 L 664.71875 369.539062 Z M 595.78125 295.734375 L 595.78125 226.792969 L 664.71875 226.792969 L 664.71875 295.734375 Z M 590.910156 295.734375 L 521.972656 295.734375 L 521.972656 226.792969 L 590.910156 226.792969 Z M 521.972656 221.921875 L 521.972656 152.984375 L 590.910156 152.984375 L 590.910156 221.921875 Z M 521.972656 148.113281 L 521.972656 79.175781 L 590.910156 79.175781 L 590.910156 148.113281 Z M 517.101562 148.113281 L 448.164062 148.113281 L 448.164062 79.175781 L 517.101562 79.175781 Z M 443.292969 148.113281 L 374.355469 148.113281 L 374.355469 79.175781 L 443.292969 79.175781 Z M 369.484375 148.113281 L 300.542969 148.113281 L 300.542969 79.175781 L 369.484375 79.175781 Z M 295.671875 148.113281 L 226.734375 148.113281 L 226.734375 79.175781 L 295.671875 79.175781 Z M 221.863281 148.113281 L 152.925781 148.113281 L 152.925781 79.175781 L 221.863281 79.175781 Z M 221.863281 152.984375 L 221.863281 221.921875 L 152.925781 221.921875 L 152.925781 152.984375 Z M 148.054688 221.921875 L 79.117188 221.921875 L 79.117188 152.984375 L 148.054688 152.984375 Z M 148.054688 226.792969 L 148.054688 295.734375 L 79.117188 295.734375 L 79.117188 226.792969 Z M 148.054688 300.605469 L 148.054688 369.539062 L 79.117188 369.539062 L 79.117188 300.605469 Z M 148.054688 374.414062 L 148.054688 443.351562 L 79.117188 443.351562 L 79.117188 374.414062 Z M 148.054688 448.222656 L 148.054688 517.160156 L 79.117188 517.160156 L 79.117188 448.222656 Z M 148.054688 522.03125 L 148.054688 590.972656 L 79.117188 590.972656 L 79.117188 522.03125 Z M 148.054688 595.839844 L 148.054688 664.78125 L 79.117188 664.78125 L 79.117188 595.839844 Z M 152.925781 595.839844 L 221.863281 595.839844 L 221.863281 664.78125 L 152.925781 664.78125 Z M 221.863281 669.652344 L 221.863281 738.585938 L 152.925781 738.585938 L 152.925781 669.648438 L 221.863281 669.648438 Z M 221.863281 743.460938 L 221.863281 812.398438 L 152.925781 812.398438 L 152.925781 743.460938 Z M 226.734375 743.460938 L 295.675781 743.460938 L 295.675781 812.398438 L 226.734375 812.398438 Z M 300.542969 743.460938 L 369.484375 743.460938 L 369.484375 812.398438 L 300.542969 812.398438 Z M 374.355469 743.460938 L 443.292969 743.460938 L 443.292969 812.398438 L 374.355469 812.398438 Z M 448.164062 743.460938 L 517.101562 743.460938 L 517.101562 812.398438 L 448.164062 812.398438 Z M 521.972656 743.460938 L 590.910156 743.460938 L 590.910156 812.398438 L 521.972656 812.398438 Z M 595.78125 743.460938 L 664.71875 743.460938 L 664.71875 812.398438 L 595.78125 812.398438 Z M 595.78125 738.585938 L 595.78125 669.648438 L 664.71875 669.648438 L 664.71875 738.585938 Z M 595.78125 664.78125 L 595.78125 595.839844 L 664.71875 595.839844 L 664.71875 664.78125 Z M 669.589844 595.839844 L 738.53125 595.839844 L 738.53125 664.78125 L 669.589844 664.78125 Z M 669.589844 590.96875 L 669.589844 522.03125 L 738.53125 522.03125 L 738.53125 590.96875 Z M 669.589844 517.160156 L 669.589844 448.222656 L 738.53125 448.222656 L 738.53125 517.160156 Z M 669.589844 443.351562 L 669.589844 374.414062 L 738.53125 374.414062 L 738.53125 443.351562 Z M 669.589844 369.539062 L 669.589844 300.605469 L 738.53125 300.605469 L 738.53125 369.539062 Z M 669.589844 295.734375 L 669.589844 226.792969 L 738.53125 226.792969 L 738.53125 295.734375 Z M 669.589844 221.921875 L 669.589844 152.984375 L 738.53125 152.984375 L 738.53125 221.921875 Z M 664.71875 221.921875 L 595.78125 221.921875 L 595.78125 152.984375 L 664.71875 152.984375 Z M 595.78125 148.113281 L 595.78125 79.175781 L 664.71875 79.175781 L 664.71875 148.113281 Z M 595.78125 74.304688 L 595.78125 5.367188 L 664.71875 5.367188 L 664.71875 74.304688 Z M 590.910156 74.304688 L 521.972656 74.304688 L 521.972656 5.367188 L 590.910156 5.367188 Z M 517.101562 74.304688 L 448.164062 74.304688 L 448.164062 5.367188 L 517.101562 5.367188 Z M 443.292969 74.304688 L 374.355469 74.304688 L 374.355469 5.367188 L 443.292969 5.367188 Z M 369.484375 74.304688 L 300.542969 74.304688 L 300.542969 5.367188 L 369.484375 5.367188 Z M 295.671875 74.304688 L 226.734375 74.304688 L 226.734375 5.367188 L 295.671875 5.367188 Z M 221.863281 74.304688 L 152.925781 74.304688 L 152.925781 5.367188 L 221.863281 5.367188 Z M 148.054688 74.304688 L 79.117188 74.304688 L 79.117188 5.367188 L 148.054688 5.367188 Z M 148.054688 79.175781 L 148.054688 148.113281 L 79.117188 148.113281 L 79.117188 79.175781 Z M 74.246094 148.113281 L 5.308594 148.113281 L 5.308594 79.175781 L 74.246094 79.175781 Z M 74.246094 152.984375 L 74.246094 221.921875 L 5.308594 221.921875 L 5.308594 152.984375 Z M 74.246094 226.792969 L 74.246094 295.734375 L 5.308594 295.734375 L 5.308594 226.792969 Z M 74.246094 300.605469 L 74.246094 369.539062 L 5.308594 369.539062 L 5.308594 300.605469 Z M 74.246094 374.414062 L 74.246094 443.351562 L 5.308594 443.351562 L 5.308594 374.414062 Z M 74.246094 448.222656 L 74.246094 517.160156 L 5.308594 517.160156 L 5.308594 448.222656 Z M 74.246094 522.03125 L 74.246094 590.972656 L 5.308594 590.972656 L 5.308594 522.03125 Z M 74.246094 595.839844 L 74.246094 664.78125 L 5.308594 664.78125 L 5.308594 595.839844 Z M 74.246094 669.652344 L 74.246094 738.585938 L 5.308594 738.585938 L 5.308594 669.648438 L 74.246094 669.648438 Z M 79.117188 669.652344 L 148.054688 669.652344 L 148.054688 738.585938 L 79.117188 738.585938 Z M 148.054688 743.460938 L 148.054688 812.398438 L 79.117188 812.398438 L 79.117188 743.460938 Z M 669.589844 812.398438 L 669.589844 743.460938 L 738.53125 743.460938 L 738.53125 812.398438 Z M 669.589844 738.585938 L 669.589844 669.648438 L 738.53125 669.648438 L 738.53125 738.585938 Z M 743.402344 669.652344 L 812.339844 669.652344 L 812.339844 738.585938 L 743.402344 738.585938 Z M 743.402344 664.78125 L 743.402344 595.839844 L 812.339844 595.839844 L 812.339844 664.78125 Z M 743.402344 590.96875 L 743.402344 522.03125 L 812.339844 522.03125 L 812.339844 590.96875 Z M 743.402344 517.160156 L 743.402344 448.222656 L 812.339844 448.222656 L 812.339844 517.160156 Z M 743.402344 443.351562 L 743.402344 374.414062 L 812.339844 374.414062 L 812.339844 443.351562 Z M 743.402344 369.539062 L 743.402344 300.605469 L 812.339844 300.605469 L 812.339844 369.539062 Z M 743.402344 295.734375 L 743.402344 226.792969 L 812.339844 226.792969 L 812.339844 295.734375 Z M 743.402344 221.921875 L 743.402344 152.984375 L 812.339844 152.984375 L 812.339844 221.921875 Z M 743.402344 148.113281 L 743.402344 79.175781 L 812.339844 79.175781 L 812.339844 148.113281 Z M 738.53125 148.113281 L 669.589844 148.113281 L 669.589844 79.175781 L 738.53125 79.175781 Z M 669.589844 74.304688 L 669.589844 5.367188 L 738.53125 5.367188 L 738.53125 74.304688 Z M 74.246094 5.367188 L 74.246094 74.304688 L 5.308594 74.304688 L 5.308594 5.367188 Z M 5.308594 743.460938 L 74.246094 743.460938 L 74.246094 812.398438 L 5.308594 812.398438 Z M 743.402344 812.398438 L 743.402344 743.460938 L 812.339844 743.460938 L 812.339844 812.398438 Z M 812.339844 74.304688 L 743.402344 74.304688 L 743.402344 5.367188 L 812.339844 5.367188 Z M 812.339844 74.304688 " fill-opacity="1" fill-rule="nonzero"/></g></g></g></g><g clip-path="url(#a0001d137e)"><path fill="#ff99ff" d="M 208.691406 138.8125 L 1169.496094 138.8125 L 1169.496094 621.410156 L 208.691406 621.410156 Z M 208.691406 138.8125 " fill-opacity="1" fill-rule="nonzero"/></g><path fill="#9bd5c1" d="M 390.285156 209.886719 C 377.976562 209.886719 367.902344 199.8125 367.902344 187.5 C 367.902344 175.1875 377.972656 165.113281 390.285156 165.113281 C 402.597656 165.113281 412.671875 175.1875 412.671875 187.5 C 412.671875 199.8125 402.597656 209.886719 390.285156 209.886719 Z M 390.285156 209.886719 " fill-opacity="1" fill-rule="nonzero"/><path fill="#eeec7c" d="M 325.195312 209.886719 C 312.886719 209.886719 302.8125 199.816406 302.8125 187.503906 C 302.8125 175.191406 312.882812 165.117188 325.195312 165.117188 C 337.507812 165.117188 347.582031 175.1875 347.582031 187.503906 C 347.582031 199.8125 337.507812 209.886719 325.195312 209.886719 Z M 325.195312 209.886719 " fill-opacity="1" fill-rule="nonzero"/><path fill="#f27070" d="M 265.769531 209.886719 C 253.460938 209.886719 243.386719 199.8125 243.386719 187.5 C 243.386719 175.1875 253.457031 165.113281 265.769531 165.113281 C 278.082031 165.113281 288.15625 175.1875 288.15625 187.5 C 288.15625 199.8125 278.085938 209.886719 265.769531 209.886719 Z M 265.769531 209.886719 " fill-opacity="1" fill-rule="nonzero"/><g clip-path="url(#67b767d3c1)"><path fill="#0d0d0d" d="M 265.773438 211.023438 C 278.742188 211.023438 289.292969 200.472656 289.292969 187.5 C 289.292969 174.53125 278.742188 163.980469 265.773438 163.980469 C 252.804688 163.980469 242.25 174.53125 242.25 187.5 C 242.25 200.472656 252.804688 211.023438 265.773438 211.023438 Z M 265.773438 168.375 C 276.316406 168.375 284.898438 176.953125 284.898438 187.5 C 284.898438 198.046875 276.316406 206.628906 265.773438 206.628906 C 255.226562 206.628906 246.644531 198.046875 246.644531 187.5 C 246.644531 176.953125 255.222656 168.375 265.773438 168.375 Z M 208.691406 138.8125 L 208.691406 621.410156 L 1169.496094 621.410156 L 1169.496094 138.8125 Z M 1165.097656 617.015625 L 213.085938 617.015625 L 213.085938 231.296875 L 1165.101562 231.296875 L 1165.101562 617.015625 Z M 1165.097656 226.902344 L 213.085938 226.902344 L 213.085938 143.207031 L 1165.101562 143.207031 L 1165.101562 226.902344 Z M 325.199219 211.023438 C 338.167969 211.023438 348.71875 200.472656 348.71875 187.5 C 348.71875 174.53125 338.167969 163.980469 325.199219 163.980469 C 312.226562 163.980469 301.675781 174.53125 301.675781 187.5 C 301.675781 200.472656 312.226562 211.023438 325.199219 211.023438 Z M 325.199219 168.375 C 335.746094 168.375 344.324219 176.953125 344.324219 187.5 C 344.324219 198.046875 335.746094 206.628906 325.199219 206.628906 C 314.652344 206.628906 306.070312 198.046875 306.070312 187.5 C 306.070312 176.953125 314.652344 168.375 325.199219 168.375 Z M 389.152344 211.023438 C 402.117188 211.023438 412.667969 200.472656 412.667969 187.5 C 412.667969 174.53125 402.117188 163.980469 389.152344 163.980469 C 376.179688 163.980469 365.628906 174.53125 365.628906 187.5 C 365.628906 200.472656 376.179688 211.023438 389.152344 211.023438 Z M 389.152344 168.375 C 399.695312 168.375 408.277344 176.953125 408.277344 187.5 C 408.277344 198.046875 399.695312 206.628906 389.152344 206.628906 C 378.601562 206.628906 370.023438 198.046875 370.023438 187.5 C 370.023438 176.953125 378.601562 168.375 389.152344 168.375 Z M 389.152344 168.375 " fill-opacity="1" fill-rule="nonzero"/></g><g fill="#e5b2f1" fill-opacity="1"><g transform="translate(370.53403, 367.789689)"><g><path d="M 48.8125 0 L 11.59375 0 C 10.195312 0 9.1875 -0.3125 8.5625 -0.9375 C 7.9375 -1.5625 7.625 -2.570312 7.625 -3.96875 L 7.625 -75.546875 C 7.625 -76.941406 7.9375 -77.953125 8.5625 -78.578125 C 9.1875 -79.203125 10.195312 -79.515625 11.59375 -79.515625 L 48.8125 -79.515625 C 58.019531 -79.515625 64.847656 -77.671875 69.296875 -73.984375 C 73.753906 -70.304688 75.984375 -64.640625 75.984375 -56.984375 L 75.984375 -22.53125 C 75.984375 -14.875 73.753906 -9.203125 69.296875 -5.515625 C 64.847656 -1.835938 58.019531 0 48.8125 0 Z M 32.6875 -58.421875 L 32.6875 -20.875 L 45.828125 -20.875 C 47.597656 -20.875 48.90625 -21.3125 49.75 -22.1875 C 50.59375 -23.070312 51.015625 -24.4375 51.015625 -26.28125 L 51.015625 -53.125 C 51.015625 -54.957031 50.59375 -56.296875 49.75 -57.140625 C 48.90625 -57.992188 47.597656 -58.421875 45.828125 -58.421875 Z M 32.6875 -58.421875 "/></g></g></g><g fill="#e5b2f1" fill-opacity="1"><g transform="translate(452.9117, 367.789689)"><g><path d="M 9.828125 0 C 8.429688 0 7.421875 -0.3125 6.796875 -0.9375 C 6.171875 -1.5625 5.859375 -2.570312 5.859375 -3.96875 L 5.859375 -17.125 C 5.859375 -18.519531 6.171875 -19.53125 6.796875 -20.15625 C 7.421875 -20.78125 8.429688 -21.09375 9.828125 -21.09375 L 20.765625 -21.09375 L 20.765625 -58.203125 L 9.828125 -58.203125 C 8.429688 -58.203125 7.421875 -58.515625 6.796875 -59.140625 C 6.171875 -59.765625 5.859375 -60.773438 5.859375 -62.171875 L 5.859375 -75.546875 C 5.859375 -76.941406 6.171875 -77.953125 6.796875 -78.578125 C 7.421875 -79.203125 8.429688 -79.515625 9.828125 -79.515625 L 56.875 -79.515625 C 58.269531 -79.515625 59.28125 -79.203125 59.90625 -78.578125 C 60.53125 -77.953125 60.84375 -76.941406 60.84375 -75.546875 L 60.84375 -62.171875 C 60.84375 -60.773438 60.53125 -59.765625 59.90625 -59.140625 C 59.28125 -58.515625 58.269531 -58.203125 56.875 -58.203125 L 46.15625 -58.203125 L 46.15625 -21.09375 L 56.875 -21.09375 C 58.269531 -21.09375 59.28125 -20.78125 59.90625 -20.15625 C 60.53125 -19.53125 60.84375 -18.519531 60.84375 -17.125 L 60.84375 -3.96875 C 60.84375 -2.570312 60.53125 -1.5625 59.90625 -0.9375 C 59.28125 -0.3125 58.269531 0 56.875 0 Z M 9.828125 0 "/></g></g></g><g fill="#e5b2f1" fill-opacity="1"><g transform="translate(519.719329, 367.789689)"><g><path d="M 44.5 0 L 9.609375 0 C 8.210938 0 7.195312 -0.3125 6.5625 -0.9375 C 5.9375 -1.5625 5.625 -2.570312 5.625 -3.96875 L 5.625 -16.890625 C 5.625 -18.296875 5.9375 -19.3125 6.5625 -19.9375 C 7.195312 -20.5625 8.210938 -20.875 9.609375 -20.875 L 39.3125 -20.875 C 40.269531 -20.875 40.988281 -21.1875 41.46875 -21.8125 C 41.945312 -22.4375 42.1875 -23.191406 42.1875 -24.078125 C 42.1875 -25.328125 41.945312 -26.242188 41.46875 -26.828125 C 40.988281 -27.421875 40.269531 -27.753906 39.3125 -27.828125 L 22.75 -30.15625 C 17.59375 -30.882812 13.445312 -32.570312 10.3125 -35.21875 C 7.1875 -37.875 5.625 -42.296875 5.625 -48.484375 L 5.625 -60.078125 C 5.625 -66.335938 7.648438 -71.140625 11.703125 -74.484375 C 15.753906 -77.835938 21.351562 -79.515625 28.5 -79.515625 L 59.421875 -79.515625 C 60.816406 -79.515625 61.828125 -79.203125 62.453125 -78.578125 C 63.078125 -77.953125 63.390625 -76.941406 63.390625 -75.546875 L 63.390625 -62.390625 C 63.390625 -60.992188 63.078125 -59.984375 62.453125 -59.359375 C 61.828125 -58.734375 60.816406 -58.421875 59.421875 -58.421875 L 33.6875 -58.421875 C 32.726562 -58.421875 31.988281 -58.109375 31.46875 -57.484375 C 30.957031 -56.859375 30.703125 -56.066406 30.703125 -55.109375 C 30.703125 -54.148438 30.957031 -53.335938 31.46875 -52.671875 C 31.988281 -52.015625 32.726562 -51.648438 33.6875 -51.578125 L 50.140625 -49.359375 C 55.296875 -48.628906 59.453125 -46.9375 62.609375 -44.28125 C 65.773438 -41.632812 67.359375 -37.21875 67.359375 -31.03125 L 67.359375 -19.4375 C 67.359375 -13.175781 65.316406 -8.367188 61.234375 -5.015625 C 57.148438 -1.671875 51.570312 0 44.5 0 Z M 44.5 0 "/></g></g></g><g fill="#e5b2f1" fill-opacity="1"><g transform="translate(591.496132, 367.789689)"><g><path d="M 62.84375 0 L 11.59375 0 C 10.195312 0 9.1875 -0.3125 8.5625 -0.9375 C 7.9375 -1.5625 7.625 -2.570312 7.625 -3.96875 L 7.625 -75.546875 C 7.625 -76.941406 7.9375 -77.953125 8.5625 -78.578125 C 9.1875 -79.203125 10.195312 -79.515625 11.59375 -79.515625 L 62.84375 -79.515625 C 64.238281 -79.515625 65.25 -79.203125 65.875 -78.578125 C 66.5 -77.953125 66.8125 -76.941406 66.8125 -75.546875 L 66.8125 -62.625 C 66.8125 -61.21875 66.5 -60.203125 65.875 -59.578125 C 65.25 -58.953125 64.238281 -58.640625 62.84375 -58.640625 L 32.359375 -58.640625 L 32.359375 -50.140625 L 53.890625 -50.140625 C 55.285156 -50.140625 56.296875 -49.828125 56.921875 -49.203125 C 57.554688 -48.578125 57.875 -47.5625 57.875 -46.15625 L 57.875 -34.34375 C 57.875 -32.945312 57.554688 -31.9375 56.921875 -31.3125 C 56.296875 -30.6875 55.285156 -30.375 53.890625 -30.375 L 32.359375 -30.375 L 32.359375 -20.875 L 62.84375 -20.875 C 64.238281 -20.875 65.25 -20.5625 65.875 -19.9375 C 66.5 -19.3125 66.8125 -18.296875 66.8125 -16.890625 L 66.8125 -3.96875 C 66.8125 -2.570312 66.5 -1.5625 65.875 -0.9375 C 65.25 -0.3125 64.238281 0 62.84375 0 Z M 62.84375 0 "/></g></g></g><g fill="#e5b2f1" fill-opacity="1"><g transform="translate(663.714619, 367.789689)"><g><path d="M 28.15625 0 L 11.59375 0 C 10.195312 0 9.1875 -0.3125 8.5625 -0.9375 C 7.9375 -1.5625 7.625 -2.570312 7.625 -3.96875 L 7.625 -75.546875 C 7.625 -76.941406 7.9375 -77.953125 8.5625 -78.578125 C 9.1875 -79.203125 10.195312 -79.515625 11.59375 -79.515625 L 23.078125 -79.515625 C 24.484375 -79.515625 25.679688 -79.289062 26.671875 -78.84375 C 27.660156 -78.40625 28.632812 -77.632812 29.59375 -76.53125 L 51.015625 -52.015625 L 51.015625 -75.546875 C 51.015625 -76.941406 51.328125 -77.953125 51.953125 -78.578125 C 52.585938 -79.203125 53.601562 -79.515625 55 -79.515625 L 71.5625 -79.515625 C 72.957031 -79.515625 73.96875 -79.203125 74.59375 -78.578125 C 75.226562 -77.953125 75.546875 -76.941406 75.546875 -75.546875 L 75.546875 -3.96875 C 75.546875 -2.570312 75.226562 -1.5625 74.59375 -0.9375 C 73.96875 -0.3125 72.957031 0 71.5625 0 L 55 0 C 53.601562 0 52.585938 -0.3125 51.953125 -0.9375 C 51.328125 -1.5625 51.015625 -2.570312 51.015625 -3.96875 L 51.015625 -17.5625 L 32.140625 -40.421875 L 32.140625 -3.96875 C 32.140625 -2.570312 31.828125 -1.5625 31.203125 -0.9375 C 30.578125 -0.3125 29.5625 0 28.15625 0 Z M 41.421875 -84.375 L 38.328125 -84.8125 C 36.265625 -85.101562 34.535156 -85.304688 33.140625 -85.421875 C 31.742188 -85.535156 30.488281 -85.535156 29.375 -85.421875 C 28.269531 -85.304688 27.1875 -85.117188 26.125 -84.859375 C 25.0625 -84.609375 23.789062 -84.265625 22.3125 -83.828125 C 20.988281 -83.453125 19.992188 -83.484375 19.328125 -83.921875 C 18.671875 -84.367188 18.34375 -85.289062 18.34375 -86.6875 L 18.34375 -97.84375 C 18.34375 -99.25 18.691406 -100.226562 19.390625 -100.78125 C 20.085938 -101.332031 21.0625 -101.863281 22.3125 -102.375 C 24.082031 -102.894531 25.554688 -103.28125 26.734375 -103.53125 C 27.910156 -103.789062 29.066406 -103.921875 30.203125 -103.921875 C 31.347656 -103.921875 32.640625 -103.828125 34.078125 -103.640625 C 35.515625 -103.460938 37.335938 -103.222656 39.546875 -102.921875 L 41.421875 -102.703125 L 43.84375 -102.375 C 46.28125 -102.007812 48.210938 -101.75 49.640625 -101.59375 C 51.078125 -101.445312 52.328125 -101.410156 53.390625 -101.484375 C 54.460938 -101.566406 55.515625 -101.753906 56.546875 -102.046875 C 57.578125 -102.335938 58.90625 -102.742188 60.53125 -103.265625 C 61.851562 -103.628906 62.84375 -103.585938 63.5 -103.140625 C 64.164062 -102.703125 64.5 -101.785156 64.5 -100.390625 L 64.5 -89.234375 C 64.5 -87.835938 64.148438 -86.863281 63.453125 -86.3125 C 62.753906 -85.757812 61.78125 -85.222656 60.53125 -84.703125 C 58.757812 -84.191406 57.285156 -83.804688 56.109375 -83.546875 C 54.929688 -83.285156 53.753906 -83.15625 52.578125 -83.15625 C 51.398438 -83.15625 50.09375 -83.25 48.65625 -83.4375 C 47.21875 -83.625 45.394531 -83.863281 43.1875 -84.15625 Z M 41.421875 -84.375 "/></g></g></g><g fill="#e5b2f1" fill-opacity="1"><g transform="translate(746.86528, 367.789689)"><g><path d="M 74.984375 -20.875 C 74.984375 -17.488281 74.484375 -14.414062 73.484375 -11.65625 C 72.492188 -8.894531 70.726562 -6.535156 68.1875 -4.578125 C 65.65625 -2.628906 62.160156 -1.101562 57.703125 0 C 53.242188 1.101562 47.59375 1.65625 40.75 1.65625 C 33.90625 1.65625 28.234375 1.101562 23.734375 0 C 19.242188 -1.101562 15.726562 -2.628906 13.1875 -4.578125 C 10.65625 -6.535156 8.890625 -8.894531 7.890625 -11.65625 C 6.898438 -14.414062 6.40625 -17.488281 6.40625 -20.875 L 6.40625 -58.53125 C 6.40625 -61.914062 6.898438 -64.988281 7.890625 -67.75 C 8.890625 -70.507812 10.65625 -72.882812 13.1875 -74.875 C 15.726562 -76.863281 19.242188 -78.410156 23.734375 -79.515625 C 28.234375 -80.617188 33.90625 -81.171875 40.75 -81.171875 C 47.59375 -81.171875 53.242188 -80.617188 57.703125 -79.515625 C 62.160156 -78.410156 65.65625 -76.863281 68.1875 -74.875 C 70.726562 -72.882812 72.492188 -70.507812 73.484375 -67.75 C 74.484375 -64.988281 74.984375 -61.914062 74.984375 -58.53125 Z M 31.46875 -24.84375 C 31.46875 -23.375 32.019531 -22.140625 33.125 -21.140625 C 34.226562 -20.148438 36.769531 -19.65625 40.75 -19.65625 C 44.726562 -19.65625 47.269531 -20.148438 48.375 -21.140625 C 49.476562 -22.140625 50.03125 -23.375 50.03125 -24.84375 L 50.03125 -54.5625 C 50.03125 -55.957031 49.476562 -57.148438 48.375 -58.140625 C 47.269531 -59.140625 44.726562 -59.640625 40.75 -59.640625 C 36.769531 -59.640625 34.226562 -59.140625 33.125 -58.140625 C 32.019531 -57.148438 31.46875 -55.957031 31.46875 -54.5625 Z M 31.46875 -24.84375 "/></g></g></g><g fill="#e5b2f1" fill-opacity="1"><g transform="translate(828.249111, 367.789689)"><g/></g></g><g fill="#e5b2f1" fill-opacity="1"><g transform="translate(853.09492, 367.789689)"><g><path d="M 48.8125 0 L 11.59375 0 C 10.195312 0 9.1875 -0.3125 8.5625 -0.9375 C 7.9375 -1.5625 7.625 -2.570312 7.625 -3.96875 L 7.625 -75.546875 C 7.625 -76.941406 7.9375 -77.953125 8.5625 -78.578125 C 9.1875 -79.203125 10.195312 -79.515625 11.59375 -79.515625 L 48.8125 -79.515625 C 58.019531 -79.515625 64.847656 -77.671875 69.296875 -73.984375 C 73.753906 -70.304688 75.984375 -64.640625 75.984375 -56.984375 L 75.984375 -22.53125 C 75.984375 -14.875 73.753906 -9.203125 69.296875 -5.515625 C 64.847656 -1.835938 58.019531 0 48.8125 0 Z M 32.6875 -58.421875 L 32.6875 -20.875 L 45.828125 -20.875 C 47.597656 -20.875 48.90625 -21.3125 49.75 -22.1875 C 50.59375 -23.070312 51.015625 -24.4375 51.015625 -26.28125 L 51.015625 -53.125 C 51.015625 -54.957031 50.59375 -56.296875 49.75 -57.140625 C 48.90625 -57.992188 47.597656 -58.421875 45.828125 -58.421875 Z M 32.6875 -58.421875 "/></g></g></g><g fill="#e5b2f1" fill-opacity="1"><g transform="translate(935.472601, 367.789689)"><g><path d="M 62.84375 0 L 11.59375 0 C 10.195312 0 9.1875 -0.3125 8.5625 -0.9375 C 7.9375 -1.5625 7.625 -2.570312 7.625 -3.96875 L 7.625 -75.546875 C 7.625 -76.941406 7.9375 -77.953125 8.5625 -78.578125 C 9.1875 -79.203125 10.195312 -79.515625 11.59375 -79.515625 L 62.84375 -79.515625 C 64.238281 -79.515625 65.25 -79.203125 65.875 -78.578125 C 66.5 -77.953125 66.8125 -76.941406 66.8125 -75.546875 L 66.8125 -62.625 C 66.8125 -61.21875 66.5 -60.203125 65.875 -59.578125 C 65.25 -58.953125 64.238281 -58.640625 62.84375 -58.640625 L 32.359375 -58.640625 L 32.359375 -50.140625 L 53.890625 -50.140625 C 55.285156 -50.140625 56.296875 -49.828125 56.921875 -49.203125 C 57.554688 -48.578125 57.875 -47.5625 57.875 -46.15625 L 57.875 -34.34375 C 57.875 -32.945312 57.554688 -31.9375 56.921875 -31.3125 C 56.296875 -30.6875 55.285156 -30.375 53.890625 -30.375 L 32.359375 -30.375 L 32.359375 -20.875 L 62.84375 -20.875 C 64.238281 -20.875 65.25 -20.5625 65.875 -19.9375 C 66.5 -19.3125 66.8125 -18.296875 66.8125 -16.890625 L 66.8125 -3.96875 C 66.8125 -2.570312 66.5 -1.5625 65.875 -0.9375 C 65.25 -0.3125 64.238281 0 62.84375 0 Z M 62.84375 0 "/></g></g></g><path stroke-linecap="butt" transform="matrix(0.75, 0, 0, 0.75, 278.998879, 250.789695)" fill="none" stroke-linejoin="miter" d="M 187.11088 155.999165 L 137.50671 155.999165 C 135.636919 155.999165 134.282752 155.582498 133.44421 154.743957 C 132.626502 153.905415 132.220252 152.561665 132.220252 150.717915 L 132.220252 55.275202 C 132.220252 53.431452 132.626502 52.087702 133.44421 51.24916 C 134.282752 50.410618 135.636919 49.993951 137.50671 49.993951 L 187.11088 49.993951 C 199.381714 49.993951 208.485881 52.447077 214.433798 57.358535 C 220.376506 62.24916 223.345256 69.796036 223.345256 80.009578 L 223.345256 125.94708 C 223.345256 136.155414 220.376506 143.717914 214.433798 148.629373 C 208.485881 153.54604 199.381714 155.999165 187.11088 155.999165 Z M 165.616087 78.103328 L 165.616087 128.176247 L 183.157754 128.176247 C 185.506713 128.176247 187.241088 127.587705 188.371296 126.41583 C 189.496296 125.238747 190.058796 123.421038 190.058796 120.952288 L 190.058796 85.181453 C 190.058796 82.717911 189.496296 80.915828 188.371296 79.790828 C 187.241088 78.665828 185.506713 78.103328 183.157754 78.103328 Z M 245.006716 155.999165 C 243.136924 155.999165 241.782757 155.582498 240.944216 154.743957 C 240.105674 153.905415 239.683799 152.561665 239.683799 150.717915 L 239.683799 133.171039 C 239.683799 131.306455 240.105674 129.962705 240.944216 129.144997 C 241.782757 128.306455 243.136924 127.889789 245.006716 127.889789 L 259.564008 127.889789 L 259.564008 78.389786 L 245.006716 78.389786 C 243.136924 78.389786 241.782757 77.983536 240.944216 77.165828 C 240.105674 76.327286 239.683799 74.973119 239.683799 73.103328 L 239.683799 55.275202 C 239.683799 53.431452 240.105674 52.087702 240.944216 51.24916 C 241.782757 50.410618 243.136924 49.993951 245.006716 49.993951 L 307.694219 49.993951 C 309.564011 49.993951 310.918178 50.410618 311.756719 51.24916 C 312.595261 52.087702 313.017136 53.431452 313.017136 55.275202 L 313.017136 73.103328 C 313.017136 74.973119 312.595261 76.327286 311.756719 77.165828 C 310.918178 77.983536 309.564011 78.389786 307.694219 78.389786 L 293.423385 78.389786 L 293.423385 127.889789 L 307.694219 127.889789 C 309.564011 127.889789 310.918178 128.306455 311.756719 129.144997 C 312.595261 129.962705 313.017136 131.306455 313.017136 133.171039 L 313.017136 150.717915 C 313.017136 152.561665 312.595261 153.905415 311.756719 154.743957 C 310.918178 155.582498 309.564011 155.999165 307.694219 155.999165 Z M 380.308806 155.999165 L 333.75672 155.999165 C 331.91297 155.999165 330.56922 155.582498 329.730678 154.743957 C 328.892137 153.905415 328.47547 152.561665 328.47547 150.717915 L 328.47547 133.462706 C 328.47547 131.592914 328.892137 130.249164 329.730678 129.436664 C 330.56922 128.598122 331.91297 128.176247 333.75672 128.176247 L 373.371306 128.176247 C 374.642139 128.176247 375.600472 127.75958 376.246306 126.921039 C 376.892139 126.082497 377.220264 125.07208 377.220264 123.900205 C 377.220264 122.223122 376.892139 120.999163 376.246306 120.233538 C 375.600472 119.441872 374.642139 118.999163 373.371306 118.900205 L 351.298388 115.811663 C 344.423388 114.827288 338.897346 112.577288 334.730679 109.051246 C 330.558804 105.504371 328.47547 99.608537 328.47547 91.368953 L 328.47547 75.910619 C 328.47547 67.572077 331.168179 61.171035 336.564012 56.712702 C 341.954637 52.233535 349.418179 49.993951 358.954638 49.993951 L 400.189015 49.993951 C 402.032765 49.993951 403.376516 50.410618 404.215057 51.24916 C 405.053599 52.087702 405.470266 53.431452 405.470266 55.275202 L 405.470266 72.816869 C 405.470266 74.686661 405.053599 76.040828 404.215057 76.879369 C 403.376516 77.697078 402.032765 78.103328 400.189015 78.103328 L 365.860889 78.103328 C 364.590055 78.103328 363.60568 78.519995 362.912972 79.358536 C 362.241097 80.197078 361.902555 81.25437 361.902555 82.525203 C 361.902555 83.796036 362.241097 84.874161 362.912972 85.759578 C 363.60568 86.644995 364.590055 87.134578 365.860889 87.233537 L 387.824431 90.181453 C 394.678598 91.16062 400.209849 93.426245 404.428599 96.97312 C 408.673391 100.499162 410.793183 106.379371 410.793183 114.624163 L 410.793183 130.082497 C 410.793183 138.421039 408.058807 144.832498 402.595265 149.311665 C 397.157765 153.769998 389.725473 155.999165 380.308806 155.999165 Z M 500.454645 155.999165 L 432.121309 155.999165 C 430.251517 155.999165 428.89735 155.582498 428.058808 154.743957 C 427.2411 153.905415 426.83485 152.561665 426.83485 150.717915 L 426.83485 55.275202 C 426.83485 53.431452 427.2411 52.087702 428.058808 51.24916 C 428.89735 50.410618 430.251517 49.993951 432.121309 49.993951 L 500.454645 49.993951 C 502.303604 49.993951 503.642146 50.410618 504.480687 51.24916 C 505.319229 52.087702 505.741104 53.431452 505.741104 55.275202 L 505.741104 72.530411 C 505.741104 74.374161 505.319229 75.717911 504.480687 76.556453 C 503.642146 77.394994 502.303604 77.816869 500.454645 77.816869 L 459.798393 77.816869 L 459.798393 89.139787 L 488.522353 89.139787 C 490.392145 89.139787 491.730687 89.556453 492.548395 90.394995 C 493.386937 91.233537 493.803603 92.587704 493.803603 94.457495 L 493.803603 110.202288 C 493.803603 112.07208 493.386937 113.426246 492.548395 114.264788 C 491.730687 115.10333 490.392145 115.525205 488.522353 115.525205 L 459.798393 115.525205 L 459.798393 128.176247 L 500.454645 128.176247 C 502.303604 128.176247 503.642146 128.598122 504.480687 129.436664 C 505.319229 130.249164 505.741104 131.592914 505.741104 133.462706 L 505.741104 150.717915 C 505.741104 152.561665 505.319229 153.905415 504.480687 154.743957 C 503.642146 155.582498 502.303604 155.999165 500.454645 155.999165 Z M 550.48069 155.999165 L 528.41298 155.999165 C 526.543188 155.999165 525.189022 155.582498 524.35048 154.743957 C 523.532772 153.905415 523.126522 152.561665 523.126522 150.717915 L 523.126522 55.275202 C 523.126522 53.431452 523.532772 52.087702 524.35048 51.24916 C 525.189022 50.410618 526.543188 49.993951 528.41298 49.993951 L 543.725481 49.993951 C 545.595273 49.993951 547.189023 50.290826 548.506731 50.889785 C 549.82444 51.46791 551.131731 52.483535 552.423398 53.947077 L 580.965066 86.655412 L 580.965066 55.275202 C 580.965066 53.431452 581.386941 52.087702 582.225483 51.24916 C 583.064025 50.410618 584.418191 49.993951 586.287983 49.993951 L 608.360901 49.993951 C 610.225484 49.993951 611.579651 50.410618 612.418193 51.24916 C 613.256734 52.087702 613.678609 53.431452 613.678609 55.275202 L 613.678609 150.717915 C 613.678609 152.561665 613.256734 153.905415 612.418193 154.743957 C 611.579651 155.582498 610.225484 155.999165 608.360901 155.999165 L 586.287983 155.999165 C 584.418191 155.999165 583.064025 155.582498 582.225483 154.743957 C 581.386941 153.905415 580.965066 152.561665 580.965066 150.717915 L 580.965066 132.598122 L 555.803607 102.113746 L 555.803607 150.717915 C 555.803607 152.561665 555.381731 153.905415 554.54319 154.743957 C 553.704648 155.582498 552.350481 155.999165 550.48069 155.999165 Z M 568.16819 43.519993 L 564.037982 42.910618 C 561.303607 42.525201 559.001523 42.264784 557.131732 42.118951 C 555.26194 41.973118 553.584856 41.973118 552.100481 42.118951 C 550.63694 42.264784 549.189023 42.514784 547.751523 42.874159 C 546.334856 43.207493 544.647356 43.665826 542.683814 44.238743 C 540.933814 44.743951 539.616106 44.697076 538.730689 44.098118 C 537.840064 43.499159 537.397356 42.275201 537.397356 40.431451 L 537.397356 25.546034 C 537.397356 23.676242 537.866106 22.384575 538.798397 21.665825 C 539.735897 20.921033 541.027564 20.202283 542.683814 19.509575 C 545.053606 18.811658 547.022356 18.296033 548.579648 17.9627 C 550.157773 17.629366 551.704648 17.457491 553.215065 17.457491 C 554.751523 17.457491 556.465065 17.577283 558.35569 17.816866 C 560.272357 18.05645 562.704649 18.379366 565.652565 18.790825 L 568.16819 19.077283 L 571.402566 19.509575 C 574.642149 19.988742 577.215066 20.332492 579.131733 20.551242 C 581.048399 20.74395 582.715066 20.790825 584.131733 20.697075 C 585.569233 20.598117 586.970275 20.358533 588.334858 19.973117 C 589.699442 19.566867 591.475483 19.014783 593.657775 18.322075 C 595.407775 17.842908 596.725484 17.9002 597.6109 18.499158 C 598.496317 19.077283 598.939025 20.301242 598.939025 22.165825 L 598.939025 37.014784 C 598.939025 38.884576 598.475484 40.191868 597.537984 40.931451 C 596.605692 41.676243 595.308817 42.384576 593.657775 43.051243 C 591.282775 43.749159 589.308817 44.275201 587.725483 44.634576 C 586.168191 44.973118 584.595275 45.139784 583.01715 45.139784 C 581.459858 45.139784 579.720274 45.019993 577.803608 44.780409 C 575.886941 44.514784 573.454649 44.191868 570.506732 43.806451 Z M 723.793198 128.176247 C 723.793198 132.681456 723.13174 136.780414 721.814032 140.473123 C 720.496323 144.139789 718.136948 147.275206 714.730698 149.88979 C 711.355698 152.499165 706.694239 154.535623 700.75153 155.999165 C 694.803614 157.462707 687.267155 158.191874 678.136946 158.191874 C 669.006737 158.191874 661.444237 157.462707 655.454653 155.999165 C 649.485903 154.535623 644.803611 152.499165 641.402569 149.88979 C 638.022361 147.275206 635.673402 144.139789 634.355694 140.473123 C 633.037985 136.780414 632.376527 132.681456 632.376527 128.176247 L 632.376527 77.957494 C 632.376527 73.452286 633.037985 69.368952 634.355694 65.702286 C 635.673402 62.009577 638.022361 58.832494 641.402569 56.176243 C 644.803611 53.514785 649.485903 51.452285 655.454653 49.993951 C 661.444237 48.504368 669.006737 47.764785 678.136946 47.764785 C 687.267155 47.764785 694.803614 48.504368 700.75153 49.993951 C 706.694239 51.452285 711.355698 53.514785 714.730698 56.176243 C 718.136948 58.832494 720.496323 62.009577 721.814032 65.702286 C 723.13174 69.368952 723.793198 73.452286 723.793198 77.957494 Z M 665.772362 122.858538 C 665.772362 124.82208 666.501529 126.473122 667.96507 127.816872 C 669.449446 129.13458 672.840071 129.796039 678.136946 129.796039 C 683.459863 129.796039 686.850488 129.13458 688.308822 127.816872 C 689.772363 126.473122 690.50153 124.82208 690.50153 122.858538 L 690.50153 83.280411 C 690.50153 81.41062 689.772363 79.81687 688.308822 78.499161 C 686.850488 77.155411 683.459863 76.483536 678.136946 76.483536 C 672.840071 76.483536 669.449446 77.155411 667.96507 78.499161 C 666.501529 79.81687 665.772362 81.41062 665.772362 83.280411 Z M 830.527579 155.999165 L 780.918201 155.999165 C 779.048409 155.999165 777.694243 155.582498 776.855701 154.743957 C 776.043201 153.905415 775.636951 152.561665 775.636951 150.717915 L 775.636951 55.275202 C 775.636951 53.431452 776.043201 52.087702 776.855701 51.24916 C 777.694243 50.410618 779.048409 49.993951 780.918201 49.993951 L 830.527579 49.993951 C 842.798413 49.993951 851.90258 52.447077 857.845288 57.358535 C 863.787997 62.24916 866.761955 69.796036 866.761955 80.009578 L 866.761955 125.94708 C 866.761955 136.155414 863.787997 143.717914 857.845288 148.629373 C 851.90258 153.54604 842.798413 155.999165 830.527579 155.999165 Z M 809.027578 78.103328 L 809.027578 128.176247 L 826.569245 128.176247 C 828.918204 128.176247 830.657787 127.587705 831.782787 126.41583 C 832.912995 125.238747 833.475495 123.421038 833.475495 120.952288 L 833.475495 85.181453 C 833.475495 82.717911 832.912995 80.915828 831.782787 79.790828 C 830.657787 78.665828 828.918204 78.103328 826.569245 78.103328 Z M 959.090085 155.999165 L 890.756748 155.999165 C 888.886957 155.999165 887.53279 155.582498 886.694248 154.743957 C 885.87654 153.905415 885.47029 152.561665 885.47029 150.717915 L 885.47029 55.275202 C 885.47029 53.431452 885.87654 52.087702 886.694248 51.24916 C 887.53279 50.410618 888.886957 49.993951 890.756748 49.993951 L 959.090085 49.993951 C 960.939044 49.993951 962.277585 50.410618 963.116127 51.24916 C 963.954669 52.087702 964.376544 53.431452 964.376544 55.275202 L 964.376544 72.530411 C 964.376544 74.374161 963.954669 75.717911 963.116127 76.556453 C 962.277585 77.394994 960.939044 77.816869 959.090085 77.816869 L 918.433833 77.816869 L 918.433833 89.139787 L 947.157793 89.139787 C 949.027585 89.139787 950.366126 89.556453 951.183835 90.394995 C 952.022376 91.233537 952.439043 92.587704 952.439043 94.457495 L 952.439043 110.202288 C 952.439043 112.07208 952.022376 113.426246 951.183835 114.264788 C 950.366126 115.10333 949.027585 115.525205 947.157793 115.525205 L 918.433833 115.525205 L 918.433833 128.176247 L 959.090085 128.176247 C 960.939044 128.176247 962.277585 128.598122 963.116127 129.436664 C 963.954669 130.249164 964.376544 131.592914 964.376544 133.462706 L 964.376544 150.717915 C 964.376544 152.561665 963.954669 153.905415 963.116127 154.743957 C 962.277585 155.582498 960.939044 155.999165 959.090085 155.999165 Z M 959.090085 155.999165 " stroke="#000000" stroke-width="6.442012" stroke-opacity="1" stroke-miterlimit="4"/><g fill="#e5b2f1" fill-opacity="1"><g transform="translate(425.471531, 522.289681)"><g><path d="M 54.671875 0 L 25.953125 0 C 24.554688 0 23.394531 -0.253906 22.46875 -0.765625 C 21.550781 -1.285156 20.835938 -2.242188 20.328125 -3.640625 L 9.5 -30.703125 C 8.832031 -32.316406 8.273438 -33.734375 7.828125 -34.953125 C 7.390625 -36.171875 7.023438 -37.332031 6.734375 -38.4375 C 6.441406 -39.539062 6.238281 -40.695312 6.125 -41.90625 C 6.019531 -43.125 5.96875 -44.617188 5.96875 -46.390625 L 5.96875 -75.546875 C 5.96875 -76.941406 6.28125 -77.953125 6.90625 -78.578125 C 7.53125 -79.203125 8.539062 -79.515625 9.9375 -79.515625 L 27.5 -79.515625 C 28.894531 -79.515625 29.960938 -79.203125 30.703125 -78.578125 C 31.441406 -77.953125 31.8125 -76.941406 31.8125 -75.546875 L 31.8125 -45.0625 C 31.8125 -44.320312 31.882812 -43.582031 32.03125 -42.84375 C 32.175781 -42.113281 32.394531 -41.34375 32.6875 -40.53125 L 37.875 -25.0625 C 38.101562 -24.332031 38.363281 -23.835938 38.65625 -23.578125 C 38.945312 -23.316406 39.390625 -23.1875 39.984375 -23.1875 L 41.1875 -23.1875 C 41.78125 -23.1875 42.222656 -23.316406 42.515625 -23.578125 C 42.804688 -23.835938 43.066406 -24.332031 43.296875 -25.0625 L 48.484375 -40.640625 C 48.773438 -41.453125 48.992188 -42.222656 49.140625 -42.953125 C 49.285156 -43.691406 49.359375 -44.429688 49.359375 -45.171875 L 49.359375 -75.546875 C 49.359375 -76.941406 49.671875 -77.953125 50.296875 -78.578125 C 50.929688 -79.203125 51.945312 -79.515625 53.34375 -79.515625 L 70.6875 -79.515625 C 72.082031 -79.515625 73.09375 -79.203125 73.71875 -78.578125 C 74.34375 -77.953125 74.65625 -76.941406 74.65625 -75.546875 L 74.65625 -46.390625 C 74.65625 -44.617188 74.597656 -43.125 74.484375 -41.90625 C 74.378906 -40.695312 74.175781 -39.539062 73.875 -38.4375 C 73.582031 -37.332031 73.210938 -36.171875 72.765625 -34.953125 C 72.328125 -33.734375 71.78125 -32.316406 71.125 -30.703125 L 60.296875 -3.640625 C 59.785156 -2.242188 59.066406 -1.285156 58.140625 -0.765625 C 57.222656 -0.253906 56.066406 0 54.671875 0 Z M 54.671875 0 "/></g></g></g><g fill="#e5b2f1" fill-opacity="1"><g transform="translate(506.082382, 522.289681)"><g><path d="M 9.828125 0 C 8.429688 0 7.421875 -0.3125 6.796875 -0.9375 C 6.171875 -1.5625 5.859375 -2.570312 5.859375 -3.96875 L 5.859375 -17.125 C 5.859375 -18.519531 6.171875 -19.53125 6.796875 -20.15625 C 7.421875 -20.78125 8.429688 -21.09375 9.828125 -21.09375 L 20.765625 -21.09375 L 20.765625 -58.203125 L 9.828125 -58.203125 C 8.429688 -58.203125 7.421875 -58.515625 6.796875 -59.140625 C 6.171875 -59.765625 5.859375 -60.773438 5.859375 -62.171875 L 5.859375 -75.546875 C 5.859375 -76.941406 6.171875 -77.953125 6.796875 -78.578125 C 7.421875 -79.203125 8.429688 -79.515625 9.828125 -79.515625 L 56.875 -79.515625 C 58.269531 -79.515625 59.28125 -79.203125 59.90625 -78.578125 C 60.53125 -77.953125 60.84375 -76.941406 60.84375 -75.546875 L 60.84375 -62.171875 C 60.84375 -60.773438 60.53125 -59.765625 59.90625 -59.140625 C 59.28125 -58.515625 58.269531 -58.203125 56.875 -58.203125 L 46.15625 -58.203125 L 46.15625 -21.09375 L 56.875 -21.09375 C 58.269531 -21.09375 59.28125 -20.78125 59.90625 -20.15625 C 60.53125 -19.53125 60.84375 -18.519531 60.84375 -17.125 L 60.84375 -3.96875 C 60.84375 -2.570312 60.53125 -1.5625 59.90625 -0.9375 C 59.28125 -0.3125 58.269531 0 56.875 0 Z M 9.828125 0 "/></g></g></g><g fill="#e5b2f1" fill-opacity="1"><g transform="translate(572.890011, 522.289681)"><g><path d="M 28.15625 0 L 11.59375 0 C 10.195312 0 9.1875 -0.3125 8.5625 -0.9375 C 7.9375 -1.5625 7.625 -2.570312 7.625 -3.96875 L 7.625 -75.546875 C 7.625 -76.941406 7.9375 -77.953125 8.5625 -78.578125 C 9.1875 -79.203125 10.195312 -79.515625 11.59375 -79.515625 L 23.078125 -79.515625 C 24.484375 -79.515625 25.679688 -79.289062 26.671875 -78.84375 C 27.660156 -78.40625 28.632812 -77.632812 29.59375 -76.53125 L 51.015625 -52.015625 L 51.015625 -75.546875 C 51.015625 -76.941406 51.328125 -77.953125 51.953125 -78.578125 C 52.585938 -79.203125 53.601562 -79.515625 55 -79.515625 L 71.5625 -79.515625 C 72.957031 -79.515625 73.96875 -79.203125 74.59375 -78.578125 C 75.226562 -77.953125 75.546875 -76.941406 75.546875 -75.546875 L 75.546875 -3.96875 C 75.546875 -2.570312 75.226562 -1.5625 74.59375 -0.9375 C 73.96875 -0.3125 72.957031 0 71.5625 0 L 55 0 C 53.601562 0 52.585938 -0.3125 51.953125 -0.9375 C 51.328125 -1.5625 51.015625 -2.570312 51.015625 -3.96875 L 51.015625 -17.5625 L 32.140625 -40.421875 L 32.140625 -3.96875 C 32.140625 -2.570312 31.828125 -1.5625 31.203125 -0.9375 C 30.578125 -0.3125 29.5625 0 28.15625 0 Z M 28.15625 0 "/></g></g></g><g fill="#e5b2f1" fill-opacity="1"><g transform="translate(656.040672, 522.289681)"><g><path d="M 9.828125 0 C 8.429688 0 7.421875 -0.3125 6.796875 -0.9375 C 6.171875 -1.5625 5.859375 -2.570312 5.859375 -3.96875 L 5.859375 -17.125 C 5.859375 -18.519531 6.171875 -19.53125 6.796875 -20.15625 C 7.421875 -20.78125 8.429688 -21.09375 9.828125 -21.09375 L 20.765625 -21.09375 L 20.765625 -58.203125 L 9.828125 -58.203125 C 8.429688 -58.203125 7.421875 -58.515625 6.796875 -59.140625 C 6.171875 -59.765625 5.859375 -60.773438 5.859375 -62.171875 L 5.859375 -75.546875 C 5.859375 -76.941406 6.171875 -77.953125 6.796875 -78.578125 C 7.421875 -79.203125 8.429688 -79.515625 9.828125 -79.515625 L 56.875 -79.515625 C 58.269531 -79.515625 59.28125 -79.203125 59.90625 -78.578125 C 60.53125 -77.953125 60.84375 -76.941406 60.84375 -75.546875 L 60.84375 -62.171875 C 60.84375 -60.773438 60.53125 -59.765625 59.90625 -59.140625 C 59.28125 -58.515625 58.269531 -58.203125 56.875 -58.203125 L 46.15625 -58.203125 L 46.15625 -21.09375 L 56.875 -21.09375 C 58.269531 -21.09375 59.28125 -20.78125 59.90625 -20.15625 C 60.53125 -19.53125 60.84375 -18.519531 60.84375 -17.125 L 60.84375 -3.96875 C 60.84375 -2.570312 60.53125 -1.5625 59.90625 -0.9375 C 59.28125 -0.3125 58.269531 0 56.875 0 Z M 9.828125 0 "/></g></g></g><g fill="#e5b2f1" fill-opacity="1"><g transform="translate(722.848301, 522.289681)"><g><path d="M 67.8125 0 L 11.59375 0 C 10.195312 0 9.1875 -0.3125 8.5625 -0.9375 C 7.9375 -1.5625 7.625 -2.570312 7.625 -3.96875 L 7.625 -75.546875 C 7.625 -76.941406 7.9375 -77.953125 8.5625 -78.578125 C 9.1875 -79.203125 10.195312 -79.515625 11.59375 -79.515625 L 28.71875 -79.515625 C 30.113281 -79.515625 31.125 -79.203125 31.75 -78.578125 C 32.375 -77.953125 32.6875 -76.941406 32.6875 -75.546875 L 32.6875 -20.875 L 47.8125 -20.875 L 47.8125 -38.765625 C 47.8125 -40.160156 48.125 -41.171875 48.75 -41.796875 C 49.382812 -42.421875 50.398438 -42.734375 51.796875 -42.734375 L 67.8125 -42.734375 C 69.207031 -42.734375 70.21875 -42.421875 70.84375 -41.796875 C 71.46875 -41.171875 71.78125 -40.160156 71.78125 -38.765625 L 71.78125 -3.96875 C 71.78125 -2.570312 71.46875 -1.5625 70.84375 -0.9375 C 70.21875 -0.3125 69.207031 0 67.8125 0 Z M 67.8125 0 "/></g></g></g><g fill="#e5b2f1" fill-opacity="1"><g transform="translate(799.594254, 522.289681)"><g><path d="M 74.984375 -20.875 C 74.984375 -17.488281 74.484375 -14.414062 73.484375 -11.65625 C 72.492188 -8.894531 70.726562 -6.535156 68.1875 -4.578125 C 65.65625 -2.628906 62.160156 -1.101562 57.703125 0 C 53.242188 1.101562 47.59375 1.65625 40.75 1.65625 C 33.90625 1.65625 28.234375 1.101562 23.734375 0 C 19.242188 -1.101562 15.726562 -2.628906 13.1875 -4.578125 C 10.65625 -6.535156 8.890625 -8.894531 7.890625 -11.65625 C 6.898438 -14.414062 6.40625 -17.488281 6.40625 -20.875 L 6.40625 -58.53125 C 6.40625 -61.914062 6.898438 -64.988281 7.890625 -67.75 C 8.890625 -70.507812 10.65625 -72.882812 13.1875 -74.875 C 15.726562 -76.863281 19.242188 -78.410156 23.734375 -79.515625 C 28.234375 -80.617188 33.90625 -81.171875 40.75 -81.171875 C 47.59375 -81.171875 53.242188 -80.617188 57.703125 -79.515625 C 62.160156 -78.410156 65.65625 -76.863281 68.1875 -74.875 C 70.726562 -72.882812 72.492188 -70.507812 73.484375 -67.75 C 74.484375 -64.988281 74.984375 -61.914062 74.984375 -58.53125 Z M 31.46875 -24.84375 C 31.46875 -23.375 32.019531 -22.140625 33.125 -21.140625 C 34.226562 -20.148438 36.769531 -19.65625 40.75 -19.65625 C 44.726562 -19.65625 47.269531 -20.148438 48.375 -21.140625 C 49.476562 -22.140625 50.03125 -23.375 50.03125 -24.84375 L 50.03125 -54.5625 C 50.03125 -55.957031 49.476562 -57.148438 48.375 -58.140625 C 47.269531 -59.140625 44.726562 -59.640625 40.75 -59.640625 C 36.769531 -59.640625 34.226562 -59.140625 33.125 -58.140625 C 32.019531 -57.148438 31.46875 -55.957031 31.46875 -54.5625 Z M 31.46875 -24.84375 "/></g></g></g><g fill="#e5b2f1" fill-opacity="1"><g transform="translate(880.978085, 522.289681)"><g><path d="M 44.5 0 L 9.609375 0 C 8.210938 0 7.195312 -0.3125 6.5625 -0.9375 C 5.9375 -1.5625 5.625 -2.570312 5.625 -3.96875 L 5.625 -16.890625 C 5.625 -18.296875 5.9375 -19.3125 6.5625 -19.9375 C 7.195312 -20.5625 8.210938 -20.875 9.609375 -20.875 L 39.3125 -20.875 C 40.269531 -20.875 40.988281 -21.1875 41.46875 -21.8125 C 41.945312 -22.4375 42.1875 -23.191406 42.1875 -24.078125 C 42.1875 -25.328125 41.945312 -26.242188 41.46875 -26.828125 C 40.988281 -27.421875 40.269531 -27.753906 39.3125 -27.828125 L 22.75 -30.15625 C 17.59375 -30.882812 13.445312 -32.570312 10.3125 -35.21875 C 7.1875 -37.875 5.625 -42.296875 5.625 -48.484375 L 5.625 -60.078125 C 5.625 -66.335938 7.648438 -71.140625 11.703125 -74.484375 C 15.753906 -77.835938 21.351562 -79.515625 28.5 -79.515625 L 59.421875 -79.515625 C 60.816406 -79.515625 61.828125 -79.203125 62.453125 -78.578125 C 63.078125 -77.953125 63.390625 -76.941406 63.390625 -75.546875 L 63.390625 -62.390625 C 63.390625 -60.992188 63.078125 -59.984375 62.453125 -59.359375 C 61.828125 -58.734375 60.816406 -58.421875 59.421875 -58.421875 L 33.6875 -58.421875 C 32.726562 -58.421875 31.988281 -58.109375 31.46875 -57.484375 C 30.957031 -56.859375 30.703125 -56.066406 30.703125 -55.109375 C 30.703125 -54.148438 30.957031 -53.335938 31.46875 -52.671875 C 31.988281 -52.015625 32.726562 -51.648438 33.6875 -51.578125 L 50.140625 -49.359375 C 55.296875 -48.628906 59.453125 -46.9375 62.609375 -44.28125 C 65.773438 -41.632812 67.359375 -37.21875 67.359375 -31.03125 L 67.359375 -19.4375 C 67.359375 -13.175781 65.316406 -8.367188 61.234375 -5.015625 C 57.148438 -1.671875 51.570312 0 44.5 0 Z M 44.5 0 "/></g></g></g><path stroke-linecap="butt" transform="matrix(0.75, 0, 0, 0.75, 278.998879, 250.789695)" fill="none" stroke-linejoin="miter" d="M 268.199425 361.999175 L 229.912965 361.999175 C 228.043173 361.999175 226.485882 361.665842 225.24109 360.993967 C 224.017131 360.29605 223.074423 359.0148 222.402548 357.145009 L 207.949422 321.056465 C 207.064006 318.900215 206.319214 317.020007 205.720256 315.410631 C 205.147339 313.780423 204.652547 312.238756 204.246297 310.775215 C 203.866089 309.290839 203.600464 307.743964 203.45463 306.139798 C 203.314005 304.509589 203.241089 302.520006 203.241089 300.171047 L 203.241089 261.275212 C 203.241089 259.431462 203.662964 258.087712 204.501506 257.24917 C 205.340047 256.410628 206.694214 255.993962 208.564006 255.993962 L 231.965049 255.993962 C 233.83484 255.993962 235.256715 256.410628 236.24109 257.24917 C 237.225465 258.087712 237.715049 259.431462 237.715049 261.275212 L 237.715049 301.931464 C 237.715049 302.915839 237.808799 303.895006 238.001507 304.879381 C 238.194216 305.863756 238.480674 306.895006 238.866091 307.973131 L 245.803591 328.566882 C 246.090049 329.551257 246.423383 330.223132 246.808799 330.582507 C 247.215049 330.915841 247.814008 331.087716 248.605674 331.087716 L 250.225466 331.087716 C 251.017133 331.087716 251.600466 330.915841 251.985883 330.582507 C 252.3713 330.223132 252.71505 329.551257 253.02755 328.566882 L 259.928592 307.827298 C 260.34005 306.749173 260.636925 305.717923 260.829633 304.733548 C 261.022342 303.754381 261.116092 302.770006 261.116092 301.790839 L 261.116092 261.275212 C 261.116092 259.431462 261.537967 258.087712 262.376508 257.24917 C 263.21505 256.410628 264.553592 255.993962 266.40255 255.993962 L 289.517135 255.993962 C 291.381718 255.993962 292.735885 256.410628 293.574427 257.24917 C 294.412968 258.087712 294.834843 259.431462 294.834843 261.275212 L 294.834843 300.171047 C 294.834843 302.520006 294.761927 304.509589 294.621302 306.139798 C 294.475468 307.743964 294.199427 309.290839 293.793177 310.775215 C 293.40776 312.238756 292.918177 313.780423 292.319218 315.410631 C 291.741093 317.020007 291.011927 318.900215 290.12651 321.056465 L 275.673384 357.145009 C 275.001509 359.0148 274.043176 360.29605 272.798384 360.993967 C 271.574426 361.665842 270.043175 361.999175 268.199425 361.999175 Z M 315.897344 361.999175 C 314.027553 361.999175 312.673386 361.582509 311.834844 360.743967 C 310.996303 359.905425 310.579636 358.561675 310.579636 356.717925 L 310.579636 339.171049 C 310.579636 337.306466 310.996303 335.962716 311.834844 335.145007 C 312.673386 334.306466 314.027553 333.889799 315.897344 333.889799 L 330.459845 333.889799 L 330.459845 284.389797 L 315.897344 284.389797 C 314.027553 284.389797 312.673386 283.983547 311.834844 283.165838 C 310.996303 282.327296 310.579636 280.97313 310.579636 279.103338 L 310.579636 261.275212 C 310.579636 259.431462 310.996303 258.087712 311.834844 257.24917 C 312.673386 256.410628 314.027553 255.993962 315.897344 255.993962 L 378.590056 255.993962 C 380.459848 255.993962 381.814014 256.410628 382.652556 257.24917 C 383.491098 258.087712 383.912973 259.431462 383.912973 261.275212 L 383.912973 279.103338 C 383.912973 280.97313 383.491098 282.327296 382.652556 283.165838 C 381.814014 283.983547 380.459848 284.389797 378.590056 284.389797 L 364.319222 284.389797 L 364.319222 333.889799 L 378.590056 333.889799 C 380.459848 333.889799 381.814014 334.306466 382.652556 335.145007 C 383.491098 335.962716 383.912973 337.306466 383.912973 339.171049 L 383.912973 356.717925 C 383.912973 358.561675 383.491098 359.905425 382.652556 360.743967 C 381.814014 361.582509 380.459848 361.999175 378.590056 361.999175 Z M 429.381725 361.999175 L 407.314016 361.999175 C 405.444224 361.999175 404.090057 361.582509 403.251516 360.743967 C 402.433807 359.905425 402.027557 358.561675 402.027557 356.717925 L 402.027557 261.275212 C 402.027557 259.431462 402.433807 258.087712 403.251516 257.24917 C 404.090057 256.410628 405.444224 255.993962 407.314016 255.993962 L 422.626516 255.993962 C 424.496308 255.993962 426.090058 256.290837 427.407767 256.889795 C 428.725475 257.46792 430.032767 258.483545 431.324434 259.947087 L 459.866102 292.655422 L 459.866102 261.275212 C 459.866102 259.431462 460.287977 258.087712 461.126518 257.24917 C 461.96506 256.410628 463.319227 255.993962 465.189019 255.993962 L 487.256728 255.993962 C 489.12652 255.993962 490.480687 256.410628 491.319228 257.24917 C 492.15777 258.087712 492.579645 259.431462 492.579645 261.275212 L 492.579645 356.717925 C 492.579645 358.561675 492.15777 359.905425 491.319228 360.743967 C 490.480687 361.582509 489.12652 361.999175 487.256728 361.999175 L 465.189019 361.999175 C 463.319227 361.999175 461.96506 361.582509 461.126518 360.743967 C 460.287977 359.905425 459.866102 358.561675 459.866102 356.717925 L 459.866102 338.598133 L 434.704642 308.113756 L 434.704642 356.717925 C 434.704642 358.561675 434.282767 359.905425 433.444225 360.743967 C 432.605684 361.582509 431.251517 361.999175 429.381725 361.999175 Z M 515.845271 361.999175 C 513.975479 361.999175 512.621313 361.582509 511.782771 360.743967 C 510.944229 359.905425 510.522354 358.561675 510.522354 356.717925 L 510.522354 339.171049 C 510.522354 337.306466 510.944229 335.962716 511.782771 335.145007 C 512.621313 334.306466 513.975479 333.889799 515.845271 333.889799 L 530.402564 333.889799 L 530.402564 284.389797 L 515.845271 284.389797 C 513.975479 284.389797 512.621313 283.983547 511.782771 283.165838 C 510.944229 282.327296 510.522354 280.97313 510.522354 279.103338 L 510.522354 261.275212 C 510.522354 259.431462 510.944229 258.087712 511.782771 257.24917 C 512.621313 256.410628 513.975479 255.993962 515.845271 255.993962 L 578.532774 255.993962 C 580.402566 255.993962 581.756733 256.410628 582.595275 257.24917 C 583.433816 258.087712 583.855691 259.431462 583.855691 261.275212 L 583.855691 279.103338 C 583.855691 280.97313 583.433816 282.327296 582.595275 283.165838 C 581.756733 283.983547 580.402566 284.389797 578.532774 284.389797 L 564.26194 284.389797 L 564.26194 333.889799 L 578.532774 333.889799 C 580.402566 333.889799 581.756733 334.306466 582.595275 335.145007 C 583.433816 335.962716 583.855691 337.306466 583.855691 339.171049 L 583.855691 356.717925 C 583.855691 358.561675 583.433816 359.905425 582.595275 360.743967 C 581.756733 361.582509 580.402566 361.999175 578.532774 361.999175 Z M 682.204655 361.999175 L 607.256734 361.999175 C 605.386942 361.999175 604.032776 361.582509 603.194234 360.743967 C 602.381734 359.905425 601.970276 358.561675 601.970276 356.717925 L 601.970276 261.275212 C 601.970276 259.431462 602.381734 258.087712 603.194234 257.24917 C 604.032776 256.410628 605.386942 255.993962 607.256734 255.993962 L 630.08486 255.993962 C 631.954652 255.993962 633.293194 256.410628 634.110902 257.24917 C 634.949444 258.087712 635.366111 259.431462 635.366111 261.275212 L 635.366111 334.176257 L 655.569237 334.176257 L 655.569237 310.306465 C 655.569237 308.436673 655.975487 307.098131 656.793195 306.280423 C 657.631737 305.441881 658.985903 305.025214 660.855695 305.025214 L 682.204655 305.025214 C 684.074446 305.025214 685.418196 305.441881 686.230696 306.280423 C 687.069238 307.098131 687.491113 308.436673 687.491113 310.306465 L 687.491113 356.717925 C 687.491113 358.561675 687.069238 359.905425 686.230696 360.743967 C 685.418196 361.582509 684.074446 361.999175 682.204655 361.999175 Z M 794.095285 334.176257 C 794.095285 338.681466 793.439035 342.780424 792.121327 346.473133 C 790.803618 350.1398 788.439035 353.275217 785.037993 355.8898 C 781.657785 358.499175 776.996326 360.535634 771.053617 361.999175 C 765.110909 363.462717 757.57445 364.191884 748.444241 364.191884 C 739.314032 364.191884 731.751532 363.462717 725.761948 361.999175 C 719.793198 360.535634 715.110906 358.499175 711.704656 355.8898 C 708.324448 353.275217 705.975489 350.1398 704.657781 346.473133 C 703.340072 342.780424 702.683822 338.681466 702.683822 334.176257 L 702.683822 283.957505 C 702.683822 279.452296 703.340072 275.368963 704.657781 271.702296 C 705.975489 268.009587 708.324448 264.832504 711.704656 262.176254 C 715.110906 259.514795 719.793198 257.452295 725.761948 255.993962 C 731.751532 254.504378 739.314032 253.764795 748.444241 253.764795 C 757.57445 253.764795 765.110909 254.504378 771.053617 255.993962 C 776.996326 257.452295 781.657785 259.514795 785.037993 262.176254 C 788.439035 264.832504 790.803618 268.009587 792.121327 271.702296 C 793.439035 275.368963 794.095285 279.452296 794.095285 283.957505 Z M 736.079657 328.858549 C 736.079657 330.822091 736.808824 332.473132 738.272366 333.816882 C 739.756741 335.134591 743.147366 335.796049 748.444241 335.796049 C 753.76195 335.796049 757.152575 335.134591 758.616117 333.816882 C 760.079658 332.473132 760.808825 330.822091 760.808825 328.858549 L 760.808825 289.280422 C 760.808825 287.41063 760.079658 285.81688 758.616117 284.499172 C 757.152575 283.155421 753.76195 282.483546 748.444241 282.483546 C 743.147366 282.483546 739.756741 283.155421 738.272366 284.499172 C 736.808824 285.81688 736.079657 287.41063 736.079657 289.280422 Z M 861.985914 361.999175 L 815.433828 361.999175 C 813.590078 361.999175 812.246328 361.582509 811.407786 360.743967 C 810.569244 359.905425 810.152578 358.561675 810.152578 356.717925 L 810.152578 339.462716 C 810.152578 337.592924 810.569244 336.249174 811.407786 335.436674 C 812.246328 334.598132 813.590078 334.176257 815.433828 334.176257 L 855.048413 334.176257 C 856.319247 334.176257 857.27758 333.759591 857.923413 332.921049 C 858.574455 332.077299 858.897372 331.072091 858.897372 329.900215 C 858.897372 328.223132 858.574455 326.999174 857.923413 326.233549 C 857.27758 325.441882 856.319247 324.999174 855.048413 324.900215 L 832.980704 321.811673 C 826.100495 320.827298 820.574453 318.577298 816.407786 315.051256 C 812.235911 311.504381 810.152578 305.608548 810.152578 297.368964 L 810.152578 281.91063 C 810.152578 273.572088 812.850494 267.171046 818.24112 262.712712 C 823.631745 258.233545 831.095287 255.993962 840.636954 255.993962 L 881.866123 255.993962 C 883.709873 255.993962 885.053623 256.410628 885.892165 257.24917 C 886.730706 258.087712 887.152582 259.431462 887.152582 261.275212 L 887.152582 278.81688 C 887.152582 280.686671 886.730706 282.040838 885.892165 282.87938 C 885.053623 283.697088 883.709873 284.103338 881.866123 284.103338 L 847.537996 284.103338 C 846.267163 284.103338 845.282788 284.520005 844.590079 285.358547 C 843.918204 286.197088 843.584871 287.25438 843.584871 288.525213 C 843.584871 289.796047 843.918204 290.874172 844.590079 291.759589 C 845.282788 292.645005 846.267163 293.134589 847.537996 293.233547 L 869.501539 296.181464 C 876.355706 297.160631 881.892165 299.426256 886.110915 302.973131 C 890.350498 306.499173 892.47029 312.379381 892.47029 320.624173 L 892.47029 336.082507 C 892.47029 344.42105 889.741123 350.832508 884.277581 355.311675 C 878.834873 359.770009 871.407789 361.999175 861.985914 361.999175 Z M 861.985914 361.999175 " stroke="#000000" stroke-width="6.442012" stroke-opacity="1" stroke-miterlimit="4"/></svg>