<svg xmlns="http://www.w3.org/2000/svg" xmlns:xlink="http://www.w3.org/1999/xlink" width="1920" zoomAndPan="magnify" viewBox="0 0 1440 809.999993" height="1080" preserveAspectRatio="xMidYMid meet" version="1.0"><defs><filter x="0%" y="0%" width="100%" height="100%" id="fb9ad547b5"><feColorMatrix values="0 0 0 0 1 0 0 0 0 1 0 0 0 0 1 0 0 0 1 0" color-interpolation-filters="sRGB"/></filter><g/><mask id="b0321a540d"><g filter="url(#fb9ad547b5)"><rect x="-144" width="1728" fill="#000000" y="-80.999999" height="971.999992" fill-opacity="0.5"/></g></mask><clipPath id="0facbc7ece"><path d="M 0 0 L 629.03125 0 L 629.03125 712.390625 L 0 712.390625 Z M 0 0 " clip-rule="nonzero"/></clipPath><clipPath id="8cb1d79a5c"><rect x="0" width="630" y="0" height="713"/></clipPath><mask id="320aca56f7"><g filter="url(#fb9ad547b5)"><rect x="-144" width="1728" fill="#000000" y="-80.999999" height="971.999992" fill-opacity="0.5"/></g></mask><clipPath id="a564d0db54"><path d="M 0.4375 0.519531 L 704 0.519531 L 704 729 L 0.4375 729 Z M 0.4375 0.519531 " clip-rule="nonzero"/></clipPath><clipPath id="901722f0ee"><rect x="0" width="704" y="0" height="729"/></clipPath><clipPath id="b31d64aa4a"><path d="M 208.691406 138.140625 L 1169.441406 138.140625 L 1169.441406 621.890625 L 208.691406 621.890625 Z M 208.691406 138.140625 " clip-rule="nonzero"/></clipPath><clipPath id="9754f48f39"><path d="M 208.691406 138.140625 L 1169.441406 138.140625 L 1169.441406 621.890625 L 208.691406 621.890625 Z M 208.691406 138.140625 " clip-rule="nonzero"/></clipPath></defs><rect x="-144" width="1728" fill="#ffffff" y="-80.999999" height="971.999992" fill-opacity="1"/><rect x="-144" width="1728" fill="#bdb2ff" y="-80.999999" height="971.999992" fill-opacity="1"/><g mask="url(#b0321a540d)"><g transform="matrix(1, 0, 0, 1, 0, 0.000000000000039746)"><g clip-path="url(#8cb1d79a5c)"><g clip-path="url(#0facbc7ece)"><path fill="#424651" d="M -187.71875 -101.949219 L -187.71875 709.953125 C -187.71875 711.300781 -186.628906 712.390625 -185.28125 712.390625 L 626.621094 712.390625 C 627.964844 712.390625 629.054688 711.300781 629.054688 709.953125 L 629.054688 -101.949219 C 629.054688 -103.292969 627.964844 -104.382812 626.621094 -104.382812 L -185.28125 -104.382812 C -186.628906 -104.382812 -187.71875 -103.292969 -187.71875 -101.949219 Z M 255.140625 338.472656 L 186.199219 338.472656 L 186.199219 269.53125 L 255.140625 269.53125 Z M 260.011719 269.53125 L 328.949219 269.53125 L 328.949219 338.472656 L 260.011719 338.472656 Z M 186.199219 412.28125 L 186.199219 343.34375 L 255.140625 343.34375 L 255.140625 412.28125 Z M 255.140625 417.152344 L 255.140625 486.089844 L 186.199219 486.089844 L 186.199219 417.152344 Z M 181.328125 338.472656 L 112.390625 338.472656 L 112.390625 269.53125 L 181.328125 269.53125 Z M 186.199219 264.660156 L 186.199219 195.722656 L 255.140625 195.722656 L 255.140625 264.660156 Z M 186.199219 190.851562 L 186.199219 121.914062 L 255.140625 121.914062 L 255.140625 190.851562 Z M 181.328125 190.851562 L 112.390625 190.851562 L 112.390625 121.914062 L 181.328125 121.914062 Z M 181.328125 195.722656 L 181.328125 264.660156 L 112.390625 264.660156 L 112.390625 195.722656 Z M 107.519531 264.660156 L 38.582031 264.660156 L 38.582031 195.722656 L 107.519531 195.722656 Z M 107.519531 269.53125 L 107.519531 338.472656 L 38.582031 338.472656 L 38.582031 269.53125 Z M 107.519531 343.34375 L 107.519531 412.28125 L 38.582031 412.28125 L 38.582031 343.34375 Z M 112.390625 343.34375 L 181.328125 343.34375 L 181.328125 412.28125 L 112.390625 412.28125 Z M 181.328125 417.152344 L 181.328125 486.089844 L 112.390625 486.089844 L 112.390625 417.152344 Z M 181.328125 490.960938 L 181.328125 559.898438 L 112.390625 559.898438 L 112.390625 490.960938 Z M 186.199219 490.960938 L 255.140625 490.960938 L 255.140625 559.898438 L 186.199219 559.898438 Z M 260.011719 490.960938 L 328.949219 490.960938 L 328.949219 559.898438 L 260.011719 559.898438 Z M 260.011719 486.089844 L 260.011719 417.152344 L 328.949219 417.152344 L 328.949219 486.089844 Z M 260.011719 412.28125 L 260.011719 343.34375 L 328.949219 343.34375 L 328.949219 412.28125 Z M 333.820312 343.34375 L 402.757812 343.34375 L 402.757812 412.28125 L 333.820312 412.28125 Z M 333.820312 338.472656 L 333.820312 269.53125 L 402.757812 269.53125 L 402.757812 338.472656 Z M 333.820312 264.660156 L 333.820312 195.722656 L 402.757812 195.722656 L 402.757812 264.660156 Z M 328.949219 264.660156 L 260.011719 264.660156 L 260.011719 195.722656 L 328.949219 195.722656 Z M 260.011719 190.851562 L 260.011719 121.914062 L 328.949219 121.914062 L 328.949219 190.851562 Z M 260.011719 117.042969 L 260.011719 48.105469 L 328.949219 48.105469 L 328.949219 117.042969 Z M 255.140625 117.042969 L 186.199219 117.042969 L 186.199219 48.105469 L 255.140625 48.105469 Z M 181.328125 117.042969 L 112.390625 117.042969 L 112.390625 48.105469 L 181.328125 48.105469 Z M 107.519531 117.042969 L 38.582031 117.042969 L 38.582031 48.105469 L 107.519531 48.105469 Z M 107.519531 121.914062 L 107.519531 190.851562 L 38.582031 190.851562 L 38.582031 121.914062 Z M 33.710938 190.851562 L -35.226562 190.851562 L -35.226562 121.914062 L 33.710938 121.914062 Z M 33.710938 195.722656 L 33.710938 264.660156 L -35.226562 264.660156 L -35.226562 195.722656 Z M 33.710938 269.53125 L 33.710938 338.472656 L -35.226562 338.472656 L -35.226562 269.53125 Z M 33.710938 343.34375 L 33.710938 412.28125 L -35.226562 412.28125 L -35.226562 343.34375 Z M 33.710938 417.152344 L 33.710938 486.089844 L -35.226562 486.089844 L -35.226562 417.152344 Z M 38.582031 417.152344 L 107.519531 417.152344 L 107.519531 486.089844 L 38.582031 486.089844 Z M 107.519531 490.960938 L 107.519531 559.898438 L 38.582031 559.898438 L 38.582031 490.960938 Z M 107.519531 564.769531 L 107.519531 633.707031 L 38.582031 633.707031 L 38.582031 564.769531 Z M 112.390625 564.769531 L 181.328125 564.769531 L 181.328125 633.707031 L 112.390625 633.707031 Z M 186.199219 564.769531 L 255.140625 564.769531 L 255.140625 633.707031 L 186.199219 633.707031 Z M 260.011719 564.769531 L 328.949219 564.769531 L 328.949219 633.707031 L 260.011719 633.707031 Z M 333.820312 564.769531 L 402.757812 564.769531 L 402.757812 633.707031 L 333.820312 633.707031 Z M 333.820312 559.898438 L 333.820312 490.960938 L 402.757812 490.960938 L 402.757812 559.898438 Z M 333.820312 486.089844 L 333.820312 417.152344 L 402.757812 417.152344 L 402.757812 486.089844 Z M 407.628906 417.152344 L 476.566406 417.152344 L 476.566406 486.089844 L 407.628906 486.089844 Z M 407.628906 412.28125 L 407.628906 343.34375 L 476.566406 343.34375 L 476.566406 412.28125 Z M 407.628906 338.472656 L 407.628906 269.53125 L 476.566406 269.53125 L 476.566406 338.472656 Z M 407.628906 264.660156 L 407.628906 195.722656 L 476.566406 195.722656 L 476.566406 264.660156 Z M 407.628906 190.851562 L 407.628906 121.914062 L 476.566406 121.914062 L 476.566406 190.851562 Z M 402.757812 190.851562 L 333.820312 190.851562 L 333.820312 121.914062 L 402.757812 121.914062 Z M 333.820312 117.042969 L 333.820312 48.105469 L 402.757812 48.105469 L 402.757812 117.042969 Z M 333.820312 43.234375 L 333.820312 -25.703125 L 402.757812 -25.703125 L 402.757812 43.234375 Z M 328.949219 43.234375 L 260.011719 43.234375 L 260.011719 -25.703125 L 328.949219 -25.703125 Z M 255.140625 43.234375 L 186.199219 43.234375 L 186.199219 -25.703125 L 255.140625 -25.703125 Z M 181.328125 43.234375 L 112.390625 43.234375 L 112.390625 -25.703125 L 181.328125 -25.703125 Z M 107.519531 43.234375 L 38.582031 43.234375 L 38.582031 -25.703125 L 107.519531 -25.703125 Z M 33.710938 43.234375 L -35.226562 43.234375 L -35.226562 -25.703125 L 33.710938 -25.703125 Z M 33.710938 48.105469 L 33.710938 117.042969 L -35.226562 117.042969 L -35.226562 48.105469 Z M -40.097656 117.042969 L -109.035156 117.042969 L -109.035156 48.105469 L -40.097656 48.105469 Z M -40.097656 121.914062 L -40.097656 190.851562 L -109.035156 190.851562 L -109.035156 121.914062 Z M -40.097656 195.722656 L -40.097656 264.660156 L -109.035156 264.660156 L -109.035156 195.722656 Z M -40.097656 269.53125 L -40.097656 338.472656 L -109.035156 338.472656 L -109.035156 269.53125 Z M -40.097656 343.34375 L -40.097656 412.28125 L -109.035156 412.28125 L -109.035156 343.34375 Z M -40.097656 417.152344 L -40.097656 486.089844 L -109.035156 486.089844 L -109.035156 417.152344 Z M -40.097656 490.960938 L -40.097656 559.898438 L -109.035156 559.898438 L -109.035156 490.960938 Z M -35.226562 490.960938 L 33.710938 490.960938 L 33.710938 559.898438 L -35.226562 559.898438 Z M 33.710938 564.769531 L 33.710938 633.707031 L -35.226562 633.707031 L -35.226562 564.769531 Z M 33.710938 638.578125 L 33.710938 707.519531 L -35.226562 707.519531 L -35.226562 638.578125 Z M 38.582031 638.578125 L 107.519531 638.578125 L 107.519531 707.519531 L 38.582031 707.519531 Z M 112.390625 638.578125 L 181.328125 638.578125 L 181.328125 707.519531 L 112.390625 707.519531 Z M 186.199219 638.578125 L 255.140625 638.578125 L 255.140625 707.519531 L 186.199219 707.519531 Z M 260.011719 638.578125 L 328.949219 638.578125 L 328.949219 707.519531 L 260.011719 707.519531 Z M 333.820312 638.578125 L 402.757812 638.578125 L 402.757812 707.519531 L 333.820312 707.519531 Z M 407.628906 638.578125 L 476.566406 638.578125 L 476.566406 707.519531 L 407.628906 707.519531 Z M 407.628906 633.707031 L 407.628906 564.769531 L 476.566406 564.769531 L 476.566406 633.707031 Z M 407.628906 559.898438 L 407.628906 490.960938 L 476.566406 490.960938 L 476.566406 559.898438 Z M 481.4375 490.960938 L 550.375 490.960938 L 550.375 559.898438 L 481.4375 559.898438 Z M 481.4375 486.089844 L 481.4375 417.152344 L 550.375 417.152344 L 550.375 486.089844 Z M 481.4375 412.28125 L 481.4375 343.34375 L 550.375 343.34375 L 550.375 412.28125 Z M 481.4375 338.472656 L 481.4375 269.53125 L 550.375 269.53125 L 550.375 338.472656 Z M 481.4375 264.660156 L 481.4375 195.722656 L 550.375 195.722656 L 550.375 264.660156 Z M 481.4375 190.851562 L 481.4375 121.914062 L 550.375 121.914062 L 550.375 190.851562 Z M 481.4375 117.042969 L 481.4375 48.105469 L 550.375 48.105469 L 550.375 117.042969 Z M 476.566406 117.042969 L 407.628906 117.042969 L 407.628906 48.105469 L 476.566406 48.105469 Z M 407.628906 43.234375 L 407.628906 -25.703125 L 476.566406 -25.703125 L 476.566406 43.234375 Z M 407.628906 -30.574219 L 407.628906 -99.511719 L 476.566406 -99.511719 L 476.566406 -30.574219 Z M 402.757812 -30.574219 L 333.820312 -30.574219 L 333.820312 -99.511719 L 402.757812 -99.511719 Z M 328.949219 -30.574219 L 260.011719 -30.574219 L 260.011719 -99.511719 L 328.949219 -99.511719 Z M 255.140625 -30.574219 L 186.199219 -30.574219 L 186.199219 -99.511719 L 255.140625 -99.511719 Z M 181.328125 -30.574219 L 112.390625 -30.574219 L 112.390625 -99.511719 L 181.328125 -99.511719 Z M 107.519531 -30.574219 L 38.582031 -30.574219 L 38.582031 -99.511719 L 107.519531 -99.511719 Z M 33.710938 -30.574219 L -35.226562 -30.574219 L -35.226562 -99.511719 L 33.710938 -99.511719 Z M -40.097656 -30.574219 L -109.035156 -30.574219 L -109.035156 -99.511719 L -40.097656 -99.511719 Z M -40.097656 -25.703125 L -40.097656 43.234375 L -109.035156 43.234375 L -109.035156 -25.703125 Z M -113.90625 43.234375 L -182.847656 43.234375 L -182.847656 -25.703125 L -113.90625 -25.703125 Z M -113.90625 48.105469 L -113.90625 117.042969 L -182.847656 117.042969 L -182.847656 48.105469 Z M -113.90625 121.914062 L -113.90625 190.851562 L -182.847656 190.851562 L -182.847656 121.914062 Z M -113.90625 195.722656 L -113.90625 264.660156 L -182.847656 264.660156 L -182.847656 195.722656 Z M -113.90625 269.53125 L -113.90625 338.472656 L -182.847656 338.472656 L -182.847656 269.53125 Z M -113.90625 343.34375 L -113.90625 412.28125 L -182.847656 412.28125 L -182.847656 343.34375 Z M -113.90625 417.152344 L -113.90625 486.089844 L -182.847656 486.089844 L -182.847656 417.152344 Z M -113.90625 490.960938 L -113.90625 559.898438 L -182.847656 559.898438 L -182.847656 490.960938 Z M -113.90625 564.769531 L -113.90625 633.707031 L -182.847656 633.707031 L -182.847656 564.769531 Z M -109.035156 564.769531 L -40.097656 564.769531 L -40.097656 633.707031 L -109.035156 633.707031 Z M -40.097656 638.578125 L -40.097656 707.519531 L -109.035156 707.519531 L -109.035156 638.578125 Z M 481.4375 707.519531 L 481.4375 638.578125 L 550.375 638.578125 L 550.375 707.519531 Z M 481.4375 633.707031 L 481.4375 564.769531 L 550.375 564.769531 L 550.375 633.707031 Z M 555.246094 564.769531 L 624.183594 564.769531 L 624.183594 633.707031 L 555.246094 633.707031 Z M 555.246094 559.898438 L 555.246094 490.960938 L 624.183594 490.960938 L 624.183594 559.898438 Z M 555.246094 486.089844 L 555.246094 417.152344 L 624.183594 417.152344 L 624.183594 486.089844 Z M 555.246094 412.28125 L 555.246094 343.34375 L 624.183594 343.34375 L 624.183594 412.28125 Z M 555.246094 338.472656 L 555.246094 269.53125 L 624.183594 269.53125 L 624.183594 338.472656 Z M 555.246094 264.660156 L 555.246094 195.722656 L 624.183594 195.722656 L 624.183594 264.660156 Z M 555.246094 190.851562 L 555.246094 121.914062 L 624.183594 121.914062 L 624.183594 190.851562 Z M 555.246094 117.042969 L 555.246094 48.105469 L 624.183594 48.105469 L 624.183594 117.042969 Z M 555.246094 43.234375 L 555.246094 -25.703125 L 624.183594 -25.703125 L 624.183594 43.234375 Z M 550.375 43.234375 L 481.4375 43.234375 L 481.4375 -25.703125 L 550.375 -25.703125 Z M 481.4375 -30.574219 L 481.4375 -99.511719 L 550.375 -99.511719 L 550.375 -30.574219 Z M -113.90625 -99.511719 L -113.90625 -30.574219 L -182.847656 -30.574219 L -182.847656 -99.511719 Z M -182.847656 638.578125 L -113.90625 638.578125 L -113.90625 707.519531 L -182.847656 707.519531 Z M 555.246094 707.519531 L 555.246094 638.578125 L 624.183594 638.578125 L 624.183594 707.519531 Z M 624.183594 -30.574219 L 555.246094 -30.574219 L 555.246094 -99.511719 L 624.183594 -99.511719 Z M 624.183594 -30.574219 " fill-opacity="1" fill-rule="nonzero"/></g></g></g></g><g mask="url(#320aca56f7)"><g transform="matrix(1, 0, 0, 1, 736, 81)"><g clip-path="url(#901722f0ee)"><g clip-path="url(#a564d0db54)"><path fill="#424651" d="M 0.4375 2.933594 L 0.4375 814.832031 C 0.4375 816.179688 1.527344 817.269531 2.871094 817.269531 L 814.773438 817.269531 C 816.117188 817.269531 817.210938 816.179688 817.210938 814.832031 L 817.210938 2.933594 C 817.210938 1.585938 816.117188 0.496094 814.773438 0.496094 L 2.871094 0.496094 C 1.527344 0.496094 0.4375 1.585938 0.4375 2.933594 Z M 443.292969 443.351562 L 374.355469 443.351562 L 374.355469 374.414062 L 443.292969 374.414062 Z M 448.164062 374.414062 L 517.101562 374.414062 L 517.101562 443.351562 L 448.164062 443.351562 Z M 374.355469 517.160156 L 374.355469 448.222656 L 443.292969 448.222656 L 443.292969 517.160156 Z M 443.292969 522.03125 L 443.292969 590.972656 L 374.355469 590.972656 L 374.355469 522.03125 Z M 369.484375 443.351562 L 300.542969 443.351562 L 300.542969 374.414062 L 369.484375 374.414062 Z M 374.355469 369.542969 L 374.355469 300.605469 L 443.292969 300.605469 L 443.292969 369.542969 Z M 374.355469 295.734375 L 374.355469 226.792969 L 443.292969 226.792969 L 443.292969 295.734375 Z M 369.484375 295.734375 L 300.542969 295.734375 L 300.542969 226.792969 L 369.484375 226.792969 Z M 369.484375 300.605469 L 369.484375 369.542969 L 300.542969 369.542969 L 300.542969 300.605469 Z M 295.671875 369.542969 L 226.734375 369.542969 L 226.734375 300.605469 L 295.671875 300.605469 Z M 295.671875 374.414062 L 295.671875 443.351562 L 226.734375 443.351562 L 226.734375 374.414062 Z M 295.671875 448.222656 L 295.671875 517.160156 L 226.734375 517.160156 L 226.734375 448.222656 Z M 300.542969 448.222656 L 369.484375 448.222656 L 369.484375 517.160156 L 300.542969 517.160156 Z M 369.484375 522.03125 L 369.484375 590.972656 L 300.542969 590.972656 L 300.542969 522.03125 Z M 369.484375 595.839844 L 369.484375 664.78125 L 300.542969 664.78125 L 300.542969 595.839844 Z M 374.355469 595.839844 L 443.292969 595.839844 L 443.292969 664.78125 L 374.355469 664.78125 Z M 448.164062 595.839844 L 517.101562 595.839844 L 517.101562 664.78125 L 448.164062 664.78125 Z M 448.164062 590.96875 L 448.164062 522.03125 L 517.101562 522.03125 L 517.101562 590.96875 Z M 448.164062 517.160156 L 448.164062 448.222656 L 517.101562 448.222656 L 517.101562 517.160156 Z M 521.972656 448.222656 L 590.910156 448.222656 L 590.910156 517.160156 L 521.972656 517.160156 Z M 521.972656 443.351562 L 521.972656 374.414062 L 590.910156 374.414062 L 590.910156 443.351562 Z M 521.972656 369.542969 L 521.972656 300.605469 L 590.910156 300.605469 L 590.910156 369.542969 Z M 517.101562 369.542969 L 448.164062 369.542969 L 448.164062 300.605469 L 517.101562 300.605469 Z M 448.164062 295.734375 L 448.164062 226.792969 L 517.101562 226.792969 L 517.101562 295.734375 Z M 448.164062 221.921875 L 448.164062 152.984375 L 517.101562 152.984375 L 517.101562 221.921875 Z M 443.292969 221.921875 L 374.355469 221.921875 L 374.355469 152.984375 L 443.292969 152.984375 Z M 369.484375 221.921875 L 300.542969 221.921875 L 300.542969 152.984375 L 369.484375 152.984375 Z M 295.671875 221.921875 L 226.734375 221.921875 L 226.734375 152.984375 L 295.671875 152.984375 Z M 295.671875 226.792969 L 295.671875 295.734375 L 226.734375 295.734375 L 226.734375 226.792969 Z M 221.863281 295.734375 L 152.925781 295.734375 L 152.925781 226.792969 L 221.863281 226.792969 Z M 221.863281 300.605469 L 221.863281 369.542969 L 152.925781 369.542969 L 152.925781 300.605469 Z M 221.863281 374.414062 L 221.863281 443.351562 L 152.925781 443.351562 L 152.925781 374.414062 Z M 221.863281 448.222656 L 221.863281 517.160156 L 152.925781 517.160156 L 152.925781 448.222656 Z M 221.863281 522.03125 L 221.863281 590.972656 L 152.925781 590.972656 L 152.925781 522.03125 Z M 226.734375 522.03125 L 295.675781 522.03125 L 295.675781 590.972656 L 226.734375 590.972656 Z M 295.671875 595.839844 L 295.671875 664.78125 L 226.734375 664.78125 L 226.734375 595.839844 Z M 295.671875 669.652344 L 295.671875 738.589844 L 226.734375 738.589844 L 226.734375 669.648438 L 295.671875 669.648438 Z M 300.542969 669.652344 L 369.484375 669.652344 L 369.484375 738.589844 L 300.542969 738.589844 Z M 374.355469 669.652344 L 443.292969 669.652344 L 443.292969 738.589844 L 374.355469 738.589844 Z M 448.164062 669.652344 L 517.101562 669.652344 L 517.101562 738.589844 L 448.164062 738.589844 Z M 521.972656 669.652344 L 590.910156 669.652344 L 590.910156 738.589844 L 521.972656 738.589844 Z M 521.972656 664.78125 L 521.972656 595.839844 L 590.910156 595.839844 L 590.910156 664.78125 Z M 521.972656 590.96875 L 521.972656 522.03125 L 590.910156 522.03125 L 590.910156 590.96875 Z M 595.78125 522.03125 L 664.71875 522.03125 L 664.71875 590.972656 L 595.78125 590.972656 Z M 595.78125 517.160156 L 595.78125 448.222656 L 664.71875 448.222656 L 664.71875 517.160156 Z M 595.78125 443.351562 L 595.78125 374.414062 L 664.71875 374.414062 L 664.71875 443.351562 Z M 595.78125 369.542969 L 595.78125 300.605469 L 664.71875 300.605469 L 664.71875 369.542969 Z M 595.78125 295.734375 L 595.78125 226.792969 L 664.71875 226.792969 L 664.71875 295.734375 Z M 590.910156 295.734375 L 521.972656 295.734375 L 521.972656 226.792969 L 590.910156 226.792969 Z M 521.972656 221.921875 L 521.972656 152.984375 L 590.910156 152.984375 L 590.910156 221.921875 Z M 521.972656 148.113281 L 521.972656 79.175781 L 590.910156 79.175781 L 590.910156 148.113281 Z M 517.101562 148.113281 L 448.164062 148.113281 L 448.164062 79.175781 L 517.101562 79.175781 Z M 443.292969 148.113281 L 374.355469 148.113281 L 374.355469 79.175781 L 443.292969 79.175781 Z M 369.484375 148.113281 L 300.542969 148.113281 L 300.542969 79.175781 L 369.484375 79.175781 Z M 295.671875 148.113281 L 226.734375 148.113281 L 226.734375 79.175781 L 295.671875 79.175781 Z M 221.863281 148.113281 L 152.925781 148.113281 L 152.925781 79.175781 L 221.863281 79.175781 Z M 221.863281 152.984375 L 221.863281 221.921875 L 152.925781 221.921875 L 152.925781 152.984375 Z M 148.054688 221.921875 L 79.117188 221.921875 L 79.117188 152.984375 L 148.054688 152.984375 Z M 148.054688 226.792969 L 148.054688 295.734375 L 79.117188 295.734375 L 79.117188 226.792969 Z M 148.054688 300.605469 L 148.054688 369.542969 L 79.117188 369.542969 L 79.117188 300.605469 Z M 148.054688 374.414062 L 148.054688 443.351562 L 79.117188 443.351562 L 79.117188 374.414062 Z M 148.054688 448.222656 L 148.054688 517.160156 L 79.117188 517.160156 L 79.117188 448.222656 Z M 148.054688 522.03125 L 148.054688 590.972656 L 79.117188 590.972656 L 79.117188 522.03125 Z M 148.054688 595.839844 L 148.054688 664.78125 L 79.117188 664.78125 L 79.117188 595.839844 Z M 152.925781 595.839844 L 221.863281 595.839844 L 221.863281 664.78125 L 152.925781 664.78125 Z M 221.863281 669.652344 L 221.863281 738.589844 L 152.925781 738.589844 L 152.925781 669.648438 L 221.863281 669.648438 Z M 221.863281 743.460938 L 221.863281 812.398438 L 152.925781 812.398438 L 152.925781 743.460938 Z M 226.734375 743.460938 L 295.675781 743.460938 L 295.675781 812.398438 L 226.734375 812.398438 Z M 300.542969 743.460938 L 369.484375 743.460938 L 369.484375 812.398438 L 300.542969 812.398438 Z M 374.355469 743.460938 L 443.292969 743.460938 L 443.292969 812.398438 L 374.355469 812.398438 Z M 448.164062 743.460938 L 517.101562 743.460938 L 517.101562 812.398438 L 448.164062 812.398438 Z M 521.972656 743.460938 L 590.910156 743.460938 L 590.910156 812.398438 L 521.972656 812.398438 Z M 595.78125 743.460938 L 664.71875 743.460938 L 664.71875 812.398438 L 595.78125 812.398438 Z M 595.78125 738.589844 L 595.78125 669.648438 L 664.71875 669.648438 L 664.71875 738.589844 Z M 595.78125 664.78125 L 595.78125 595.839844 L 664.71875 595.839844 L 664.71875 664.78125 Z M 669.589844 595.839844 L 738.53125 595.839844 L 738.53125 664.78125 L 669.589844 664.78125 Z M 669.589844 590.96875 L 669.589844 522.03125 L 738.53125 522.03125 L 738.53125 590.96875 Z M 669.589844 517.160156 L 669.589844 448.222656 L 738.53125 448.222656 L 738.53125 517.160156 Z M 669.589844 443.351562 L 669.589844 374.414062 L 738.53125 374.414062 L 738.53125 443.351562 Z M 669.589844 369.542969 L 669.589844 300.605469 L 738.53125 300.605469 L 738.53125 369.542969 Z M 669.589844 295.734375 L 669.589844 226.792969 L 738.53125 226.792969 L 738.53125 295.734375 Z M 669.589844 221.921875 L 669.589844 152.984375 L 738.53125 152.984375 L 738.53125 221.921875 Z M 664.71875 221.921875 L 595.78125 221.921875 L 595.78125 152.984375 L 664.71875 152.984375 Z M 595.78125 148.113281 L 595.78125 79.175781 L 664.71875 79.175781 L 664.71875 148.113281 Z M 595.78125 74.304688 L 595.78125 5.367188 L 664.71875 5.367188 L 664.71875 74.304688 Z M 590.910156 74.304688 L 521.972656 74.304688 L 521.972656 5.367188 L 590.910156 5.367188 Z M 517.101562 74.304688 L 448.164062 74.304688 L 448.164062 5.367188 L 517.101562 5.367188 Z M 443.292969 74.304688 L 374.355469 74.304688 L 374.355469 5.367188 L 443.292969 5.367188 Z M 369.484375 74.304688 L 300.542969 74.304688 L 300.542969 5.367188 L 369.484375 5.367188 Z M 295.671875 74.304688 L 226.734375 74.304688 L 226.734375 5.367188 L 295.671875 5.367188 Z M 221.863281 74.304688 L 152.925781 74.304688 L 152.925781 5.367188 L 221.863281 5.367188 Z M 148.054688 74.304688 L 79.117188 74.304688 L 79.117188 5.367188 L 148.054688 5.367188 Z M 148.054688 79.175781 L 148.054688 148.113281 L 79.117188 148.113281 L 79.117188 79.175781 Z M 74.246094 148.113281 L 5.308594 148.113281 L 5.308594 79.175781 L 74.246094 79.175781 Z M 74.246094 152.984375 L 74.246094 221.921875 L 5.308594 221.921875 L 5.308594 152.984375 Z M 74.246094 226.792969 L 74.246094 295.734375 L 5.308594 295.734375 L 5.308594 226.792969 Z M 74.246094 300.605469 L 74.246094 369.542969 L 5.308594 369.542969 L 5.308594 300.605469 Z M 74.246094 374.414062 L 74.246094 443.351562 L 5.308594 443.351562 L 5.308594 374.414062 Z M 74.246094 448.222656 L 74.246094 517.160156 L 5.308594 517.160156 L 5.308594 448.222656 Z M 74.246094 522.03125 L 74.246094 590.972656 L 5.308594 590.972656 L 5.308594 522.03125 Z M 74.246094 595.839844 L 74.246094 664.78125 L 5.308594 664.78125 L 5.308594 595.839844 Z M 74.246094 669.652344 L 74.246094 738.589844 L 5.308594 738.589844 L 5.308594 669.648438 L 74.246094 669.648438 Z M 79.117188 669.652344 L 148.054688 669.652344 L 148.054688 738.589844 L 79.117188 738.589844 Z M 148.054688 743.460938 L 148.054688 812.398438 L 79.117188 812.398438 L 79.117188 743.460938 Z M 669.589844 812.398438 L 669.589844 743.460938 L 738.53125 743.460938 L 738.53125 812.398438 Z M 669.589844 738.589844 L 669.589844 669.648438 L 738.53125 669.648438 L 738.53125 738.589844 Z M 743.402344 669.652344 L 812.339844 669.652344 L 812.339844 738.589844 L 743.402344 738.589844 Z M 743.402344 664.78125 L 743.402344 595.839844 L 812.339844 595.839844 L 812.339844 664.78125 Z M 743.402344 590.96875 L 743.402344 522.03125 L 812.339844 522.03125 L 812.339844 590.96875 Z M 743.402344 517.160156 L 743.402344 448.222656 L 812.339844 448.222656 L 812.339844 517.160156 Z M 743.402344 443.351562 L 743.402344 374.414062 L 812.339844 374.414062 L 812.339844 443.351562 Z M 743.402344 369.542969 L 743.402344 300.605469 L 812.339844 300.605469 L 812.339844 369.542969 Z M 743.402344 295.734375 L 743.402344 226.792969 L 812.339844 226.792969 L 812.339844 295.734375 Z M 743.402344 221.921875 L 743.402344 152.984375 L 812.339844 152.984375 L 812.339844 221.921875 Z M 743.402344 148.113281 L 743.402344 79.175781 L 812.339844 79.175781 L 812.339844 148.113281 Z M 738.53125 148.113281 L 669.589844 148.113281 L 669.589844 79.175781 L 738.53125 79.175781 Z M 669.589844 74.304688 L 669.589844 5.367188 L 738.53125 5.367188 L 738.53125 74.304688 Z M 74.246094 5.367188 L 74.246094 74.304688 L 5.308594 74.304688 L 5.308594 5.367188 Z M 5.308594 743.460938 L 74.246094 743.460938 L 74.246094 812.398438 L 5.308594 812.398438 Z M 743.402344 812.398438 L 743.402344 743.460938 L 812.339844 743.460938 L 812.339844 812.398438 Z M 812.339844 74.304688 L 743.402344 74.304688 L 743.402344 5.367188 L 812.339844 5.367188 Z M 812.339844 74.304688 " fill-opacity="1" fill-rule="nonzero"/></g></g></g></g><g clip-path="url(#b31d64aa4a)"><path fill="#71fd7b" d="M 208.691406 138.8125 L 1169.496094 138.8125 L 1169.496094 621.410156 L 208.691406 621.410156 Z M 208.691406 138.8125 " fill-opacity="1" fill-rule="nonzero"/></g><path fill="#9bd5c1" d="M 390.285156 209.886719 C 377.976562 209.886719 367.902344 199.8125 367.902344 187.5 C 367.902344 175.1875 377.972656 165.113281 390.285156 165.113281 C 402.597656 165.113281 412.671875 175.1875 412.671875 187.5 C 412.671875 199.8125 402.597656 209.886719 390.285156 209.886719 Z M 390.285156 209.886719 " fill-opacity="1" fill-rule="nonzero"/><path fill="#eeec7c" d="M 325.195312 209.886719 C 312.886719 209.886719 302.8125 199.816406 302.8125 187.503906 C 302.8125 175.191406 312.882812 165.117188 325.195312 165.117188 C 337.507812 165.117188 347.582031 175.1875 347.582031 187.503906 C 347.582031 199.8125 337.507812 209.886719 325.195312 209.886719 Z M 325.195312 209.886719 " fill-opacity="1" fill-rule="nonzero"/><path fill="#f27070" d="M 265.769531 209.886719 C 253.460938 209.886719 243.386719 199.8125 243.386719 187.5 C 243.386719 175.1875 253.457031 165.113281 265.769531 165.113281 C 278.082031 165.113281 288.15625 175.1875 288.15625 187.5 C 288.15625 199.8125 278.085938 209.886719 265.769531 209.886719 Z M 265.769531 209.886719 " fill-opacity="1" fill-rule="nonzero"/><g clip-path="url(#9754f48f39)"><path fill="#0d0d0d" d="M 265.773438 211.023438 C 278.742188 211.023438 289.292969 200.472656 289.292969 187.5 C 289.292969 174.53125 278.742188 163.980469 265.773438 163.980469 C 252.804688 163.980469 242.25 174.53125 242.25 187.5 C 242.25 200.472656 252.804688 211.023438 265.773438 211.023438 Z M 265.773438 168.375 C 276.316406 168.375 284.898438 176.953125 284.898438 187.5 C 284.898438 198.046875 276.316406 206.628906 265.773438 206.628906 C 255.226562 206.628906 246.644531 198.046875 246.644531 187.5 C 246.644531 176.953125 255.222656 168.375 265.773438 168.375 Z M 208.691406 138.8125 L 208.691406 621.410156 L 1169.496094 621.410156 L 1169.496094 138.8125 Z M 1165.097656 617.015625 L 213.085938 617.015625 L 213.085938 231.296875 L 1165.101562 231.296875 L 1165.101562 617.015625 Z M 1165.097656 226.902344 L 213.085938 226.902344 L 213.085938 143.207031 L 1165.101562 143.207031 L 1165.101562 226.902344 Z M 325.199219 211.023438 C 338.167969 211.023438 348.71875 200.472656 348.71875 187.5 C 348.71875 174.53125 338.167969 163.980469 325.199219 163.980469 C 312.226562 163.980469 301.675781 174.53125 301.675781 187.5 C 301.675781 200.472656 312.226562 211.023438 325.199219 211.023438 Z M 325.199219 168.375 C 335.746094 168.375 344.324219 176.953125 344.324219 187.5 C 344.324219 198.046875 335.746094 206.628906 325.199219 206.628906 C 314.652344 206.628906 306.070312 198.046875 306.070312 187.5 C 306.070312 176.953125 314.652344 168.375 325.199219 168.375 Z M 389.152344 211.023438 C 402.117188 211.023438 412.667969 200.472656 412.667969 187.5 C 412.667969 174.53125 402.117188 163.980469 389.152344 163.980469 C 376.179688 163.980469 365.628906 174.53125 365.628906 187.5 C 365.628906 200.472656 376.179688 211.023438 389.152344 211.023438 Z M 389.152344 168.375 C 399.695312 168.375 408.277344 176.953125 408.277344 187.5 C 408.277344 198.046875 399.695312 206.628906 389.152344 206.628906 C 378.601562 206.628906 370.023438 198.046875 370.023438 187.5 C 370.023438 176.953125 378.601562 168.375 389.152344 168.375 Z M 389.152344 168.375 " fill-opacity="1" fill-rule="nonzero"/></g><g fill="#e5b2f1" fill-opacity="1"><g transform="translate(370.53403, 367.789689)"><g><path d="M 48.8125 0 L 11.59375 0 C 10.195312 0 9.1875 -0.3125 8.5625 -0.9375 C 7.9375 -1.5625 7.625 -2.570312 7.625 -3.96875 L 7.625 -75.546875 C 7.625 -76.941406 7.9375 -77.953125 8.5625 -78.578125 C 9.1875 -79.203125 10.195312 -79.515625 11.59375 -79.515625 L 48.8125 -79.515625 C 58.019531 -79.515625 64.847656 -77.671875 69.296875 -73.984375 C 73.753906 -70.304688 75.984375 -64.640625 75.984375 -56.984375 L 75.984375 -22.53125 C 75.984375 -14.875 73.753906 -9.203125 69.296875 -5.515625 C 64.847656 -1.835938 58.019531 0 48.8125 0 Z M 32.6875 -58.421875 L 32.6875 -20.875 L 45.828125 -20.875 C 47.597656 -20.875 48.90625 -21.3125 49.75 -22.1875 C 50.59375 -23.070312 51.015625 -24.4375 51.015625 -26.28125 L 51.015625 -53.125 C 51.015625 -54.957031 50.59375 -56.296875 49.75 -57.140625 C 48.90625 -57.992188 47.597656 -58.421875 45.828125 -58.421875 Z M 32.6875 -58.421875 "/></g></g></g><g fill="#e5b2f1" fill-opacity="1"><g transform="translate(452.9117, 367.789689)"><g><path d="M 9.828125 0 C 8.429688 0 7.421875 -0.3125 6.796875 -0.9375 C 6.171875 -1.5625 5.859375 -2.570312 5.859375 -3.96875 L 5.859375 -17.125 C 5.859375 -18.519531 6.171875 -19.53125 6.796875 -20.15625 C 7.421875 -20.78125 8.429688 -21.09375 9.828125 -21.09375 L 20.765625 -21.09375 L 20.765625 -58.203125 L 9.828125 -58.203125 C 8.429688 -58.203125 7.421875 -58.515625 6.796875 -59.140625 C 6.171875 -59.765625 5.859375 -60.773438 5.859375 -62.171875 L 5.859375 -75.546875 C 5.859375 -76.941406 6.171875 -77.953125 6.796875 -78.578125 C 7.421875 -79.203125 8.429688 -79.515625 9.828125 -79.515625 L 56.875 -79.515625 C 58.269531 -79.515625 59.28125 -79.203125 59.90625 -78.578125 C 60.53125 -77.953125 60.84375 -76.941406 60.84375 -75.546875 L 60.84375 -62.171875 C 60.84375 -60.773438 60.53125 -59.765625 59.90625 -59.140625 C 59.28125 -58.515625 58.269531 -58.203125 56.875 -58.203125 L 46.15625 -58.203125 L 46.15625 -21.09375 L 56.875 -21.09375 C 58.269531 -21.09375 59.28125 -20.78125 59.90625 -20.15625 C 60.53125 -19.53125 60.84375 -18.519531 60.84375 -17.125 L 60.84375 -3.96875 C 60.84375 -2.570312 60.53125 -1.5625 59.90625 -0.9375 C 59.28125 -0.3125 58.269531 0 56.875 0 Z M 9.828125 0 "/></g></g></g><g fill="#e5b2f1" fill-opacity="1"><g transform="translate(519.719329, 367.789689)"><g><path d="M 44.5 0 L 9.609375 0 C 8.210938 0 7.195312 -0.3125 6.5625 -0.9375 C 5.9375 -1.5625 5.625 -2.570312 5.625 -3.96875 L 5.625 -16.890625 C 5.625 -18.296875 5.9375 -19.3125 6.5625 -19.9375 C 7.195312 -20.5625 8.210938 -20.875 9.609375 -20.875 L 39.3125 -20.875 C 40.269531 -20.875 40.988281 -21.1875 41.46875 -21.8125 C 41.945312 -22.4375 42.1875 -23.191406 42.1875 -24.078125 C 42.1875 -25.328125 41.945312 -26.242188 41.46875 -26.828125 C 40.988281 -27.421875 40.269531 -27.753906 39.3125 -27.828125 L 22.75 -30.15625 C 17.59375 -30.882812 13.445312 -32.570312 10.3125 -35.21875 C 7.1875 -37.875 5.625 -42.296875 5.625 -48.484375 L 5.625 -60.078125 C 5.625 -66.335938 7.648438 -71.140625 11.703125 -74.484375 C 15.753906 -77.835938 21.351562 -79.515625 28.5 -79.515625 L 59.421875 -79.515625 C 60.816406 -79.515625 61.828125 -79.203125 62.453125 -78.578125 C 63.078125 -77.953125 63.390625 -76.941406 63.390625 -75.546875 L 63.390625 -62.390625 C 63.390625 -60.992188 63.078125 -59.984375 62.453125 -59.359375 C 61.828125 -58.734375 60.816406 -58.421875 59.421875 -58.421875 L 33.6875 -58.421875 C 32.726562 -58.421875 31.988281 -58.109375 31.46875 -57.484375 C 30.957031 -56.859375 30.703125 -56.066406 30.703125 -55.109375 C 30.703125 -54.148438 30.957031 -53.335938 31.46875 -52.671875 C 31.988281 -52.015625 32.726562 -51.648438 33.6875 -51.578125 L 50.140625 -49.359375 C 55.296875 -48.628906 59.453125 -46.9375 62.609375 -44.28125 C 65.773438 -41.632812 67.359375 -37.21875 67.359375 -31.03125 L 67.359375 -19.4375 C 67.359375 -13.175781 65.316406 -8.367188 61.234375 -5.015625 C 57.148438 -1.671875 51.570312 0 44.5 0 Z M 44.5 0 "/></g></g></g><g fill="#e5b2f1" fill-opacity="1"><g transform="translate(591.496132, 367.789689)"><g><path d="M 62.84375 0 L 11.59375 0 C 10.195312 0 9.1875 -0.3125 8.5625 -0.9375 C 7.9375 -1.5625 7.625 -2.570312 7.625 -3.96875 L 7.625 -75.546875 C 7.625 -76.941406 7.9375 -77.953125 8.5625 -78.578125 C 9.1875 -79.203125 10.195312 -79.515625 11.59375 -79.515625 L 62.84375 -79.515625 C 64.238281 -79.515625 65.25 -79.203125 65.875 -78.578125 C 66.5 -77.953125 66.8125 -76.941406 66.8125 -75.546875 L 66.8125 -62.625 C 66.8125 -61.21875 66.5 -60.203125 65.875 -59.578125 C 65.25 -58.953125 64.238281 -58.640625 62.84375 -58.640625 L 32.359375 -58.640625 L 32.359375 -50.140625 L 53.890625 -50.140625 C 55.285156 -50.140625 56.296875 -49.828125 56.921875 -49.203125 C 57.554688 -48.578125 57.875 -47.5625 57.875 -46.15625 L 57.875 -34.34375 C 57.875 -32.945312 57.554688 -31.9375 56.921875 -31.3125 C 56.296875 -30.6875 55.285156 -30.375 53.890625 -30.375 L 32.359375 -30.375 L 32.359375 -20.875 L 62.84375 -20.875 C 64.238281 -20.875 65.25 -20.5625 65.875 -19.9375 C 66.5 -19.3125 66.8125 -18.296875 66.8125 -16.890625 L 66.8125 -3.96875 C 66.8125 -2.570312 66.5 -1.5625 65.875 -0.9375 C 65.25 -0.3125 64.238281 0 62.84375 0 Z M 62.84375 0 "/></g></g></g><g fill="#e5b2f1" fill-opacity="1"><g transform="translate(663.714619, 367.789689)"><g><path d="M 28.15625 0 L 11.59375 0 C 10.195312 0 9.1875 -0.3125 8.5625 -0.9375 C 7.9375 -1.5625 7.625 -2.570312 7.625 -3.96875 L 7.625 -75.546875 C 7.625 -76.941406 7.9375 -77.953125 8.5625 -78.578125 C 9.1875 -79.203125 10.195312 -79.515625 11.59375 -79.515625 L 23.078125 -79.515625 C 24.484375 -79.515625 25.679688 -79.289062 26.671875 -78.84375 C 27.660156 -78.40625 28.632812 -77.632812 29.59375 -76.53125 L 51.015625 -52.015625 L 51.015625 -75.546875 C 51.015625 -76.941406 51.328125 -77.953125 51.953125 -78.578125 C 52.585938 -79.203125 53.601562 -79.515625 55 -79.515625 L 71.5625 -79.515625 C 72.957031 -79.515625 73.96875 -79.203125 74.59375 -78.578125 C 75.226562 -77.953125 75.546875 -76.941406 75.546875 -75.546875 L 75.546875 -3.96875 C 75.546875 -2.570312 75.226562 -1.5625 74.59375 -0.9375 C 73.96875 -0.3125 72.957031 0 71.5625 0 L 55 0 C 53.601562 0 52.585938 -0.3125 51.953125 -0.9375 C 51.328125 -1.5625 51.015625 -2.570312 51.015625 -3.96875 L 51.015625 -17.5625 L 32.140625 -40.421875 L 32.140625 -3.96875 C 32.140625 -2.570312 31.828125 -1.5625 31.203125 -0.9375 C 30.578125 -0.3125 29.5625 0 28.15625 0 Z M 41.421875 -84.375 L 38.328125 -84.8125 C 36.265625 -85.101562 34.535156 -85.304688 33.140625 -85.421875 C 31.742188 -85.535156 30.488281 -85.535156 29.375 -85.421875 C 28.269531 -85.304688 27.1875 -85.117188 26.125 -84.859375 C 25.0625 -84.609375 23.789062 -84.265625 22.3125 -83.828125 C 20.988281 -83.453125 19.992188 -83.484375 19.328125 -83.921875 C 18.671875 -84.367188 18.34375 -85.289062 18.34375 -86.6875 L 18.34375 -97.84375 C 18.34375 -99.25 18.691406 -100.226562 19.390625 -100.78125 C 20.085938 -101.332031 21.0625 -101.863281 22.3125 -102.375 C 24.082031 -102.894531 25.554688 -103.28125 26.734375 -103.53125 C 27.910156 -103.789062 29.066406 -103.921875 30.203125 -103.921875 C 31.347656 -103.921875 32.640625 -103.828125 34.078125 -103.640625 C 35.515625 -103.460938 37.335938 -103.222656 39.546875 -102.921875 L 41.421875 -102.703125 L 43.84375 -102.375 C 46.28125 -102.007812 48.210938 -101.75 49.640625 -101.59375 C 51.078125 -101.445312 52.328125 -101.410156 53.390625 -101.484375 C 54.460938 -101.566406 55.515625 -101.753906 56.546875 -102.046875 C 57.578125 -102.335938 58.90625 -102.742188 60.53125 -103.265625 C 61.851562 -103.628906 62.84375 -103.585938 63.5 -103.140625 C 64.164062 -102.703125 64.5 -101.785156 64.5 -100.390625 L 64.5 -89.234375 C 64.5 -87.835938 64.148438 -86.863281 63.453125 -86.3125 C 62.753906 -85.757812 61.78125 -85.222656 60.53125 -84.703125 C 58.757812 -84.191406 57.285156 -83.804688 56.109375 -83.546875 C 54.929688 -83.285156 53.753906 -83.15625 52.578125 -83.15625 C 51.398438 -83.15625 50.09375 -83.25 48.65625 -83.4375 C 47.21875 -83.625 45.394531 -83.863281 43.1875 -84.15625 Z M 41.421875 -84.375 "/></g></g></g><g fill="#e5b2f1" fill-opacity="1"><g transform="translate(746.86528, 367.789689)"><g><path d="M 74.984375 -20.875 C 74.984375 -17.488281 74.484375 -14.414062 73.484375 -11.65625 C 72.492188 -8.894531 70.726562 -6.535156 68.1875 -4.578125 C 65.65625 -2.628906 62.160156 -1.101562 57.703125 0 C 53.242188 1.101562 47.59375 1.65625 40.75 1.65625 C 33.90625 1.65625 28.234375 1.101562 23.734375 0 C 19.242188 -1.101562 15.726562 -2.628906 13.1875 -4.578125 C 10.65625 -6.535156 8.890625 -8.894531 7.890625 -11.65625 C 6.898438 -14.414062 6.40625 -17.488281 6.40625 -20.875 L 6.40625 -58.53125 C 6.40625 -61.914062 6.898438 -64.988281 7.890625 -67.75 C 8.890625 -70.507812 10.65625 -72.882812 13.1875 -74.875 C 15.726562 -76.863281 19.242188 -78.410156 23.734375 -79.515625 C 28.234375 -80.617188 33.90625 -81.171875 40.75 -81.171875 C 47.59375 -81.171875 53.242188 -80.617188 57.703125 -79.515625 C 62.160156 -78.410156 65.65625 -76.863281 68.1875 -74.875 C 70.726562 -72.882812 72.492188 -70.507812 73.484375 -67.75 C 74.484375 -64.988281 74.984375 -61.914062 74.984375 -58.53125 Z M 31.46875 -24.84375 C 31.46875 -23.375 32.019531 -22.140625 33.125 -21.140625 C 34.226562 -20.148438 36.769531 -19.65625 40.75 -19.65625 C 44.726562 -19.65625 47.269531 -20.148438 48.375 -21.140625 C 49.476562 -22.140625 50.03125 -23.375 50.03125 -24.84375 L 50.03125 -54.5625 C 50.03125 -55.957031 49.476562 -57.148438 48.375 -58.140625 C 47.269531 -59.140625 44.726562 -59.640625 40.75 -59.640625 C 36.769531 -59.640625 34.226562 -59.140625 33.125 -58.140625 C 32.019531 -57.148438 31.46875 -55.957031 31.46875 -54.5625 Z M 31.46875 -24.84375 "/></g></g></g><g fill="#e5b2f1" fill-opacity="1"><g transform="translate(828.249111, 367.789689)"><g/></g></g><g fill="#e5b2f1" fill-opacity="1"><g transform="translate(853.09492, 367.789689)"><g><path d="M 48.8125 0 L 11.59375 0 C 10.195312 0 9.1875 -0.3125 8.5625 -0.9375 C 7.9375 -1.5625 7.625 -2.570312 7.625 -3.96875 L 7.625 -75.546875 C 7.625 -76.941406 7.9375 -77.953125 8.5625 -78.578125 C 9.1875 -79.203125 10.195312 -79.515625 11.59375 -79.515625 L 48.8125 -79.515625 C 58.019531 -79.515625 64.847656 -77.671875 69.296875 -73.984375 C 73.753906 -70.304688 75.984375 -64.640625 75.984375 -56.984375 L 75.984375 -22.53125 C 75.984375 -14.875 73.753906 -9.203125 69.296875 -5.515625 C 64.847656 -1.835938 58.019531 0 48.8125 0 Z M 32.6875 -58.421875 L 32.6875 -20.875 L 45.828125 -20.875 C 47.597656 -20.875 48.90625 -21.3125 49.75 -22.1875 C 50.59375 -23.070312 51.015625 -24.4375 51.015625 -26.28125 L 51.015625 -53.125 C 51.015625 -54.957031 50.59375 -56.296875 49.75 -57.140625 C 48.90625 -57.992188 47.597656 -58.421875 45.828125 -58.421875 Z M 32.6875 -58.421875 "/></g></g></g><g fill="#e5b2f1" fill-opacity="1"><g transform="translate(935.472601, 367.789689)"><g><path d="M 62.84375 0 L 11.59375 0 C 10.195312 0 9.1875 -0.3125 8.5625 -0.9375 C 7.9375 -1.5625 7.625 -2.570312 7.625 -3.96875 L 7.625 -75.546875 C 7.625 -76.941406 7.9375 -77.953125 8.5625 -78.578125 C 9.1875 -79.203125 10.195312 -79.515625 11.59375 -79.515625 L 62.84375 -79.515625 C 64.238281 -79.515625 65.25 -79.203125 65.875 -78.578125 C 66.5 -77.953125 66.8125 -76.941406 66.8125 -75.546875 L 66.8125 -62.625 C 66.8125 -61.21875 66.5 -60.203125 65.875 -59.578125 C 65.25 -58.953125 64.238281 -58.640625 62.84375 -58.640625 L 32.359375 -58.640625 L 32.359375 -50.140625 L 53.890625 -50.140625 C 55.285156 -50.140625 56.296875 -49.828125 56.921875 -49.203125 C 57.554688 -48.578125 57.875 -47.5625 57.875 -46.15625 L 57.875 -34.34375 C 57.875 -32.945312 57.554688 -31.9375 56.921875 -31.3125 C 56.296875 -30.6875 55.285156 -30.375 53.890625 -30.375 L 32.359375 -30.375 L 32.359375 -20.875 L 62.84375 -20.875 C 64.238281 -20.875 65.25 -20.5625 65.875 -19.9375 C 66.5 -19.3125 66.8125 -18.296875 66.8125 -16.890625 L 66.8125 -3.96875 C 66.8125 -2.570312 66.5 -1.5625 65.875 -0.9375 C 65.25 -0.3125 64.238281 0 62.84375 0 Z M 62.84375 0 "/></g></g></g><path stroke-linecap="butt" transform="matrix(0.75, 0, 0, 0.75, 278.998879, 250.789695)" fill="none" stroke-linejoin="miter" d="M 187.11088 155.999165 L 137.50671 155.999165 C 135.636919 155.999165 134.282752 155.582498 133.44421 154.743957 C 132.626502 153.905415 132.220252 152.561665 132.220252 150.717915 L 132.220252 55.275202 C 132.220252 53.431452 132.626502 52.087702 133.44421 51.24916 C 134.282752 50.410618 135.636919 49.993951 137.50671 49.993951 L 187.11088 49.993951 C 199.381714 49.993951 208.485881 52.447077 214.433798 57.358535 C 220.376506 62.24916 223.345256 69.796036 223.345256 80.009578 L 223.345256 125.94708 C 223.345256 136.155414 220.376506 143.717914 214.433798 148.629373 C 208.485881 153.54604 199.381714 155.999165 187.11088 155.999165 Z M 165.616087 78.103328 L 165.616087 128.176247 L 183.157754 128.176247 C 185.506713 128.176247 187.241088 127.587705 188.371296 126.41583 C 189.496296 125.238747 190.058796 123.421038 190.058796 120.952288 L 190.058796 85.181453 C 190.058796 82.717911 189.496296 80.915828 188.371296 79.790828 C 187.241088 78.665828 185.506713 78.103328 183.157754 78.103328 Z M 245.006716 155.999165 C 243.136924 155.999165 241.782757 155.582498 240.944216 154.743957 C 240.105674 153.905415 239.683799 152.561665 239.683799 150.717915 L 239.683799 133.171039 C 239.683799 131.306455 240.105674 129.962705 240.944216 129.144997 C 241.782757 128.306455 243.136924 127.889789 245.006716 127.889789 L 259.564008 127.889789 L 259.564008 78.389786 L 245.006716 78.389786 C 243.136924 78.389786 241.782757 77.983536 240.944216 77.165828 C 240.105674 76.327286 239.683799 74.973119 239.683799 73.103328 L 239.683799 55.275202 C 239.683799 53.431452 240.105674 52.087702 240.944216 51.24916 C 241.782757 50.410618 243.136924 49.993951 245.006716 49.993951 L 307.694219 49.993951 C 309.564011 49.993951 310.918178 50.410618 311.756719 51.24916 C 312.595261 52.087702 313.017136 53.431452 313.017136 55.275202 L 313.017136 73.103328 C 313.017136 74.973119 312.595261 76.327286 311.756719 77.165828 C 310.918178 77.983536 309.564011 78.389786 307.694219 78.389786 L 293.423385 78.389786 L 293.423385 127.889789 L 307.694219 127.889789 C 309.564011 127.889789 310.918178 128.306455 311.756719 129.144997 C 312.595261 129.962705 313.017136 131.306455 313.017136 133.171039 L 313.017136 150.717915 C 313.017136 152.561665 312.595261 153.905415 311.756719 154.743957 C 310.918178 155.582498 309.564011 155.999165 307.694219 155.999165 Z M 380.308806 155.999165 L 333.75672 155.999165 C 331.91297 155.999165 330.56922 155.582498 329.730678 154.743957 C 328.892137 153.905415 328.47547 152.561665 328.47547 150.717915 L 328.47547 133.462706 C 328.47547 131.592914 328.892137 130.249164 329.730678 129.436664 C 330.56922 128.598122 331.91297 128.176247 333.75672 128.176247 L 373.371306 128.176247 C 374.642139 128.176247 375.600472 127.75958 376.246306 126.921039 C 376.892139 126.082497 377.220264 125.07208 377.220264 123.900205 C 377.220264 122.223122 376.892139 120.999163 376.246306 120.233538 C 375.600472 119.441872 374.642139 118.999163 373.371306 118.900205 L 351.298388 115.811663 C 344.423388 114.827288 338.897346 112.577288 334.730679 109.051246 C 330.558804 105.504371 328.47547 99.608537 328.47547 91.368953 L 328.47547 75.910619 C 328.47547 67.572077 331.168179 61.171035 336.564012 56.712702 C 341.954637 52.233535 349.418179 49.993951 358.954638 49.993951 L 400.189015 49.993951 C 402.032765 49.993951 403.376516 50.410618 404.215057 51.24916 C 405.053599 52.087702 405.470266 53.431452 405.470266 55.275202 L 405.470266 72.816869 C 405.470266 74.686661 405.053599 76.040828 404.215057 76.879369 C 403.376516 77.697078 402.032765 78.103328 400.189015 78.103328 L 365.860889 78.103328 C 364.590055 78.103328 363.60568 78.519995 362.912972 79.358536 C 362.241097 80.197078 361.902555 81.25437 361.902555 82.525203 C 361.902555 83.796036 362.241097 84.874161 362.912972 85.759578 C 363.60568 86.644995 364.590055 87.134578 365.860889 87.233537 L 387.824431 90.181453 C 394.678598 91.16062 400.209849 93.426245 404.428599 96.97312 C 408.673391 100.499162 410.793183 106.379371 410.793183 114.624163 L 410.793183 130.082497 C 410.793183 138.421039 408.058807 144.832498 402.595265 149.311665 C 397.157765 153.769998 389.725473 155.999165 380.308806 155.999165 Z M 500.454645 155.999165 L 432.121309 155.999165 C 430.251517 155.999165 428.89735 155.582498 428.058808 154.743957 C 427.2411 153.905415 426.83485 152.561665 426.83485 150.717915 L 426.83485 55.275202 C 426.83485 53.431452 427.2411 52.087702 428.058808 51.24916 C 428.89735 50.410618 430.251517 49.993951 432.121309 49.993951 L 500.454645 49.993951 C 502.303604 49.993951 503.642146 50.410618 504.480687 51.24916 C 505.319229 52.087702 505.741104 53.431452 505.741104 55.275202 L 505.741104 72.530411 C 505.741104 74.374161 505.319229 75.717911 504.480687 76.556453 C 503.642146 77.394994 502.303604 77.816869 500.454645 77.816869 L 459.798393 77.816869 L 459.798393 89.139787 L 488.522353 89.139787 C 490.392145 89.139787 491.730687 89.556453 492.548395 90.394995 C 493.386937 91.233537 493.803603 92.587704 493.803603 94.457495 L 493.803603 110.202288 C 493.803603 112.07208 493.386937 113.426246 492.548395 114.264788 C 491.730687 115.10333 490.392145 115.525205 488.522353 115.525205 L 459.798393 115.525205 L 459.798393 128.176247 L 500.454645 128.176247 C 502.303604 128.176247 503.642146 128.598122 504.480687 129.436664 C 505.319229 130.249164 505.741104 131.592914 505.741104 133.462706 L 505.741104 150.717915 C 505.741104 152.561665 505.319229 153.905415 504.480687 154.743957 C 503.642146 155.582498 502.303604 155.999165 500.454645 155.999165 Z M 550.48069 155.999165 L 528.41298 155.999165 C 526.543188 155.999165 525.189022 155.582498 524.35048 154.743957 C 523.532772 153.905415 523.126522 152.561665 523.126522 150.717915 L 523.126522 55.275202 C 523.126522 53.431452 523.532772 52.087702 524.35048 51.24916 C 525.189022 50.410618 526.543188 49.993951 528.41298 49.993951 L 543.725481 49.993951 C 545.595273 49.993951 547.189023 50.290826 548.506731 50.889785 C 549.82444 51.46791 551.131731 52.483535 552.423398 53.947077 L 580.965066 86.655412 L 580.965066 55.275202 C 580.965066 53.431452 581.386941 52.087702 582.225483 51.24916 C 583.064025 50.410618 584.418191 49.993951 586.287983 49.993951 L 608.360901 49.993951 C 610.225484 49.993951 611.579651 50.410618 612.418193 51.24916 C 613.256734 52.087702 613.678609 53.431452 613.678609 55.275202 L 613.678609 150.717915 C 613.678609 152.561665 613.256734 153.905415 612.418193 154.743957 C 611.579651 155.582498 610.225484 155.999165 608.360901 155.999165 L 586.287983 155.999165 C 584.418191 155.999165 583.064025 155.582498 582.225483 154.743957 C 581.386941 153.905415 580.965066 152.561665 580.965066 150.717915 L 580.965066 132.598122 L 555.803607 102.113746 L 555.803607 150.717915 C 555.803607 152.561665 555.381731 153.905415 554.54319 154.743957 C 553.704648 155.582498 552.350481 155.999165 550.48069 155.999165 Z M 568.16819 43.519993 L 564.037982 42.910618 C 561.303607 42.525201 559.001523 42.264784 557.131732 42.118951 C 555.26194 41.973118 553.584856 41.973118 552.100481 42.118951 C 550.63694 42.264784 549.189023 42.514784 547.751523 42.874159 C 546.334856 43.207493 544.647356 43.665826 542.683814 44.238743 C 540.933814 44.743951 539.616106 44.697076 538.730689 44.098118 C 537.840064 43.499159 537.397356 42.275201 537.397356 40.431451 L 537.397356 25.546034 C 537.397356 23.676242 537.866106 22.384575 538.798397 21.665825 C 539.735897 20.921033 541.027564 20.202283 542.683814 19.509575 C 545.053606 18.811658 547.022356 18.296033 548.579648 17.9627 C 550.157773 17.629366 551.704648 17.457491 553.215065 17.457491 C 554.751523 17.457491 556.465065 17.577283 558.35569 17.816866 C 560.272357 18.05645 562.704649 18.379366 565.652565 18.790825 L 568.16819 19.077283 L 571.402566 19.509575 C 574.642149 19.988742 577.215066 20.332492 579.131733 20.551242 C 581.048399 20.74395 582.715066 20.790825 584.131733 20.697075 C 585.569233 20.598117 586.970275 20.358533 588.334858 19.973117 C 589.699442 19.566867 591.475483 19.014783 593.657775 18.322075 C 595.407775 17.842908 596.725484 17.9002 597.6109 18.499158 C 598.496317 19.077283 598.939025 20.301242 598.939025 22.165825 L 598.939025 37.014784 C 598.939025 38.884576 598.475484 40.191868 597.537984 40.931451 C 596.605692 41.676243 595.308817 42.384576 593.657775 43.051243 C 591.282775 43.749159 589.308817 44.275201 587.725483 44.634576 C 586.168191 44.973118 584.595275 45.139784 583.01715 45.139784 C 581.459858 45.139784 579.720274 45.019993 577.803608 44.780409 C 575.886941 44.514784 573.454649 44.191868 570.506732 43.806451 Z M 723.793198 128.176247 C 723.793198 132.681456 723.13174 136.780414 721.814032 140.473123 C 720.496323 144.139789 718.136948 147.275206 714.730698 149.88979 C 711.355698 152.499165 706.694239 154.535623 700.75153 155.999165 C 694.803614 157.462707 687.267155 158.191874 678.136946 158.191874 C 669.006737 158.191874 661.444237 157.462707 655.454653 155.999165 C 649.485903 154.535623 644.803611 152.499165 641.402569 149.88979 C 638.022361 147.275206 635.673402 144.139789 634.355694 140.473123 C 633.037985 136.780414 632.376527 132.681456 632.376527 128.176247 L 632.376527 77.957494 C 632.376527 73.452286 633.037985 69.368952 634.355694 65.702286 C 635.673402 62.009577 638.022361 58.832494 641.402569 56.176243 C 644.803611 53.514785 649.485903 51.452285 655.454653 49.993951 C 661.444237 48.504368 669.006737 47.764785 678.136946 47.764785 C 687.267155 47.764785 694.803614 48.504368 700.75153 49.993951 C 706.694239 51.452285 711.355698 53.514785 714.730698 56.176243 C 718.136948 58.832494 720.496323 62.009577 721.814032 65.702286 C 723.13174 69.368952 723.793198 73.452286 723.793198 77.957494 Z M 665.772362 122.858538 C 665.772362 124.82208 666.501529 126.473122 667.96507 127.816872 C 669.449446 129.13458 672.840071 129.796039 678.136946 129.796039 C 683.459863 129.796039 686.850488 129.13458 688.308822 127.816872 C 689.772363 126.473122 690.50153 124.82208 690.50153 122.858538 L 690.50153 83.280411 C 690.50153 81.41062 689.772363 79.81687 688.308822 78.499161 C 686.850488 77.155411 683.459863 76.483536 678.136946 76.483536 C 672.840071 76.483536 669.449446 77.155411 667.96507 78.499161 C 666.501529 79.81687 665.772362 81.41062 665.772362 83.280411 Z M 830.527579 155.999165 L 780.918201 155.999165 C 779.048409 155.999165 777.694243 155.582498 776.855701 154.743957 C 776.043201 153.905415 775.636951 152.561665 775.636951 150.717915 L 775.636951 55.275202 C 775.636951 53.431452 776.043201 52.087702 776.855701 51.24916 C 777.694243 50.410618 779.048409 49.993951 780.918201 49.993951 L 830.527579 49.993951 C 842.798413 49.993951 851.90258 52.447077 857.845288 57.358535 C 863.787997 62.24916 866.761955 69.796036 866.761955 80.009578 L 866.761955 125.94708 C 866.761955 136.155414 863.787997 143.717914 857.845288 148.629373 C 851.90258 153.54604 842.798413 155.999165 830.527579 155.999165 Z M 809.027578 78.103328 L 809.027578 128.176247 L 826.569245 128.176247 C 828.918204 128.176247 830.657787 127.587705 831.782787 126.41583 C 832.912995 125.238747 833.475495 123.421038 833.475495 120.952288 L 833.475495 85.181453 C 833.475495 82.717911 832.912995 80.915828 831.782787 79.790828 C 830.657787 78.665828 828.918204 78.103328 826.569245 78.103328 Z M 959.090085 155.999165 L 890.756748 155.999165 C 888.886957 155.999165 887.53279 155.582498 886.694248 154.743957 C 885.87654 153.905415 885.47029 152.561665 885.47029 150.717915 L 885.47029 55.275202 C 885.47029 53.431452 885.87654 52.087702 886.694248 51.24916 C 887.53279 50.410618 888.886957 49.993951 890.756748 49.993951 L 959.090085 49.993951 C 960.939044 49.993951 962.277585 50.410618 963.116127 51.24916 C 963.954669 52.087702 964.376544 53.431452 964.376544 55.275202 L 964.376544 72.530411 C 964.376544 74.374161 963.954669 75.717911 963.116127 76.556453 C 962.277585 77.394994 960.939044 77.816869 959.090085 77.816869 L 918.433833 77.816869 L 918.433833 89.139787 L 947.157793 89.139787 C 949.027585 89.139787 950.366126 89.556453 951.183835 90.394995 C 952.022376 91.233537 952.439043 92.587704 952.439043 94.457495 L 952.439043 110.202288 C 952.439043 112.07208 952.022376 113.426246 951.183835 114.264788 C 950.366126 115.10333 949.027585 115.525205 947.157793 115.525205 L 918.433833 115.525205 L 918.433833 128.176247 L 959.090085 128.176247 C 960.939044 128.176247 962.277585 128.598122 963.116127 129.436664 C 963.954669 130.249164 964.376544 131.592914 964.376544 133.462706 L 964.376544 150.717915 C 964.376544 152.561665 963.954669 153.905415 963.116127 154.743957 C 962.277585 155.582498 960.939044 155.999165 959.090085 155.999165 Z M 959.090085 155.999165 " stroke="#000000" stroke-width="6.442012" stroke-opacity="1" stroke-miterlimit="4"/><g fill="#e5b2f1" fill-opacity="1"><g transform="translate(285.983253, 494.539682)"><g><path d="M 21.953125 0 L 8.859375 0 C 7.796875 0 7.023438 -0.238281 6.546875 -0.71875 C 6.066406 -1.195312 5.828125 -1.972656 5.828125 -3.046875 L 5.828125 -57.75 C 5.828125 -58.820312 6.066406 -59.597656 6.546875 -60.078125 C 7.023438 -60.554688 7.796875 -60.796875 8.859375 -60.796875 L 34.703125 -60.796875 C 42.359375 -60.796875 47.59375 -59.273438 50.40625 -56.234375 C 53.21875 -53.191406 54.625 -49.222656 54.625 -44.328125 L 54.625 -33.515625 C 54.625 -28.617188 53.21875 -24.648438 50.40625 -21.609375 C 47.59375 -18.578125 42.359375 -17.0625 34.703125 -17.0625 L 25 -17.0625 L 25 -3.046875 C 25 -1.972656 24.757812 -1.195312 24.28125 -0.71875 C 23.800781 -0.238281 23.023438 0 21.953125 0 Z M 24.828125 -45 L 24.828125 -32.25 L 32.421875 -32.25 C 34.054688 -32.25 35.125 -32.671875 35.625 -33.515625 C 36.132812 -34.359375 36.390625 -35.316406 36.390625 -36.390625 L 36.390625 -40.875 C 36.390625 -41.9375 36.132812 -42.890625 35.625 -43.734375 C 35.125 -44.578125 34.054688 -45 32.421875 -45 Z M 24.828125 -45 "/></g></g></g><g fill="#e5b2f1" fill-opacity="1"><g transform="translate(343.566979, 494.539682)"><g><path d="M 24.90625 -45.59375 L 24.90625 -34.78125 L 31.234375 -34.78125 C 32.703125 -34.78125 33.6875 -35.160156 34.1875 -35.921875 C 34.695312 -36.679688 34.953125 -37.625 34.953125 -38.75 L 34.953125 -41.625 C 34.953125 -42.75 34.695312 -43.691406 34.1875 -44.453125 C 33.6875 -45.210938 32.703125 -45.59375 31.234375 -45.59375 Z M 21.875 0 L 8.859375 0 C 7.796875 0 7.023438 -0.238281 6.546875 -0.71875 C 6.066406 -1.195312 5.828125 -1.972656 5.828125 -3.046875 L 5.828125 -57.75 C 5.828125 -58.820312 6.066406 -59.597656 6.546875 -60.078125 C 7.023438 -60.554688 7.796875 -60.796875 8.859375 -60.796875 L 36.984375 -60.796875 C 43.285156 -60.796875 47.632812 -59.484375 50.03125 -56.859375 C 52.425781 -54.242188 53.625 -50.851562 53.625 -46.6875 L 53.625 -42.8125 C 53.625 -40.445312 53.269531 -38.429688 52.5625 -36.765625 C 51.851562 -35.109375 50.628906 -33.914062 48.890625 -33.1875 C 51.929688 -32.84375 54.394531 -31.601562 56.28125 -29.46875 C 58.164062 -27.332031 59.109375 -24.488281 59.109375 -20.9375 L 59.109375 -3.046875 C 59.109375 -1.972656 58.867188 -1.195312 58.390625 -0.71875 C 57.910156 -0.238281 57.132812 0 56.0625 0 L 42.984375 0 C 41.910156 0 41.132812 -0.238281 40.65625 -0.71875 C 40.175781 -1.195312 39.9375 -1.972656 39.9375 -3.046875 L 39.9375 -15.953125 C 39.9375 -17.191406 39.695312 -18.109375 39.21875 -18.703125 C 38.738281 -19.296875 37.910156 -19.59375 36.734375 -19.59375 L 24.90625 -19.59375 L 24.90625 -3.046875 C 24.90625 -1.972656 24.664062 -1.195312 24.1875 -0.71875 C 23.707031 -0.238281 22.9375 0 21.875 0 Z M 21.875 0 "/></g></g></g><g fill="#e5b2f1" fill-opacity="1"><g transform="translate(406.301153, 494.539682)"><g><path d="M 48.046875 0 L 8.859375 0 C 7.796875 0 7.023438 -0.238281 6.546875 -0.71875 C 6.066406 -1.195312 5.828125 -1.972656 5.828125 -3.046875 L 5.828125 -57.75 C 5.828125 -58.820312 6.066406 -59.597656 6.546875 -60.078125 C 7.023438 -60.554688 7.796875 -60.796875 8.859375 -60.796875 L 48.046875 -60.796875 C 49.117188 -60.796875 49.890625 -60.554688 50.359375 -60.078125 C 50.835938 -59.597656 51.078125 -58.820312 51.078125 -57.75 L 51.078125 -47.875 C 51.078125 -46.800781 50.835938 -46.023438 50.359375 -45.546875 C 49.890625 -45.078125 49.117188 -44.84375 48.046875 -44.84375 L 24.734375 -44.84375 L 24.734375 -38.328125 L 41.203125 -38.328125 C 42.273438 -38.328125 43.050781 -38.085938 43.53125 -37.609375 C 44.007812 -37.140625 44.25 -36.367188 44.25 -35.296875 L 44.25 -26.265625 C 44.25 -25.191406 44.007812 -24.414062 43.53125 -23.9375 C 43.050781 -23.457031 42.273438 -23.21875 41.203125 -23.21875 L 24.734375 -23.21875 L 24.734375 -15.953125 L 48.046875 -15.953125 C 49.117188 -15.953125 49.890625 -15.710938 50.359375 -15.234375 C 50.835938 -14.753906 51.078125 -13.984375 51.078125 -12.921875 L 51.078125 -3.046875 C 51.078125 -1.972656 50.835938 -1.195312 50.359375 -0.71875 C 49.890625 -0.238281 49.117188 0 48.046875 0 Z M 48.046875 0 "/></g></g></g><g fill="#e5b2f1" fill-opacity="1"><g transform="translate(461.520735, 494.539682)"><g><path d="M 34.03125 0 L 7.34375 0 C 6.269531 0 5.492188 -0.238281 5.015625 -0.71875 C 4.546875 -1.195312 4.3125 -1.972656 4.3125 -3.046875 L 4.3125 -12.921875 C 4.3125 -13.984375 4.546875 -14.753906 5.015625 -15.234375 C 5.492188 -15.710938 6.269531 -15.953125 7.34375 -15.953125 L 30.0625 -15.953125 C 30.789062 -15.953125 31.335938 -16.191406 31.703125 -16.671875 C 32.066406 -17.148438 32.25 -17.726562 32.25 -18.40625 C 32.25 -19.363281 32.066406 -20.066406 31.703125 -20.515625 C 31.335938 -20.960938 30.789062 -21.21875 30.0625 -21.28125 L 17.390625 -23.046875 C 13.453125 -23.609375 10.285156 -24.898438 7.890625 -26.921875 C 5.503906 -28.953125 4.3125 -32.332031 4.3125 -37.0625 L 4.3125 -45.9375 C 4.3125 -50.71875 5.859375 -54.390625 8.953125 -56.953125 C 12.046875 -59.515625 16.320312 -60.796875 21.78125 -60.796875 L 45.421875 -60.796875 C 46.492188 -60.796875 47.269531 -60.554688 47.75 -60.078125 C 48.226562 -59.597656 48.46875 -58.820312 48.46875 -57.75 L 48.46875 -47.703125 C 48.46875 -46.640625 48.226562 -45.867188 47.75 -45.390625 C 47.269531 -44.910156 46.492188 -44.671875 45.421875 -44.671875 L 25.75 -44.671875 C 25.019531 -44.671875 24.457031 -44.429688 24.0625 -43.953125 C 23.664062 -43.472656 23.46875 -42.867188 23.46875 -42.140625 C 23.46875 -41.398438 23.664062 -40.773438 24.0625 -40.265625 C 24.457031 -39.765625 25.019531 -39.488281 25.75 -39.4375 L 38.328125 -37.75 C 42.273438 -37.1875 45.457031 -35.890625 47.875 -33.859375 C 50.289062 -31.828125 51.5 -28.453125 51.5 -23.734375 L 51.5 -14.859375 C 51.5 -10.078125 49.9375 -6.40625 46.8125 -3.84375 C 43.695312 -1.28125 39.4375 0 34.03125 0 Z M 34.03125 0 "/></g></g></g><g fill="#e5b2f1" fill-opacity="1"><g transform="translate(516.402568, 494.539682)"><g><path d="M 48.046875 0 L 8.859375 0 C 7.796875 0 7.023438 -0.238281 6.546875 -0.71875 C 6.066406 -1.195312 5.828125 -1.972656 5.828125 -3.046875 L 5.828125 -57.75 C 5.828125 -58.820312 6.066406 -59.597656 6.546875 -60.078125 C 7.023438 -60.554688 7.796875 -60.796875 8.859375 -60.796875 L 48.046875 -60.796875 C 49.117188 -60.796875 49.890625 -60.554688 50.359375 -60.078125 C 50.835938 -59.597656 51.078125 -58.820312 51.078125 -57.75 L 51.078125 -47.875 C 51.078125 -46.800781 50.835938 -46.023438 50.359375 -45.546875 C 49.890625 -45.078125 49.117188 -44.84375 48.046875 -44.84375 L 24.734375 -44.84375 L 24.734375 -38.328125 L 41.203125 -38.328125 C 42.273438 -38.328125 43.050781 -38.085938 43.53125 -37.609375 C 44.007812 -37.140625 44.25 -36.367188 44.25 -35.296875 L 44.25 -26.265625 C 44.25 -25.191406 44.007812 -24.414062 43.53125 -23.9375 C 43.050781 -23.457031 42.273438 -23.21875 41.203125 -23.21875 L 24.734375 -23.21875 L 24.734375 -15.953125 L 48.046875 -15.953125 C 49.117188 -15.953125 49.890625 -15.710938 50.359375 -15.234375 C 50.835938 -14.753906 51.078125 -13.984375 51.078125 -12.921875 L 51.078125 -3.046875 C 51.078125 -1.972656 50.835938 -1.195312 50.359375 -0.71875 C 49.890625 -0.238281 49.117188 0 48.046875 0 Z M 48.046875 0 "/></g></g></g><g fill="#e5b2f1" fill-opacity="1"><g transform="translate(571.62214, 494.539682)"><g><path d="M 21.53125 0 L 8.859375 0 C 7.796875 0 7.023438 -0.238281 6.546875 -0.71875 C 6.066406 -1.195312 5.828125 -1.972656 5.828125 -3.046875 L 5.828125 -57.75 C 5.828125 -58.820312 6.066406 -59.597656 6.546875 -60.078125 C 7.023438 -60.554688 7.796875 -60.796875 8.859375 -60.796875 L 17.640625 -60.796875 C 18.710938 -60.796875 19.628906 -60.625 20.390625 -60.28125 C 21.148438 -59.945312 21.894531 -59.359375 22.625 -58.515625 L 39.015625 -39.765625 L 39.015625 -57.75 C 39.015625 -58.820312 39.253906 -59.597656 39.734375 -60.078125 C 40.210938 -60.554688 40.984375 -60.796875 42.046875 -60.796875 L 54.71875 -60.796875 C 55.78125 -60.796875 56.550781 -60.554688 57.03125 -60.078125 C 57.507812 -59.597656 57.75 -58.820312 57.75 -57.75 L 57.75 -3.046875 C 57.75 -1.972656 57.507812 -1.195312 57.03125 -0.71875 C 56.550781 -0.238281 55.78125 0 54.71875 0 L 42.046875 0 C 40.984375 0 40.210938 -0.238281 39.734375 -0.71875 C 39.253906 -1.195312 39.015625 -1.972656 39.015625 -3.046875 L 39.015625 -13.421875 L 24.578125 -30.90625 L 24.578125 -3.046875 C 24.578125 -1.972656 24.335938 -1.195312 23.859375 -0.71875 C 23.378906 -0.238281 22.601562 0 21.53125 0 Z M 21.53125 0 "/></g></g></g><g fill="#e5b2f1" fill-opacity="1"><g transform="translate(635.200658, 494.539682)"><g><path d="M 34.53125 0 L 20.859375 0 C 19.785156 0 19.007812 -0.238281 18.53125 -0.71875 C 18.050781 -1.195312 17.8125 -1.972656 17.8125 -3.046875 L 17.8125 -44.5 L 5.40625 -44.5 C 4.332031 -44.5 3.554688 -44.738281 3.078125 -45.21875 C 2.597656 -45.695312 2.359375 -46.46875 2.359375 -47.53125 L 2.359375 -57.75 C 2.359375 -58.820312 2.597656 -59.597656 3.078125 -60.078125 C 3.554688 -60.554688 4.332031 -60.796875 5.40625 -60.796875 L 49.984375 -60.796875 C 51.054688 -60.796875 51.832031 -60.554688 52.3125 -60.078125 C 52.789062 -59.597656 53.03125 -58.820312 53.03125 -57.75 L 53.03125 -47.53125 C 53.03125 -46.46875 52.789062 -45.695312 52.3125 -45.21875 C 51.832031 -44.738281 51.054688 -44.5 49.984375 -44.5 L 37.578125 -44.5 L 37.578125 -3.046875 C 37.578125 -1.972656 37.335938 -1.195312 36.859375 -0.71875 C 36.378906 -0.238281 35.601562 0 34.53125 0 Z M 34.53125 0 "/></g></g></g><g fill="#e5b2f1" fill-opacity="1"><g transform="translate(690.589098, 494.539682)"><g><path d="M 27.859375 -43.0625 L 23.890625 -30.234375 L 37.15625 -30.234375 L 33.1875 -43.0625 C 32.957031 -43.570312 32.71875 -43.9375 32.46875 -44.15625 C 32.21875 -44.382812 31.921875 -44.5 31.578125 -44.5 L 29.46875 -44.5 C 29.132812 -44.5 28.835938 -44.382812 28.578125 -44.15625 C 28.328125 -43.9375 28.085938 -43.570312 27.859375 -43.0625 Z M 23.046875 -3.046875 C 23.046875 -1.972656 22.804688 -1.195312 22.328125 -0.71875 C 21.847656 -0.238281 21.078125 0 20.015625 0 L 7.59375 0 C 6.53125 0 5.757812 -0.238281 5.28125 -0.71875 C 4.800781 -1.195312 4.5625 -1.972656 4.5625 -3.046875 L 4.5625 -25.328125 C 4.5625 -27.015625 4.828125 -28.957031 5.359375 -31.15625 C 5.890625 -33.351562 6.722656 -35.914062 7.859375 -38.84375 L 15.203125 -58.015625 C 15.535156 -58.960938 16.050781 -59.660156 16.75 -60.109375 C 17.457031 -60.566406 18.375 -60.796875 19.5 -60.796875 L 42.21875 -60.796875 C 43.289062 -60.796875 44.175781 -60.566406 44.875 -60.109375 C 45.582031 -59.660156 46.101562 -58.960938 46.4375 -58.015625 L 53.78125 -38.84375 C 54.90625 -35.914062 55.734375 -33.351562 56.265625 -31.15625 C 56.804688 -28.957031 57.078125 -27.015625 57.078125 -25.328125 L 57.078125 -3.046875 C 57.078125 -1.972656 56.835938 -1.195312 56.359375 -0.71875 C 55.878906 -0.238281 55.109375 0 54.046875 0 L 41.296875 0 C 40.160156 0 39.328125 -0.238281 38.796875 -0.71875 C 38.265625 -1.195312 38 -1.972656 38 -3.046875 L 38 -14.859375 L 23.046875 -14.859375 Z M 23.046875 -3.046875 "/></g></g></g><g fill="#e5b2f1" fill-opacity="1"><g transform="translate(752.225646, 494.539682)"><g><path d="M 46.265625 0 L 25.671875 0 C 18.628906 0 13.40625 -1.40625 10 -4.21875 C 6.59375 -7.03125 4.890625 -11.363281 4.890625 -17.21875 L 4.890625 -43.484375 C 4.890625 -49.335938 6.59375 -53.6875 10 -56.53125 C 13.40625 -59.375 18.628906 -60.796875 25.671875 -60.796875 L 46.265625 -60.796875 C 47.335938 -60.796875 48.113281 -60.554688 48.59375 -60.078125 C 49.070312 -59.597656 49.3125 -58.820312 49.3125 -57.75 L 49.3125 -47.53125 C 49.3125 -46.46875 49.070312 -45.695312 48.59375 -45.21875 C 48.113281 -44.738281 47.335938 -44.5 46.265625 -44.5 L 29.296875 -44.5 C 27.554688 -44.5 26.265625 -44.144531 25.421875 -43.4375 C 24.578125 -42.738281 24.15625 -41.6875 24.15625 -40.28125 L 24.15625 -20.1875 C 24.15625 -18.769531 24.578125 -17.738281 25.421875 -17.09375 C 26.265625 -16.445312 27.554688 -16.125 29.296875 -16.125 L 46.265625 -16.125 C 47.335938 -16.125 48.113281 -15.882812 48.59375 -15.40625 C 49.070312 -14.925781 49.3125 -14.15625 49.3125 -13.09375 L 49.3125 -3.046875 C 49.3125 -1.972656 49.070312 -1.195312 48.59375 -0.71875 C 48.113281 -0.238281 47.335938 0 46.265625 0 Z M 46.265625 0 "/></g></g></g><g fill="#e5b2f1" fill-opacity="1"><g transform="translate(805.249966, 494.539682)"><g><path d="M 7.515625 0 C 6.441406 0 5.664062 -0.238281 5.1875 -0.71875 C 4.707031 -1.195312 4.46875 -1.972656 4.46875 -3.046875 L 4.46875 -13.09375 C 4.46875 -14.15625 4.707031 -14.925781 5.1875 -15.40625 C 5.664062 -15.882812 6.441406 -16.125 7.515625 -16.125 L 15.875 -16.125 L 15.875 -44.5 L 7.515625 -44.5 C 6.441406 -44.5 5.664062 -44.738281 5.1875 -45.21875 C 4.707031 -45.695312 4.46875 -46.46875 4.46875 -47.53125 L 4.46875 -57.75 C 4.46875 -58.820312 4.707031 -59.597656 5.1875 -60.078125 C 5.664062 -60.554688 6.441406 -60.796875 7.515625 -60.796875 L 43.484375 -60.796875 C 44.554688 -60.796875 45.332031 -60.554688 45.8125 -60.078125 C 46.289062 -59.597656 46.53125 -58.820312 46.53125 -57.75 L 46.53125 -47.53125 C 46.53125 -46.46875 46.289062 -45.695312 45.8125 -45.21875 C 45.332031 -44.738281 44.554688 -44.5 43.484375 -44.5 L 35.296875 -44.5 L 35.296875 -16.125 L 43.484375 -16.125 C 44.554688 -16.125 45.332031 -15.882812 45.8125 -15.40625 C 46.289062 -14.925781 46.53125 -14.15625 46.53125 -13.09375 L 46.53125 -3.046875 C 46.53125 -1.972656 46.289062 -1.195312 45.8125 -0.71875 C 45.332031 -0.238281 44.554688 0 43.484375 0 Z M 7.515625 0 "/></g></g></g><g fill="#e5b2f1" fill-opacity="1"><g transform="translate(856.332315, 494.539682)"><g><path d="M 57.328125 -15.953125 C 57.328125 -13.367188 56.945312 -11.019531 56.1875 -8.90625 C 55.425781 -6.789062 54.078125 -4.988281 52.140625 -3.5 C 50.203125 -2.007812 47.53125 -0.84375 44.125 0 C 40.71875 0.84375 36.394531 1.265625 31.15625 1.265625 C 25.925781 1.265625 21.59375 0.84375 18.15625 0 C 14.71875 -0.84375 12.023438 -2.007812 10.078125 -3.5 C 8.140625 -4.988281 6.789062 -6.789062 6.03125 -8.90625 C 5.269531 -11.019531 4.890625 -13.367188 4.890625 -15.953125 L 4.890625 -44.75 C 4.890625 -47.34375 5.269531 -49.691406 6.03125 -51.796875 C 6.789062 -53.910156 8.140625 -55.726562 10.078125 -57.25 C 12.023438 -58.769531 14.71875 -59.953125 18.15625 -60.796875 C 21.59375 -61.640625 25.925781 -62.0625 31.15625 -62.0625 C 36.394531 -62.0625 40.71875 -61.640625 44.125 -60.796875 C 47.53125 -59.953125 50.203125 -58.769531 52.140625 -57.25 C 54.078125 -55.726562 55.425781 -53.910156 56.1875 -51.796875 C 56.945312 -49.691406 57.328125 -47.34375 57.328125 -44.75 Z M 24.0625 -19 C 24.0625 -17.875 24.484375 -16.929688 25.328125 -16.171875 C 26.171875 -15.410156 28.113281 -15.03125 31.15625 -15.03125 C 34.195312 -15.03125 36.140625 -15.410156 36.984375 -16.171875 C 37.828125 -16.929688 38.25 -17.875 38.25 -19 L 38.25 -41.71875 C 38.25 -42.78125 37.828125 -43.691406 36.984375 -44.453125 C 36.140625 -45.210938 34.195312 -45.59375 31.15625 -45.59375 C 28.113281 -45.59375 26.171875 -45.210938 25.328125 -44.453125 C 24.484375 -43.691406 24.0625 -42.78125 24.0625 -41.71875 Z M 24.0625 -19 "/></g></g></g><g fill="#e5b2f1" fill-opacity="1"><g transform="translate(918.559882, 494.539682)"><g><path d="M 21.53125 0 L 8.859375 0 C 7.796875 0 7.023438 -0.238281 6.546875 -0.71875 C 6.066406 -1.195312 5.828125 -1.972656 5.828125 -3.046875 L 5.828125 -57.75 C 5.828125 -58.820312 6.066406 -59.597656 6.546875 -60.078125 C 7.023438 -60.554688 7.796875 -60.796875 8.859375 -60.796875 L 17.640625 -60.796875 C 18.710938 -60.796875 19.628906 -60.625 20.390625 -60.28125 C 21.148438 -59.945312 21.894531 -59.359375 22.625 -58.515625 L 39.015625 -39.765625 L 39.015625 -57.75 C 39.015625 -58.820312 39.253906 -59.597656 39.734375 -60.078125 C 40.210938 -60.554688 40.984375 -60.796875 42.046875 -60.796875 L 54.71875 -60.796875 C 55.78125 -60.796875 56.550781 -60.554688 57.03125 -60.078125 C 57.507812 -59.597656 57.75 -58.820312 57.75 -57.75 L 57.75 -3.046875 C 57.75 -1.972656 57.507812 -1.195312 57.03125 -0.71875 C 56.550781 -0.238281 55.78125 0 54.71875 0 L 42.046875 0 C 40.984375 0 40.210938 -0.238281 39.734375 -0.71875 C 39.253906 -1.195312 39.015625 -1.972656 39.015625 -3.046875 L 39.015625 -13.421875 L 24.578125 -30.90625 L 24.578125 -3.046875 C 24.578125 -1.972656 24.335938 -1.195312 23.859375 -0.71875 C 23.378906 -0.238281 22.601562 0 21.53125 0 Z M 21.53125 0 "/></g></g></g><g fill="#e5b2f1" fill-opacity="1"><g transform="translate(982.1384, 494.539682)"><g><path d="M 48.046875 0 L 8.859375 0 C 7.796875 0 7.023438 -0.238281 6.546875 -0.71875 C 6.066406 -1.195312 5.828125 -1.972656 5.828125 -3.046875 L 5.828125 -57.75 C 5.828125 -58.820312 6.066406 -59.597656 6.546875 -60.078125 C 7.023438 -60.554688 7.796875 -60.796875 8.859375 -60.796875 L 48.046875 -60.796875 C 49.117188 -60.796875 49.890625 -60.554688 50.359375 -60.078125 C 50.835938 -59.597656 51.078125 -58.820312 51.078125 -57.75 L 51.078125 -47.875 C 51.078125 -46.800781 50.835938 -46.023438 50.359375 -45.546875 C 49.890625 -45.078125 49.117188 -44.84375 48.046875 -44.84375 L 24.734375 -44.84375 L 24.734375 -38.328125 L 41.203125 -38.328125 C 42.273438 -38.328125 43.050781 -38.085938 43.53125 -37.609375 C 44.007812 -37.140625 44.25 -36.367188 44.25 -35.296875 L 44.25 -26.265625 C 44.25 -25.191406 44.007812 -24.414062 43.53125 -23.9375 C 43.050781 -23.457031 42.273438 -23.21875 41.203125 -23.21875 L 24.734375 -23.21875 L 24.734375 -15.953125 L 48.046875 -15.953125 C 49.117188 -15.953125 49.890625 -15.710938 50.359375 -15.234375 C 50.835938 -14.753906 51.078125 -13.984375 51.078125 -12.921875 L 51.078125 -3.046875 C 51.078125 -1.972656 50.835938 -1.195312 50.359375 -0.71875 C 49.890625 -0.238281 49.117188 0 48.046875 0 Z M 48.046875 0 "/></g></g></g><g fill="#e5b2f1" fill-opacity="1"><g transform="translate(1037.357971, 494.539682)"><g><path d="M 34.03125 0 L 7.34375 0 C 6.269531 0 5.492188 -0.238281 5.015625 -0.71875 C 4.546875 -1.195312 4.3125 -1.972656 4.3125 -3.046875 L 4.3125 -12.921875 C 4.3125 -13.984375 4.546875 -14.753906 5.015625 -15.234375 C 5.492188 -15.710938 6.269531 -15.953125 7.34375 -15.953125 L 30.0625 -15.953125 C 30.789062 -15.953125 31.335938 -16.191406 31.703125 -16.671875 C 32.066406 -17.148438 32.25 -17.726562 32.25 -18.40625 C 32.25 -19.363281 32.066406 -20.066406 31.703125 -20.515625 C 31.335938 -20.960938 30.789062 -21.21875 30.0625 -21.28125 L 17.390625 -23.046875 C 13.453125 -23.609375 10.285156 -24.898438 7.890625 -26.921875 C 5.503906 -28.953125 4.3125 -32.332031 4.3125 -37.0625 L 4.3125 -45.9375 C 4.3125 -50.71875 5.859375 -54.390625 8.953125 -56.953125 C 12.046875 -59.515625 16.320312 -60.796875 21.78125 -60.796875 L 45.421875 -60.796875 C 46.492188 -60.796875 47.269531 -60.554688 47.75 -60.078125 C 48.226562 -59.597656 48.46875 -58.820312 48.46875 -57.75 L 48.46875 -47.703125 C 48.46875 -46.640625 48.226562 -45.867188 47.75 -45.390625 C 47.269531 -44.910156 46.492188 -44.671875 45.421875 -44.671875 L 25.75 -44.671875 C 25.019531 -44.671875 24.457031 -44.429688 24.0625 -43.953125 C 23.664062 -43.472656 23.46875 -42.867188 23.46875 -42.140625 C 23.46875 -41.398438 23.664062 -40.773438 24.0625 -40.265625 C 24.457031 -39.765625 25.019531 -39.488281 25.75 -39.4375 L 38.328125 -37.75 C 42.273438 -37.1875 45.457031 -35.890625 47.875 -33.859375 C 50.289062 -31.828125 51.5 -28.453125 51.5 -23.734375 L 51.5 -14.859375 C 51.5 -10.078125 49.9375 -6.40625 46.8125 -3.84375 C 43.695312 -1.28125 39.4375 0 34.03125 0 Z M 34.03125 0 "/></g></g></g><path stroke-linecap="butt" transform="matrix(0.75, 0, 0, 0.75, 278.998879, 250.789695)" fill="none" stroke-linejoin="miter" d="M 38.58483 324.999174 L 21.131705 324.999174 C 19.699413 324.999174 18.668163 324.681465 18.027538 324.035632 C 17.402538 323.395007 17.090038 322.368965 17.090038 320.957507 L 17.090038 247.983545 C 17.090038 246.577295 17.402538 245.551253 18.027538 244.90542 C 18.668163 244.264795 19.699413 243.947086 21.131705 243.947086 L 55.569206 243.947086 C 65.793165 243.947086 72.777541 245.96792 76.511916 250.020003 C 80.272333 254.066878 82.147333 259.363754 82.147333 265.905421 L 82.147333 280.306463 C 82.147333 286.832505 80.272333 292.12938 76.511916 296.197089 C 72.777541 300.243964 65.793165 302.270006 55.569206 302.270006 L 42.626497 302.270006 L 42.626497 320.957507 C 42.626497 322.368965 42.303581 323.395007 41.662956 324.035632 C 41.037956 324.681465 40.011914 324.999174 38.58483 324.999174 Z M 42.402539 264.999171 L 42.402539 281.983546 L 52.548373 281.983546 C 54.725456 281.983546 56.147331 281.426255 56.80879 280.306463 C 57.485873 279.171046 57.824415 277.900213 57.824415 276.488754 L 57.824415 270.525212 C 57.824415 269.092921 57.485873 267.822087 56.80879 266.702296 C 56.147331 265.566879 54.725456 264.999171 52.548373 264.999171 Z M 119.293168 264.202296 L 119.293168 278.603338 L 127.75671 278.603338 C 129.699418 278.603338 131.011918 278.103338 131.689002 277.092921 C 132.366085 276.087713 132.704627 274.832504 132.704627 273.327296 L 132.704627 269.509587 C 132.704627 268.004379 132.366085 266.749171 131.689002 265.743962 C 131.011918 264.717921 129.699418 264.202296 127.75671 264.202296 Z M 115.251501 324.999174 L 97.90775 324.999174 C 96.480667 324.999174 95.444208 324.681465 94.803583 324.035632 C 94.178583 323.395007 93.871292 322.368965 93.871292 320.957507 L 93.871292 247.983545 C 93.871292 246.577295 94.178583 245.551253 94.803583 244.90542 C 95.444208 244.264795 96.480667 243.947086 97.90775 243.947086 L 135.397335 243.947086 C 143.808794 243.947086 149.610878 245.697086 152.798378 249.197086 C 155.985878 252.676253 157.579628 257.191878 157.579628 262.743962 L 157.579628 267.910629 C 157.579628 271.066879 157.110878 273.749171 156.178586 275.967921 C 155.246295 278.181463 153.610878 279.775213 151.287961 280.749171 C 155.334836 281.207505 158.616087 282.863755 161.126503 285.72313 C 163.63692 288.561672 164.892129 292.34813 164.892129 297.077297 L 164.892129 320.957507 C 164.892129 322.368965 164.569212 323.395007 163.928587 324.035632 C 163.308795 324.681465 162.282753 324.999174 160.850462 324.999174 L 143.397336 324.999174 C 141.970252 324.999174 140.933794 324.681465 140.293169 324.035632 C 139.652544 323.395007 139.329627 322.368965 139.329627 320.957507 L 139.329627 303.728339 C 139.329627 302.077297 139.006711 300.858547 138.366086 300.072089 C 137.746294 299.280422 136.647335 298.889797 135.06921 298.889797 L 119.293168 298.889797 L 119.293168 320.957507 C 119.293168 322.368965 118.970251 323.395007 118.329626 324.035632 C 117.709834 324.681465 116.683793 324.999174 115.251501 324.999174 Z M 233.80359 324.999174 L 181.553588 324.999174 C 180.126504 324.999174 179.090046 324.681465 178.449421 324.035632 C 177.824421 323.395007 177.517129 322.368965 177.517129 320.957507 L 177.517129 247.983545 C 177.517129 246.577295 177.824421 245.551253 178.449421 244.90542 C 179.090046 244.264795 180.126504 243.947086 181.553588 243.947086 L 233.80359 243.947086 C 235.215049 243.947086 236.24109 244.264795 236.881715 244.90542 C 237.522341 245.551253 237.845257 246.577295 237.845257 247.983545 L 237.845257 261.181462 C 237.845257 262.587712 237.522341 263.613754 236.881715 264.259587 C 236.24109 264.900212 235.215049 265.217921 233.80359 265.217921 L 202.720255 265.217921 L 202.720255 273.879379 L 224.67859 273.879379 C 226.110882 273.879379 227.136923 274.197088 227.756715 274.837713 C 228.39734 275.478338 228.720257 276.514796 228.720257 277.947088 L 228.720257 289.983547 C 228.720257 291.41063 228.39734 292.447089 227.756715 293.087714 C 227.136923 293.728339 226.110882 294.051255 224.67859 294.051255 L 202.720255 294.051255 L 202.720255 303.728339 L 233.80359 303.728339 C 235.215049 303.728339 236.24109 304.046048 236.881715 304.686673 C 237.522341 305.311673 237.845257 306.337714 237.845257 307.764798 L 237.845257 320.957507 C 237.845257 322.368965 237.522341 323.395007 236.881715 324.035632 C 236.24109 324.681465 235.215049 324.999174 233.80359 324.999174 Z M 288.741093 324.999174 L 253.147341 324.999174 C 251.735883 324.999174 250.709841 324.681465 250.069216 324.035632 C 249.428591 323.395007 249.105674 322.368965 249.105674 320.957507 L 249.105674 307.764798 C 249.105674 306.337714 249.428591 305.311673 250.069216 304.686673 C 250.709841 304.046048 251.735883 303.728339 253.147341 303.728339 L 283.433801 303.728339 C 284.40776 303.728339 285.142135 303.405422 285.636926 302.764797 C 286.131718 302.124172 286.37651 301.353339 286.37651 300.457506 C 286.37651 299.171047 286.131718 298.238756 285.636926 297.650214 C 285.142135 297.046047 284.40776 296.707505 283.433801 296.634589 L 266.5588 294.270005 C 261.303592 293.520005 257.079633 291.796047 253.886925 289.103338 C 250.699424 286.389797 249.105674 281.884588 249.105674 275.582504 L 249.105674 263.764795 C 249.105674 257.384587 251.168175 252.493962 255.293175 249.087711 C 259.412967 245.660628 265.1213 243.947086 272.412967 243.947086 L 303.939011 243.947086 C 305.350469 243.947086 306.376511 244.264795 307.017136 244.90542 C 307.657761 245.551253 307.980677 246.577295 307.980677 247.983545 L 307.980677 261.400212 C 307.980677 262.827295 307.657761 263.863754 307.017136 264.504379 C 306.376511 265.129379 305.350469 265.436671 303.939011 265.436671 L 277.694218 265.436671 C 276.720259 265.436671 275.970259 265.759587 275.439009 266.400212 C 274.923384 267.040837 274.668176 267.848129 274.668176 268.822087 C 274.668176 269.790837 274.923384 270.613754 275.439009 271.296046 C 275.970259 271.973129 276.720259 272.348129 277.694218 272.421046 L 294.485885 274.676254 C 299.725469 275.426254 303.959844 277.155421 307.183802 279.868963 C 310.428594 282.561671 312.048386 287.061672 312.048386 293.363755 L 312.048386 305.181464 C 312.048386 311.561673 309.959844 316.462715 305.782761 319.889798 C 301.621302 323.296048 295.944218 324.999174 288.741093 324.999174 Z M 380.605681 324.999174 L 328.355678 324.999174 C 326.928595 324.999174 325.892137 324.681465 325.251512 324.035632 C 324.626512 323.395007 324.31922 322.368965 324.31922 320.957507 L 324.31922 247.983545 C 324.31922 246.577295 324.626512 245.551253 325.251512 244.90542 C 325.892137 244.264795 326.928595 243.947086 328.355678 243.947086 L 380.605681 243.947086 C 382.017139 243.947086 383.043181 244.264795 383.683806 244.90542 C 384.324431 245.551253 384.647348 246.577295 384.647348 247.983545 L 384.647348 261.181462 C 384.647348 262.587712 384.324431 263.613754 383.683806 264.259587 C 383.043181 264.900212 382.017139 265.217921 380.605681 265.217921 L 349.522346 265.217921 L 349.522346 273.879379 L 371.480681 273.879379 C 372.912972 273.879379 373.939014 274.197088 374.558806 274.837713 C 375.199431 275.478338 375.522347 276.514796 375.522347 277.947088 L 375.522347 289.983547 C 375.522347 291.41063 375.199431 292.447089 374.558806 293.087714 C 373.939014 293.728339 372.912972 294.051255 371.480681 294.051255 L 349.522346 294.051255 L 349.522346 303.728339 L 380.605681 303.728339 C 382.017139 303.728339 383.043181 304.046048 383.683806 304.686673 C 384.324431 305.311673 384.647348 306.337714 384.647348 307.764798 L 384.647348 320.957507 C 384.647348 322.368965 384.324431 323.395007 383.683806 324.035632 C 383.043181 324.681465 382.017139 324.999174 380.605681 324.999174 Z M 418.860891 324.999174 L 401.980682 324.999174 C 400.553599 324.999174 399.51714 324.681465 398.876515 324.035632 C 398.256724 323.395007 397.944224 322.368965 397.944224 320.957507 L 397.944224 247.983545 C 397.944224 246.577295 398.256724 245.551253 398.876515 244.90542 C 399.51714 244.264795 400.553599 243.947086 401.980682 243.947086 L 413.694224 243.947086 C 415.121308 243.947086 416.340058 244.176253 417.345266 244.634586 C 418.355683 245.072086 419.355683 245.853336 420.345266 246.96792 L 442.168184 271.978338 L 442.168184 247.983545 C 442.168184 246.577295 442.485892 245.551253 443.126518 244.90542 C 443.772351 244.264795 444.803601 243.947086 446.235893 243.947086 L 463.110894 243.947086 C 464.537977 243.947086 465.574435 244.264795 466.21506 244.90542 C 466.855685 245.551253 467.178602 246.577295 467.178602 247.983545 L 467.178602 320.957507 C 467.178602 322.368965 466.855685 323.395007 466.21506 324.035632 C 465.574435 324.681465 464.537977 324.999174 463.110894 324.999174 L 446.235893 324.999174 C 444.803601 324.999174 443.772351 324.681465 443.126518 324.035632 C 442.485892 323.395007 442.168184 322.368965 442.168184 320.957507 L 442.168184 307.108548 L 422.9286 283.801255 L 422.9286 320.957507 C 422.9286 322.368965 422.605683 323.395007 421.965058 324.035632 C 421.324433 324.681465 420.287975 324.999174 418.860891 324.999174 Z M 520.97548 324.999174 L 502.751521 324.999174 C 501.319229 324.999174 500.287979 324.681465 499.647354 324.035632 C 499.00152 323.395007 498.683812 322.368965 498.683812 320.957507 L 498.683812 265.660629 L 482.136936 265.660629 C 480.709853 265.660629 479.673394 265.348129 479.032769 264.723129 C 478.407769 264.082504 478.095269 263.046045 478.095269 261.618962 L 478.095269 247.983545 C 478.095269 246.577295 478.407769 245.551253 479.032769 244.90542 C 479.673394 244.264795 480.709853 243.947086 482.136936 243.947086 L 541.590064 243.947086 C 543.017148 243.947086 544.043189 244.264795 544.668189 244.90542 C 545.308814 245.551253 545.626523 246.577295 545.626523 247.983545 L 545.626523 261.618962 C 545.626523 263.046045 545.308814 264.082504 544.668189 264.723129 C 544.043189 265.348129 543.017148 265.660629 541.590064 265.660629 L 525.043188 265.660629 L 525.043188 320.957507 C 525.043188 322.368965 524.720272 323.395007 524.079647 324.035632 C 523.439022 324.681465 522.402563 324.999174 520.97548 324.999174 Z M 585.949441 267.582504 L 580.642149 284.707505 L 598.314025 284.707505 L 593.037983 267.582504 C 592.725483 266.905421 592.397358 266.421046 592.0484 266.124171 C 591.720275 265.816879 591.334858 265.660629 590.89215 265.660629 L 588.090066 265.660629 C 587.631733 265.660629 587.230691 265.816879 586.881733 266.124171 C 586.553608 266.421046 586.241108 266.905421 585.949441 267.582504 Z M 579.517149 320.957507 C 579.517149 322.368965 579.194233 323.395007 578.553608 324.035632 C 577.928608 324.681465 576.902566 324.999174 575.475483 324.999174 L 558.928607 324.999174 C 557.501523 324.999174 556.465065 324.681465 555.82444 324.035632 C 555.183815 323.395007 554.860898 322.368965 554.860898 320.957507 L 554.860898 291.217922 C 554.860898 288.967922 555.220273 286.384588 555.933815 283.467921 C 556.647357 280.53563 557.756732 277.118963 559.256732 273.217921 L 569.043191 247.65542 C 569.501524 246.37417 570.199441 245.43667 571.131732 244.853336 C 572.069232 244.24917 573.287982 243.947086 574.787982 243.947086 L 605.074442 243.947086 C 606.506734 243.947086 607.689026 244.24917 608.621318 244.853336 C 609.558818 245.43667 610.251526 246.37417 610.709859 247.65542 L 620.496318 273.217921 C 621.996318 277.118963 623.105693 280.53563 623.824443 283.467921 C 624.537985 286.384588 624.892152 288.967922 624.892152 291.217922 L 624.892152 320.957507 C 624.892152 322.368965 624.574443 323.395007 623.933818 324.035632 C 623.293193 324.681465 622.256735 324.999174 620.824443 324.999174 L 603.840067 324.999174 C 602.340067 324.999174 601.230692 324.681465 600.511942 324.035632 C 599.7984 323.395007 599.444234 322.368965 599.444234 320.957507 L 599.444234 305.181464 L 579.517149 305.181464 Z M 692.673405 324.999174 L 665.189029 324.999174 C 655.80882 324.999174 648.845278 323.124173 644.298403 319.363757 C 639.772361 315.608548 637.511944 309.827298 637.511944 302.020006 L 637.511944 267.035629 C 637.511944 259.228337 639.772361 253.426253 644.298403 249.634586 C 648.845278 245.84292 655.80882 243.947086 665.189029 243.947086 L 692.673405 243.947086 C 694.084863 243.947086 695.110905 244.264795 695.75153 244.90542 C 696.392155 245.551253 696.715072 246.577295 696.715072 247.983545 L 696.715072 261.618962 C 696.715072 263.046045 696.392155 264.082504 695.75153 264.723129 C 695.110905 265.348129 694.084863 265.660629 692.673405 265.660629 L 670.027571 265.660629 C 667.699445 265.660629 665.96507 266.134587 664.829654 267.087712 C 663.71507 268.025212 663.15257 269.426254 663.15257 271.296046 L 663.15257 298.092922 C 663.15257 299.962714 663.71507 301.337714 664.829654 302.212714 C 665.96507 303.077297 667.699445 303.504381 670.027571 303.504381 L 692.673405 303.504381 C 694.084863 303.504381 695.110905 303.827298 695.75153 304.467923 C 696.392155 305.092923 696.715072 306.118964 696.715072 307.546048 L 696.715072 320.957507 C 696.715072 322.368965 696.392155 323.395007 695.75153 324.035632 C 695.110905 324.681465 694.084863 324.999174 692.673405 324.999174 Z M 711.699448 324.999174 C 710.272364 324.999174 709.235906 324.681465 708.595281 324.035632 C 707.954656 323.395007 707.631739 322.368965 707.631739 320.957507 L 707.631739 307.546048 C 707.631739 306.118964 707.954656 305.092923 708.595281 304.467923 C 709.235906 303.827298 710.272364 303.504381 711.699448 303.504381 L 722.829657 303.504381 L 722.829657 265.660629 L 711.699448 265.660629 C 710.272364 265.660629 709.235906 265.348129 708.595281 264.723129 C 707.954656 264.082504 707.631739 263.046045 707.631739 261.618962 L 707.631739 247.983545 C 707.631739 246.577295 707.954656 245.551253 708.595281 244.90542 C 709.235906 244.264795 710.272364 243.947086 711.699448 243.947086 L 759.63695 243.947086 C 761.064034 243.947086 762.100492 244.264795 762.741117 244.90542 C 763.381742 245.551253 763.704659 246.577295 763.704659 247.983545 L 763.704659 261.618962 C 763.704659 263.046045 763.381742 264.082504 762.741117 264.723129 C 762.100492 265.348129 761.064034 265.660629 759.63695 265.660629 L 748.725491 265.660629 L 748.725491 303.504381 L 759.63695 303.504381 C 761.064034 303.504381 762.100492 303.827298 762.741117 304.467923 C 763.381742 305.092923 763.704659 306.118964 763.704659 307.546048 L 763.704659 320.957507 C 763.704659 322.368965 763.381742 323.395007 762.741117 324.035632 C 762.100492 324.681465 761.064034 324.999174 759.63695 324.999174 Z M 846.215079 303.728339 C 846.215079 307.171048 845.709871 310.306465 844.704663 313.124173 C 843.694246 315.931465 841.892163 318.332507 839.287996 320.327298 C 836.704662 322.327298 833.142162 323.88459 828.595287 324.999174 C 824.05362 326.118965 818.287995 326.676257 811.308828 326.676257 C 804.329661 326.676257 798.54841 326.118965 793.965077 324.999174 C 789.402577 323.88459 785.819243 322.327298 783.220285 320.327298 C 780.636951 318.332507 778.840076 315.931465 777.829659 313.124173 C 776.824451 310.306465 776.319243 307.171048 776.319243 303.728339 L 776.319243 265.327296 C 776.319243 261.884587 776.824451 258.759587 777.829659 255.957503 C 778.840076 253.134587 780.636951 250.707503 783.220285 248.671045 C 785.819243 246.639795 789.402577 245.06167 793.965077 243.947086 C 798.54841 242.811669 804.329661 242.243961 811.308828 242.243961 C 818.287995 242.243961 824.05362 242.811669 828.595287 243.947086 C 833.142162 245.06167 836.704662 246.639795 839.287996 248.671045 C 841.892163 250.707503 843.694246 253.134587 844.704663 255.957503 C 845.709871 258.759587 846.215079 261.884587 846.215079 265.327296 Z M 801.855702 299.660631 C 801.855702 301.160631 802.412994 302.426256 803.527577 303.452297 C 804.668202 304.457506 807.256744 304.962714 811.308828 304.962714 C 815.376536 304.962714 817.970286 304.457506 819.08487 303.452297 C 820.204661 302.426256 820.761953 301.160631 820.761953 299.660631 L 820.761953 269.395004 C 820.761953 267.967921 820.204661 266.749171 819.08487 265.743962 C 817.970286 264.717921 815.376536 264.202296 811.308828 264.202296 C 807.256744 264.202296 804.668202 264.717921 803.527577 265.743962 C 802.412994 266.749171 801.855702 267.967921 801.855702 269.395004 Z M 881.444248 324.999174 L 864.569247 324.999174 C 863.136955 324.999174 862.100497 324.681465 861.459872 324.035632 C 860.84008 323.395007 860.52758 322.368965 860.52758 320.957507 L 860.52758 247.983545 C 860.52758 246.577295 860.84008 245.551253 861.459872 244.90542 C 862.100497 244.264795 863.136955 243.947086 864.569247 243.947086 L 876.277581 243.947086 C 877.704664 243.947086 878.923414 244.176253 879.928623 244.634586 C 880.93904 245.072086 881.93904 245.853336 882.928623 246.96792 L 904.751541 271.978338 L 904.751541 247.983545 C 904.751541 246.577295 905.069249 245.551253 905.709874 244.90542 C 906.355707 244.264795 907.386958 243.947086 908.819249 243.947086 L 925.69425 243.947086 C 927.121334 243.947086 928.157792 244.264795 928.798417 244.90542 C 929.439042 245.551253 929.761959 246.577295 929.761959 247.983545 L 929.761959 320.957507 C 929.761959 322.368965 929.439042 323.395007 928.798417 324.035632 C 928.157792 324.681465 927.121334 324.999174 925.69425 324.999174 L 908.819249 324.999174 C 907.386958 324.999174 906.355707 324.681465 905.709874 324.035632 C 905.069249 323.395007 904.751541 322.368965 904.751541 320.957507 L 904.751541 307.108548 L 885.511956 283.801255 L 885.511956 320.957507 C 885.511956 322.368965 885.18904 323.395007 884.548415 324.035632 C 883.90779 324.681465 882.871331 324.999174 881.444248 324.999174 Z M 1001.590087 324.999174 L 949.340085 324.999174 C 947.907793 324.999174 946.871335 324.681465 946.230709 324.035632 C 945.610918 323.395007 945.298418 322.368965 945.298418 320.957507 L 945.298418 247.983545 C 945.298418 246.577295 945.610918 245.551253 946.230709 244.90542 C 946.871335 244.264795 947.907793 243.947086 949.340085 243.947086 L 1001.590087 243.947086 C 1002.996337 243.947086 1004.022379 244.264795 1004.668212 244.90542 C 1005.308837 245.551253 1005.626546 246.577295 1005.626546 247.983545 L 1005.626546 261.181462 C 1005.626546 262.587712 1005.308837 263.613754 1004.668212 264.259587 C 1004.022379 264.900212 1002.996337 265.217921 1001.590087 265.217921 L 970.501544 265.217921 L 970.501544 273.879379 L 992.465087 273.879379 C 993.89217 273.879379 994.918212 274.197088 995.543212 274.837713 C 996.183837 275.478338 996.501545 276.514796 996.501545 277.947088 L 996.501545 289.983547 C 996.501545 291.41063 996.183837 292.447089 995.543212 293.087714 C 994.918212 293.728339 993.89217 294.051255 992.465087 294.051255 L 970.501544 294.051255 L 970.501544 303.728339 L 1001.590087 303.728339 C 1002.996337 303.728339 1004.022379 304.046048 1004.668212 304.686673 C 1005.308837 305.311673 1005.626546 306.337714 1005.626546 307.764798 L 1005.626546 320.957507 C 1005.626546 322.368965 1005.308837 323.395007 1004.668212 324.035632 C 1004.022379 324.681465 1002.996337 324.999174 1001.590087 324.999174 Z M 1056.522382 324.999174 L 1020.92863 324.999174 C 1019.517172 324.999174 1018.49113 324.681465 1017.850505 324.035632 C 1017.20988 323.395007 1016.892171 322.368965 1016.892171 320.957507 L 1016.892171 307.764798 C 1016.892171 306.337714 1017.20988 305.311673 1017.850505 304.686673 C 1018.49113 304.046048 1019.517172 303.728339 1020.92863 303.728339 L 1051.220298 303.728339 C 1052.189048 303.728339 1052.923423 303.405422 1053.418215 302.764797 C 1053.913007 302.124172 1054.157798 301.353339 1054.157798 300.457506 C 1054.157798 299.171047 1053.913007 298.238756 1053.418215 297.650214 C 1052.923423 297.046047 1052.189048 296.707505 1051.220298 296.634589 L 1034.345297 294.270005 C 1029.08488 293.520005 1024.860922 291.796047 1021.673422 289.103338 C 1018.485921 286.389797 1016.892171 281.884588 1016.892171 275.582504 L 1016.892171 263.764795 C 1016.892171 257.384587 1018.949463 252.493962 1023.074463 249.087711 C 1027.199464 245.660628 1032.902589 243.947086 1040.199464 243.947086 L 1071.725507 243.947086 C 1073.131758 243.947086 1074.157799 244.264795 1074.803633 244.90542 C 1075.444258 245.551253 1075.761966 246.577295 1075.761966 247.983545 L 1075.761966 261.400212 C 1075.761966 262.827295 1075.444258 263.863754 1074.803633 264.504379 C 1074.157799 265.129379 1073.131758 265.436671 1071.725507 265.436671 L 1045.475506 265.436671 C 1044.501548 265.436671 1043.751548 265.759587 1043.220298 266.400212 C 1042.709881 267.040837 1042.449464 267.848129 1042.449464 268.822087 C 1042.449464 269.790837 1042.709881 270.613754 1043.220298 271.296046 C 1043.751548 271.973129 1044.501548 272.348129 1045.475506 272.421046 L 1062.267174 274.676254 C 1067.506757 275.426254 1071.741132 277.155421 1074.965091 279.868963 C 1078.209883 282.561671 1079.829675 287.061672 1079.829675 293.363755 L 1079.829675 305.181464 C 1079.829675 311.561673 1077.741133 316.462715 1073.564049 319.889798 C 1069.407799 323.296048 1063.725507 324.999174 1056.522382 324.999174 Z M 1056.522382 324.999174 " stroke="#000000" stroke-width="6.442012" stroke-opacity="1" stroke-miterlimit="4"/></svg>