<svg xmlns="http://www.w3.org/2000/svg" xmlns:xlink="http://www.w3.org/1999/xlink" width="1920" zoomAndPan="magnify" viewBox="0 0 1440 809.999993" height="1080" preserveAspectRatio="xMidYMid meet" version="1.0"><defs><filter x="0%" y="0%" width="100%" height="100%" id="9eef59b500"><feColorMatrix values="0 0 0 0 1 0 0 0 0 1 0 0 0 0 1 0 0 0 1 0" color-interpolation-filters="sRGB"/></filter><g/><mask id="b92035f0e6"><g filter="url(#9eef59b500)"><rect x="-144" width="1728" fill="#000000" y="-80.999999" height="971.999992" fill-opacity="0.5"/></g></mask><clipPath id="b8001f0508"><path d="M 0 0 L 629.03125 0 L 629.03125 712.390625 L 0 712.390625 Z M 0 0 " clip-rule="nonzero"/></clipPath><clipPath id="d910607a12"><rect x="0" width="630" y="0" height="713"/></clipPath><mask id="76d5082f16"><g filter="url(#9eef59b500)"><rect x="-144" width="1728" fill="#000000" y="-80.999999" height="971.999992" fill-opacity="0.5"/></g></mask><clipPath id="3c6d08904a"><path d="M 0.4375 0.519531 L 704 0.519531 L 704 729 L 0.4375 729 Z M 0.4375 0.519531 " clip-rule="nonzero"/></clipPath><clipPath id="e0a5d9c7af"><rect x="0" width="704" y="0" height="729"/></clipPath><clipPath id="b5cae66451"><path d="M 208.691406 138.140625 L 1169.441406 138.140625 L 1169.441406 621.890625 L 208.691406 621.890625 Z M 208.691406 138.140625 " clip-rule="nonzero"/></clipPath><clipPath id="667bfabe52"><path d="M 208.691406 138.140625 L 1169.441406 138.140625 L 1169.441406 621.890625 L 208.691406 621.890625 Z M 208.691406 138.140625 " clip-rule="nonzero"/></clipPath></defs><rect x="-144" width="1728" fill="#ffffff" y="-80.999999" height="971.999992" fill-opacity="1"/><rect x="-144" width="1728" fill="#bdb2ff" y="-80.999999" height="971.999992" fill-opacity="1"/><g mask="url(#b92035f0e6)"><g transform="matrix(1, 0, 0, 1, 0, 0.000000000000039746)"><g clip-path="url(#d910607a12)"><g clip-path="url(#b8001f0508)"><path fill="#424651" d="M -187.71875 -101.949219 L -187.71875 709.953125 C -187.71875 711.300781 -186.628906 712.390625 -185.28125 712.390625 L 626.621094 712.390625 C 627.964844 712.390625 629.054688 711.300781 629.054688 709.953125 L 629.054688 -101.949219 C 629.054688 -103.292969 627.964844 -104.382812 626.621094 -104.382812 L -185.28125 -104.382812 C -186.628906 -104.382812 -187.71875 -103.292969 -187.71875 -101.949219 Z M 255.140625 338.472656 L 186.199219 338.472656 L 186.199219 269.53125 L 255.140625 269.53125 Z M 260.011719 269.53125 L 328.949219 269.53125 L 328.949219 338.472656 L 260.011719 338.472656 Z M 186.199219 412.28125 L 186.199219 343.34375 L 255.140625 343.34375 L 255.140625 412.28125 Z M 255.140625 417.152344 L 255.140625 486.089844 L 186.199219 486.089844 L 186.199219 417.152344 Z M 181.328125 338.472656 L 112.390625 338.472656 L 112.390625 269.53125 L 181.328125 269.53125 Z M 186.199219 264.660156 L 186.199219 195.722656 L 255.140625 195.722656 L 255.140625 264.660156 Z M 186.199219 190.851562 L 186.199219 121.914062 L 255.140625 121.914062 L 255.140625 190.851562 Z M 181.328125 190.851562 L 112.390625 190.851562 L 112.390625 121.914062 L 181.328125 121.914062 Z M 181.328125 195.722656 L 181.328125 264.660156 L 112.390625 264.660156 L 112.390625 195.722656 Z M 107.519531 264.660156 L 38.582031 264.660156 L 38.582031 195.722656 L 107.519531 195.722656 Z M 107.519531 269.53125 L 107.519531 338.472656 L 38.582031 338.472656 L 38.582031 269.53125 Z M 107.519531 343.34375 L 107.519531 412.28125 L 38.582031 412.28125 L 38.582031 343.34375 Z M 112.390625 343.34375 L 181.328125 343.34375 L 181.328125 412.28125 L 112.390625 412.28125 Z M 181.328125 417.152344 L 181.328125 486.089844 L 112.390625 486.089844 L 112.390625 417.152344 Z M 181.328125 490.960938 L 181.328125 559.898438 L 112.390625 559.898438 L 112.390625 490.960938 Z M 186.199219 490.960938 L 255.140625 490.960938 L 255.140625 559.898438 L 186.199219 559.898438 Z M 260.011719 490.960938 L 328.949219 490.960938 L 328.949219 559.898438 L 260.011719 559.898438 Z M 260.011719 486.089844 L 260.011719 417.152344 L 328.949219 417.152344 L 328.949219 486.089844 Z M 260.011719 412.28125 L 260.011719 343.34375 L 328.949219 343.34375 L 328.949219 412.28125 Z M 333.820312 343.34375 L 402.757812 343.34375 L 402.757812 412.28125 L 333.820312 412.28125 Z M 333.820312 338.472656 L 333.820312 269.53125 L 402.757812 269.53125 L 402.757812 338.472656 Z M 333.820312 264.660156 L 333.820312 195.722656 L 402.757812 195.722656 L 402.757812 264.660156 Z M 328.949219 264.660156 L 260.011719 264.660156 L 260.011719 195.722656 L 328.949219 195.722656 Z M 260.011719 190.851562 L 260.011719 121.914062 L 328.949219 121.914062 L 328.949219 190.851562 Z M 260.011719 117.042969 L 260.011719 48.105469 L 328.949219 48.105469 L 328.949219 117.042969 Z M 255.140625 117.042969 L 186.199219 117.042969 L 186.199219 48.105469 L 255.140625 48.105469 Z M 181.328125 117.042969 L 112.390625 117.042969 L 112.390625 48.105469 L 181.328125 48.105469 Z M 107.519531 117.042969 L 38.582031 117.042969 L 38.582031 48.105469 L 107.519531 48.105469 Z M 107.519531 121.914062 L 107.519531 190.851562 L 38.582031 190.851562 L 38.582031 121.914062 Z M 33.710938 190.851562 L -35.226562 190.851562 L -35.226562 121.914062 L 33.710938 121.914062 Z M 33.710938 195.722656 L 33.710938 264.660156 L -35.226562 264.660156 L -35.226562 195.722656 Z M 33.710938 269.53125 L 33.710938 338.472656 L -35.226562 338.472656 L -35.226562 269.53125 Z M 33.710938 343.34375 L 33.710938 412.28125 L -35.226562 412.28125 L -35.226562 343.34375 Z M 33.710938 417.152344 L 33.710938 486.089844 L -35.226562 486.089844 L -35.226562 417.152344 Z M 38.582031 417.152344 L 107.519531 417.152344 L 107.519531 486.089844 L 38.582031 486.089844 Z M 107.519531 490.960938 L 107.519531 559.898438 L 38.582031 559.898438 L 38.582031 490.960938 Z M 107.519531 564.769531 L 107.519531 633.707031 L 38.582031 633.707031 L 38.582031 564.769531 Z M 112.390625 564.769531 L 181.328125 564.769531 L 181.328125 633.707031 L 112.390625 633.707031 Z M 186.199219 564.769531 L 255.140625 564.769531 L 255.140625 633.707031 L 186.199219 633.707031 Z M 260.011719 564.769531 L 328.949219 564.769531 L 328.949219 633.707031 L 260.011719 633.707031 Z M 333.820312 564.769531 L 402.757812 564.769531 L 402.757812 633.707031 L 333.820312 633.707031 Z M 333.820312 559.898438 L 333.820312 490.960938 L 402.757812 490.960938 L 402.757812 559.898438 Z M 333.820312 486.089844 L 333.820312 417.152344 L 402.757812 417.152344 L 402.757812 486.089844 Z M 407.628906 417.152344 L 476.566406 417.152344 L 476.566406 486.089844 L 407.628906 486.089844 Z M 407.628906 412.28125 L 407.628906 343.34375 L 476.566406 343.34375 L 476.566406 412.28125 Z M 407.628906 338.472656 L 407.628906 269.53125 L 476.566406 269.53125 L 476.566406 338.472656 Z M 407.628906 264.660156 L 407.628906 195.722656 L 476.566406 195.722656 L 476.566406 264.660156 Z M 407.628906 190.851562 L 407.628906 121.914062 L 476.566406 121.914062 L 476.566406 190.851562 Z M 402.757812 190.851562 L 333.820312 190.851562 L 333.820312 121.914062 L 402.757812 121.914062 Z M 333.820312 117.042969 L 333.820312 48.105469 L 402.757812 48.105469 L 402.757812 117.042969 Z M 333.820312 43.234375 L 333.820312 -25.703125 L 402.757812 -25.703125 L 402.757812 43.234375 Z M 328.949219 43.234375 L 260.011719 43.234375 L 260.011719 -25.703125 L 328.949219 -25.703125 Z M 255.140625 43.234375 L 186.199219 43.234375 L 186.199219 -25.703125 L 255.140625 -25.703125 Z M 181.328125 43.234375 L 112.390625 43.234375 L 112.390625 -25.703125 L 181.328125 -25.703125 Z M 107.519531 43.234375 L 38.582031 43.234375 L 38.582031 -25.703125 L 107.519531 -25.703125 Z M 33.710938 43.234375 L -35.226562 43.234375 L -35.226562 -25.703125 L 33.710938 -25.703125 Z M 33.710938 48.105469 L 33.710938 117.042969 L -35.226562 117.042969 L -35.226562 48.105469 Z M -40.097656 117.042969 L -109.035156 117.042969 L -109.035156 48.105469 L -40.097656 48.105469 Z M -40.097656 121.914062 L -40.097656 190.851562 L -109.035156 190.851562 L -109.035156 121.914062 Z M -40.097656 195.722656 L -40.097656 264.660156 L -109.035156 264.660156 L -109.035156 195.722656 Z M -40.097656 269.53125 L -40.097656 338.472656 L -109.035156 338.472656 L -109.035156 269.53125 Z M -40.097656 343.34375 L -40.097656 412.28125 L -109.035156 412.28125 L -109.035156 343.34375 Z M -40.097656 417.152344 L -40.097656 486.089844 L -109.035156 486.089844 L -109.035156 417.152344 Z M -40.097656 490.960938 L -40.097656 559.898438 L -109.035156 559.898438 L -109.035156 490.960938 Z M -35.226562 490.960938 L 33.710938 490.960938 L 33.710938 559.898438 L -35.226562 559.898438 Z M 33.710938 564.769531 L 33.710938 633.707031 L -35.226562 633.707031 L -35.226562 564.769531 Z M 33.710938 638.578125 L 33.710938 707.519531 L -35.226562 707.519531 L -35.226562 638.578125 Z M 38.582031 638.578125 L 107.519531 638.578125 L 107.519531 707.519531 L 38.582031 707.519531 Z M 112.390625 638.578125 L 181.328125 638.578125 L 181.328125 707.519531 L 112.390625 707.519531 Z M 186.199219 638.578125 L 255.140625 638.578125 L 255.140625 707.519531 L 186.199219 707.519531 Z M 260.011719 638.578125 L 328.949219 638.578125 L 328.949219 707.519531 L 260.011719 707.519531 Z M 333.820312 638.578125 L 402.757812 638.578125 L 402.757812 707.519531 L 333.820312 707.519531 Z M 407.628906 638.578125 L 476.566406 638.578125 L 476.566406 707.519531 L 407.628906 707.519531 Z M 407.628906 633.707031 L 407.628906 564.769531 L 476.566406 564.769531 L 476.566406 633.707031 Z M 407.628906 559.898438 L 407.628906 490.960938 L 476.566406 490.960938 L 476.566406 559.898438 Z M 481.4375 490.960938 L 550.375 490.960938 L 550.375 559.898438 L 481.4375 559.898438 Z M 481.4375 486.089844 L 481.4375 417.152344 L 550.375 417.152344 L 550.375 486.089844 Z M 481.4375 412.28125 L 481.4375 343.34375 L 550.375 343.34375 L 550.375 412.28125 Z M 481.4375 338.472656 L 481.4375 269.53125 L 550.375 269.53125 L 550.375 338.472656 Z M 481.4375 264.660156 L 481.4375 195.722656 L 550.375 195.722656 L 550.375 264.660156 Z M 481.4375 190.851562 L 481.4375 121.914062 L 550.375 121.914062 L 550.375 190.851562 Z M 481.4375 117.042969 L 481.4375 48.105469 L 550.375 48.105469 L 550.375 117.042969 Z M 476.566406 117.042969 L 407.628906 117.042969 L 407.628906 48.105469 L 476.566406 48.105469 Z M 407.628906 43.234375 L 407.628906 -25.703125 L 476.566406 -25.703125 L 476.566406 43.234375 Z M 407.628906 -30.574219 L 407.628906 -99.511719 L 476.566406 -99.511719 L 476.566406 -30.574219 Z M 402.757812 -30.574219 L 333.820312 -30.574219 L 333.820312 -99.511719 L 402.757812 -99.511719 Z M 328.949219 -30.574219 L 260.011719 -30.574219 L 260.011719 -99.511719 L 328.949219 -99.511719 Z M 255.140625 -30.574219 L 186.199219 -30.574219 L 186.199219 -99.511719 L 255.140625 -99.511719 Z M 181.328125 -30.574219 L 112.390625 -30.574219 L 112.390625 -99.511719 L 181.328125 -99.511719 Z M 107.519531 -30.574219 L 38.582031 -30.574219 L 38.582031 -99.511719 L 107.519531 -99.511719 Z M 33.710938 -30.574219 L -35.226562 -30.574219 L -35.226562 -99.511719 L 33.710938 -99.511719 Z M -40.097656 -30.574219 L -109.035156 -30.574219 L -109.035156 -99.511719 L -40.097656 -99.511719 Z M -40.097656 -25.703125 L -40.097656 43.234375 L -109.035156 43.234375 L -109.035156 -25.703125 Z M -113.90625 43.234375 L -182.847656 43.234375 L -182.847656 -25.703125 L -113.90625 -25.703125 Z M -113.90625 48.105469 L -113.90625 117.042969 L -182.847656 117.042969 L -182.847656 48.105469 Z M -113.90625 121.914062 L -113.90625 190.851562 L -182.847656 190.851562 L -182.847656 121.914062 Z M -113.90625 195.722656 L -113.90625 264.660156 L -182.847656 264.660156 L -182.847656 195.722656 Z M -113.90625 269.53125 L -113.90625 338.472656 L -182.847656 338.472656 L -182.847656 269.53125 Z M -113.90625 343.34375 L -113.90625 412.28125 L -182.847656 412.28125 L -182.847656 343.34375 Z M -113.90625 417.152344 L -113.90625 486.089844 L -182.847656 486.089844 L -182.847656 417.152344 Z M -113.90625 490.960938 L -113.90625 559.898438 L -182.847656 559.898438 L -182.847656 490.960938 Z M -113.90625 564.769531 L -113.90625 633.707031 L -182.847656 633.707031 L -182.847656 564.769531 Z M -109.035156 564.769531 L -40.097656 564.769531 L -40.097656 633.707031 L -109.035156 633.707031 Z M -40.097656 638.578125 L -40.097656 707.519531 L -109.035156 707.519531 L -109.035156 638.578125 Z M 481.4375 707.519531 L 481.4375 638.578125 L 550.375 638.578125 L 550.375 707.519531 Z M 481.4375 633.707031 L 481.4375 564.769531 L 550.375 564.769531 L 550.375 633.707031 Z M 555.246094 564.769531 L 624.183594 564.769531 L 624.183594 633.707031 L 555.246094 633.707031 Z M 555.246094 559.898438 L 555.246094 490.960938 L 624.183594 490.960938 L 624.183594 559.898438 Z M 555.246094 486.089844 L 555.246094 417.152344 L 624.183594 417.152344 L 624.183594 486.089844 Z M 555.246094 412.28125 L 555.246094 343.34375 L 624.183594 343.34375 L 624.183594 412.28125 Z M 555.246094 338.472656 L 555.246094 269.53125 L 624.183594 269.53125 L 624.183594 338.472656 Z M 555.246094 264.660156 L 555.246094 195.722656 L 624.183594 195.722656 L 624.183594 264.660156 Z M 555.246094 190.851562 L 555.246094 121.914062 L 624.183594 121.914062 L 624.183594 190.851562 Z M 555.246094 117.042969 L 555.246094 48.105469 L 624.183594 48.105469 L 624.183594 117.042969 Z M 555.246094 43.234375 L 555.246094 -25.703125 L 624.183594 -25.703125 L 624.183594 43.234375 Z M 550.375 43.234375 L 481.4375 43.234375 L 481.4375 -25.703125 L 550.375 -25.703125 Z M 481.4375 -30.574219 L 481.4375 -99.511719 L 550.375 -99.511719 L 550.375 -30.574219 Z M -113.90625 -99.511719 L -113.90625 -30.574219 L -182.847656 -30.574219 L -182.847656 -99.511719 Z M -182.847656 638.578125 L -113.90625 638.578125 L -113.90625 707.519531 L -182.847656 707.519531 Z M 555.246094 707.519531 L 555.246094 638.578125 L 624.183594 638.578125 L 624.183594 707.519531 Z M 624.183594 -30.574219 L 555.246094 -30.574219 L 555.246094 -99.511719 L 624.183594 -99.511719 Z M 624.183594 -30.574219 " fill-opacity="1" fill-rule="nonzero"/></g></g></g></g><g mask="url(#76d5082f16)"><g transform="matrix(1, 0, 0, 1, 736, 81)"><g clip-path="url(#e0a5d9c7af)"><g clip-path="url(#3c6d08904a)"><path fill="#424651" d="M 0.4375 2.929688 L 0.4375 814.832031 C 0.4375 816.179688 1.527344 817.269531 2.871094 817.269531 L 814.773438 817.269531 C 816.117188 817.269531 817.210938 816.179688 817.210938 814.832031 L 817.210938 2.929688 C 817.210938 1.585938 816.117188 0.496094 814.773438 0.496094 L 2.871094 0.496094 C 1.527344 0.496094 0.4375 1.585938 0.4375 2.929688 Z M 443.292969 443.351562 L 374.355469 443.351562 L 374.355469 374.414062 L 443.292969 374.414062 Z M 448.164062 374.414062 L 517.101562 374.414062 L 517.101562 443.351562 L 448.164062 443.351562 Z M 374.355469 517.160156 L 374.355469 448.222656 L 443.292969 448.222656 L 443.292969 517.160156 Z M 443.292969 522.03125 L 443.292969 590.972656 L 374.355469 590.972656 L 374.355469 522.03125 Z M 369.484375 443.351562 L 300.542969 443.351562 L 300.542969 374.414062 L 369.484375 374.414062 Z M 374.355469 369.539062 L 374.355469 300.605469 L 443.292969 300.605469 L 443.292969 369.539062 Z M 374.355469 295.734375 L 374.355469 226.792969 L 443.292969 226.792969 L 443.292969 295.734375 Z M 369.484375 295.734375 L 300.542969 295.734375 L 300.542969 226.792969 L 369.484375 226.792969 Z M 369.484375 300.605469 L 369.484375 369.539062 L 300.542969 369.539062 L 300.542969 300.605469 Z M 295.671875 369.539062 L 226.734375 369.539062 L 226.734375 300.605469 L 295.671875 300.605469 Z M 295.671875 374.414062 L 295.671875 443.351562 L 226.734375 443.351562 L 226.734375 374.414062 Z M 295.671875 448.222656 L 295.671875 517.160156 L 226.734375 517.160156 L 226.734375 448.222656 Z M 300.542969 448.222656 L 369.484375 448.222656 L 369.484375 517.160156 L 300.542969 517.160156 Z M 369.484375 522.03125 L 369.484375 590.972656 L 300.542969 590.972656 L 300.542969 522.03125 Z M 369.484375 595.839844 L 369.484375 664.78125 L 300.542969 664.78125 L 300.542969 595.839844 Z M 374.355469 595.839844 L 443.292969 595.839844 L 443.292969 664.78125 L 374.355469 664.78125 Z M 448.164062 595.839844 L 517.101562 595.839844 L 517.101562 664.78125 L 448.164062 664.78125 Z M 448.164062 590.96875 L 448.164062 522.03125 L 517.101562 522.03125 L 517.101562 590.96875 Z M 448.164062 517.160156 L 448.164062 448.222656 L 517.101562 448.222656 L 517.101562 517.160156 Z M 521.972656 448.222656 L 590.910156 448.222656 L 590.910156 517.160156 L 521.972656 517.160156 Z M 521.972656 443.351562 L 521.972656 374.414062 L 590.910156 374.414062 L 590.910156 443.351562 Z M 521.972656 369.539062 L 521.972656 300.605469 L 590.910156 300.605469 L 590.910156 369.539062 Z M 517.101562 369.539062 L 448.164062 369.539062 L 448.164062 300.605469 L 517.101562 300.605469 Z M 448.164062 295.734375 L 448.164062 226.792969 L 517.101562 226.792969 L 517.101562 295.734375 Z M 448.164062 221.921875 L 448.164062 152.984375 L 517.101562 152.984375 L 517.101562 221.921875 Z M 443.292969 221.921875 L 374.355469 221.921875 L 374.355469 152.984375 L 443.292969 152.984375 Z M 369.484375 221.921875 L 300.542969 221.921875 L 300.542969 152.984375 L 369.484375 152.984375 Z M 295.671875 221.921875 L 226.734375 221.921875 L 226.734375 152.984375 L 295.671875 152.984375 Z M 295.671875 226.792969 L 295.671875 295.734375 L 226.734375 295.734375 L 226.734375 226.792969 Z M 221.863281 295.734375 L 152.925781 295.734375 L 152.925781 226.792969 L 221.863281 226.792969 Z M 221.863281 300.605469 L 221.863281 369.539062 L 152.925781 369.539062 L 152.925781 300.605469 Z M 221.863281 374.414062 L 221.863281 443.351562 L 152.925781 443.351562 L 152.925781 374.414062 Z M 221.863281 448.222656 L 221.863281 517.160156 L 152.925781 517.160156 L 152.925781 448.222656 Z M 221.863281 522.03125 L 221.863281 590.972656 L 152.925781 590.972656 L 152.925781 522.03125 Z M 226.734375 522.03125 L 295.675781 522.03125 L 295.675781 590.972656 L 226.734375 590.972656 Z M 295.671875 595.839844 L 295.671875 664.78125 L 226.734375 664.78125 L 226.734375 595.839844 Z M 295.671875 669.652344 L 295.671875 738.585938 L 226.734375 738.585938 L 226.734375 669.648438 L 295.671875 669.648438 Z M 300.542969 669.652344 L 369.484375 669.652344 L 369.484375 738.585938 L 300.542969 738.585938 Z M 374.355469 669.652344 L 443.292969 669.652344 L 443.292969 738.585938 L 374.355469 738.585938 Z M 448.164062 669.652344 L 517.101562 669.652344 L 517.101562 738.585938 L 448.164062 738.585938 Z M 521.972656 669.652344 L 590.910156 669.652344 L 590.910156 738.585938 L 521.972656 738.585938 Z M 521.972656 664.78125 L 521.972656 595.839844 L 590.910156 595.839844 L 590.910156 664.78125 Z M 521.972656 590.96875 L 521.972656 522.03125 L 590.910156 522.03125 L 590.910156 590.96875 Z M 595.78125 522.03125 L 664.71875 522.03125 L 664.71875 590.972656 L 595.78125 590.972656 Z M 595.78125 517.160156 L 595.78125 448.222656 L 664.71875 448.222656 L 664.71875 517.160156 Z M 595.78125 443.351562 L 595.78125 374.414062 L 664.71875 374.414062 L 664.71875 443.351562 Z M 595.78125 369.539062 L 595.78125 300.605469 L 664.71875 300.605469 L 664.71875 369.539062 Z M 595.78125 295.734375 L 595.78125 226.792969 L 664.71875 226.792969 L 664.71875 295.734375 Z M 590.910156 295.734375 L 521.972656 295.734375 L 521.972656 226.792969 L 590.910156 226.792969 Z M 521.972656 221.921875 L 521.972656 152.984375 L 590.910156 152.984375 L 590.910156 221.921875 Z M 521.972656 148.113281 L 521.972656 79.175781 L 590.910156 79.175781 L 590.910156 148.113281 Z M 517.101562 148.113281 L 448.164062 148.113281 L 448.164062 79.175781 L 517.101562 79.175781 Z M 443.292969 148.113281 L 374.355469 148.113281 L 374.355469 79.175781 L 443.292969 79.175781 Z M 369.484375 148.113281 L 300.542969 148.113281 L 300.542969 79.175781 L 369.484375 79.175781 Z M 295.671875 148.113281 L 226.734375 148.113281 L 226.734375 79.175781 L 295.671875 79.175781 Z M 221.863281 148.113281 L 152.925781 148.113281 L 152.925781 79.175781 L 221.863281 79.175781 Z M 221.863281 152.984375 L 221.863281 221.921875 L 152.925781 221.921875 L 152.925781 152.984375 Z M 148.054688 221.921875 L 79.117188 221.921875 L 79.117188 152.984375 L 148.054688 152.984375 Z M 148.054688 226.792969 L 148.054688 295.734375 L 79.117188 295.734375 L 79.117188 226.792969 Z M 148.054688 300.605469 L 148.054688 369.539062 L 79.117188 369.539062 L 79.117188 300.605469 Z M 148.054688 374.414062 L 148.054688 443.351562 L 79.117188 443.351562 L 79.117188 374.414062 Z M 148.054688 448.222656 L 148.054688 517.160156 L 79.117188 517.160156 L 79.117188 448.222656 Z M 148.054688 522.03125 L 148.054688 590.972656 L 79.117188 590.972656 L 79.117188 522.03125 Z M 148.054688 595.839844 L 148.054688 664.78125 L 79.117188 664.78125 L 79.117188 595.839844 Z M 152.925781 595.839844 L 221.863281 595.839844 L 221.863281 664.78125 L 152.925781 664.78125 Z M 221.863281 669.652344 L 221.863281 738.585938 L 152.925781 738.585938 L 152.925781 669.648438 L 221.863281 669.648438 Z M 221.863281 743.460938 L 221.863281 812.398438 L 152.925781 812.398438 L 152.925781 743.460938 Z M 226.734375 743.460938 L 295.675781 743.460938 L 295.675781 812.398438 L 226.734375 812.398438 Z M 300.542969 743.460938 L 369.484375 743.460938 L 369.484375 812.398438 L 300.542969 812.398438 Z M 374.355469 743.460938 L 443.292969 743.460938 L 443.292969 812.398438 L 374.355469 812.398438 Z M 448.164062 743.460938 L 517.101562 743.460938 L 517.101562 812.398438 L 448.164062 812.398438 Z M 521.972656 743.460938 L 590.910156 743.460938 L 590.910156 812.398438 L 521.972656 812.398438 Z M 595.78125 743.460938 L 664.71875 743.460938 L 664.71875 812.398438 L 595.78125 812.398438 Z M 595.78125 738.585938 L 595.78125 669.648438 L 664.71875 669.648438 L 664.71875 738.585938 Z M 595.78125 664.78125 L 595.78125 595.839844 L 664.71875 595.839844 L 664.71875 664.78125 Z M 669.589844 595.839844 L 738.53125 595.839844 L 738.53125 664.78125 L 669.589844 664.78125 Z M 669.589844 590.96875 L 669.589844 522.03125 L 738.53125 522.03125 L 738.53125 590.96875 Z M 669.589844 517.160156 L 669.589844 448.222656 L 738.53125 448.222656 L 738.53125 517.160156 Z M 669.589844 443.351562 L 669.589844 374.414062 L 738.53125 374.414062 L 738.53125 443.351562 Z M 669.589844 369.539062 L 669.589844 300.605469 L 738.53125 300.605469 L 738.53125 369.539062 Z M 669.589844 295.734375 L 669.589844 226.792969 L 738.53125 226.792969 L 738.53125 295.734375 Z M 669.589844 221.921875 L 669.589844 152.984375 L 738.53125 152.984375 L 738.53125 221.921875 Z M 664.71875 221.921875 L 595.78125 221.921875 L 595.78125 152.984375 L 664.71875 152.984375 Z M 595.78125 148.113281 L 595.78125 79.175781 L 664.71875 79.175781 L 664.71875 148.113281 Z M 595.78125 74.304688 L 595.78125 5.367188 L 664.71875 5.367188 L 664.71875 74.304688 Z M 590.910156 74.304688 L 521.972656 74.304688 L 521.972656 5.367188 L 590.910156 5.367188 Z M 517.101562 74.304688 L 448.164062 74.304688 L 448.164062 5.367188 L 517.101562 5.367188 Z M 443.292969 74.304688 L 374.355469 74.304688 L 374.355469 5.367188 L 443.292969 5.367188 Z M 369.484375 74.304688 L 300.542969 74.304688 L 300.542969 5.367188 L 369.484375 5.367188 Z M 295.671875 74.304688 L 226.734375 74.304688 L 226.734375 5.367188 L 295.671875 5.367188 Z M 221.863281 74.304688 L 152.925781 74.304688 L 152.925781 5.367188 L 221.863281 5.367188 Z M 148.054688 74.304688 L 79.117188 74.304688 L 79.117188 5.367188 L 148.054688 5.367188 Z M 148.054688 79.175781 L 148.054688 148.113281 L 79.117188 148.113281 L 79.117188 79.175781 Z M 74.246094 148.113281 L 5.308594 148.113281 L 5.308594 79.175781 L 74.246094 79.175781 Z M 74.246094 152.984375 L 74.246094 221.921875 L 5.308594 221.921875 L 5.308594 152.984375 Z M 74.246094 226.792969 L 74.246094 295.734375 L 5.308594 295.734375 L 5.308594 226.792969 Z M 74.246094 300.605469 L 74.246094 369.539062 L 5.308594 369.539062 L 5.308594 300.605469 Z M 74.246094 374.414062 L 74.246094 443.351562 L 5.308594 443.351562 L 5.308594 374.414062 Z M 74.246094 448.222656 L 74.246094 517.160156 L 5.308594 517.160156 L 5.308594 448.222656 Z M 74.246094 522.03125 L 74.246094 590.972656 L 5.308594 590.972656 L 5.308594 522.03125 Z M 74.246094 595.839844 L 74.246094 664.78125 L 5.308594 664.78125 L 5.308594 595.839844 Z M 74.246094 669.652344 L 74.246094 738.585938 L 5.308594 738.585938 L 5.308594 669.648438 L 74.246094 669.648438 Z M 79.117188 669.652344 L 148.054688 669.652344 L 148.054688 738.585938 L 79.117188 738.585938 Z M 148.054688 743.460938 L 148.054688 812.398438 L 79.117188 812.398438 L 79.117188 743.460938 Z M 669.589844 812.398438 L 669.589844 743.460938 L 738.53125 743.460938 L 738.53125 812.398438 Z M 669.589844 738.585938 L 669.589844 669.648438 L 738.53125 669.648438 L 738.53125 738.585938 Z M 743.402344 669.652344 L 812.339844 669.652344 L 812.339844 738.585938 L 743.402344 738.585938 Z M 743.402344 664.78125 L 743.402344 595.839844 L 812.339844 595.839844 L 812.339844 664.78125 Z M 743.402344 590.96875 L 743.402344 522.03125 L 812.339844 522.03125 L 812.339844 590.96875 Z M 743.402344 517.160156 L 743.402344 448.222656 L 812.339844 448.222656 L 812.339844 517.160156 Z M 743.402344 443.351562 L 743.402344 374.414062 L 812.339844 374.414062 L 812.339844 443.351562 Z M 743.402344 369.539062 L 743.402344 300.605469 L 812.339844 300.605469 L 812.339844 369.539062 Z M 743.402344 295.734375 L 743.402344 226.792969 L 812.339844 226.792969 L 812.339844 295.734375 Z M 743.402344 221.921875 L 743.402344 152.984375 L 812.339844 152.984375 L 812.339844 221.921875 Z M 743.402344 148.113281 L 743.402344 79.175781 L 812.339844 79.175781 L 812.339844 148.113281 Z M 738.53125 148.113281 L 669.589844 148.113281 L 669.589844 79.175781 L 738.53125 79.175781 Z M 669.589844 74.304688 L 669.589844 5.367188 L 738.53125 5.367188 L 738.53125 74.304688 Z M 74.246094 5.367188 L 74.246094 74.304688 L 5.308594 74.304688 L 5.308594 5.367188 Z M 5.308594 743.460938 L 74.246094 743.460938 L 74.246094 812.398438 L 5.308594 812.398438 Z M 743.402344 812.398438 L 743.402344 743.460938 L 812.339844 743.460938 L 812.339844 812.398438 Z M 812.339844 74.304688 L 743.402344 74.304688 L 743.402344 5.367188 L 812.339844 5.367188 Z M 812.339844 74.304688 " fill-opacity="1" fill-rule="nonzero"/></g></g></g></g><g clip-path="url(#b5cae66451)"><path fill="#38b6ff" d="M 208.691406 138.8125 L 1169.496094 138.8125 L 1169.496094 621.410156 L 208.691406 621.410156 Z M 208.691406 138.8125 " fill-opacity="1" fill-rule="nonzero"/></g><path fill="#9bd5c1" d="M 390.285156 209.886719 C 377.976562 209.886719 367.902344 199.8125 367.902344 187.5 C 367.902344 175.1875 377.972656 165.113281 390.285156 165.113281 C 402.597656 165.113281 412.671875 175.1875 412.671875 187.5 C 412.671875 199.8125 402.597656 209.886719 390.285156 209.886719 Z M 390.285156 209.886719 " fill-opacity="1" fill-rule="nonzero"/><path fill="#eeec7c" d="M 325.195312 209.886719 C 312.886719 209.886719 302.8125 199.816406 302.8125 187.503906 C 302.8125 175.191406 312.882812 165.117188 325.195312 165.117188 C 337.507812 165.117188 347.582031 175.1875 347.582031 187.503906 C 347.582031 199.8125 337.507812 209.886719 325.195312 209.886719 Z M 325.195312 209.886719 " fill-opacity="1" fill-rule="nonzero"/><path fill="#f27070" d="M 265.769531 209.886719 C 253.460938 209.886719 243.386719 199.8125 243.386719 187.5 C 243.386719 175.1875 253.457031 165.113281 265.769531 165.113281 C 278.082031 165.113281 288.15625 175.1875 288.15625 187.5 C 288.15625 199.8125 278.085938 209.886719 265.769531 209.886719 Z M 265.769531 209.886719 " fill-opacity="1" fill-rule="nonzero"/><g clip-path="url(#667bfabe52)"><path fill="#0d0d0d" d="M 265.773438 211.023438 C 278.742188 211.023438 289.292969 200.472656 289.292969 187.5 C 289.292969 174.53125 278.742188 163.980469 265.773438 163.980469 C 252.804688 163.980469 242.25 174.53125 242.25 187.5 C 242.25 200.472656 252.804688 211.023438 265.773438 211.023438 Z M 265.773438 168.375 C 276.316406 168.375 284.898438 176.953125 284.898438 187.5 C 284.898438 198.046875 276.316406 206.628906 265.773438 206.628906 C 255.226562 206.628906 246.644531 198.046875 246.644531 187.5 C 246.644531 176.953125 255.222656 168.375 265.773438 168.375 Z M 208.691406 138.8125 L 208.691406 621.410156 L 1169.496094 621.410156 L 1169.496094 138.8125 Z M 1165.097656 617.015625 L 213.085938 617.015625 L 213.085938 231.296875 L 1165.101562 231.296875 L 1165.101562 617.015625 Z M 1165.097656 226.902344 L 213.085938 226.902344 L 213.085938 143.207031 L 1165.101562 143.207031 L 1165.101562 226.902344 Z M 325.199219 211.023438 C 338.167969 211.023438 348.71875 200.472656 348.71875 187.5 C 348.71875 174.53125 338.167969 163.980469 325.199219 163.980469 C 312.226562 163.980469 301.675781 174.53125 301.675781 187.5 C 301.675781 200.472656 312.226562 211.023438 325.199219 211.023438 Z M 325.199219 168.375 C 335.746094 168.375 344.324219 176.953125 344.324219 187.5 C 344.324219 198.046875 335.746094 206.628906 325.199219 206.628906 C 314.652344 206.628906 306.070312 198.046875 306.070312 187.5 C 306.070312 176.953125 314.652344 168.375 325.199219 168.375 Z M 389.152344 211.023438 C 402.117188 211.023438 412.667969 200.472656 412.667969 187.5 C 412.667969 174.53125 402.117188 163.980469 389.152344 163.980469 C 376.179688 163.980469 365.628906 174.53125 365.628906 187.5 C 365.628906 200.472656 376.179688 211.023438 389.152344 211.023438 Z M 389.152344 168.375 C 399.695312 168.375 408.277344 176.953125 408.277344 187.5 C 408.277344 198.046875 399.695312 206.628906 389.152344 206.628906 C 378.601562 206.628906 370.023438 198.046875 370.023438 187.5 C 370.023438 176.953125 378.601562 168.375 389.152344 168.375 Z M 389.152344 168.375 " fill-opacity="1" fill-rule="nonzero"/></g><g fill="#e5b2f1" fill-opacity="1"><g transform="translate(379.744967, 367.789689)"><g><path d="M 9.828125 0 C 8.429688 0 7.421875 -0.3125 6.796875 -0.9375 C 6.171875 -1.5625 5.859375 -2.570312 5.859375 -3.96875 L 5.859375 -17.125 C 5.859375 -18.519531 6.171875 -19.53125 6.796875 -20.15625 C 7.421875 -20.78125 8.429688 -21.09375 9.828125 -21.09375 L 20.765625 -21.09375 L 20.765625 -58.203125 L 9.828125 -58.203125 C 8.429688 -58.203125 7.421875 -58.515625 6.796875 -59.140625 C 6.171875 -59.765625 5.859375 -60.773438 5.859375 -62.171875 L 5.859375 -75.546875 C 5.859375 -76.941406 6.171875 -77.953125 6.796875 -78.578125 C 7.421875 -79.203125 8.429688 -79.515625 9.828125 -79.515625 L 56.875 -79.515625 C 58.269531 -79.515625 59.28125 -79.203125 59.90625 -78.578125 C 60.53125 -77.953125 60.84375 -76.941406 60.84375 -75.546875 L 60.84375 -62.171875 C 60.84375 -60.773438 60.53125 -59.765625 59.90625 -59.140625 C 59.28125 -58.515625 58.269531 -58.203125 56.875 -58.203125 L 46.15625 -58.203125 L 46.15625 -21.09375 L 56.875 -21.09375 C 58.269531 -21.09375 59.28125 -20.78125 59.90625 -20.15625 C 60.53125 -19.53125 60.84375 -18.519531 60.84375 -17.125 L 60.84375 -3.96875 C 60.84375 -2.570312 60.53125 -1.5625 59.90625 -0.9375 C 59.28125 -0.3125 58.269531 0 56.875 0 Z M 9.828125 0 "/></g></g></g><g fill="#e5b2f1" fill-opacity="1"><g transform="translate(446.552596, 367.789689)"><g><path d="M 28.046875 0 L 11.59375 0 C 10.195312 0 9.1875 -0.3125 8.5625 -0.9375 C 7.9375 -1.5625 7.625 -2.570312 7.625 -3.96875 L 7.625 -75.546875 C 7.625 -76.941406 7.9375 -77.953125 8.5625 -78.578125 C 9.1875 -79.203125 10.195312 -79.515625 11.59375 -79.515625 L 29.375 -79.515625 C 30.550781 -79.515625 31.523438 -79.253906 32.296875 -78.734375 C 33.078125 -78.222656 33.796875 -77.378906 34.453125 -76.203125 L 44.390625 -58.203125 C 44.765625 -57.535156 45.078125 -57.054688 45.328125 -56.765625 C 45.585938 -56.472656 45.941406 -56.328125 46.390625 -56.328125 L 47.375 -56.328125 C 47.820312 -56.328125 48.171875 -56.472656 48.421875 -56.765625 C 48.679688 -57.054688 48.992188 -57.535156 49.359375 -58.203125 L 59.1875 -76.203125 C 59.851562 -77.378906 60.570312 -78.222656 61.34375 -78.734375 C 62.113281 -79.253906 63.09375 -79.515625 64.28125 -79.515625 L 82.171875 -79.515625 C 83.566406 -79.515625 84.578125 -79.203125 85.203125 -78.578125 C 85.828125 -77.953125 86.140625 -76.941406 86.140625 -75.546875 L 86.140625 -3.96875 C 86.140625 -2.570312 85.828125 -1.5625 85.203125 -0.9375 C 84.578125 -0.3125 83.566406 0 82.171875 0 L 65.15625 0 C 63.757812 0 62.75 -0.3125 62.125 -0.9375 C 61.5 -1.5625 61.1875 -2.570312 61.1875 -3.96875 L 61.1875 -42.84375 L 54.671875 -30.8125 C 54.003906 -29.5625 53.207031 -28.660156 52.28125 -28.109375 C 51.363281 -27.554688 50.207031 -27.28125 48.8125 -27.28125 L 44.390625 -27.28125 C 42.992188 -27.28125 41.832031 -27.554688 40.90625 -28.109375 C 39.988281 -28.660156 39.203125 -29.5625 38.546875 -30.8125 L 32.03125 -42.84375 L 32.03125 -3.96875 C 32.03125 -2.570312 31.71875 -1.5625 31.09375 -0.9375 C 30.46875 -0.3125 29.453125 0 28.046875 0 Z M 28.046875 0 "/></g></g></g><g fill="#e5b2f1" fill-opacity="1"><g transform="translate(540.304125, 367.789689)"><g><path d="M 36.4375 -56.328125 L 31.25 -39.53125 L 48.59375 -39.53125 L 43.40625 -56.328125 C 43.101562 -56.984375 42.785156 -57.457031 42.453125 -57.75 C 42.128906 -58.050781 41.742188 -58.203125 41.296875 -58.203125 L 38.546875 -58.203125 C 38.097656 -58.203125 37.707031 -58.050781 37.375 -57.75 C 37.050781 -57.457031 36.738281 -56.984375 36.4375 -56.328125 Z M 30.15625 -3.96875 C 30.15625 -2.570312 29.835938 -1.5625 29.203125 -0.9375 C 28.578125 -0.3125 27.566406 0 26.171875 0 L 9.9375 0 C 8.539062 0 7.53125 -0.3125 6.90625 -0.9375 C 6.28125 -1.5625 5.96875 -2.570312 5.96875 -3.96875 L 5.96875 -33.125 C 5.96875 -35.332031 6.316406 -37.875 7.015625 -40.75 C 7.710938 -43.625 8.796875 -46.972656 10.265625 -50.796875 L 19.875 -75.875 C 20.320312 -77.125 21.003906 -78.039062 21.921875 -78.625 C 22.835938 -79.21875 24.035156 -79.515625 25.515625 -79.515625 L 55.21875 -79.515625 C 56.613281 -79.515625 57.769531 -79.21875 58.6875 -78.625 C 59.613281 -78.039062 60.296875 -77.125 60.734375 -75.875 L 70.34375 -50.796875 C 71.820312 -46.972656 72.910156 -43.625 73.609375 -40.75 C 74.304688 -37.875 74.65625 -35.332031 74.65625 -33.125 L 74.65625 -3.96875 C 74.65625 -2.570312 74.34375 -1.5625 73.71875 -0.9375 C 73.09375 -0.3125 72.082031 0 70.6875 0 L 54 0 C 52.53125 0 51.445312 -0.3125 50.75 -0.9375 C 50.050781 -1.5625 49.703125 -2.570312 49.703125 -3.96875 L 49.703125 -19.4375 L 30.15625 -19.4375 Z M 59.421875 -87.90625 L 20.875 -83.15625 C 19.625 -83.007812 18.6875 -83.265625 18.0625 -83.921875 C 17.4375 -84.585938 17.125 -85.546875 17.125 -86.796875 L 17.125 -97.40625 C 17.125 -98.800781 17.4375 -99.773438 18.0625 -100.328125 C 18.6875 -100.878906 19.695312 -101.226562 21.09375 -101.375 L 59.640625 -106.125 C 60.890625 -106.269531 61.828125 -106.007812 62.453125 -105.34375 C 63.078125 -104.6875 63.390625 -103.734375 63.390625 -102.484375 L 63.390625 -91.890625 C 63.390625 -90.484375 63.078125 -89.503906 62.453125 -88.953125 C 61.828125 -88.398438 60.816406 -88.050781 59.421875 -87.90625 Z M 59.421875 -87.90625 "/></g></g></g><g fill="#e5b2f1" fill-opacity="1"><g transform="translate(620.914976, 367.789689)"><g><path d="M 68.359375 0 L 33.578125 0 C 24.367188 0 17.535156 -1.835938 13.078125 -5.515625 C 8.628906 -9.203125 6.40625 -14.875 6.40625 -22.53125 L 6.40625 -56.984375 C 6.40625 -64.640625 8.628906 -70.304688 13.078125 -73.984375 C 17.535156 -77.671875 24.367188 -79.515625 33.578125 -79.515625 L 61.1875 -79.515625 C 62.582031 -79.515625 63.59375 -79.203125 64.21875 -78.578125 C 64.84375 -77.953125 65.15625 -76.941406 65.15625 -75.546875 L 65.15625 -62.171875 C 65.15625 -60.773438 64.84375 -59.765625 64.21875 -59.140625 C 63.59375 -58.515625 62.582031 -58.203125 61.1875 -58.203125 L 38.21875 -58.203125 C 35.925781 -58.203125 34.226562 -57.738281 33.125 -56.8125 C 32.019531 -55.894531 31.46875 -54.515625 31.46875 -52.671875 L 31.46875 -26.28125 C 31.46875 -24.4375 31.890625 -23.070312 32.734375 -22.1875 C 33.585938 -21.3125 34.863281 -20.875 36.5625 -20.875 L 47.265625 -20.875 L 47.265625 -38.09375 C 47.265625 -39.5 47.578125 -40.515625 48.203125 -41.140625 C 48.828125 -41.765625 49.84375 -42.078125 51.25 -42.078125 L 68.359375 -42.078125 C 69.753906 -42.078125 70.765625 -41.765625 71.390625 -41.140625 C 72.023438 -40.515625 72.34375 -39.5 72.34375 -38.09375 L 72.34375 -3.96875 C 72.34375 -2.570312 72.023438 -1.5625 71.390625 -0.9375 C 70.765625 -0.3125 69.753906 0 68.359375 0 Z M 68.359375 0 "/></g></g></g><g fill="#e5b2f1" fill-opacity="1"><g transform="translate(699.096453, 367.789689)"><g><path d="M 62.84375 0 L 11.59375 0 C 10.195312 0 9.1875 -0.3125 8.5625 -0.9375 C 7.9375 -1.5625 7.625 -2.570312 7.625 -3.96875 L 7.625 -75.546875 C 7.625 -76.941406 7.9375 -77.953125 8.5625 -78.578125 C 9.1875 -79.203125 10.195312 -79.515625 11.59375 -79.515625 L 62.84375 -79.515625 C 64.238281 -79.515625 65.25 -79.203125 65.875 -78.578125 C 66.5 -77.953125 66.8125 -76.941406 66.8125 -75.546875 L 66.8125 -62.625 C 66.8125 -61.21875 66.5 -60.203125 65.875 -59.578125 C 65.25 -58.953125 64.238281 -58.640625 62.84375 -58.640625 L 32.359375 -58.640625 L 32.359375 -50.140625 L 53.890625 -50.140625 C 55.285156 -50.140625 56.296875 -49.828125 56.921875 -49.203125 C 57.554688 -48.578125 57.875 -47.5625 57.875 -46.15625 L 57.875 -34.34375 C 57.875 -32.945312 57.554688 -31.9375 56.921875 -31.3125 C 56.296875 -30.6875 55.285156 -30.375 53.890625 -30.375 L 32.359375 -30.375 L 32.359375 -20.875 L 62.84375 -20.875 C 64.238281 -20.875 65.25 -20.5625 65.875 -19.9375 C 66.5 -19.3125 66.8125 -18.296875 66.8125 -16.890625 L 66.8125 -3.96875 C 66.8125 -2.570312 66.5 -1.5625 65.875 -0.9375 C 65.25 -0.3125 64.238281 0 62.84375 0 Z M 62.84375 0 "/></g></g></g><g fill="#e5b2f1" fill-opacity="1"><g transform="translate(771.31494, 367.789689)"><g><path d="M 28.15625 0 L 11.59375 0 C 10.195312 0 9.1875 -0.3125 8.5625 -0.9375 C 7.9375 -1.5625 7.625 -2.570312 7.625 -3.96875 L 7.625 -75.546875 C 7.625 -76.941406 7.9375 -77.953125 8.5625 -78.578125 C 9.1875 -79.203125 10.195312 -79.515625 11.59375 -79.515625 L 23.078125 -79.515625 C 24.484375 -79.515625 25.679688 -79.289062 26.671875 -78.84375 C 27.660156 -78.40625 28.632812 -77.632812 29.59375 -76.53125 L 51.015625 -52.015625 L 51.015625 -75.546875 C 51.015625 -76.941406 51.328125 -77.953125 51.953125 -78.578125 C 52.585938 -79.203125 53.601562 -79.515625 55 -79.515625 L 71.5625 -79.515625 C 72.957031 -79.515625 73.96875 -79.203125 74.59375 -78.578125 C 75.226562 -77.953125 75.546875 -76.941406 75.546875 -75.546875 L 75.546875 -3.96875 C 75.546875 -2.570312 75.226562 -1.5625 74.59375 -0.9375 C 73.96875 -0.3125 72.957031 0 71.5625 0 L 55 0 C 53.601562 0 52.585938 -0.3125 51.953125 -0.9375 C 51.328125 -1.5625 51.015625 -2.570312 51.015625 -3.96875 L 51.015625 -17.5625 L 32.140625 -40.421875 L 32.140625 -3.96875 C 32.140625 -2.570312 31.828125 -1.5625 31.203125 -0.9375 C 30.578125 -0.3125 29.5625 0 28.15625 0 Z M 28.15625 0 "/></g></g></g><g fill="#e5b2f1" fill-opacity="1"><g transform="translate(854.465601, 367.789689)"><g><path d="M 62.84375 0 L 11.59375 0 C 10.195312 0 9.1875 -0.3125 8.5625 -0.9375 C 7.9375 -1.5625 7.625 -2.570312 7.625 -3.96875 L 7.625 -75.546875 C 7.625 -76.941406 7.9375 -77.953125 8.5625 -78.578125 C 9.1875 -79.203125 10.195312 -79.515625 11.59375 -79.515625 L 62.84375 -79.515625 C 64.238281 -79.515625 65.25 -79.203125 65.875 -78.578125 C 66.5 -77.953125 66.8125 -76.941406 66.8125 -75.546875 L 66.8125 -62.625 C 66.8125 -61.21875 66.5 -60.203125 65.875 -59.578125 C 65.25 -58.953125 64.238281 -58.640625 62.84375 -58.640625 L 32.359375 -58.640625 L 32.359375 -50.140625 L 53.890625 -50.140625 C 55.285156 -50.140625 56.296875 -49.828125 56.921875 -49.203125 C 57.554688 -48.578125 57.875 -47.5625 57.875 -46.15625 L 57.875 -34.34375 C 57.875 -32.945312 57.554688 -31.9375 56.921875 -31.3125 C 56.296875 -30.6875 55.285156 -30.375 53.890625 -30.375 L 32.359375 -30.375 L 32.359375 -20.875 L 62.84375 -20.875 C 64.238281 -20.875 65.25 -20.5625 65.875 -19.9375 C 66.5 -19.3125 66.8125 -18.296875 66.8125 -16.890625 L 66.8125 -3.96875 C 66.8125 -2.570312 66.5 -1.5625 65.875 -0.9375 C 65.25 -0.3125 64.238281 0 62.84375 0 Z M 62.84375 0 "/></g></g></g><g fill="#e5b2f1" fill-opacity="1"><g transform="translate(926.684088, 367.789689)"><g><path d="M 44.5 0 L 9.609375 0 C 8.210938 0 7.195312 -0.3125 6.5625 -0.9375 C 5.9375 -1.5625 5.625 -2.570312 5.625 -3.96875 L 5.625 -16.890625 C 5.625 -18.296875 5.9375 -19.3125 6.5625 -19.9375 C 7.195312 -20.5625 8.210938 -20.875 9.609375 -20.875 L 39.3125 -20.875 C 40.269531 -20.875 40.988281 -21.1875 41.46875 -21.8125 C 41.945312 -22.4375 42.1875 -23.191406 42.1875 -24.078125 C 42.1875 -25.328125 41.945312 -26.242188 41.46875 -26.828125 C 40.988281 -27.421875 40.269531 -27.753906 39.3125 -27.828125 L 22.75 -30.15625 C 17.59375 -30.882812 13.445312 -32.570312 10.3125 -35.21875 C 7.1875 -37.875 5.625 -42.296875 5.625 -48.484375 L 5.625 -60.078125 C 5.625 -66.335938 7.648438 -71.140625 11.703125 -74.484375 C 15.753906 -77.835938 21.351562 -79.515625 28.5 -79.515625 L 59.421875 -79.515625 C 60.816406 -79.515625 61.828125 -79.203125 62.453125 -78.578125 C 63.078125 -77.953125 63.390625 -76.941406 63.390625 -75.546875 L 63.390625 -62.390625 C 63.390625 -60.992188 63.078125 -59.984375 62.453125 -59.359375 C 61.828125 -58.734375 60.816406 -58.421875 59.421875 -58.421875 L 33.6875 -58.421875 C 32.726562 -58.421875 31.988281 -58.109375 31.46875 -57.484375 C 30.957031 -56.859375 30.703125 -56.066406 30.703125 -55.109375 C 30.703125 -54.148438 30.957031 -53.335938 31.46875 -52.671875 C 31.988281 -52.015625 32.726562 -51.648438 33.6875 -51.578125 L 50.140625 -49.359375 C 55.296875 -48.628906 59.453125 -46.9375 62.609375 -44.28125 C 65.773438 -41.632812 67.359375 -37.21875 67.359375 -31.03125 L 67.359375 -19.4375 C 67.359375 -13.175781 65.316406 -8.367188 61.234375 -5.015625 C 57.148438 -1.671875 51.570312 0 44.5 0 Z M 44.5 0 "/></g></g></g><path stroke-linecap="butt" transform="matrix(0.75, 0, 0, 0.75, 278.998879, 250.789695)" fill="none" stroke-linejoin="miter" d="M 147.449419 155.999165 C 145.579628 155.999165 144.225461 155.582498 143.386919 154.743957 C 142.548377 153.905415 142.126502 152.561665 142.126502 150.717915 L 142.126502 133.171039 C 142.126502 131.306455 142.548377 129.962705 143.386919 129.144997 C 144.225461 128.306455 145.579628 127.889789 147.449419 127.889789 L 162.006712 127.889789 L 162.006712 78.389786 L 147.449419 78.389786 C 145.579628 78.389786 144.225461 77.983536 143.386919 77.165828 C 142.548377 76.327286 142.126502 74.973119 142.126502 73.103328 L 142.126502 55.275202 C 142.126502 53.431452 142.548377 52.087702 143.386919 51.24916 C 144.225461 50.410618 145.579628 49.993951 147.449419 49.993951 L 210.142131 49.993951 C 212.011923 49.993951 213.366089 50.410618 214.204631 51.24916 C 215.043173 52.087702 215.459839 53.431452 215.459839 55.275202 L 215.459839 73.103328 C 215.459839 74.973119 215.043173 76.327286 214.204631 77.165828 C 213.366089 77.983536 212.011923 78.389786 210.142131 78.389786 L 195.871297 78.389786 L 195.871297 127.889789 L 210.142131 127.889789 C 212.011923 127.889789 213.366089 128.306455 214.204631 129.144997 C 215.043173 129.962705 215.459839 131.306455 215.459839 133.171039 L 215.459839 150.717915 C 215.459839 152.561665 215.043173 153.905415 214.204631 154.743957 C 213.366089 155.582498 212.011923 155.999165 210.142131 155.999165 Z M 260.787967 155.999165 L 238.860882 155.999165 C 236.99109 155.999165 235.636924 155.582498 234.798382 154.743957 C 233.985882 153.905415 233.579632 152.561665 233.579632 150.717915 L 233.579632 55.275202 C 233.579632 53.431452 233.985882 52.087702 234.798382 51.24916 C 235.636924 50.410618 236.99109 49.993951 238.860882 49.993951 L 262.59005 49.993951 C 264.147342 49.993951 265.439009 50.337701 266.470259 51.035618 C 267.501509 51.707493 268.459842 52.832493 269.345259 54.410618 L 282.610884 78.389786 C 283.090051 79.275203 283.496301 79.921036 283.834843 80.332495 C 284.194218 80.712703 284.65776 80.905411 285.235885 80.905411 L 286.56401 80.905411 C 287.162968 80.905411 287.631718 80.712703 287.965051 80.332495 C 288.303593 79.921036 288.72026 79.275203 289.225468 78.389786 L 302.308802 54.410618 C 303.194219 52.832493 304.152552 51.707493 305.183802 51.035618 C 306.215052 50.337701 307.522344 49.993951 309.105677 49.993951 L 332.933804 49.993951 C 334.803595 49.993951 336.157762 50.410618 336.996304 51.24916 C 337.834846 52.087702 338.256721 53.431452 338.256721 55.275202 L 338.256721 150.717915 C 338.256721 152.561665 337.834846 153.905415 336.996304 154.743957 C 336.157762 155.582498 334.803595 155.999165 332.933804 155.999165 L 310.287969 155.999165 C 308.418177 155.999165 307.064011 155.582498 306.225469 154.743957 C 305.386927 153.905415 304.970261 152.561665 304.970261 150.717915 L 304.970261 98.879371 L 296.303593 114.910621 C 295.418177 116.587705 294.350468 117.801246 293.105677 118.54083 C 291.886927 119.25958 290.340051 119.618955 288.47026 119.618955 L 282.610884 119.618955 C 280.741093 119.618955 279.183801 119.25958 277.939009 118.54083 C 276.715051 117.801246 275.673384 116.587705 274.808801 114.910621 L 266.110884 98.879371 L 266.110884 150.717915 C 266.110884 152.561665 265.689009 153.905415 264.850467 154.743957 C 264.011925 155.582498 262.657758 155.999165 260.787967 155.999165 Z M 397.006724 80.905411 L 390.069223 103.301246 L 413.183808 103.301246 L 406.282766 80.905411 C 405.876516 80.019995 405.444224 79.384578 404.985891 78.999161 C 404.558807 78.592911 404.053599 78.389786 403.480682 78.389786 L 399.814015 78.389786 C 399.215057 78.389786 398.683807 78.592911 398.230682 78.999161 C 397.79839 79.384578 397.39214 80.019995 397.006724 80.905411 Z M 388.595265 150.717915 C 388.595265 152.561665 388.178598 153.905415 387.340056 154.743957 C 386.522348 155.582498 385.178598 155.999165 383.314015 155.999165 L 361.673388 155.999165 C 359.803597 155.999165 358.44943 155.582498 357.610888 154.743957 C 356.772347 153.905415 356.350471 152.561665 356.350471 150.717915 L 356.350471 111.82208 C 356.350471 108.874163 356.819222 105.493954 357.751513 101.681454 C 358.689013 97.84812 360.13693 93.37937 362.100472 88.275203 L 374.902556 54.84291 C 375.501514 53.165827 376.407764 51.947077 377.631723 51.176243 C 378.855681 50.384576 380.449431 49.993951 382.412973 49.993951 L 422.027558 49.993951 C 423.89735 49.993951 425.444225 50.384576 426.662975 51.176243 C 427.886933 51.947077 428.798392 53.165827 429.39735 54.84291 L 442.194226 88.275203 C 444.157768 93.37937 445.610893 97.84812 446.543184 101.681454 C 447.475476 105.493954 447.944226 108.874163 447.944226 111.82208 L 447.944226 150.717915 C 447.944226 152.561665 447.527559 153.905415 446.689018 154.743957 C 445.850476 155.582498 444.496309 155.999165 442.626517 155.999165 L 420.407766 155.999165 C 418.444225 155.999165 416.996308 155.582498 416.058808 154.743957 C 415.126516 153.905415 414.657766 152.561665 414.657766 150.717915 L 414.657766 130.082497 L 388.595265 130.082497 Z M 427.636933 38.811659 L 376.230681 45.139784 C 374.553597 45.332493 373.293181 44.983534 372.454639 44.098118 C 371.642139 43.207493 371.235889 41.941868 371.235889 40.285618 L 371.235889 26.124159 C 371.235889 24.2752 371.642139 22.983533 372.454639 22.238742 C 373.293181 21.499158 374.647347 21.030408 376.517139 20.8377 L 427.923392 14.509575 C 429.574433 14.322075 430.824434 14.665825 431.662975 15.55645 C 432.501517 16.415825 432.918184 17.686658 432.918184 19.363742 L 432.918184 33.493951 C 432.918184 35.358534 432.501517 36.665826 431.662975 37.410617 C 430.824434 38.129367 429.480683 38.598117 427.636933 38.811659 Z M 547.011939 155.999165 L 500.642145 155.999165 C 488.371311 155.999165 479.267144 153.54604 473.324436 148.629373 C 467.40256 143.717914 464.444227 136.155414 464.444227 125.94708 L 464.444227 80.009578 C 464.444227 69.796036 467.40256 62.24916 473.324436 57.358535 C 479.267144 52.447077 488.371311 49.993951 500.642145 49.993951 L 537.454647 49.993951 C 539.319231 49.993951 540.673397 50.410618 541.511939 51.24916 C 542.355689 52.087702 542.772356 53.431452 542.772356 55.275202 L 542.772356 73.103328 C 542.772356 74.973119 542.355689 76.327286 541.511939 77.165828 C 540.673397 77.983536 539.319231 78.389786 537.454647 78.389786 L 506.824437 78.389786 C 503.782771 78.389786 501.517145 79.014786 500.03277 80.259578 C 498.569229 81.483536 497.840062 83.31687 497.840062 85.759578 L 497.840062 120.952288 C 497.840062 123.421038 498.402562 125.238747 499.527562 126.41583 C 500.678604 127.587705 502.381729 128.176247 504.631729 128.176247 L 518.902563 128.176247 L 518.902563 105.207496 C 518.902563 103.337704 519.324438 101.983537 520.16298 101.144996 C 521.001521 100.306454 522.355688 99.884579 524.22548 99.884579 L 547.011939 99.884579 C 548.881731 99.884579 550.235898 100.306454 551.07444 101.144996 C 551.912981 101.983537 552.334856 103.337704 552.334856 105.207496 L 552.334856 150.717915 C 552.334856 152.561665 551.912981 153.905415 551.07444 154.743957 C 550.235898 155.582498 548.881731 155.999165 547.011939 155.999165 Z M 643.923403 155.999165 L 575.584858 155.999165 C 573.720274 155.999165 572.366107 155.582498 571.527566 154.743957 C 570.709857 153.905415 570.303607 152.561665 570.303607 150.717915 L 570.303607 55.275202 C 570.303607 53.431452 570.709857 52.087702 571.527566 51.24916 C 572.366107 50.410618 573.720274 49.993951 575.584858 49.993951 L 643.923403 49.993951 C 645.767153 49.993951 647.110903 50.410618 647.949444 51.24916 C 648.787986 52.087702 649.209861 53.431452 649.209861 55.275202 L 649.209861 72.530411 C 649.209861 74.374161 648.787986 75.717911 647.949444 76.556453 C 647.110903 77.394994 645.767153 77.816869 643.923403 77.816869 L 603.267151 77.816869 L 603.267151 89.139787 L 631.99111 89.139787 C 633.855694 89.139787 635.199444 89.556453 636.017152 90.394995 C 636.855694 91.233537 637.272361 92.587704 637.272361 94.457495 L 637.272361 110.202288 C 637.272361 112.07208 636.855694 113.426246 636.017152 114.264788 C 635.199444 115.10333 633.855694 115.525205 631.99111 115.525205 L 603.267151 115.525205 L 603.267151 128.176247 L 643.923403 128.176247 C 645.767153 128.176247 647.110903 128.598122 647.949444 129.436664 C 648.787986 130.249164 649.209861 131.592914 649.209861 133.462706 L 649.209861 150.717915 C 649.209861 152.561665 648.787986 153.905415 647.949444 154.743957 C 647.110903 155.582498 645.767153 155.999165 643.923403 155.999165 Z M 693.949447 155.999165 L 671.876529 155.999165 C 670.011946 155.999165 668.657779 155.582498 667.819237 154.743957 C 667.001529 153.905415 666.595279 152.561665 666.595279 150.717915 L 666.595279 55.275202 C 666.595279 53.431452 667.001529 52.087702 667.819237 51.24916 C 668.657779 50.410618 670.011946 49.993951 671.876529 49.993951 L 687.194238 49.993951 C 689.06403 49.993951 690.65778 50.290826 691.975488 50.889785 C 693.293197 51.46791 694.59528 52.483535 695.892155 53.947077 L 724.433823 86.655412 L 724.433823 55.275202 C 724.433823 53.431452 724.85049 52.087702 725.69424 51.24916 C 726.532782 50.410618 727.886949 49.993951 729.751532 49.993951 L 751.82445 49.993951 C 753.694241 49.993951 755.048408 50.410618 755.88695 51.24916 C 756.725492 52.087702 757.147367 53.431452 757.147367 55.275202 L 757.147367 150.717915 C 757.147367 152.561665 756.725492 153.905415 755.88695 154.743957 C 755.048408 155.582498 753.694241 155.999165 751.82445 155.999165 L 729.751532 155.999165 C 727.886949 155.999165 726.532782 155.582498 725.69424 154.743957 C 724.85049 153.905415 724.433823 152.561665 724.433823 150.717915 L 724.433823 132.598122 L 699.272364 102.113746 L 699.272364 150.717915 C 699.272364 152.561665 698.850489 153.905415 698.011947 154.743957 C 697.173405 155.582498 695.819239 155.999165 693.949447 155.999165 Z M 851.079663 155.999165 L 782.746326 155.999165 C 780.876535 155.999165 779.522368 155.582498 778.683826 154.743957 C 777.871326 153.905415 777.459868 152.561665 777.459868 150.717915 L 777.459868 55.275202 C 777.459868 53.431452 777.871326 52.087702 778.683826 51.24916 C 779.522368 50.410618 780.876535 49.993951 782.746326 49.993951 L 851.079663 49.993951 C 852.928621 49.993951 854.267163 50.410618 855.105705 51.24916 C 855.949455 52.087702 856.366122 53.431452 856.366122 55.275202 L 856.366122 72.530411 C 856.366122 74.374161 855.949455 75.717911 855.105705 76.556453 C 854.267163 77.394994 852.928621 77.816869 851.079663 77.816869 L 810.423411 77.816869 L 810.423411 89.139787 L 839.147371 89.139787 C 841.017163 89.139787 842.360913 89.556453 843.173413 90.394995 C 844.011954 91.233537 844.433829 92.587704 844.433829 94.457495 L 844.433829 110.202288 C 844.433829 112.07208 844.011954 113.426246 843.173413 114.264788 C 842.360913 115.10333 841.017163 115.525205 839.147371 115.525205 L 810.423411 115.525205 L 810.423411 128.176247 L 851.079663 128.176247 C 852.928621 128.176247 854.267163 128.598122 855.105705 129.436664 C 855.949455 130.249164 856.366122 131.592914 856.366122 133.462706 L 856.366122 150.717915 C 856.366122 152.561665 855.949455 153.905415 855.105705 154.743957 C 854.267163 155.582498 852.928621 155.999165 851.079663 155.999165 Z M 922.928625 155.999165 L 876.376539 155.999165 C 874.532789 155.999165 873.189039 155.582498 872.350497 154.743957 C 871.511956 153.905415 871.095289 152.561665 871.095289 150.717915 L 871.095289 133.462706 C 871.095289 131.592914 871.511956 130.249164 872.350497 129.436664 C 873.189039 128.598122 874.532789 128.176247 876.376539 128.176247 L 915.991125 128.176247 C 917.261958 128.176247 918.220291 127.75958 918.866125 126.921039 C 919.511958 126.082497 919.840083 125.07208 919.840083 123.900205 C 919.840083 122.223122 919.511958 120.999163 918.866125 120.233538 C 918.220291 119.441872 917.261958 118.999163 915.991125 118.900205 L 893.918207 115.811663 C 887.043207 114.827288 881.517165 112.577288 877.350498 109.051246 C 873.178622 105.504371 871.095289 99.608537 871.095289 91.368953 L 871.095289 75.910619 C 871.095289 67.572077 873.787998 61.171035 879.183831 56.712702 C 884.574456 52.233535 892.037998 49.993951 901.574457 49.993951 L 942.808834 49.993951 C 944.652584 49.993951 945.996334 50.410618 946.834876 51.24916 C 947.673418 52.087702 948.090085 53.431452 948.090085 55.275202 L 948.090085 72.816869 C 948.090085 74.686661 947.673418 76.040828 946.834876 76.879369 C 945.996334 77.697078 944.652584 78.103328 942.808834 78.103328 L 908.480708 78.103328 C 907.209874 78.103328 906.225499 78.519995 905.532791 79.358536 C 904.860916 80.197078 904.522374 81.25437 904.522374 82.525203 C 904.522374 83.796036 904.860916 84.874161 905.532791 85.759578 C 906.225499 86.644995 907.209874 87.134578 908.480708 87.233537 L 930.44425 90.181453 C 937.298417 91.16062 942.829668 93.426245 947.048418 96.97312 C 951.29321 100.499162 953.413002 106.379371 953.413002 114.624163 L 953.413002 130.082497 C 953.413002 138.421039 950.678626 144.832498 945.215084 149.311665 C 939.777584 153.769998 932.345292 155.999165 922.928625 155.999165 Z M 922.928625 155.999165 " stroke="#000000" stroke-width="6.442012" stroke-opacity="1" stroke-miterlimit="4"/><g fill="#e5b2f1" fill-opacity="1"><g transform="translate(486.034028, 522.289681)"><g><path d="M 60.515625 0 L 33.578125 0 C 24.367188 0 17.535156 -1.835938 13.078125 -5.515625 C 8.628906 -9.203125 6.40625 -14.875 6.40625 -22.53125 L 6.40625 -56.875 C 6.40625 -64.53125 8.628906 -70.21875 13.078125 -73.9375 C 17.535156 -77.65625 24.367188 -79.515625 33.578125 -79.515625 L 60.515625 -79.515625 C 61.921875 -79.515625 62.9375 -79.203125 63.5625 -78.578125 C 64.1875 -77.953125 64.5 -76.941406 64.5 -75.546875 L 64.5 -62.171875 C 64.5 -60.773438 64.1875 -59.765625 63.5625 -59.140625 C 62.9375 -58.515625 61.921875 -58.203125 60.515625 -58.203125 L 38.328125 -58.203125 C 36.035156 -58.203125 34.335938 -57.738281 33.234375 -56.8125 C 32.128906 -55.894531 31.578125 -54.515625 31.578125 -52.671875 L 31.578125 -26.390625 C 31.578125 -24.554688 32.128906 -23.210938 33.234375 -22.359375 C 34.335938 -21.515625 36.035156 -21.09375 38.328125 -21.09375 L 60.515625 -21.09375 C 61.921875 -21.09375 62.9375 -20.78125 63.5625 -20.15625 C 64.1875 -19.53125 64.5 -18.519531 64.5 -17.125 L 64.5 -3.96875 C 64.5 -2.570312 64.1875 -1.5625 63.5625 -0.9375 C 62.9375 -0.3125 61.921875 0 60.515625 0 Z M 60.515625 0 "/></g></g></g><g fill="#e5b2f1" fill-opacity="1"><g transform="translate(555.381444, 522.289681)"><g><path d="M 74.984375 -20.875 C 74.984375 -17.488281 74.484375 -14.414062 73.484375 -11.65625 C 72.492188 -8.894531 70.726562 -6.535156 68.1875 -4.578125 C 65.65625 -2.628906 62.160156 -1.101562 57.703125 0 C 53.242188 1.101562 47.59375 1.65625 40.75 1.65625 C 33.90625 1.65625 28.234375 1.101562 23.734375 0 C 19.242188 -1.101562 15.726562 -2.628906 13.1875 -4.578125 C 10.65625 -6.535156 8.890625 -8.894531 7.890625 -11.65625 C 6.898438 -14.414062 6.40625 -17.488281 6.40625 -20.875 L 6.40625 -58.53125 C 6.40625 -61.914062 6.898438 -64.988281 7.890625 -67.75 C 8.890625 -70.507812 10.65625 -72.882812 13.1875 -74.875 C 15.726562 -76.863281 19.242188 -78.410156 23.734375 -79.515625 C 28.234375 -80.617188 33.90625 -81.171875 40.75 -81.171875 C 47.59375 -81.171875 53.242188 -80.617188 57.703125 -79.515625 C 62.160156 -78.410156 65.65625 -76.863281 68.1875 -74.875 C 70.726562 -72.882812 72.492188 -70.507812 73.484375 -67.75 C 74.484375 -64.988281 74.984375 -61.914062 74.984375 -58.53125 Z M 31.46875 -24.84375 C 31.46875 -23.375 32.019531 -22.140625 33.125 -21.140625 C 34.226562 -20.148438 36.769531 -19.65625 40.75 -19.65625 C 44.726562 -19.65625 47.269531 -20.148438 48.375 -21.140625 C 49.476562 -22.140625 50.03125 -23.375 50.03125 -24.84375 L 50.03125 -54.5625 C 50.03125 -55.957031 49.476562 -57.148438 48.375 -58.140625 C 47.269531 -59.140625 44.726562 -59.640625 40.75 -59.640625 C 36.769531 -59.640625 34.226562 -59.140625 33.125 -58.140625 C 32.019531 -57.148438 31.46875 -55.957031 31.46875 -54.5625 Z M 31.46875 -24.84375 "/></g></g></g><g fill="#e5b2f1" fill-opacity="1"><g transform="translate(636.765275, 522.289681)"><g><path d="M 28.15625 0 L 11.59375 0 C 10.195312 0 9.1875 -0.3125 8.5625 -0.9375 C 7.9375 -1.5625 7.625 -2.570312 7.625 -3.96875 L 7.625 -75.546875 C 7.625 -76.941406 7.9375 -77.953125 8.5625 -78.578125 C 9.1875 -79.203125 10.195312 -79.515625 11.59375 -79.515625 L 23.078125 -79.515625 C 24.484375 -79.515625 25.679688 -79.289062 26.671875 -78.84375 C 27.660156 -78.40625 28.632812 -77.632812 29.59375 -76.53125 L 51.015625 -52.015625 L 51.015625 -75.546875 C 51.015625 -76.941406 51.328125 -77.953125 51.953125 -78.578125 C 52.585938 -79.203125 53.601562 -79.515625 55 -79.515625 L 71.5625 -79.515625 C 72.957031 -79.515625 73.96875 -79.203125 74.59375 -78.578125 C 75.226562 -77.953125 75.546875 -76.941406 75.546875 -75.546875 L 75.546875 -3.96875 C 75.546875 -2.570312 75.226562 -1.5625 74.59375 -0.9375 C 73.96875 -0.3125 72.957031 0 71.5625 0 L 55 0 C 53.601562 0 52.585938 -0.3125 51.953125 -0.9375 C 51.328125 -1.5625 51.015625 -2.570312 51.015625 -3.96875 L 51.015625 -17.5625 L 32.140625 -40.421875 L 32.140625 -3.96875 C 32.140625 -2.570312 31.828125 -1.5625 31.203125 -0.9375 C 30.578125 -0.3125 29.5625 0 28.15625 0 Z M 28.15625 0 "/></g></g></g><g fill="#e5b2f1" fill-opacity="1"><g transform="translate(719.915913, 522.289681)"><g/></g></g><g fill="#e5b2f1" fill-opacity="1"><g transform="translate(744.761722, 522.289681)"><g><path d="M 9.828125 0 C 8.429688 0 7.421875 -0.3125 6.796875 -0.9375 C 6.171875 -1.5625 5.859375 -2.570312 5.859375 -3.96875 L 5.859375 -17.125 C 5.859375 -18.519531 6.171875 -19.53125 6.796875 -20.15625 C 7.421875 -20.78125 8.429688 -21.09375 9.828125 -21.09375 L 20.765625 -21.09375 L 20.765625 -58.203125 L 9.828125 -58.203125 C 8.429688 -58.203125 7.421875 -58.515625 6.796875 -59.140625 C 6.171875 -59.765625 5.859375 -60.773438 5.859375 -62.171875 L 5.859375 -75.546875 C 5.859375 -76.941406 6.171875 -77.953125 6.796875 -78.578125 C 7.421875 -79.203125 8.429688 -79.515625 9.828125 -79.515625 L 56.875 -79.515625 C 58.269531 -79.515625 59.28125 -79.203125 59.90625 -78.578125 C 60.53125 -77.953125 60.84375 -76.941406 60.84375 -75.546875 L 60.84375 -62.171875 C 60.84375 -60.773438 60.53125 -59.765625 59.90625 -59.140625 C 59.28125 -58.515625 58.269531 -58.203125 56.875 -58.203125 L 46.15625 -58.203125 L 46.15625 -21.09375 L 56.875 -21.09375 C 58.269531 -21.09375 59.28125 -20.78125 59.90625 -20.15625 C 60.53125 -19.53125 60.84375 -18.519531 60.84375 -17.125 L 60.84375 -3.96875 C 60.84375 -2.570312 60.53125 -1.5625 59.90625 -0.9375 C 59.28125 -0.3125 58.269531 0 56.875 0 Z M 9.828125 0 "/></g></g></g><g fill="#e5b2f1" fill-opacity="1"><g transform="translate(811.569351, 522.289681)"><g><path d="M 36.4375 -56.328125 L 31.25 -39.53125 L 48.59375 -39.53125 L 43.40625 -56.328125 C 43.101562 -56.984375 42.785156 -57.457031 42.453125 -57.75 C 42.128906 -58.050781 41.742188 -58.203125 41.296875 -58.203125 L 38.546875 -58.203125 C 38.097656 -58.203125 37.707031 -58.050781 37.375 -57.75 C 37.050781 -57.457031 36.738281 -56.984375 36.4375 -56.328125 Z M 30.15625 -3.96875 C 30.15625 -2.570312 29.835938 -1.5625 29.203125 -0.9375 C 28.578125 -0.3125 27.566406 0 26.171875 0 L 9.9375 0 C 8.539062 0 7.53125 -0.3125 6.90625 -0.9375 C 6.28125 -1.5625 5.96875 -2.570312 5.96875 -3.96875 L 5.96875 -33.125 C 5.96875 -35.332031 6.316406 -37.875 7.015625 -40.75 C 7.710938 -43.625 8.796875 -46.972656 10.265625 -50.796875 L 19.875 -75.875 C 20.320312 -77.125 21.003906 -78.039062 21.921875 -78.625 C 22.835938 -79.21875 24.035156 -79.515625 25.515625 -79.515625 L 55.21875 -79.515625 C 56.613281 -79.515625 57.769531 -79.21875 58.6875 -78.625 C 59.613281 -78.039062 60.296875 -77.125 60.734375 -75.875 L 70.34375 -50.796875 C 71.820312 -46.972656 72.910156 -43.625 73.609375 -40.75 C 74.304688 -37.875 74.65625 -35.332031 74.65625 -33.125 L 74.65625 -3.96875 C 74.65625 -2.570312 74.34375 -1.5625 73.71875 -0.9375 C 73.09375 -0.3125 72.082031 0 70.6875 0 L 54 0 C 52.53125 0 51.445312 -0.3125 50.75 -0.9375 C 50.050781 -1.5625 49.703125 -2.570312 49.703125 -3.96875 L 49.703125 -19.4375 L 30.15625 -19.4375 Z M 30.15625 -3.96875 "/></g></g></g><path stroke-linecap="butt" transform="matrix(0.75, 0, 0, 0.75, 278.998879, 250.789695)" fill="none" stroke-linejoin="miter" d="M 356.746305 361.999175 L 320.803595 361.999175 C 308.532761 361.999175 299.423385 359.54605 293.480677 354.629383 C 287.56401 349.717925 284.600468 342.155424 284.600468 331.947091 L 284.600468 286.186672 C 284.600468 275.978338 287.56401 268.395004 293.480677 263.431462 C 299.423385 258.473129 308.532761 255.993962 320.803595 255.993962 L 356.746305 255.993962 C 358.595263 255.993962 359.933805 256.410628 360.772347 257.24917 C 361.610888 258.087712 362.032763 259.431462 362.032763 261.275212 L 362.032763 279.103338 C 362.032763 280.97313 361.610888 282.327296 360.772347 283.165838 C 359.933805 283.983547 358.595263 284.389797 356.746305 284.389797 L 327.126512 284.389797 C 324.084845 284.389797 321.81922 285.014797 320.334845 286.259588 C 318.871303 287.483547 318.142136 289.31688 318.142136 291.759589 L 318.142136 326.806465 C 318.142136 329.254382 318.871303 331.051257 320.334845 332.202299 C 321.81922 333.327299 324.084845 333.889799 327.126512 333.889799 L 356.746305 333.889799 C 358.595263 333.889799 359.933805 334.306466 360.772347 335.145007 C 361.610888 335.962716 362.032763 337.306466 362.032763 339.171049 L 362.032763 356.717925 C 362.032763 358.561675 361.610888 359.905425 360.772347 360.743967 C 359.933805 361.582509 358.595263 361.999175 356.746305 361.999175 Z M 468.480685 334.176257 C 468.480685 338.681466 467.819227 342.780424 466.501519 346.473133 C 465.18381 350.1398 462.824435 353.275217 459.418185 355.8898 C 456.043185 358.499175 451.381726 360.535634 445.439018 361.999175 C 439.496309 363.462717 431.954642 364.191884 422.824433 364.191884 C 413.694224 364.191884 406.136932 363.462717 400.14214 361.999175 C 394.178598 360.535634 389.491098 358.499175 386.090056 355.8898 C 382.709848 353.275217 380.360889 350.1398 379.043181 346.473133 C 377.725473 342.780424 377.064014 338.681466 377.064014 334.176257 L 377.064014 283.957505 C 377.064014 279.452296 377.725473 275.368963 379.043181 271.702296 C 380.360889 268.009587 382.709848 264.832504 386.090056 262.176254 C 389.491098 259.514795 394.178598 257.452295 400.14214 255.993962 C 406.136932 254.504378 413.694224 253.764795 422.824433 253.764795 C 431.954642 253.764795 439.496309 254.504378 445.439018 255.993962 C 451.381726 257.452295 456.043185 259.514795 459.418185 262.176254 C 462.824435 264.832504 465.18381 268.009587 466.501519 271.702296 C 467.819227 275.368963 468.480685 279.452296 468.480685 283.957505 Z M 410.459849 328.858549 C 410.459849 330.822091 411.189016 332.473132 412.652558 333.816882 C 414.136933 335.134591 417.532766 335.796049 422.824433 335.796049 C 428.14735 335.796049 431.537975 335.134591 433.001517 333.816882 C 434.45985 332.473132 435.194225 330.822091 435.194225 328.858549 L 435.194225 289.280422 C 435.194225 287.41063 434.45985 285.81688 433.001517 284.499172 C 431.537975 283.155421 428.14735 282.483546 422.824433 282.483546 C 417.532766 282.483546 414.136933 283.155421 412.652558 284.499172 C 411.189016 285.81688 410.459849 287.41063 410.459849 289.280422 Z M 514.548396 361.999175 L 492.480687 361.999175 C 490.610895 361.999175 489.256728 361.582509 488.418186 360.743967 C 487.600478 359.905425 487.194228 358.561675 487.194228 356.717925 L 487.194228 261.275212 C 487.194228 259.431462 487.600478 258.087712 488.418186 257.24917 C 489.256728 256.410628 490.610895 255.993962 492.480687 255.993962 L 507.793187 255.993962 C 509.662979 255.993962 511.256729 256.290837 512.574438 256.889795 C 513.892146 257.46792 515.199438 258.483545 516.491105 259.947087 L 545.032773 292.655422 L 545.032773 261.275212 C 545.032773 259.431462 545.454648 258.087712 546.293189 257.24917 C 547.131731 256.410628 548.485898 255.993962 550.35569 255.993962 L 572.423399 255.993962 C 574.293191 255.993962 575.647358 256.410628 576.485899 257.24917 C 577.324441 258.087712 577.746316 259.431462 577.746316 261.275212 L 577.746316 356.717925 C 577.746316 358.561675 577.324441 359.905425 576.485899 360.743967 C 575.647358 361.582509 574.293191 361.999175 572.423399 361.999175 L 550.35569 361.999175 C 548.485898 361.999175 547.131731 361.582509 546.293189 360.743967 C 545.454648 359.905425 545.032773 358.561675 545.032773 356.717925 L 545.032773 338.598133 L 519.871313 308.113756 L 519.871313 356.717925 C 519.871313 358.561675 519.449438 359.905425 518.610896 360.743967 C 517.772355 361.582509 516.418188 361.999175 514.548396 361.999175 Z M 634.136944 361.999175 C 632.267152 361.999175 630.912985 361.582509 630.074444 360.743967 C 629.235902 359.905425 628.819235 358.561675 628.819235 356.717925 L 628.819235 339.171049 C 628.819235 337.306466 629.235902 335.962716 630.074444 335.145007 C 630.912985 334.306466 632.267152 333.889799 634.136944 333.889799 L 648.694236 333.889799 L 648.694236 284.389797 L 634.136944 284.389797 C 632.267152 284.389797 630.912985 283.983547 630.074444 283.165838 C 629.235902 282.327296 628.819235 280.97313 628.819235 279.103338 L 628.819235 261.275212 C 628.819235 259.431462 629.235902 258.087712 630.074444 257.24917 C 630.912985 256.410628 632.267152 255.993962 634.136944 255.993962 L 696.829655 255.993962 C 698.699447 255.993962 700.053614 256.410628 700.892155 257.24917 C 701.730697 258.087712 702.152572 259.431462 702.152572 261.275212 L 702.152572 279.103338 C 702.152572 280.97313 701.730697 282.327296 700.892155 283.165838 C 700.053614 283.983547 698.699447 284.389797 696.829655 284.389797 L 682.558821 284.389797 L 682.558821 333.889799 L 696.829655 333.889799 C 698.699447 333.889799 700.053614 334.306466 700.892155 335.145007 C 701.730697 335.962716 702.152572 337.306466 702.152572 339.171049 L 702.152572 356.717925 C 702.152572 358.561675 701.730697 359.905425 700.892155 360.743967 C 700.053614 361.582509 698.699447 361.999175 696.829655 361.999175 Z M 758.694242 286.905422 L 751.756741 309.301256 L 774.871326 309.301256 L 767.970284 286.905422 C 767.564034 286.020005 767.131742 285.384588 766.673409 284.999172 C 766.241117 284.592922 765.741117 284.389797 765.162992 284.389797 L 761.496325 284.389797 C 760.897367 284.389797 760.371325 284.592922 759.9182 284.999172 C 759.485908 285.384588 759.079658 286.020005 758.694242 286.905422 Z M 750.282783 356.717925 C 750.282783 358.561675 749.866116 359.905425 749.022366 360.743967 C 748.209866 361.582509 746.866116 361.999175 744.996324 361.999175 L 723.360907 361.999175 C 721.491115 361.999175 720.136948 361.582509 719.298406 360.743967 C 718.459865 359.905425 718.03799 358.561675 718.03799 356.717925 L 718.03799 317.82209 C 718.03799 314.874173 718.50674 311.493965 719.439031 307.681464 C 720.376531 303.848131 721.824448 299.379381 723.78799 294.275214 L 736.584866 260.84292 C 737.183824 259.165837 738.095282 257.947087 739.319241 257.176253 C 740.543199 256.384587 742.136949 255.993962 744.100491 255.993962 L 783.715076 255.993962 C 785.584868 255.993962 787.126535 256.384587 788.350493 257.176253 C 789.574452 257.947087 790.48591 259.165837 791.084868 260.84292 L 803.881744 294.275214 C 805.845286 299.379381 807.293202 303.848131 808.230703 307.681464 C 809.162994 311.493965 809.631744 314.874173 809.631744 317.82209 L 809.631744 356.717925 C 809.631744 358.561675 809.215078 359.905425 808.371328 360.743967 C 807.532786 361.582509 806.178619 361.999175 804.314036 361.999175 L 782.095285 361.999175 C 780.131743 361.999175 778.683826 361.582509 777.746326 360.743967 C 776.814034 359.905425 776.345284 358.561675 776.345284 356.717925 L 776.345284 336.082507 L 750.282783 336.082507 Z M 750.282783 356.717925 " stroke="#000000" stroke-width="6.442012" stroke-opacity="1" stroke-miterlimit="4"/></svg>